<svg xmlns="http://www.w3.org/2000/svg" viewBox="0 0 510.24 179.62"><defs><style>.cls-1{fill:none;}.cls-2{fill:#231815;}</style></defs><title>アセット 1</title><g id="レイヤー_2" data-name="レイヤー 2"><g id="logo"><rect class="cls-1" width="510.24" height="179.62"/><path class="cls-2" d="M90.84,48h15.77a1.5,1.5,0,0,1,1.5,1.5v8.26a1.5,1.5,0,0,1-1.5,1.5H90.84a1.5,1.5,0,0,1-1.5-1.5V49.55A1.5,1.5,0,0,1,90.84,48Zm75.08-25.53h-9a1.5,1.5,0,0,0-1.5,1.5V62.67L137.48,24.26a3,3,0,0,0-2.72-1.73h-9.38a3,3,0,0,0-3,3V84.08a1.5,1.5,0,0,0,1.5,1.5h9a1.5,1.5,0,0,0,1.5-1.5V45.44l17.92,38.41A3,3,0,0,0,155,85.59h9.38a3,3,0,0,0,3-3V24A1.5,1.5,0,0,0,165.92,22.52ZM225.23,48a1.5,1.5,0,0,1,1.5,1.5v8.26a1.5,1.5,0,0,1-1.5,1.5H209.46a1.5,1.5,0,0,1-1.5-1.5V49.55a1.5,1.5,0,0,1,1.5-1.5ZM229,75.83v8.26a1.5,1.5,0,0,1-1.5,1.5h-30a6.76,6.76,0,0,1-6.76-6.76V29.28a6.76,6.76,0,0,1,6.76-6.76h33.78l-5.37,10.07a2.25,2.25,0,0,1-2,1.19H204.21V74.32h23.27A1.5,1.5,0,0,1,229,75.83Zm48.87-21.77,16.82-31.53H281.09a2.25,2.25,0,0,0-2,1.3l-8.78,18.81-8.78-18.81a2.25,2.25,0,0,0-2-1.3H248.37a1.5,1.5,0,0,0-1.32,2.21l15.64,29.32L247.05,83.38a1.5,1.5,0,0,0,1.32,2.21h11.08a2.25,2.25,0,0,0,2-1.3l8.78-18.81L279,84.29a2.25,2.25,0,0,0,2,1.3h11.08a1.5,1.5,0,0,0,1.32-2.21Zm33-31.53a1.5,1.5,0,0,0-1.5,1.5v8.26a1.5,1.5,0,0,0,1.5,1.5h12.76v50.3a1.5,1.5,0,0,0,1.5,1.5h10.51a1.5,1.5,0,0,0,1.5-1.5V33.78H347a2.25,2.25,0,0,0,2-1.19l5.37-10.07Zm-237.24,0H63.06a1.5,1.5,0,0,0-1.5,1.5V64.56c0,6.47-3,9.76-9,9.76s-9-3.29-9-9.76V24a1.5,1.5,0,0,0-1.5-1.5H31.53A1.5,1.5,0,0,0,30,24V64.56c0,14.93,7.6,22.52,22.52,22.52s22.52-7.6,22.52-22.52V24A1.5,1.5,0,0,0,73.57,22.52Z"/><path class="cls-2" d="M56.88,146,38.25,109.21H30V157.1h3.54v-40L54,157.1h1.65l19.9-39.77V157.1h8.08V109.21H75.55Zm60-37.85-23.07,49h4L105.44,141v.07h20.49l7.36,16h8.18l-22.55-49ZM106.86,138l8.92-18.94L124.5,138Zm135.89-28.81h-5.67l-24.75,20.86V109.21h-8V157.1h8v-22.8l25,22.8h10.24l-29.55-27Zm22.63,23.72H287.3v-3.09H265.38V112.3h24.41v-3.09H257.34V157.1H291V154H265.38Zm34-20.63h17.36V157.1h8V112.3h17.33v-3.09H299.36Zm54.16,44.79h8V109.21h-8Zm61.56-12.55-31.7-35.34h-4.5V157.1h3.54V118.89l34.34,39.34h1.86v-49h-3.54Zm43.9-12v2.85h13.18v16c-2.05,2.24-4.78,4.13-10.66,4.13-12.35,0-20.28-9.31-20.28-22,0-13.19,7.35-22,19.08-22a16.92,16.92,0,0,1,14.78,8.92l3.48-2.27c-3.23-6.16-11.24-10.08-19.87-10.08-14.2,0-26.88,10.28-26.88,25.41s13.31,24.72,27.43,24.72c8.94,0,14.55-1.17,21-4.64V132.52ZM188.52,121.69c0-7.47-6.16-12.48-17.36-12.48H152.52V157.1h8V134.58h5.59l16.69,22.52h9.32l-17.27-23C185,132.42,188.52,126.93,188.52,121.69Zm-28,10.49v-20h9.15c5.82,0,10.11,4,10.11,9.76,0,6.28-5.55,10.21-12.55,10.21Z"/></g></g></svg>