<svg id="レイヤー_1" data-name="レイヤー 1" xmlns="http://www.w3.org/2000/svg" viewBox="0 0 414 86"><defs><style>.cls-1{fill:#0080de;}</style></defs><title>U-NEXT</title><path class="cls-1" d="M160.06,36.75h15.21a1.45,1.45,0,0,1,1.45,1.45v8a1.44,1.44,0,0,1-1.45,1.44H160.06a1.43,1.43,0,0,1-1.44-1.44v-8A1.44,1.44,0,0,1,160.06,36.75Zm72.43-24.63H223.8a1.45,1.45,0,0,0-1.45,1.45V50.85l-17.29-37a2.91,2.91,0,0,0-2.63-1.68h-9.05a2.9,2.9,0,0,0-2.9,2.9V71.51A1.45,1.45,0,0,0,191.93,73h8.69a1.45,1.45,0,0,0,1.45-1.45V34.24l17.29,37.05A2.9,2.9,0,0,0,222,73h9a2.89,2.89,0,0,0,2.9-2.89V13.57A1.45,1.45,0,0,0,232.49,12.12Zm57.22,24.63a1.45,1.45,0,0,1,1.45,1.45v8a1.44,1.44,0,0,1-1.45,1.44H274.5a1.44,1.44,0,0,1-1.45-1.44v-8a1.45,1.45,0,0,1,1.45-1.45Zm3.62,26.8v8A1.45,1.45,0,0,1,291.88,73h-29a6.52,6.52,0,0,1-6.52-6.52V18.64a6.52,6.52,0,0,1,6.52-6.52H295.5l-5.18,9.72A2.17,2.17,0,0,1,288.4,23h-19V62.1h22.45A1.45,1.45,0,0,1,293.33,63.55Zm47.15-21L356.7,12.12H343.6a2.18,2.18,0,0,0-2,1.26l-8.47,18.14L324.7,13.38a2.18,2.18,0,0,0-2-1.26H312a1.45,1.45,0,0,0-1.28,2.13l15.09,28.29L310.76,70.83A1.45,1.45,0,0,0,312,73h10.69a2.19,2.19,0,0,0,2-1.25l8.46-18.15,8.47,18.15a2.19,2.19,0,0,0,2,1.25h10.69a1.45,1.45,0,0,0,1.28-2.13Zm31.8-30.42a1.45,1.45,0,0,0-1.45,1.45v8A1.45,1.45,0,0,0,372.28,23h12.31V71.51A1.45,1.45,0,0,0,386,73h10.14a1.44,1.44,0,0,0,1.44-1.45V23h9.56a2.17,2.17,0,0,0,1.92-1.15l5.18-9.72Zm-228.87,0H133.27a1.45,1.45,0,0,0-1.45,1.45V52.68c0,6.24-2.93,9.42-8.69,9.42s-8.7-3.18-8.7-9.42V13.57A1.44,1.44,0,0,0,113,12.12H102.85a1.45,1.45,0,0,0-1.45,1.45V52.68c0,14.4,7.33,21.73,21.73,21.73s21.72-7.33,21.72-21.73V13.57A1.44,1.44,0,0,0,143.41,12.12ZM63.74,0c-.3,0-.58,0-.87,0l-55,5.51A8.69,8.69,0,0,0,0,14.2V49.79a36.22,36.22,0,0,0,72.43,0V8.69A8.69,8.69,0,0,0,63.74,0Zm1.44,49.79a29,29,0,0,1-57.94,0V14.16a1.45,1.45,0,0,1,1.31-1.44l55-5.51a1.46,1.46,0,0,1,1.59,1.45Zm-47.07,0a18.11,18.11,0,0,0,36.21,0V17.92L18.11,21.54Z"/></svg>
