<svg xmlns="http://www.w3.org/2000/svg" viewBox="0 0 195.21 76.03">
  <defs>
    <style>.cls-1{fill:#ae1119;}</style>
  </defs>
  <title>logo</title>
  <path class="cls-1" d="M117.28,0,90.62,70,68.12,0H58.39L32.16,68.8,17.5,0H0S-.26,1.66.92,2.11c2.49,1.38,7-.94,9.48,8.75l13.78,65h9.49l0-.07L60.43,5.6,83,75.89h9.5L121.45,0Z"/>
  <path class="cls-1" d="M136.19,43.37l-1.12,1.07a8.77,8.77,0,0,0-2.67-1.81,7.11,7.11,0,0,0-2.84-.62,6.8,6.8,0,0,0-3.25.83,6.18,6.18,0,0,0-2.41,2.26,5.81,5.81,0,0,0,0,6.13,6.2,6.2,0,0,0,2.44,2.32,7.06,7.06,0,0,0,3.41.84,5.93,5.93,0,0,0,3.81-1.26,4.91,4.91,0,0,0,1.85-3.24h-4.65V48.48h6.28a7.28,7.28,0,0,1-2,5.34,7.19,7.19,0,0,1-5.31,2,8,8,0,0,1-6.39-2.74,7.25,7.25,0,0,1-1.8-4.87,7.46,7.46,0,0,1,1-3.83,7.31,7.31,0,0,1,2.84-2.76,8.27,8.27,0,0,1,4.09-1,9,9,0,0,1,3.48.67A10.47,10.47,0,0,1,136.19,43.37Z"/>
  <path class="cls-1" d="M143.84,42.35a6.45,6.45,0,0,1,2.16.25,2.24,2.24,0,0,1,1,.86,2.33,2.33,0,0,1,.39,1.33,2.41,2.41,0,0,1-.39,1.37A2.19,2.19,0,0,1,146,47a6.24,6.24,0,0,1-2.17.28l-2.52,0V42.35Zm-4,13.11h1.45V48.7h.79l5.21,6.76h1.82l-5.21-6.76a7.43,7.43,0,0,0,2.88-.46,3.48,3.48,0,0,0,1.61-1.36,3.88,3.88,0,0,0,.56-2.08,3.58,3.58,0,0,0-.81-2.39A3.76,3.76,0,0,0,146,41.13a18,18,0,0,0-3.29-.19h-2.9Z"/>
  <path class="cls-1" d="M160.42,49.28h-5L157.94,44Zm-2.62-8.34-6.86,14.52h1.6l2.24-4.77h6.31l2.24,4.77h1.59l-6.79-14.52Z"/>
  <path class="cls-1" d="M167.6,55.47V41h.31L177.59,52V40.94H179V55.47h-.32l-9.66-11v11Z"/>
  <path class="cls-1" d="M184.35,42.35h1a17,17,0,0,1,4.49.41,5.19,5.19,0,0,1,2.84,2,6.29,6.29,0,0,1,1,3.59,5.92,5.92,0,0,1-.93,3.38,4.8,4.8,0,0,1-2.59,1.9A15.12,15.12,0,0,1,186,54h-1.68Zm3.23,13.11a9.4,9.4,0,0,0,4.23-.79,6.16,6.16,0,0,0,2.46-2.45,7.62,7.62,0,0,0,.94-3.84A7.71,7.71,0,0,0,194,44a6.26,6.26,0,0,0-3.31-2.57,15.4,15.4,0,0,0-4.74-.52h-3V55.46Z"/>
  <path class="cls-1" d="M121.67,61.17h1.45V74.28h5.59v1.4h-7Z"/>
  <path class="cls-1" d="M139.81,69.51h-5l2.49-5.27Zm-2.62-8.34-6.86,14.51h1.6l2.24-4.75h6.3l2.24,4.75h1.6l-6.78-14.51Z"/>
  <path class="cls-1" d="M158.7,63.87l-1.14.89a6.28,6.28,0,0,0-2.27-1.88,6.58,6.58,0,0,0-2.92-.64,6.38,6.38,0,0,0-3.21.83,5.92,5.92,0,0,0-2.29,2.23,6.12,6.12,0,0,0-.81,3.14,5.85,5.85,0,0,0,1.81,4.41,6.3,6.3,0,0,0,4.59,1.78,6.46,6.46,0,0,0,5.1-2.41l1.14.87A7.41,7.41,0,0,1,156,75.27a8.34,8.34,0,0,1-3.61.76,7.57,7.57,0,0,1-6-2.53,7.7,7.7,0,0,1-1.84-5.15A7.14,7.14,0,0,1,146.8,63a7.66,7.66,0,0,1,5.57-2.17,8.1,8.1,0,0,1,3.66.8A7.1,7.1,0,0,1,158.7,63.87Z"/>
  <path class="cls-1" d="M161.78,61.17h8.31v1.42h-6.85v4.56H170v1.41h-6.77v5.72H170v1.4h-8.23Z"/>
  <path class="cls-1" d="M178.59,62.59a6.49,6.49,0,0,1,2.16.25A2.32,2.32,0,0,1,182.19,65a2.47,2.47,0,0,1-.39,1.37,2.19,2.19,0,0,1-1.09.88,6.21,6.21,0,0,1-2.17.28H176v-5Zm-4,13.09H176V68.94h.78L182,75.68h1.82l-5.21-6.74a7.39,7.39,0,0,0,2.88-.46,3.57,3.57,0,0,0,1.62-1.36,3.87,3.87,0,0,0,.55-2.08,3.56,3.56,0,0,0-.81-2.4,3.74,3.74,0,0,0-2.11-1.27,17.65,17.65,0,0,0-3.28-.2h-2.9Z"/>
  <path class="cls-1" d="M186.81,61.17h8.31v1.42h-6.86v4.56H195v1.41h-6.78v5.72H195v1.4h-8.23Z"/>
</svg>