<?xml version="1.0" encoding="utf-8"?>
<!-- Generator: Adobe Illustrator 24.0.1, SVG Export Plug-In . SVG Version: 6.00 Build 0)  -->
<svg version="1.1" id="Layer_1" xmlns="http://www.w3.org/2000/svg" xmlns:xlink="http://www.w3.org/1999/xlink" x="0px" y="0px"
	 viewBox="0 0 180 180" style="enable-background:new 0 0 180 180;" xml:space="preserve">
<style type="text/css">
	.st0{fill:#FFFFFF;}
</style>
<g>
	<g>
		<path class="st0" d="M45.5,141h-8.2l-14.1-19.5L9,141H0.8l18.2-25.1L2.3,92.8h8.2l12.7,17.5l12.7-17.5h8.2l-16.8,23.1L45.5,141z
			 M88.1,127.3c0,4.2-1.4,7.6-4.2,10c-2.8,2.4-6.8,3.7-12,3.7H49.4v-21.5H38.6l4.5-6.2h6.3V92.8H71c4.9,0,8.6,1.2,11.2,3.5
			c2.6,2.3,3.9,5.4,3.9,9.1c0,4.6-2.1,8.2-6.3,10.5c2.7,1,4.7,2.6,6.1,4.5C87.4,122.3,88.1,124.7,88.1,127.3z M56.7,113.4h13.8
			c2.8,0,4.9-0.6,6.3-1.9c1.4-1.2,2.1-3.1,2.1-5.6c0-2.1-0.7-3.8-2.2-5c-1.4-1.2-3.5-1.8-6.2-1.8H56.7V113.4z M80.7,127.1
			c0-2.5-0.8-4.5-2.3-5.7c-1.5-1.3-3.8-1.9-6.8-1.9H56.7v15.1h14.8c2.9,0,5.2-0.7,6.8-1.9C79.9,131.4,80.7,129.5,80.7,127.1z
			 M137.7,116.9c0,3.7-0.5,7.2-1.6,10.2c-1.1,3-2.7,5.7-4.8,8c-2.2,2.3-4.7,4.1-7.5,5.2c-2.8,1.2-6,1.7-9.6,1.7
			c-3.5,0-6.8-0.6-9.6-1.7c-2.8-1.2-5.3-2.9-7.5-5.2c-2.2-2.3-3.8-5-4.9-8c-1.1-3-1.6-6.5-1.6-10.2c0-3.7,0.5-7.2,1.6-10.2
			c1.1-3,2.7-5.8,4.9-8.1c2.1-2.3,4.6-4,7.5-5.2c2.8-1.1,6.1-1.7,9.6-1.7c3.5,0,6.7,0.6,9.6,1.7c2.8,1.1,5.4,2.9,7.5,5.2
			c2.1,2.3,3.8,5.1,4.8,8.1C137.1,109.7,137.7,113.1,137.7,116.9z M98.2,116.9c0,5.7,1.5,10.2,4.4,13.5c2.9,3.3,6.7,5,11.6,5
			c4.8,0,8.7-1.7,11.6-5l0,0c2.9-3.3,4.3-7.8,4.3-13.5c0-5.7-1.4-10.3-4.3-13.6c-2.9-3.3-6.8-5-11.6-5c-4.8,0-8.7,1.7-11.6,5
			C99.7,106.7,98.2,111.2,98.2,116.9z M160.9,115.9l16.8-23.1h-8.2l-12.7,17.5l-12.7-17.5h-8.2l16.8,23.1L134.5,141h8.2l14.1-19.5
			L171,141h8.2L160.9,115.9z"/>
		<path class="st0" d="M90,32.2c0,0,0.1,0,0.1,0.1c12,9.1,32.5,31.7,26.3,38.1c-7.1,6.2-16.3,9.9-26.4,9.9s-19.4-3.7-26.4-9.9
			c-6.3-6.4,14.3-29,26.3-38.1C89.9,32.2,90,32.2,90,32.2z M110.9,5.9C104.8,2.2,98.1,0,90,0S75.2,2.2,69.1,5.9C69,5.9,69,6,69,6.1
			c0,0.1,0.1,0.1,0.2,0.1c7.8-1.7,19.6,5,20.7,5.7c0,0,0.1,0,0.1,0s0.1,0,0.1,0c1.1-0.7,12.9-7.4,20.7-5.7c0.1,0,0.2,0,0.2-0.1
			C111,6,111,5.9,110.9,5.9z M61.9,11.5c-0.1,0-0.1,0.1-0.2,0.1C54.4,18.9,49.9,29,49.9,40.1c0,9.1,3.1,17.6,8.2,24.3
			c0,0.1,0.1,0.1,0.2,0.1c0.1,0,0.1-0.1,0-0.2c-3.1-9.5,12.6-32.4,20.7-42c0,0,0.1-0.1,0.1-0.1c0-0.1,0-0.1-0.1-0.1
			C66.7,9.9,62.6,11.2,61.9,11.5z M101,22c0,0-0.1,0.1-0.1,0.1c0,0,0,0.1,0.1,0.1c8.1,9.6,23.7,32.5,20.7,42c0,0.1,0,0.2,0,0.2
			c0.1,0,0.2,0,0.2-0.1c5.1-6.7,8.2-15.2,8.2-24.3c0-11.1-4.5-21.2-11.9-28.5c-0.1-0.1-0.1-0.1-0.2-0.1C117.4,11.2,113.3,9.9,101,22
			z"/>
	</g>
	<g>
		<polygon class="st0" points="51.2,162.9 51.2,160.3 37.5,160.3 37.5,179.6 51.2,179.6 51.2,176.9 40.4,176.9 40.4,171 50,171 
			50,168.5 40.4,168.5 40.4,162.9 		"/>
		<path class="st0" d="M28.1,170.6c-1-0.9-2.6-1.6-4.8-2l-1.7-0.4c-1.6-0.3-2.7-0.8-3.3-1.2c-0.6-0.4-0.9-1.1-0.9-2
			c0-0.9,0.3-1.5,1-2c0.7-0.5,1.6-0.7,2.9-0.7c1.6,0,2.8,0.3,3.5,0.9c0.7,0.6,1.1,1.5,1.2,2.7l0,0H29l0,0c0-1.9-0.7-3.4-2-4.5
			c-1.3-1.1-3.2-1.6-5.7-1.6c-2.1,0-3.8,0.5-5,1.4c-1.2,0.9-1.8,2.2-1.8,3.8c0,1.6,0.5,2.8,1.5,3.7c1,0.9,2.5,1.6,4.5,2l1.6,0.4
			c1.6,0.4,2.8,0.8,3.4,1.2c0.6,0.5,0.9,1.1,0.9,1.9c0,1-0.4,1.8-1.1,2.4c-0.8,0.5-1.9,0.8-3.3,0.8c-1.7,0-3-0.4-3.9-1.1
			c-0.9-0.7-1.3-1.8-1.3-3.2l0,0H14l0,0c0,2.2,0.7,3.9,2.2,5.1c1.4,1.2,3.4,1.7,5.9,1.7c2.3,0,4.2-0.5,5.5-1.5c1.3-1,2-2.5,2-4.2
			C29.6,172.7,29.1,171.5,28.1,170.6z"/>
		<path class="st0" d="M74.4,177.2l-0.2-3c0-1.1-0.3-1.9-0.7-2.6c-0.4-0.6-1.1-1.1-2-1.3c1-0.3,1.8-0.9,2.3-1.7
			c0.6-0.8,0.9-1.8,0.9-3c0-1.7-0.6-3-1.8-3.9c-1.2-0.9-2.8-1.4-4.9-1.4h-8.4v19.3h2.9v-7.9h5.6c1.1,0,1.9,0.3,2.4,0.8
			c0.5,0.5,0.8,1.4,0.8,2.6l0.1,2.1c0,1.1,0.2,1.9,0.6,2.5l0,0h3l0,0C74.7,179,74.5,178.2,74.4,177.2z M62.6,162.8h5.3
			c1.2,0,2.2,0.3,2.8,0.8c0.6,0.5,1,1.3,1,2.3c0,1-0.3,1.9-0.9,2.4c-0.6,0.6-1.5,0.9-2.6,0.9h-5.5V162.8z"/>
		<rect x="83.4" y="160.3" class="st0" width="2.9" height="19.3"/>
		<polygon class="st0" points="109.8,162.9 109.8,160.3 96,160.3 96,179.6 109.8,179.6 109.8,176.9 98.9,176.9 98.9,171 108.5,171 
			108.5,168.5 98.9,168.5 98.9,162.9 		"/>
		<path class="st0" d="M131.8,170.6c-1-0.9-2.6-1.6-4.8-2l-1.7-0.4c-1.6-0.3-2.7-0.8-3.3-1.2c-0.6-0.4-0.9-1.1-0.9-2
			c0-0.9,0.3-1.5,1-2c0.7-0.5,1.6-0.7,2.9-0.7c1.6,0,2.8,0.3,3.5,0.9c0.7,0.6,1.1,1.5,1.2,2.7l0,0h2.9l0,0c0-1.9-0.7-3.4-2-4.5
			c-1.3-1.1-3.2-1.6-5.7-1.6c-2.1,0-3.8,0.5-5,1.4c-1.2,0.9-1.8,2.2-1.8,3.8c0,1.6,0.5,2.8,1.5,3.7c1,0.9,2.5,1.6,4.5,2l1.6,0.4
			c1.6,0.4,2.8,0.8,3.4,1.2c0.6,0.5,0.9,1.1,0.9,1.9c0,1-0.4,1.8-1.1,2.4c-0.8,0.5-1.9,0.8-3.3,0.8c-1.7,0-3-0.4-3.9-1.1
			c-0.9-0.7-1.3-1.8-1.3-3.2l0,0h-2.9l0,0c0,2.2,0.7,3.9,2.2,5.1c1.4,1.2,3.4,1.7,5.9,1.7c2.3,0,4.2-0.5,5.5-1.5c1.3-1,2-2.5,2-4.2
			C133.3,172.7,132.8,171.5,131.8,170.6z"/>
	</g>
	<g>
		<polygon class="st0" points="158.5,169.5 165.2,160.3 161.9,160.3 156.8,167.3 151.8,160.3 148.5,160.3 155.2,169.5 147.9,179.6 
			151.2,179.6 156.8,171.8 162.5,179.6 165.8,179.6 		"/>
	</g>
</g>
</svg>
