<svg xmlns="http://www.w3.org/2000/svg" xmlns:xlink="http://www.w3.org/1999/xlink" width="3124" height="1805" viewBox="0 0 3124 1805">
  <defs>
    <radialGradient id="intro-x-main-a" cy="13.403%" r="75.396%" fx="50%" fy="13.403%" gradientTransform="matrix(0 1 -.67255 0 .59 -.366)">
      <stop offset="0%" stop-color="#FF71B5"/>
      <stop offset="100%" stop-color="#382B43" stop-opacity="0"/>
    </radialGradient>
    <linearGradient id="intro-x-main-c" x1="50%" x2="50%" y1="-13.182%" y2="31.094%">
      <stop offset="0%" stop-color="#86E9FF"/>
      <stop offset="100%" stop-color="#F8539F" stop-opacity="0"/>
    </linearGradient>
    <path id="intro-x-main-b" d="M1575.31385,666.722795 L2305.79729,15.2219271 C2316.78979,5.41797919 2331.00449,4.43242225e-13 2345.73379,4.40536496e-13 L3103.21357,-4.97379915e-13 C3114.25926,-2.4433473e-13 3123.21357,8.954305 3123.21357,20 C3123.21357,25.7006843 3120.78089,31.1304567 3116.52671,34.925157 L1995.19072,1035.14931 C1986.94779,1042.50196 1986.22606,1055.14467 1993.57871,1063.38761 C1994.08466,1063.95483 1994.62255,1064.49275 1995.18973,1064.99874 L3116.21087,2065.07573 C3124.45332,2072.42892 3125.1742,2085.07168 3117.82101,2093.31413 C3114.02634,2097.56771 3108.59696,2100 3102.89674,2100 L2330.40083,2100 C2325.49141,2100 2320.7535,2098.19427 2317.08943,2094.92671 L1575.31412,1433.42317 C1567.7278,1426.65781 1556.27349,1426.6589 1548.68846,1433.42571 L807.204254,2094.92416 C803.539826,2098.1933 798.800731,2100 793.889999,2100 L21.1238964,2100 C10.0782014,2100 1.12389636,2091.04569 1.12389636,2080 C1.12389636,2074.29984 3.55613008,2068.87052 7.80963323,2065.07585 L1128.81086,1064.99876 C1137.05324,1057.64549 1137.77401,1045.00272 1130.42075,1036.76034 C1129.91479,1036.1932 1129.37691,1035.65537 1128.80973,1035.14945 L7.47360024,34.925157 C-0.769336363,27.572513 -1.4910611,14.9297969 5.86158292,6.68686031 C9.65628322,2.43267993 15.0860557,8.15262607e-15 20.7867399,7.10542736e-15 L778.437064,-6.39488462e-14 C793.168723,-9.28236922e-14 807.385528,5.41970863 818.378667,15.2264767 L1548.68781,666.721279 C1556.27316,673.488023 1567.72773,673.488675 1575.31385,666.722795 Z"/>
  </defs>
  <g fill="none" fill-rule="evenodd">
    <use fill="url(#intro-x-main-a)" xlink:href="#intro-x-main-b"/>
    <use fill="url(#intro-x-main-c)" xlink:href="#intro-x-main-b"/>
  </g>
</svg>
