<svg xmlns="http://www.w3.org/2000/svg" viewBox="0 0 150.1 25.63"><g data-name="レイヤー 2"><path d="M58.91 10.25A10.25 10.25 0 1 1 48.66 0a10.24 10.24 0 0 1 10.25 10.25m-10.24-7c-3.57 0-6.06 2.62-6.06 7s2.49 7 6.06 7 6-2.62 6-7-2.38-7-6-7M2.66 25.63A8.72 8.72 0 0 1 0 25.19l.81-2.84a4.06 4.06 0 0 0 1.65.17c2 0 2.24-1.54 2.24-3.91V.22h3.81v19.21c0 3.72-1.48 6.2-5.85 6.2m12.02-9.48a2.17 2.17 0 1 1 2.1-2.15 2.12 2.12 0 0 1-2.1 2.15m0-7.04A2.12 2.12 0 0 1 12.56 7a2.11 2.11 0 1 1 4.22 0 2.12 2.12 0 0 1-2.1 2.16m63.88 11V8.28c0-.73 0-1.37.06-2.15a14.75 14.75 0 0 1-1.2 2.05l-4.11 6.43h-1.84L67 8.09a10.28 10.28 0 0 1-1.21-2h-.07c.07.82.07 1.45.07 2.05v12h-3.68V.19h3.43l5.51 8a23.21 23.21 0 0 1 1.33 2.13h.06a17 17 0 0 1 1.25-2.22L78.77.19h3.46v20zm-48.44.54c-6.51 0-10.2-4.45-10.2-10.08S24.22.23 31 .23a11.88 11.88 0 0 1 5.2 1.06l-.12 3.4a8.89 8.89 0 0 0-4.89-1.35c-4.89 0-7 3.42-7 7 0 4 2.56 7.12 6.66 7.12a10.65 10.65 0 0 0 5.15-1.4l.87 2.61a12.44 12.44 0 0 1-6.77 2m79.44-.53h3.28V.28h-3.7v13.47L98.86.28h-3.6v19.86h3.7V6.25l10.58 13.89zm6.31 0h14.93v-3.26h-11.2v-5.12h9.72V8.51h-9.72V3.54h11.05V.28h-14.78v19.86zm24.21 0h3.76V3.69h6.28V.28h-16.32v3.41h6.28v16.45z" fill="#0086cd" data-name="レイヤー 1"/></g></svg>