<svg xmlns="http://www.w3.org/2000/svg" viewBox="0 0 154.54 39.04"><defs><style>.cls-1{fill:#231815;}.cls-2{fill:#e50012;}</style></defs><title>logo</title><g id="レイヤー_2" data-name="レイヤー 2"><g id="制作"><path class="cls-1" d="M154.54,26a8.8,8.8,0,0,1-9.15,9.11,9,9,0,0,1-6.56-2.53,8.69,8.69,0,0,1-2.59-6.51,8.78,8.78,0,0,1,2.61-6.56,9.06,9.06,0,0,1,6.62-2.55A8.89,8.89,0,0,1,152,19.47,8.77,8.77,0,0,1,154.54,26Zm-4.95-.11a6.16,6.16,0,0,0-1-3.42,3.49,3.49,0,0,0-3-1.64,3.93,3.93,0,0,0-3.31,1.6A5.72,5.72,0,0,0,141.19,26a6.15,6.15,0,0,0,1,3.53,3.62,3.62,0,0,0,3.13,1.67,3.79,3.79,0,0,0,3.23-1.71A6.24,6.24,0,0,0,149.59,25.87ZM135,25.42a9.86,9.86,0,0,1-2.41,6.81,9,9,0,0,1-12.55.55,7.71,7.71,0,0,1-2.4-5.87V9h4.94v9a5.61,5.61,0,0,1,4-1.6A7.79,7.79,0,0,1,132.73,19,9.43,9.43,0,0,1,135,25.42Zm-4.9.15a6.48,6.48,0,0,0-1-3.53,3.41,3.41,0,0,0-3-1.82,3.11,3.11,0,0,0-2.53,1.24,4.37,4.37,0,0,0-1,2.81l0,1.63c0,2.63.65,4.29,2,5a3.37,3.37,0,0,0,1.56.41,3.42,3.42,0,0,0,3-2A7.22,7.22,0,0,0,130.06,25.57Zm-14.72,1.34A7.73,7.73,0,0,1,113,32.78a9.06,9.06,0,0,1-12.57-.55A9.87,9.87,0,0,1,98,25.42a9.47,9.47,0,0,1,2.31-6.49,7.76,7.76,0,0,1,6.14-2.62,5.57,5.57,0,0,1,4,1.6V16.76h4.91Zm-4.91-1.27V24.27a4.36,4.36,0,0,0-1-2.81,3.11,3.11,0,0,0-2.53-1.24,3.37,3.37,0,0,0-3,1.82,6.48,6.48,0,0,0-1,3.53,7.21,7.21,0,0,0,1,3.72,3.43,3.43,0,0,0,3,2,3.37,3.37,0,0,0,1.56-.41C109.81,30.19,110.46,28.45,110.43,25.64Zm-20.9,5a2.88,2.88,0,0,1-2-.93,2.67,2.67,0,0,1-1-1.93V9.32H81.38V26.61a8.26,8.26,0,0,0,2,5.9,7.54,7.54,0,0,0,5.74,2.13h6.68a2,2,0,0,0,0-4ZM68,25.67V9.32H63V26.15q0,3.95-2,5a3.25,3.25,0,0,1-1.56.41,3.44,3.44,0,0,1-3-2,7.21,7.21,0,0,1-1-3.72v-.15H50.59A9.85,9.85,0,0,0,53,32.47a8.28,8.28,0,0,0,6.54,2.83,8.41,8.41,0,0,0,6-2.27A7.71,7.71,0,0,0,68,27.16Z"/><path class="cls-2" d="M77.86,22.3a3.17,3.17,0,1,1-3.16-3.16A3.17,3.17,0,0,1,77.86,22.3Z"/><path class="cls-2" d="M42.29,34.42A4.62,4.62,0,0,1,37.67,39H22.29A4.59,4.59,0,0,1,19,37.69h0a13.85,13.85,0,0,1-6,1.34h0A13.86,13.86,0,0,1,0,29.89l8.69-3.16a4.62,4.62,0,0,0,9-1.55V12.46a7.34,7.34,0,0,0,1.38.88V25.18A6,6,0,0,1,8,28.45L1.85,30.69a12.48,12.48,0,0,0,23.67-5.51V13.34a7.42,7.42,0,0,0,1.39-.88v15.8a1.54,1.54,0,0,0,1.54,1.54h9.22A4.62,4.62,0,0,1,42.29,34.42ZM22.29,0a6,6,0,1,0,6,6A6,6,0,0,0,22.29,0Z"/></g></g></svg>