<svg xmlns="http://www.w3.org/2000/svg" viewBox="0 0 116.3 63.3"><path d="M58.5 25.9c0 3.1-1.6 4.7-4.8 4.7-3.7 0-4.9-2.1-4.9-5.2v-.6h3.4v1.3c0 .9.5 1.4 1.4 1.4.8 0 1.3-.5 1.3-1.8v-9.2h3.6v9.4m7.1-3.9H62v-3.6h3.6V22zM62 24.8h3.6v3.6H62v-3.6zm16.3-3.4c-.2-1.4-1.3-2.1-2.8-2.1-2.3 0-3.2 2.1-3.2 4.1 0 2.1.9 4.1 3.2 4.1 1.7 0 2.7-1 2.8-2.6h3.6c-.2 3.6-2.8 5.7-6.3 5.7-4.2 0-6.9-3.2-6.9-7.2s2.7-7.2 6.9-7.2c3 0 6.2 1.9 6.3 5.2h-3.6m12.8-5.2c4.4 0 6.8 3.2 6.8 7.2s-2.5 7.2-6.8 7.2c-4.4 0-6.8-3.2-6.8-7.2s2.4-7.2 6.8-7.2m0 11.3c2.3 0 3.2-2.1 3.2-4.1 0-2.1-.9-4.1-3.2-4.1-2.3 0-3.2 2.1-3.2 4.1 0 2 .9 4.1 3.2 4.1zm9.7-11h5.3l2.4 9.2 2.4-9.2h5.3v13.8h-3.4V19.8l-2.9 10.5h-2.8l-2.9-10.5v10.5h-3.4V16.5M56.4 39.1h4.2v2.2h-4.3c-.1 2.4-1.3 4.6-6.2 5.5l-1-2.1c4.6-.7 4.7-2.3 4.8-3.4h-5.1v-2.2H54v-1.2c-2.4.2-3.3.2-4.2.2l-.5-2.1c5.6 0 8-.7 9.1-1.1l1.2 2.2c-.7.2-1.6.4-3.3.6v1.4m8.9-2.1l2.2-.2.3 2.1 5.3-.7c.1 3.9-2 5.5-2.7 5.9l-1.6-1.4c.9-.6 1.4-1.1 1.8-2.1L68 41l.8 5.8-2.2.3-.8-5.8-2.5.4-.3-2.1 2.5-.3-.3-2.3m14.4 2.5c-1.5-1-3-1.7-4.3-2.1l1-2c1.8.5 3.3 1.3 4.6 2l-1.3 2.1m-4.2 4.6c5.3-.4 8-2.3 9.6-7.9l2.2 1.1c-2.1 7.6-6.9 8.6-11 9.3l-.8-2.5zm21.2 2.7h-2.4v-3.6c-1 .5-2.1 1.1-4 1.7L89 42.7c3.9-1 6-2.4 8-4.2l-7 .1v-2.2h4v-1.6h2.4v1.6h3.5v2c-1.1 1.2-2.1 2.2-3.4 3.2v5.2m4.1-1.7c-1-.9-2.6-1.9-3.9-2.5l1.6-1.7c1.2.5 2.8 1.4 3.6 2l-1.3 2.2zm6.9-6.7c0 3.9-.6 6.8-2.4 8.5l-1.8-1.9c.5-.6 1.2-1.3 1.6-3 .3-1.4.3-2.1.3-3.4v-3.3h2.4v3.1m3.7 5.3c.7-.3 2.2-1.1 2.7-4.4l2.3 1c-.6 2.1-1.8 6.3-7.4 6.4V35h2.4v8.7zm-70.6-1.4c-.3-2-1.5-3.4-2.2-4.1V38c-.4-2.6-1.9-4.2-2.8-5 .2-1.8.9-7.9 3.5-15.6.6-1.9 1.3-3.7 1.9-5.2 1.5-3.9 2.6-6.7 2.1-9-.4-1.6-2.2-3.1-4-3.1C35.8 0 31.5 3.3 28.8 8c-3.7 6.6-6.2 17.6-7.1 25.6-.3 2.7-3.1 3.4-4.5 3.5-1-5.2-4.5-8.4-10-9.1-.3 0-.6-.1-1-.1-2.9 0-4.8 1.7-5.6 3.4-1 2-.8 4.2.5 5.6 1 1 2 1.1 2.7 1.2.6.1 1.3.2 2 4.3.8 4.8 2.6 8.7 5.3 11.4-.5.7-.7 1.6-.5 2.5.8 4.2 9.2 6.1 10.8 6.5 1.9.4 3.4.6 4.8.6h.5c2.2-.1 3.8-.7 4.8-1.9s1-2.5.9-3.4c4.4-1.7 7.2-4.6 8.2-6.6 1.5-3 .6-5.2-.1-6.2.3-1.2.4-2.1.2-3m-2.4 7.8c-2.1 5.9-12.5 8.1-12.2 8.1 1.3 0 2.5-.2 3.6-.5.1.4.3 1.3-.2 2-.5.6-2.7 2.6-8 1.5-5.2-1.1-8-3.8-8.3-5.1 0-.1-.1-.9.7-1.4 1.9 1.3 4.2 2 6.6 2 0 0-9.7-1.1-12.3-14.7-1-5.4-2.3-6-4.1-6.3-.5-.1-1.6-.2-1.9-.5-.6-.6-.4-2.2.1-3.2.7-1.5 2.8-2.7 4.7-2.4 4.9.6 8.6 4.6 8.1 9l-.4.8s7.7 2.4 9.6-3.9c.2-.8.2-3.8.4-5.4 1.1-8.6 2.3-14.5 5.7-20.4 2.4-4.2 8.3-9 10.5-5.2 1.1 1.9-1.7 6.1-3.4 11.6-1.9 5.8-5.5 24-5.5 24 1.5-2.5 2-4 2-4s1.8.6 2.2 2.4c.6 2.3-1.6 7.1-1.6 7.1 1.5-1.6 2.2-2.6 2.6-4.1.4.5 1.1.4 1.2 1.9.1 2.3-1.9 6.2-1.9 6.2.7-.8 1.6-1.4 2.1-2.2.1.4.3 1.1-.3 2.7z" fill="#1aa1bf"/></svg>