<?xml version="1.0" encoding="utf-8"?>
<!-- Generator: Adobe Illustrator 23.0.3, SVG Export Plug-In . SVG Version: 6.00 Build 0)  -->
<svg version="1.1" id="Layer_1" xmlns="http://www.w3.org/2000/svg" xmlns:xlink="http://www.w3.org/1999/xlink" x="0px" y="0px"
	 viewBox="0 0 100 90" style="enable-background:new 0 0 100 90;" xml:space="preserve">
<style type="text/css">
	.st0{fill:#FFFFFF;}
	.st1{fill:#FF5100;}
</style>
<path class="st0" d="M5.1,82.8v1.3H1.5v2h3.2v1.3H1.5v2.6H0v-7.1H5.1z M71.3,86.3h1.4v2.8C72,89.6,71,90,70,90
	c-2.2,0-3.8-1.5-3.8-3.7c0-2.2,1.6-3.6,3.8-3.6c1.3,0,2.2,0.4,2.9,1.2l-1,1c-0.5-0.5-1.1-0.8-1.9-0.8c-1.3,0-2.2,1-2.2,2.3
	s1,2.3,2.3,2.3c0.5,0,0.9-0.1,1.3-0.3L71.3,86.3L71.3,86.3z M64.6,82.8v7h-1.3l-3.5-4.4v4.4h-1.5v-7h1.3l3.5,4.5v-4.5H64.6z
	 M54.8,82.8h1.5v7h-1.5V82.8z M50,84.1h-2.2v-1.3h5.9v1.3h-2.2v5.8h-1.5L50,84.1L50,84.1z M45.2,82.8h1.5v7h-1.5V82.8z M40,90
	c-2,0-3.1-1.2-3.1-3.2v-4h1.5v4c0,1.3,0.5,1.9,1.6,1.9c1.1,0,1.6-0.6,1.6-1.9v-4h1.4v4C43.1,88.8,42,90,40,90 M33.8,85.3
	c0-0.8-0.5-1.3-1.5-1.3H31v2.6h1.4C33.3,86.7,33.8,86.2,33.8,85.3 M33.8,89.9l-1.4-2h-0.1H31v2h-1.5v-7.1h3c1.8,0,3,0.9,3,2.5
	c0,1.1-0.5,1.8-1.4,2.2l1.5,2.2L33.8,89.9L33.8,89.9z M25.2,90c-2.2,0-3.8-1.5-3.8-3.7c0-2.1,1.6-3.6,3.8-3.6c1.3,0,2.2,0.4,2.8,1.2
	l-1,1c-0.5-0.5-1.1-0.8-1.8-0.8c-1.4,0-2.2,1-2.2,2.3s1,2.3,2.2,2.3c0.7,0,1.3-0.3,1.8-0.8l1,1C27.4,89.6,26.5,90,25.2,90
	 M20.5,88.7v1.3h-5.3v-7.1h5.1v1.3h-3.7v1.6h3.2v1.2h-3.2v1.7L20.5,88.7L20.5,88.7z M12.1,85.3c0-0.8-0.5-1.3-1.5-1.3H9.2v2.6h1.3
	C11.5,86.7,12.1,86.2,12.1,85.3 M12.1,89.9l-1.3-2h-0.1H9.2v2H7.7v-7.1h3c1.8,0,3,0.9,3,2.5c0,1.1-0.5,1.8-1.4,2.2l1.5,2.2
	L12.1,89.9L12.1,89.9z"/>
<path class="st1" d="M5.8,90c0.4,0,0.6-0.3,0.6-0.6c0-0.4-0.3-0.6-0.6-0.6c-0.4,0-0.6,0.3-0.6,0.6C5.1,89.7,5.4,90,5.8,90"/>
<rect y="0" class="st1" width="72.8" height="75.4"/>
<path class="st0" d="M35.4,21.2H22.7v14.1h9l-2.3,9.1h-6.7v18.9H11.8V12.1h25.9L35.4,21.2z M63,28.3c0-8.9-7-16.2-15.7-16.2l0,0H43
	l-2.3,9.2h1.9l0,0h4.9l0,0c3.7,0.1,6.8,3.2,6.8,7.1s-3.1,7.1-6.8,7.1l0,0h-9l0,0H37l-2.3,9.1h3.7v0.1l13,18.7H63L50,44.2
	C57.4,42.9,63,36.3,63,28.3"/>
</svg>
