<?xml version="1.0" encoding="UTF-8" standalone="no"?>
<svg
   xmlns:dc="http://purl.org/dc/elements/1.1/"
   xmlns:cc="http://creativecommons.org/ns#"
   xmlns:rdf="http://www.w3.org/1999/02/22-rdf-syntax-ns#"
   xmlns:svg="http://www.w3.org/2000/svg"
   xmlns="http://www.w3.org/2000/svg"
   xmlns:sodipodi="http://sodipodi.sourceforge.net/DTD/sodipodi-0.dtd"
   xmlns:inkscape="http://www.inkscape.org/namespaces/inkscape"
   width="2358.6331"
   height="1831.2892"
   viewBox="0 -410 1816.1475 1512.804"
   id="svg2"
   sodipodi:version="0.32"
   inkscape:version="0.48.1 r9760"
   sodipodi:docname="F with hook_and Florin.svg"
   inkscape:output_extension="org.inkscape.output.svg.inkscape"
   version="1.0">
  <metadata
     id="metadata15">
    <rdf:RDF>
      <cc:Work
         rdf:about="">
        <dc:format>image/svg+xml</dc:format>
        <dc:type
           rdf:resource="http://purl.org/dc/dcmitype/StillImage" />
        <dc:title></dc:title>
      </cc:Work>
    </rdf:RDF>
  </metadata>
  <defs
     id="defs13" />
  <sodipodi:namedview
     inkscape:window-height="704"
     inkscape:window-width="1278"
     inkscape:pageshadow="2"
     inkscape:pageopacity="0.0"
     guidetolerance="10.0"
     gridtolerance="10.0"
     objecttolerance="10.0"
     borderopacity="1.0"
     bordercolor="#666666"
     pagecolor="#ffffff"
     id="base"
     inkscape:zoom="0.20347826"
     inkscape:cx="2006.4041"
     inkscape:cy="941.23583"
     inkscape:window-x="0"
     inkscape:window-y="30"
     inkscape:current-layer="svg2"
     width="4000px"
     height="2300px"
     inkscape:showpageshadow="false"
     showgrid="false"
     showguides="true"
     inkscape:guide-bbox="true"
     inkscape:window-maximized="0"
     fit-margin-top="5"
     fit-margin-left="5"
     fit-margin-right="5"
     fit-margin-bottom="5">
    <sodipodi:guide
       orientation="0,1"
       position="2866.9491,431.00835"
       id="guide2992" />
    <sodipodi:guide
       orientation="1,0"
       position="2867.2794,428.7627"
       id="guide2994" />
    <sodipodi:guide
       orientation="0,1"
       position="2866.856,367.70887"
       id="guide2996" />
    <sodipodi:guide
       orientation="0,1"
       position="1688.5409,637.68042"
       id="guide3002" />
    <sodipodi:guide
       orientation="0,1"
       position="1695.1145,565.60562"
       id="guide3004" />
    <sodipodi:guide
       orientation="1,0"
       position="1882.526,910.73002"
       id="guide3088" />
  </sodipodi:namedview>
  <path
     inkscape:connector-curvature="0"
     id="path3074"
     style="font-size:1652.1739502px;font-style:normal;font-variant:normal;font-weight:normal;font-stretch:normal;text-align:start;line-height:125%;letter-spacing:0px;word-spacing:0px;writing-mode:lr-tb;text-anchor:start;fill:#000000;fill-opacity:1;stroke:none;font-family:Doulos SIL;-inkscape-font-specification:Doulos SIL"
     d="m 761.65303,-267.11279 c -7.2e-4,6.99263 -1.61417,14.52206 -4.84035,22.58832 -3.22762,7.53042 -7.79906,14.79094 -13.71434,21.78159 -5.91668,6.45476 -12.9083,11.83293 -20.97486,16.13451 -8.06793,4.30348 -16.67299,6.45475 -25.81522,6.45381 -13.98388,0.53875 -26.08476,-2.68815 -36.30265,-9.68071 -9.68132,-7.52848 -19.0931,-16.67136 -28.2354,-27.42867 -8.60565,-10.75535 -17.21071,-22.31841 -25.81521,-34.6892 -8.06781,-12.90658 -17.2107,-24.73854 -27.42867,-35.49592 -10.21905,-10.75529 -22.05102,-19.62926 -35.49593,-26.62195 -13.44591,-7.52835 -29.58041,-11.29307 -48.40353,-11.29416 -25.81565,10e-4 -46.25267,5.64816 -61.31114,16.94124 -14.52144,11.29522 -25.54668,29.04316 -33.07575,53.24389 -7.52979,23.66494 -12.37014,54.05157 -14.52106,91.15999 -1.61379,37.11026 -2.42052,81.74903 -2.42018,133.91644 l 0,53.2438867 190.38723,0 0,58.0842403 -190.38723,0 0,677.649473 c -3.4e-4,55.93292 -5.64741,103.52968 -16.94124,142.79042 -11.29447,39.26047 -25.81551,72.06728 -43.56318,98.42052 -17.2104,26.89057 -36.5718,48.13437 -58.08424,63.73137 -21.51288,15.5963 -42.48772,27.4283 -62.92459,35.4959 -20.43719,8.0669 -39.26076,13.1761 -56.47079,15.3278 -17.21023,2.6887 -30.11783,4.0332 -38.72283,4.0336 -23.663987,-4e-4 -45.714463,-3.7651 -66.151493,-11.2942 -20.437025,-7.5297 -38.1849693,-17.7483 -53.243887,-30.6555 -15.596623,-12.908 -27.697494,-27.6979 -36.30265,-44.3699 -8.604972,-16.67263 -12.907504,-34.15166 -12.907609,-52.43721 1.05e-4,-6.99183 1.613554,-14.52126 4.840353,-22.58831 2.689183,-7.52963 6.991715,-14.52124 12.907609,-20.97487 5.378252,-6.45397 11.83205,-11.83213 19.361414,-16.13451 7.529498,-4.30269 15.8656542,-6.45395 25.00849198,-6.4538 17.74798702,-1.5e-4 31.73121602,3.49565 41.94972902,10.48743 9.680698,7.52927 17.210129,16.40324 22.588316,26.62194 5.91596,10.75614 10.756308,22.3192 14.52106,34.6892 3.764679,12.90737 8.33612,24.47043 13.714335,34.68923 5.915931,10.756 13.445361,19.63 22.588311,26.6219 9.68063,7.5292 23.39495,11.2939 41.14301,11.2942 19.36128,-3e-4 34.95796,-5.6474 46.79008,-16.9413 11.8318,-11.2944 20.97468,-29.04233 27.42867,-53.24385 6.99143,-23.66415 11.56287,-54.31969 13.71433,-91.96672 2.15107,-37.10947 3.2267,-81.74824 3.22691,-133.91644 l 0,-680.876373 -144.40388,0 0,-58.0842403 144.40388,0 0,-50.0169847 c -2.1e-4,-55.394312 6.45359,-102.722162 19.36141,-141.983702 12.90737,-39.79749 29.31078,-72.8732 49.21026,-99.22724 20.43675,-26.8898 42.75614,-48.13355 66.95822,-63.73132 24.73922,-15.59559 48.67205,-27.42755 71.79858,-35.49593 23.12569,-8.06611 43.83163,-13.17537 62.11786,-15.32778 18.82311,-2.15012 32.53743,-3.22576 41.14301,-3.2269 23.12559,10e-4 46.78952,3.76586 70.99185,11.29415 24.20115,7.53057 45.98272,17.74909 65.34477,30.65558 19.89856,12.37088 36.03305,27.16084 48.40353,44.3699 12.36908,16.67338 18.55397,34.15241 18.55469,52.43716" />
  <path
     inkscape:connector-curvature="0"
     id="path3076"
     style="font-size:1652.1739502px;font-style:normal;font-variant:normal;font-weight:normal;font-stretch:normal;text-align:start;line-height:125%;letter-spacing:0px;word-spacing:0px;writing-mode:lr-tb;text-anchor:start;fill:#000000;fill-opacity:1;stroke:none;font-family:Doulos SIL;-inkscape-font-specification:Doulos SIL"
     d="m 1626.4629,36.216025 143.5971,0 -13.7143,53.243887 -140.3703,0 c -27.967,144.673288 -74.2192,335.060338 -138.7568,571.161698 -50.5551,183.39551 -105.6813,304.13531 -165.3787,362.21979 -45.1768,44.6385 -91.698,66.9579 -139.5635,66.9582 -30.1179,-3e-4 -54.0507,-8.3365 -71.7986,-25.0085 -17.748,-16.1348 -26.622,-36.034 -26.622,-59.6977 0,-20.97508 6.1849,-38.18521 18.5547,-51.63041 12.9076,-13.44563 27.4287,-20.16833 43.5632,-20.16814 13.9832,-1.9e-4 26.084,4.84016 36.3027,14.52106 10.7562,9.68049 16.1344,19.899 16.1345,30.65557 -10e-5,11.83173 -3.7649,22.05022 -11.2942,30.65562 -5.3783,6.4535 -8.0673,11.5627 -8.0672,15.3277 -10e-5,4.3023 1.8822,8.067 5.647,11.2942 3.7646,3.7644 8.605,5.6468 14.5211,5.6471 10.7562,-3e-4 20.7058,-2.6894 29.8488,-8.0673 16.1344,-9.1432 32,-26.3533 47.5969,-51.63042 15.5964,-25.27761 31.7309,-72.87437 48.4035,-142.79042 3.2266,-11.83206 26.3527,-123.42899 69.3784,-334.79111 3.7644,-18.82334 36.8401,-157.04218 99.2272,-414.656938 l -142.7904,0 12.1009,-53.243887 c 53.2435,-3.76401 86.5882,-7.797634 100.034,-12.100884 13.9828,-4.83963 25.5459,-13.444694 34.6892,-25.8152177 13.9828,-18.2850173 30.1173,-54.3187233 48.4035,-108.1012233 39.2601,-114.01625 76.9073,-187.15929 112.9416,-219.42935 35.4953,-31.73011 75.0248,-47.59569 118.5886,-47.59681 33.344,10e-4 59.9659,8.87509 79.8659,26.62194 20.4362,17.74904 30.6547,38.99279 30.6555,63.73132 -8e-4,18.82461 -5.3789,33.88347 -16.1345,45.17663 -10.7571,11.29513 -23.6647,16.9422 -38.7228,16.94124 -13.984,9.6e-4 -26.0849,-4.57048 -36.3027,-13.71434 -9.6814,-9.67971 -14.5217,-20.16713 -14.521,-31.46229 -7e-4,-8.60406 2.9573,-17.74694 8.874,-27.42867 5.9152,-10.21748 8.8732,-17.478 8.8739,-21.78159 -7e-4,-5.91492 -2.4209,-11.02418 -7.2605,-15.32779 -4.841,-3.76364 -11.8327,-5.646 -20.9749,-5.64708 -17.2108,0.001 -32.8075,6.45488 -46.79,19.36142 -18.8243,17.749 -31.194,40.3373 -37.1094,67.76494 -14.5217,65.0768 -31.7318,161.345949 -51.6304,288.807755" />
</svg>
