<?xml version="1.0" encoding="iso-8859-1"?>
<!-- Generator: Adobe Illustrator 21.0.0, SVG Export Plug-In . SVG Version: 6.00 Build 0)  -->
<!DOCTYPE svg PUBLIC "-//W3C//DTD SVG 1.1//EN" "http://www.w3.org/Graphics/SVG/1.1/DTD/svg11.dtd">
<svg version="1.1" id="&#x30EC;&#x30A4;&#x30E4;&#x30FC;_1"
	 xmlns="http://www.w3.org/2000/svg" xmlns:xlink="http://www.w3.org/1999/xlink" x="0px" y="0px" viewBox="0 0 200 200.017"
	 style="enable-background:new 0 0 200 200.017;" xml:space="preserve">
<path d="M34.169,75.371c0,31.904,0,63.809,0,95.78c-5.936,0-11.78,0-17.647,0c0-47.631,0-95.215,0-143
	c37.859,38.453,75.596,76.783,113.493,115.276c0-38.314,0-76.389,0-114.553c5.825,0,11.571,0,17.412,0c0,0.396,0,0.788,0,1.18
	c0,42.322,0.002,84.643-0.007,126.965c0,1.566,0.111,3.175-0.195,4.69c-0.954,4.718-3.825,7.922-8.405,9.335
	c-4.614,1.424-8.835,0.411-12.291-2.996c-6.22-6.131-12.36-12.344-18.518-18.538c-8.097-8.142-16.179-16.299-24.268-24.449
	c-8.132-8.193-16.263-16.387-24.395-24.58c-8.197-8.259-16.394-16.518-24.588-24.78c-0.127-0.128-0.209-0.3-0.311-0.451
	C34.355,75.291,34.262,75.331,34.169,75.371z"/>
<path d="M166.103,159.279c0-5.957,4.739-10.717,10.675-10.721c5.905-0.004,10.682,4.791,10.687,10.728
	c0.005,5.932-4.782,10.733-10.693,10.723C170.837,169.999,166.103,165.238,166.103,159.279z"/>
</svg>
