<?xml version="1.0" encoding="utf-8"?>
<!-- Generator: Adobe Illustrator 23.0.6, SVG Export Plug-In . SVG Version: 6.00 Build 0)  -->
<svg version="1.1" id="レイヤー_1" xmlns="http://www.w3.org/2000/svg" xmlns:xlink="http://www.w3.org/1999/xlink" x="0px"
	 y="0px" viewBox="0 0 99.6 76.6" style="enable-background:new 0 0 99.6 76.6;" xml:space="preserve">
<style type="text/css">
	.st0{fill:#FFFFFF;}
	.st1{fill:#989489;}
	.st2{fill:#E1E300;}
	.st3{fill:url(#SVGID_1_);}
	.st4{fill:url(#SVGID_2_);}
	.st5{fill:url(#SVGID_3_);}
	.st6{fill:url(#SVGID_4_);}
	.st7{fill:url(#SVGID_5_);}
	.st8{fill:url(#SVGID_6_);}
	.st9{fill:url(#SVGID_7_);}
	.st10{fill:url(#SVGID_8_);}
	.st11{fill:url(#SVGID_9_);}
	.st12{fill:url(#SVGID_10_);}
	.st13{fill:url(#SVGID_11_);}
	.st14{fill:url(#SVGID_12_);}
	.st15{fill:url(#SVGID_13_);}
	.st16{fill:url(#SVGID_14_);}
	.st17{fill:url(#SVGID_15_);}
	.st18{fill:url(#SVGID_16_);}
	.st19{fill:url(#SVGID_17_);}
	.st20{fill:url(#SVGID_18_);}
	.st21{fill:url(#SVGID_19_);}
	.st22{fill:url(#SVGID_20_);}
	.st23{fill:url(#SVGID_21_);}
	.st24{fill:url(#SVGID_22_);}
	.st25{fill:url(#SVGID_23_);}
	.st26{fill:url(#SVGID_24_);}
	.st27{fill:url(#SVGID_25_);}
	.st28{fill:url(#SVGID_26_);}
	.st29{fill:url(#SVGID_27_);}
	.st30{fill:url(#SVGID_28_);}
	.st31{fill:url(#SVGID_29_);}
	.st32{fill:url(#SVGID_30_);}
	.st33{fill:url(#SVGID_31_);}
	.st34{fill:url(#SVGID_32_);}
	.st35{fill:url(#SVGID_33_);}
	.st36{fill:url(#SVGID_34_);}
	.st37{fill:url(#SVGID_35_);}
	.st38{fill:url(#SVGID_36_);}
	.st39{fill:url(#SVGID_37_);}
	.st40{fill:url(#SVGID_38_);}
	.st41{fill:url(#SVGID_39_);}
	.st42{fill:url(#SVGID_40_);}
	.st43{fill:url(#SVGID_41_);}
	.st44{fill:url(#SVGID_42_);}
	.st45{fill:url(#SVGID_43_);}
	.st46{fill:url(#SVGID_44_);}
	.st47{fill:url(#SVGID_45_);}
	.st48{fill:url(#SVGID_46_);}
	.st49{fill:url(#SVGID_47_);}
	.st50{fill:url(#SVGID_48_);}
	.st51{fill:url(#SVGID_49_);}
	.st52{fill:url(#SVGID_50_);}
	.st53{fill:url(#SVGID_51_);}
	.st54{fill:url(#SVGID_52_);}
	.st55{fill:url(#SVGID_53_);}
	.st56{fill:url(#SVGID_54_);}
	.st57{fill:url(#SVGID_55_);}
	.st58{fill:url(#SVGID_56_);}
	.st59{fill:url(#SVGID_57_);}
	.st60{fill:url(#SVGID_58_);}
	.st61{fill:url(#SVGID_59_);}
	.st62{fill:url(#SVGID_60_);}
	.st63{fill:url(#SVGID_61_);}
	.st64{fill:url(#SVGID_62_);}
	.st65{fill:url(#SVGID_63_);}
	.st66{fill:url(#SVGID_64_);}
	.st67{fill:url(#SVGID_65_);}
	.st68{fill:url(#SVGID_66_);}
	.st69{fill:url(#SVGID_67_);}
	.st70{fill:url(#SVGID_68_);}
	.st71{fill:url(#SVGID_69_);}
	.st72{fill:url(#SVGID_70_);}
	.st73{fill:url(#SVGID_71_);}
	.st74{fill:url(#SVGID_72_);}
	.st75{fill:url(#SVGID_73_);}
	.st76{fill:url(#SVGID_74_);}
	.st77{fill:url(#SVGID_75_);}
	.st78{fill:url(#SVGID_76_);}
	.st79{fill:url(#SVGID_77_);}
	.st80{fill:url(#SVGID_78_);}
	.st81{fill:url(#SVGID_79_);}
	.st82{fill:url(#SVGID_80_);}
	.st83{fill:url(#SVGID_81_);}
	.st84{fill:url(#SVGID_82_);}
	.st85{fill:url(#SVGID_83_);}
	.st86{fill:url(#SVGID_84_);}
	.st87{fill:url(#SVGID_85_);}
	.st88{fill:url(#SVGID_86_);}
	.st89{fill:url(#SVGID_87_);}
	.st90{fill:url(#SVGID_88_);}
	.st91{fill:url(#SVGID_89_);}
	.st92{fill:url(#SVGID_90_);}
	.st93{fill:url(#SVGID_91_);}
	.st94{fill:url(#SVGID_92_);}
	.st95{fill:url(#SVGID_93_);}
	.st96{fill:url(#SVGID_94_);}
	.st97{fill:url(#SVGID_95_);}
	.st98{fill:url(#SVGID_96_);}
	.st99{fill:url(#SVGID_97_);}
	.st100{fill:url(#SVGID_98_);}
	.st101{fill:url(#SVGID_99_);}
	.st102{fill:url(#SVGID_100_);}
	.st103{fill:url(#SVGID_101_);}
	.st104{fill:url(#SVGID_102_);}
	.st105{fill:url(#SVGID_103_);}
	.st106{fill:url(#SVGID_104_);}
</style>
<g>
	<ellipse transform="matrix(0.2177 -0.976 0.976 0.2177 17.5452 67.7749)" class="st0" cx="51.1" cy="22.9" rx="21.3" ry="21.3"/>
	<g>
		<path class="st1" d="M51.5,41.7V30.6H63v-2.2h-4.7V24h9.4v11.1H56.2v2.2h10.1C69.8,33.6,72,28.5,72,23c0-11.5-9.3-20.9-20.9-20.9
			S30.2,11.4,30.2,23c0,11.5,9.3,20.9,20.9,20.9c3.3,0,6.3-0.7,9.1-2.1H51.5z"/>
		<path class="st2" d="M67.7,7.2c-0.1-0.1-0.1-0.1-0.2-0.2c-0.8-0.8-1.6-1.5-2.5-2.2c0,0,0,0-0.1-0.1c-0.4-0.3-0.9-0.7-1.4-1h0l0,0
			C60,1.4,55.7,0,51.1,0c-4.7,0-9,1.4-12.6,3.8l0,0l0,0c-0.8,0.5-1.5,1-2.2,1.6l0,0l0,0c-5,4.2-8.2,10.5-8.2,17.5
			c0,7,3.2,13.3,8.2,17.5l0,0l0,0c0.7,0.6,1.4,1.1,2.2,1.6c0,0,0.1,0.1,0.1,0.1c0.3,0.2,0.7,0.4,1,0.6c0.1,0,0.1,0.1,0.2,0.1
			c3.3,1.9,7.2,2.9,11.2,2.9C63.7,45.9,74,35.6,74,22.9C74,16.8,71.6,11.3,67.7,7.2z M51.1,2.1c2.9,0,5.7,0.6,8.2,1.7h-7.9h0V20
			L41.3,4.6C44.2,3,47.6,2.1,51.1,2.1z M30.3,23c0-5.7,2.3-10.9,6-14.7v29.3C32.6,33.8,30.3,28.7,30.3,23z M51.1,43.8
			c-3.7,0-7.1-1-10.1-2.6V12.3l10.6,16.2h4.5V8.4h10C69.7,12.2,72,17.3,72,23C72,34.5,62.6,43.8,51.1,43.8z"/>
	</g>
	<g>
		<linearGradient id="SVGID_1_" gradientUnits="userSpaceOnUse" x1="94.2033" y1="58.2252" x2="97.3072" y2="58.2252">
			<stop  offset="0" style="stop-color:#F3F75F"/>
			<stop  offset="1" style="stop-color:#F3F75F;stop-opacity:0"/>
		</linearGradient>
		<path class="st3" d="M91.9,58.5l0.9-0.4l-0.4-0.2l-0.9,0.4C91.8,58.4,91.9,58.5,91.9,58.5z"/>
		<g>
			<g>
				<linearGradient id="SVGID_2_" gradientUnits="userSpaceOnUse" x1="9.1024" y1="74.3697" x2="2.039" y2="74.3697">
					<stop  offset="0" style="stop-color:#F3F75F"/>
					<stop  offset="1" style="stop-color:#F3F75F;stop-opacity:0"/>
				</linearGradient>
				<polygon class="st4" points="0.5,74.2 1.4,74.7 1.8,74.5 1,74 				"/>
				<linearGradient id="SVGID_3_" gradientUnits="userSpaceOnUse" x1="9.1047" y1="75.5733" x2="2.0395" y2="75.5733">
					<stop  offset="0" style="stop-color:#F3F75F"/>
					<stop  offset="1" style="stop-color:#F3F75F;stop-opacity:0"/>
				</linearGradient>
				<polygon class="st5" points="1.9,75.9 2.3,75.4 1.9,75.2 1.3,75.5 0.9,75.9 				"/>
				<linearGradient id="SVGID_4_" gradientUnits="userSpaceOnUse" x1="9.1053" y1="74.3697" x2="2.0391" y2="74.3697">
					<stop  offset="0" style="stop-color:#F3F75F"/>
					<stop  offset="1" style="stop-color:#F3F75F;stop-opacity:0"/>
				</linearGradient>
				<polygon class="st6" points="1.8,74.2 2.6,74.7 3.1,74.5 2.3,74 				"/>
				<linearGradient id="SVGID_5_" gradientUnits="userSpaceOnUse" x1="9.1036" y1="76.3023" x2="2.039" y2="76.3023">
					<stop  offset="0" style="stop-color:#F3F75F"/>
					<stop  offset="1" style="stop-color:#F3F75F;stop-opacity:0"/>
				</linearGradient>
				<polygon class="st7" points="1.4,76 0.4,76 0.1,76.6 1.1,76.6 				"/>
				<linearGradient id="SVGID_6_" gradientUnits="userSpaceOnUse" x1="9.1052" y1="74.962" x2="2.0392" y2="74.962">
					<stop  offset="0" style="stop-color:#F3F75F"/>
					<stop  offset="1" style="stop-color:#F3F75F;stop-opacity:0"/>
				</linearGradient>
				<polygon class="st8" points="2.4,74.8 2,74.6 0.9,75.1 1.3,75.3 				"/>
				<linearGradient id="SVGID_7_" gradientUnits="userSpaceOnUse" x1="9.1052" y1="73.0347" x2="2.0393" y2="73.0347">
					<stop  offset="0" style="stop-color:#F3F75F"/>
					<stop  offset="1" style="stop-color:#F3F75F;stop-opacity:0"/>
				</linearGradient>
				<polygon class="st9" points="2.2,73.3 2.3,72.7 1.3,72.7 1.2,73.3 				"/>
				<linearGradient id="SVGID_8_" gradientUnits="userSpaceOnUse" x1="9.1067" y1="73.7603" x2="2.0394" y2="73.7603">
					<stop  offset="0" style="stop-color:#F3F75F"/>
					<stop  offset="1" style="stop-color:#F3F75F;stop-opacity:0"/>
				</linearGradient>
				<polygon class="st10" points="1.1,73.4 1.2,73.9 1.6,74.1 2.2,73.9 2,73.4 				"/>
				<linearGradient id="SVGID_9_" gradientUnits="userSpaceOnUse" x1="9.1041" y1="75.5733" x2="2.0393" y2="75.5733">
					<stop  offset="0" style="stop-color:#F3F75F"/>
					<stop  offset="1" style="stop-color:#F3F75F;stop-opacity:0"/>
				</linearGradient>
				<polygon class="st11" points="3.1,75.9 3.6,75.4 3.2,75.2 2.6,75.5 2.2,75.9 				"/>
				<linearGradient id="SVGID_10_" gradientUnits="userSpaceOnUse" x1="9.1035" y1="74.3697" x2="2.0395" y2="74.3697">
					<stop  offset="0" style="stop-color:#F3F75F"/>
					<stop  offset="1" style="stop-color:#F3F75F;stop-opacity:0"/>
				</linearGradient>
				<polygon class="st12" points="3.1,74.2 3.9,74.7 4.4,74.5 3.6,74 				"/>
				<linearGradient id="SVGID_11_" gradientUnits="userSpaceOnUse" x1="9.1046" y1="76.3023" x2="2.0394" y2="76.3023">
					<stop  offset="0" style="stop-color:#F3F75F"/>
					<stop  offset="1" style="stop-color:#F3F75F;stop-opacity:0"/>
				</linearGradient>
				<polygon class="st13" points="2.7,76 1.7,76 1.4,76.6 2.4,76.6 				"/>
				<linearGradient id="SVGID_12_" gradientUnits="userSpaceOnUse" x1="9.1049" y1="74.962" x2="2.0394" y2="74.962">
					<stop  offset="0" style="stop-color:#F3F75F"/>
					<stop  offset="1" style="stop-color:#F3F75F;stop-opacity:0"/>
				</linearGradient>
				<polygon class="st14" points="3.7,74.8 3.3,74.6 2.2,75.1 2.6,75.3 				"/>
				<linearGradient id="SVGID_13_" gradientUnits="userSpaceOnUse" x1="9.1054" y1="73.0347" x2="2.0389" y2="73.0347">
					<stop  offset="0" style="stop-color:#F3F75F"/>
					<stop  offset="1" style="stop-color:#F3F75F;stop-opacity:0"/>
				</linearGradient>
				<polygon class="st15" points="3.5,73.3 3.6,72.7 2.6,72.7 2.5,73.3 				"/>
				<linearGradient id="SVGID_14_" gradientUnits="userSpaceOnUse" x1="9.1036" y1="73.7603" x2="2.0393" y2="73.7603">
					<stop  offset="0" style="stop-color:#F3F75F"/>
					<stop  offset="1" style="stop-color:#F3F75F;stop-opacity:0"/>
				</linearGradient>
				<polygon class="st16" points="2.3,73.4 2.5,73.9 2.9,74.1 3.5,73.9 3.3,73.4 				"/>
				<linearGradient id="SVGID_15_" gradientUnits="userSpaceOnUse" x1="9.1059" y1="75.5733" x2="2.0386" y2="75.5733">
					<stop  offset="0" style="stop-color:#F3F75F"/>
					<stop  offset="1" style="stop-color:#F3F75F;stop-opacity:0"/>
				</linearGradient>
				<polygon class="st17" points="4.4,75.9 4.9,75.4 4.5,75.2 3.9,75.5 3.5,75.9 				"/>
				<linearGradient id="SVGID_16_" gradientUnits="userSpaceOnUse" x1="9.1051" y1="74.3697" x2="2.0389" y2="74.3697">
					<stop  offset="0" style="stop-color:#F3F75F"/>
					<stop  offset="1" style="stop-color:#F3F75F;stop-opacity:0"/>
				</linearGradient>
				<polygon class="st18" points="4.4,74.2 5.2,74.7 5.7,74.5 4.9,74 				"/>
				<linearGradient id="SVGID_17_" gradientUnits="userSpaceOnUse" x1="9.1039" y1="76.3023" x2="2.0393" y2="76.3023">
					<stop  offset="0" style="stop-color:#F3F75F"/>
					<stop  offset="1" style="stop-color:#F3F75F;stop-opacity:0"/>
				</linearGradient>
				<polygon class="st19" points="4,76 3,76 2.7,76.6 3.7,76.6 				"/>
				<linearGradient id="SVGID_18_" gradientUnits="userSpaceOnUse" x1="9.105" y1="74.962" x2="2.039" y2="74.962">
					<stop  offset="0" style="stop-color:#F3F75F"/>
					<stop  offset="1" style="stop-color:#F3F75F;stop-opacity:0"/>
				</linearGradient>
				<polygon class="st20" points="4.9,74.8 4.6,74.6 3.5,75.1 3.8,75.3 				"/>
				<linearGradient id="SVGID_19_" gradientUnits="userSpaceOnUse" x1="9.1051" y1="73.0347" x2="2.0392" y2="73.0347">
					<stop  offset="0" style="stop-color:#F3F75F"/>
					<stop  offset="1" style="stop-color:#F3F75F;stop-opacity:0"/>
				</linearGradient>
				<polygon class="st21" points="4.8,73.3 4.8,72.7 3.8,72.7 3.8,73.3 				"/>
				<linearGradient id="SVGID_20_" gradientUnits="userSpaceOnUse" x1="9.1059" y1="73.7603" x2="2.0386" y2="73.7603">
					<stop  offset="0" style="stop-color:#F3F75F"/>
					<stop  offset="1" style="stop-color:#F3F75F;stop-opacity:0"/>
				</linearGradient>
				<polygon class="st22" points="3.6,73.4 3.8,73.9 4.2,74.1 4.8,73.9 4.6,73.4 				"/>
				<linearGradient id="SVGID_21_" gradientUnits="userSpaceOnUse" x1="9.1045" y1="75.5733" x2="2.0393" y2="75.5733">
					<stop  offset="0" style="stop-color:#F3F75F"/>
					<stop  offset="1" style="stop-color:#F3F75F;stop-opacity:0"/>
				</linearGradient>
				<polygon class="st23" points="5.7,75.9 6.2,75.4 5.8,75.2 5.2,75.5 4.7,75.9 				"/>
				<linearGradient id="SVGID_22_" gradientUnits="userSpaceOnUse" x1="9.1041" y1="74.3697" x2="2.0401" y2="74.3697">
					<stop  offset="0" style="stop-color:#F3F75F"/>
					<stop  offset="1" style="stop-color:#F3F75F;stop-opacity:0"/>
				</linearGradient>
				<polygon class="st24" points="5.6,74.2 6.5,74.7 6.9,74.5 6.2,74 				"/>
				<linearGradient id="SVGID_23_" gradientUnits="userSpaceOnUse" x1="9.1043" y1="76.3023" x2="2.0396" y2="76.3023">
					<stop  offset="0" style="stop-color:#F3F75F"/>
					<stop  offset="1" style="stop-color:#F3F75F;stop-opacity:0"/>
				</linearGradient>
				<polygon class="st25" points="5.2,76 4.2,76 4,76.6 5,76.6 				"/>
				<linearGradient id="SVGID_24_" gradientUnits="userSpaceOnUse" x1="9.1036" y1="74.962" x2="2.04" y2="74.962">
					<stop  offset="0" style="stop-color:#F3F75F"/>
					<stop  offset="1" style="stop-color:#F3F75F;stop-opacity:0"/>
				</linearGradient>
				<polygon class="st26" points="6.2,74.8 5.9,74.6 4.8,75.1 5.1,75.3 				"/>
				<linearGradient id="SVGID_25_" gradientUnits="userSpaceOnUse" x1="9.1051" y1="73.0347" x2="2.0386" y2="73.0347">
					<stop  offset="0" style="stop-color:#F3F75F"/>
					<stop  offset="1" style="stop-color:#F3F75F;stop-opacity:0"/>
				</linearGradient>
				<polygon class="st27" points="6,73.3 6.1,72.7 5.1,72.7 5,73.3 				"/>
				<linearGradient id="SVGID_26_" gradientUnits="userSpaceOnUse" x1="9.104" y1="73.7603" x2="2.0398" y2="73.7603">
					<stop  offset="0" style="stop-color:#F3F75F"/>
					<stop  offset="1" style="stop-color:#F3F75F;stop-opacity:0"/>
				</linearGradient>
				<polygon class="st28" points="4.9,73.4 5.1,73.9 5.5,74.1 6,73.9 5.9,73.4 				"/>
				<linearGradient id="SVGID_27_" gradientUnits="userSpaceOnUse" x1="9.1042" y1="75.5733" x2="2.0394" y2="75.5733">
					<stop  offset="0" style="stop-color:#F3F75F"/>
					<stop  offset="1" style="stop-color:#F3F75F;stop-opacity:0"/>
				</linearGradient>
				<polygon class="st29" points="7,75.9 7.4,75.4 7.1,75.2 6.5,75.5 6,75.9 				"/>
				<linearGradient id="SVGID_28_" gradientUnits="userSpaceOnUse" x1="9.1048" y1="74.3697" x2="2.0387" y2="74.3697">
					<stop  offset="0" style="stop-color:#F3F75F"/>
					<stop  offset="1" style="stop-color:#F3F75F;stop-opacity:0"/>
				</linearGradient>
				<polygon class="st30" points="6.9,74.2 7.7,74.7 8.2,74.5 7.4,74 				"/>
				<linearGradient id="SVGID_29_" gradientUnits="userSpaceOnUse" x1="9.1044" y1="76.3023" x2="2.0392" y2="76.3023">
					<stop  offset="0" style="stop-color:#F3F75F"/>
					<stop  offset="1" style="stop-color:#F3F75F;stop-opacity:0"/>
				</linearGradient>
				<polygon class="st31" points="6.5,76 5.5,76 5.3,76.6 6.3,76.6 				"/>
				<linearGradient id="SVGID_30_" gradientUnits="userSpaceOnUse" x1="9.1046" y1="74.962" x2="2.0391" y2="74.962">
					<stop  offset="0" style="stop-color:#F3F75F"/>
					<stop  offset="1" style="stop-color:#F3F75F;stop-opacity:0"/>
				</linearGradient>
				<polygon class="st32" points="7.5,74.8 7.1,74.6 6,75.1 6.4,75.3 				"/>
				<linearGradient id="SVGID_31_" gradientUnits="userSpaceOnUse" x1="9.1038" y1="73.0347" x2="2.0406" y2="73.0347">
					<stop  offset="0" style="stop-color:#F3F75F"/>
					<stop  offset="1" style="stop-color:#F3F75F;stop-opacity:0"/>
				</linearGradient>
				<polygon class="st33" points="7.3,73.3 7.4,72.7 6.4,72.7 6.3,73.3 				"/>
				<linearGradient id="SVGID_32_" gradientUnits="userSpaceOnUse" x1="9.1053" y1="73.7603" x2="2.0379" y2="73.7603">
					<stop  offset="0" style="stop-color:#F3F75F"/>
					<stop  offset="1" style="stop-color:#F3F75F;stop-opacity:0"/>
				</linearGradient>
				<polygon class="st34" points="6.2,73.4 6.3,73.9 6.7,74.1 7.3,73.9 7.1,73.4 				"/>
				<linearGradient id="SVGID_33_" gradientUnits="userSpaceOnUse" x1="9.1046" y1="75.5733" x2="2.0394" y2="75.5733">
					<stop  offset="0" style="stop-color:#F3F75F"/>
					<stop  offset="1" style="stop-color:#F3F75F;stop-opacity:0"/>
				</linearGradient>
				<polygon class="st35" points="8.2,75.9 8.7,75.4 8.3,75.2 7.7,75.5 7.3,75.9 				"/>
				<linearGradient id="SVGID_34_" gradientUnits="userSpaceOnUse" x1="9.1044" y1="74.3697" x2="2.0382" y2="74.3697">
					<stop  offset="0" style="stop-color:#F3F75F"/>
					<stop  offset="1" style="stop-color:#F3F75F;stop-opacity:0"/>
				</linearGradient>
				<polygon class="st36" points="8.2,74.2 9,74.7 9.5,74.5 8.7,74 				"/>
				<linearGradient id="SVGID_35_" gradientUnits="userSpaceOnUse" x1="9.1051" y1="76.3023" x2="2.0377" y2="76.3023">
					<stop  offset="0" style="stop-color:#F3F75F"/>
					<stop  offset="1" style="stop-color:#F3F75F;stop-opacity:0"/>
				</linearGradient>
				<polygon class="st37" points="7.8,76 6.8,76 6.5,76.6 7.5,76.6 				"/>
				<linearGradient id="SVGID_36_" gradientUnits="userSpaceOnUse" x1="9.1043" y1="74.962" x2="2.0407" y2="74.962">
					<stop  offset="0" style="stop-color:#F3F75F"/>
					<stop  offset="1" style="stop-color:#F3F75F;stop-opacity:0"/>
				</linearGradient>
				<polygon class="st38" points="8.8,74.8 8.4,74.6 7.3,75.1 7.7,75.3 				"/>
				<linearGradient id="SVGID_37_" gradientUnits="userSpaceOnUse" x1="9.1046" y1="73.0347" x2="2.0387" y2="73.0347">
					<stop  offset="0" style="stop-color:#F3F75F"/>
					<stop  offset="1" style="stop-color:#F3F75F;stop-opacity:0"/>
				</linearGradient>
				<polygon class="st39" points="8.6,73.3 8.7,72.7 7.7,72.7 7.6,73.3 				"/>
				<linearGradient id="SVGID_38_" gradientUnits="userSpaceOnUse" x1="9.1044" y1="73.7603" x2="2.0407" y2="73.7603">
					<stop  offset="0" style="stop-color:#F3F75F"/>
					<stop  offset="1" style="stop-color:#F3F75F;stop-opacity:0"/>
				</linearGradient>
				<polygon class="st40" points="7.5,73.4 7.6,73.9 8,74.1 8.6,73.9 8.4,73.4 				"/>
				<linearGradient id="SVGID_39_" gradientUnits="userSpaceOnUse" x1="9.1044" y1="75.5733" x2="2.0397" y2="75.5733">
					<stop  offset="0" style="stop-color:#F3F75F"/>
					<stop  offset="1" style="stop-color:#F3F75F;stop-opacity:0"/>
				</linearGradient>
				<polygon class="st41" points="9.5,75.9 10,75.4 9.6,75.2 9,75.5 8.6,75.9 				"/>
				<linearGradient id="SVGID_40_" gradientUnits="userSpaceOnUse" x1="9.1044" y1="74.3697" x2="2.0377" y2="74.3697">
					<stop  offset="0" style="stop-color:#F3F75F"/>
					<stop  offset="1" style="stop-color:#F3F75F;stop-opacity:0"/>
				</linearGradient>
				<polygon class="st42" points="9.5,74.2 10.3,74.7 10.8,74.5 10,74 				"/>
				<linearGradient id="SVGID_41_" gradientUnits="userSpaceOnUse" x1="9.1045" y1="76.3023" x2="2.0393" y2="76.3023">
					<stop  offset="0" style="stop-color:#F3F75F"/>
					<stop  offset="1" style="stop-color:#F3F75F;stop-opacity:0"/>
				</linearGradient>
				<polygon class="st43" points="9.1,76 8.1,76 7.8,76.6 8.8,76.6 				"/>
				<linearGradient id="SVGID_42_" gradientUnits="userSpaceOnUse" x1="9.1046" y1="74.962" x2="2.0391" y2="74.962">
					<stop  offset="0" style="stop-color:#F3F75F"/>
					<stop  offset="1" style="stop-color:#F3F75F;stop-opacity:0"/>
				</linearGradient>
				<polygon class="st44" points="10.1,74.8 9.7,74.6 8.6,75.1 8.9,75.3 				"/>
				<linearGradient id="SVGID_43_" gradientUnits="userSpaceOnUse" x1="9.1046" y1="73.0347" x2="2.0414" y2="73.0347">
					<stop  offset="0" style="stop-color:#F3F75F"/>
					<stop  offset="1" style="stop-color:#F3F75F;stop-opacity:0"/>
				</linearGradient>
				<polygon class="st45" points="9.9,73.3 9.9,72.7 8.9,72.7 8.9,73.3 				"/>
				<linearGradient id="SVGID_44_" gradientUnits="userSpaceOnUse" x1="9.1044" y1="73.7603" x2="2.0402" y2="73.7603">
					<stop  offset="0" style="stop-color:#F3F75F"/>
					<stop  offset="1" style="stop-color:#F3F75F;stop-opacity:0"/>
				</linearGradient>
				<polygon class="st46" points="8.7,73.4 8.9,73.9 9.3,74.1 9.9,73.9 9.7,73.4 				"/>
				<linearGradient id="SVGID_45_" gradientUnits="userSpaceOnUse" x1="9.1044" y1="76.3023" x2="2.037" y2="76.3023">
					<stop  offset="0" style="stop-color:#F3F75F"/>
					<stop  offset="1" style="stop-color:#F3F75F;stop-opacity:0"/>
				</linearGradient>
				<polygon class="st47" points="10.4,76 9.4,76 9.1,76.6 10.1,76.6 				"/>
				<linearGradient id="SVGID_46_" gradientUnits="userSpaceOnUse" x1="9.1044" y1="73.0347" x2="2.0386" y2="73.0347">
					<stop  offset="0" style="stop-color:#F3F75F"/>
					<stop  offset="1" style="stop-color:#F3F75F;stop-opacity:0"/>
				</linearGradient>
				<polygon class="st48" points="11.2,73.3 11.2,72.7 10.2,72.7 10.2,73.3 				"/>
				<linearGradient id="SVGID_47_" gradientUnits="userSpaceOnUse" x1="9.1049" y1="73.7603" x2="2.0406" y2="73.7603">
					<stop  offset="0" style="stop-color:#F3F75F"/>
					<stop  offset="1" style="stop-color:#F3F75F;stop-opacity:0"/>
				</linearGradient>
				<polygon class="st49" points="10,73.4 10.2,73.9 10.6,74.1 11.1,73.9 11,73.4 				"/>
				<linearGradient id="SVGID_48_" gradientUnits="userSpaceOnUse" x1="9.1083" y1="73.0347" x2="2.0537" y2="73.0347">
					<stop  offset="0" style="stop-color:#F3F75F"/>
					<stop  offset="1" style="stop-color:#F3F75F;stop-opacity:0"/>
				</linearGradient>
				<polygon class="st50" points="11.5,72.7 11.4,73.3 11.5,73.3 11.7,72.7 				"/>
				<linearGradient id="SVGID_49_" gradientUnits="userSpaceOnUse" x1="9.1035" y1="73.5694" x2="2.0347" y2="73.5694">
					<stop  offset="0" style="stop-color:#F3F75F"/>
					<stop  offset="1" style="stop-color:#F3F75F;stop-opacity:0"/>
				</linearGradient>
				<polygon class="st51" points="11.5,73.4 11.3,73.4 11.4,73.7 				"/>
				<linearGradient id="SVGID_50_" gradientUnits="userSpaceOnUse" x1="9.1045" y1="74.2515" x2="2.0397" y2="74.2515">
					<stop  offset="0" style="stop-color:#F3F75F"/>
					<stop  offset="1" style="stop-color:#F3F75F;stop-opacity:0"/>
				</linearGradient>
				<polygon class="st52" points="11.3,74.1 11.3,74 10.8,74.2 11.2,74.5 				"/>
				<linearGradient id="SVGID_51_" gradientUnits="userSpaceOnUse" x1="9.1042" y1="74.962" x2="2.038" y2="74.962">
					<stop  offset="0" style="stop-color:#F3F75F"/>
					<stop  offset="1" style="stop-color:#F3F75F;stop-opacity:0"/>
				</linearGradient>
				<polygon class="st53" points="11.1,74.7 11,75 10.2,75.3 9.9,75.1 11,74.6 				"/>
				<linearGradient id="SVGID_52_" gradientUnits="userSpaceOnUse" x1="9.105" y1="75.5733" x2="2.0422" y2="75.5733">
					<stop  offset="0" style="stop-color:#F3F75F"/>
					<stop  offset="1" style="stop-color:#F3F75F;stop-opacity:0"/>
				</linearGradient>
				<polygon class="st54" points="11,75.2 10.7,75.9 9.8,75.9 10.3,75.5 10.9,75.2 				"/>
				<linearGradient id="SVGID_53_" gradientUnits="userSpaceOnUse" x1="9.1043" y1="76.3023" x2="2.0371" y2="76.3023">
					<stop  offset="0" style="stop-color:#F3F75F"/>
					<stop  offset="1" style="stop-color:#F3F75F;stop-opacity:0"/>
				</linearGradient>
				<polygon class="st55" points="10.6,76 10.7,76 10.6,76.6 10.4,76.6 				"/>
				<linearGradient id="SVGID_54_" gradientUnits="userSpaceOnUse" x1="9.1018" y1="73.0347" x2="2.0388" y2="73.0347">
					<stop  offset="0" style="stop-color:#F3F75F"/>
					<stop  offset="1" style="stop-color:#F3F75F;stop-opacity:0"/>
				</linearGradient>
				<polygon class="st56" points="0.6,72.7 0.5,73.3 0.9,73.3 1,72.7 				"/>
				<linearGradient id="SVGID_55_" gradientUnits="userSpaceOnUse" x1="9.1045" y1="73.7603" x2="2.0391" y2="73.7603">
					<stop  offset="0" style="stop-color:#F3F75F"/>
					<stop  offset="1" style="stop-color:#F3F75F;stop-opacity:0"/>
				</linearGradient>
				<polygon class="st57" points="0.7,73.4 0.4,73.4 0.2,74 0.4,74.1 0.9,73.9 				"/>
				<linearGradient id="SVGID_56_" gradientUnits="userSpaceOnUse" x1="9.1052" y1="74.4932" x2="2.0394" y2="74.4932">
					<stop  offset="0" style="stop-color:#F3F75F"/>
					<stop  offset="1" style="stop-color:#F3F75F;stop-opacity:0"/>
				</linearGradient>
				<polygon class="st58" points="0.1,74.7 0.1,74.7 0.6,74.5 0.2,74.3 				"/>
				<linearGradient id="SVGID_57_" gradientUnits="userSpaceOnUse" x1="9.1049" y1="74.962" x2="2.0394" y2="74.962">
					<stop  offset="0" style="stop-color:#F3F75F"/>
					<stop  offset="1" style="stop-color:#F3F75F;stop-opacity:0"/>
				</linearGradient>
				<polygon class="st59" points="0.8,74.6 0,75 -0.1,75.2 0,75.3 1.1,74.8 				"/>
				<linearGradient id="SVGID_58_" gradientUnits="userSpaceOnUse" x1="9.1052" y1="75.5733" x2="2.0392" y2="75.5733">
					<stop  offset="0" style="stop-color:#F3F75F"/>
					<stop  offset="1" style="stop-color:#F3F75F;stop-opacity:0"/>
				</linearGradient>
				<polygon class="st60" points="0.7,75.2 0.1,75.5 -0.3,75.8 -0.3,75.9 0.6,75.9 1.1,75.4 				"/>
				<linearGradient id="SVGID_59_" gradientUnits="userSpaceOnUse" x1="9.1043" y1="76.3023" x2="2.0392" y2="76.3023">
					<stop  offset="0" style="stop-color:#F3F75F"/>
					<stop  offset="1" style="stop-color:#F3F75F;stop-opacity:0"/>
				</linearGradient>
				<polygon class="st61" points="-0.5,76.6 -0.1,76.6 0.1,76 -0.3,76 				"/>
			</g>
			<g>
				<linearGradient id="SVGID_60_" gradientUnits="userSpaceOnUse" x1="94.4875" y1="57.6734" x2="98.2549" y2="57.6734">
					<stop  offset="0" style="stop-color:#F3F75F"/>
					<stop  offset="1" style="stop-color:#F3F75F;stop-opacity:0"/>
				</linearGradient>
				<polygon class="st62" points="91,57.5 91.8,58 92.3,57.8 91.5,57.3 				"/>
				<linearGradient id="SVGID_61_" gradientUnits="userSpaceOnUse" x1="94.4877" y1="56.3384" x2="98.255" y2="56.3384">
					<stop  offset="0" style="stop-color:#F3F75F"/>
					<stop  offset="1" style="stop-color:#F3F75F;stop-opacity:0"/>
				</linearGradient>
				<polygon class="st63" points="91.4,56.6 91.5,56 90.5,56 90.4,56.6 				"/>
				<linearGradient id="SVGID_62_" gradientUnits="userSpaceOnUse" x1="94.488" y1="57.064" x2="98.2558" y2="57.064">
					<stop  offset="0" style="stop-color:#F3F75F"/>
					<stop  offset="1" style="stop-color:#F3F75F;stop-opacity:0"/>
				</linearGradient>
				<polygon class="st64" points="90.3,56.7 90.4,57.2 90.8,57.4 91.4,57.2 91.2,56.7 				"/>
				<linearGradient id="SVGID_63_" gradientUnits="userSpaceOnUse" x1="94.4866" y1="57.6734" x2="98.2522" y2="57.6734">
					<stop  offset="0" style="stop-color:#F3F75F"/>
					<stop  offset="1" style="stop-color:#F3F75F;stop-opacity:0"/>
				</linearGradient>
				<polygon class="st65" points="92.3,57.5 93.1,58 93.6,57.8 92.8,57.3 				"/>
				<linearGradient id="SVGID_64_" gradientUnits="userSpaceOnUse" x1="94.487" y1="56.3384" x2="98.254" y2="56.3384">
					<stop  offset="0" style="stop-color:#F3F75F"/>
					<stop  offset="1" style="stop-color:#F3F75F;stop-opacity:0"/>
				</linearGradient>
				<polygon class="st66" points="92.7,56.6 92.8,56 91.8,56 91.7,56.6 				"/>
				<linearGradient id="SVGID_65_" gradientUnits="userSpaceOnUse" x1="94.4866" y1="57.064" x2="98.2527" y2="57.064">
					<stop  offset="0" style="stop-color:#F3F75F"/>
					<stop  offset="1" style="stop-color:#F3F75F;stop-opacity:0"/>
				</linearGradient>
				<polygon class="st67" points="91.5,56.7 91.7,57.2 92.1,57.4 92.7,57.2 92.5,56.7 				"/>
				<linearGradient id="SVGID_66_" gradientUnits="userSpaceOnUse" x1="94.4867" y1="58.877" x2="98.2533" y2="58.877">
					<stop  offset="0" style="stop-color:#F3F75F"/>
					<stop  offset="1" style="stop-color:#F3F75F;stop-opacity:0"/>
				</linearGradient>
				<polygon class="st68" points="93.6,59.2 94.1,58.8 93.7,58.5 93.1,58.8 92.7,59.2 				"/>
				<linearGradient id="SVGID_67_" gradientUnits="userSpaceOnUse" x1="94.487" y1="57.6734" x2="98.2541" y2="57.6734">
					<stop  offset="0" style="stop-color:#F3F75F"/>
					<stop  offset="1" style="stop-color:#F3F75F;stop-opacity:0"/>
				</linearGradient>
				<polygon class="st69" points="93.6,57.5 94.4,58 94.9,57.8 94.1,57.3 				"/>
				<linearGradient id="SVGID_68_" gradientUnits="userSpaceOnUse" x1="94.487" y1="58.2657" x2="98.2541" y2="58.2657">
					<stop  offset="0" style="stop-color:#F3F75F"/>
					<stop  offset="1" style="stop-color:#F3F75F;stop-opacity:0"/>
				</linearGradient>
				<polygon class="st70" points="94.2,58.1 93.8,57.9 92.7,58.4 93,58.6 				"/>
				<linearGradient id="SVGID_69_" gradientUnits="userSpaceOnUse" x1="94.4866" y1="56.3384" x2="98.2521" y2="56.3384">
					<stop  offset="0" style="stop-color:#F3F75F"/>
					<stop  offset="1" style="stop-color:#F3F75F;stop-opacity:0"/>
				</linearGradient>
				<polygon class="st71" points="94,56.6 94,56 93,56 93,56.6 				"/>
				<linearGradient id="SVGID_70_" gradientUnits="userSpaceOnUse" x1="94.4872" y1="57.064" x2="98.2546" y2="57.064">
					<stop  offset="0" style="stop-color:#F3F75F"/>
					<stop  offset="1" style="stop-color:#F3F75F;stop-opacity:0"/>
				</linearGradient>
				<polygon class="st72" points="92.8,56.7 93,57.2 93.4,57.4 94,57.2 93.8,56.7 				"/>
				<linearGradient id="SVGID_71_" gradientUnits="userSpaceOnUse" x1="94.487" y1="58.877" x2="98.2534" y2="58.877">
					<stop  offset="0" style="stop-color:#F3F75F"/>
					<stop  offset="1" style="stop-color:#F3F75F;stop-opacity:0"/>
				</linearGradient>
				<polygon class="st73" points="94.9,59.2 95.4,58.8 95,58.5 94.4,58.8 93.9,59.2 				"/>
				<linearGradient id="SVGID_72_" gradientUnits="userSpaceOnUse" x1="94.4872" y1="57.6734" x2="98.2531" y2="57.6734">
					<stop  offset="0" style="stop-color:#F3F75F"/>
					<stop  offset="1" style="stop-color:#F3F75F;stop-opacity:0"/>
				</linearGradient>
				<polygon class="st74" points="94.9,57.5 95.7,58 96.2,57.8 95.4,57.3 				"/>
				<linearGradient id="SVGID_73_" gradientUnits="userSpaceOnUse" x1="94.4871" y1="59.606" x2="98.2538" y2="59.606">
					<stop  offset="0" style="stop-color:#F3F75F"/>
					<stop  offset="1" style="stop-color:#F3F75F;stop-opacity:0"/>
				</linearGradient>
				<polygon class="st75" points="94.5,59.3 93.5,59.3 93.2,59.9 94.2,59.9 				"/>
				<linearGradient id="SVGID_74_" gradientUnits="userSpaceOnUse" x1="94.487" y1="58.2657" x2="98.2525" y2="58.2657">
					<stop  offset="0" style="stop-color:#F3F75F"/>
					<stop  offset="1" style="stop-color:#F3F75F;stop-opacity:0"/>
				</linearGradient>
				<polygon class="st76" points="95.4,58.1 95.1,57.9 94,58.4 94.3,58.6 				"/>
				<linearGradient id="SVGID_75_" gradientUnits="userSpaceOnUse" x1="94.4868" y1="56.3384" x2="98.2541" y2="56.3384">
					<stop  offset="0" style="stop-color:#F3F75F"/>
					<stop  offset="1" style="stop-color:#F3F75F;stop-opacity:0"/>
				</linearGradient>
				<polygon class="st77" points="95.3,56.6 95.3,56 94.3,56 94.3,56.6 				"/>
				<linearGradient id="SVGID_76_" gradientUnits="userSpaceOnUse" x1="94.487" y1="57.064" x2="98.2531" y2="57.064">
					<stop  offset="0" style="stop-color:#F3F75F"/>
					<stop  offset="1" style="stop-color:#F3F75F;stop-opacity:0"/>
				</linearGradient>
				<polygon class="st78" points="94.1,56.7 94.3,57.2 94.7,57.4 95.2,57.2 95.1,56.7 				"/>
				<linearGradient id="SVGID_77_" gradientUnits="userSpaceOnUse" x1="94.4866" y1="58.877" x2="98.2543" y2="58.877">
					<stop  offset="0" style="stop-color:#F3F75F"/>
					<stop  offset="1" style="stop-color:#F3F75F;stop-opacity:0"/>
				</linearGradient>
				<polygon class="st79" points="96.2,59.2 96.6,58.8 96.3,58.5 95.7,58.8 95.2,59.2 				"/>
				<linearGradient id="SVGID_78_" gradientUnits="userSpaceOnUse" x1="94.4868" y1="57.6734" x2="98.2539" y2="57.6734">
					<stop  offset="0" style="stop-color:#F3F75F"/>
					<stop  offset="1" style="stop-color:#F3F75F;stop-opacity:0"/>
				</linearGradient>
				<polygon class="st80" points="96.1,57.5 96.9,58 97.4,57.8 96.6,57.3 				"/>
				<linearGradient id="SVGID_79_" gradientUnits="userSpaceOnUse" x1="94.487" y1="59.606" x2="98.2533" y2="59.606">
					<stop  offset="0" style="stop-color:#F3F75F"/>
					<stop  offset="1" style="stop-color:#F3F75F;stop-opacity:0"/>
				</linearGradient>
				<polygon class="st81" points="95.7,59.3 94.7,59.3 94.5,59.9 95.5,59.9 				"/>
				<linearGradient id="SVGID_80_" gradientUnits="userSpaceOnUse" x1="94.4868" y1="58.2657" x2="98.2539" y2="58.2657">
					<stop  offset="0" style="stop-color:#F3F75F"/>
					<stop  offset="1" style="stop-color:#F3F75F;stop-opacity:0"/>
				</linearGradient>
				<polygon class="st82" points="96.7,58.1 96.4,57.9 95.2,58.4 95.6,58.6 				"/>
				<linearGradient id="SVGID_81_" gradientUnits="userSpaceOnUse" x1="94.4875" y1="56.3384" x2="98.2527" y2="56.3384">
					<stop  offset="0" style="stop-color:#F3F75F"/>
					<stop  offset="1" style="stop-color:#F3F75F;stop-opacity:0"/>
				</linearGradient>
				<polygon class="st83" points="96.5,56.6 96.6,56 95.6,56 95.5,56.6 				"/>
				<linearGradient id="SVGID_82_" gradientUnits="userSpaceOnUse" x1="94.4865" y1="57.064" x2="98.2543" y2="57.064">
					<stop  offset="0" style="stop-color:#F3F75F"/>
					<stop  offset="1" style="stop-color:#F3F75F;stop-opacity:0"/>
				</linearGradient>
				<polygon class="st84" points="95.4,56.7 95.6,57.2 96,57.4 96.5,57.2 96.3,56.7 				"/>
				<linearGradient id="SVGID_83_" gradientUnits="userSpaceOnUse" x1="94.4871" y1="58.877" x2="98.2537" y2="58.877">
					<stop  offset="0" style="stop-color:#F3F75F"/>
					<stop  offset="1" style="stop-color:#F3F75F;stop-opacity:0"/>
				</linearGradient>
				<polygon class="st85" points="97.5,59.2 97.9,58.8 97.5,58.5 96.9,58.8 96.5,59.2 				"/>
				<linearGradient id="SVGID_84_" gradientUnits="userSpaceOnUse" x1="94.4877" y1="57.6734" x2="98.2537" y2="57.6734">
					<stop  offset="0" style="stop-color:#F3F75F"/>
					<stop  offset="1" style="stop-color:#F3F75F;stop-opacity:0"/>
				</linearGradient>
				<polygon class="st86" points="97.4,57.5 98.2,58 98.7,57.8 97.9,57.3 				"/>
				<linearGradient id="SVGID_85_" gradientUnits="userSpaceOnUse" x1="94.4864" y1="59.606" x2="98.2542" y2="59.606">
					<stop  offset="0" style="stop-color:#F3F75F"/>
					<stop  offset="1" style="stop-color:#F3F75F;stop-opacity:0"/>
				</linearGradient>
				<polygon class="st87" points="97,59.3 96,59.3 95.7,59.9 96.7,59.9 				"/>
				<linearGradient id="SVGID_86_" gradientUnits="userSpaceOnUse" x1="94.4867" y1="58.2657" x2="98.2535" y2="58.2657">
					<stop  offset="0" style="stop-color:#F3F75F"/>
					<stop  offset="1" style="stop-color:#F3F75F;stop-opacity:0"/>
				</linearGradient>
				<polygon class="st88" points="98,58.1 97.6,57.9 96.5,58.4 96.9,58.6 				"/>
				<linearGradient id="SVGID_87_" gradientUnits="userSpaceOnUse" x1="94.4865" y1="56.3384" x2="98.2538" y2="56.3384">
					<stop  offset="0" style="stop-color:#F3F75F"/>
					<stop  offset="1" style="stop-color:#F3F75F;stop-opacity:0"/>
				</linearGradient>
				<polygon class="st89" points="97.8,56.6 97.9,56 96.9,56 96.8,56.6 				"/>
				<linearGradient id="SVGID_88_" gradientUnits="userSpaceOnUse" x1="94.4875" y1="57.064" x2="98.2536" y2="57.064">
					<stop  offset="0" style="stop-color:#F3F75F"/>
					<stop  offset="1" style="stop-color:#F3F75F;stop-opacity:0"/>
				</linearGradient>
				<polygon class="st90" points="96.7,56.7 96.8,57.2 97.2,57.4 97.8,57.2 97.6,56.7 				"/>
				<linearGradient id="SVGID_89_" gradientUnits="userSpaceOnUse" x1="94.487" y1="59.606" x2="98.2536" y2="59.606">
					<stop  offset="0" style="stop-color:#F3F75F"/>
					<stop  offset="1" style="stop-color:#F3F75F;stop-opacity:0"/>
				</linearGradient>
				<polygon class="st91" points="98.3,59.3 97.3,59.3 97,59.9 98,59.9 				"/>
				<linearGradient id="SVGID_90_" gradientUnits="userSpaceOnUse" x1="94.4882" y1="56.3384" x2="98.2537" y2="56.3384">
					<stop  offset="0" style="stop-color:#F3F75F"/>
					<stop  offset="1" style="stop-color:#F3F75F;stop-opacity:0"/>
				</linearGradient>
				<polygon class="st92" points="99.1,56.6 99.1,56 98.1,56 98.1,56.6 				"/>
				<linearGradient id="SVGID_91_" gradientUnits="userSpaceOnUse" x1="94.4874" y1="57.064" x2="98.2535" y2="57.064">
					<stop  offset="0" style="stop-color:#F3F75F"/>
					<stop  offset="1" style="stop-color:#F3F75F;stop-opacity:0"/>
				</linearGradient>
				<polygon class="st93" points="97.9,56.7 98.1,57.2 98.5,57.4 99.1,57.2 98.9,56.7 				"/>
				<linearGradient id="SVGID_92_" gradientUnits="userSpaceOnUse" x1="94.4849" y1="56.3384" x2="98.2531" y2="56.3384">
					<stop  offset="0" style="stop-color:#F3F75F"/>
					<stop  offset="1" style="stop-color:#F3F75F;stop-opacity:0"/>
				</linearGradient>
				<polygon class="st94" points="99.4,56 99.4,56.6 99.5,56.6 99.6,56 				"/>
				<linearGradient id="SVGID_93_" gradientUnits="userSpaceOnUse" x1="94.4844" y1="56.8731" x2="98.2529" y2="56.8731">
					<stop  offset="0" style="stop-color:#F3F75F"/>
					<stop  offset="1" style="stop-color:#F3F75F;stop-opacity:0"/>
				</linearGradient>
				<polygon class="st95" points="99.4,56.7 99.2,56.7 99.3,57 				"/>
				<linearGradient id="SVGID_94_" gradientUnits="userSpaceOnUse" x1="94.4873" y1="57.5552" x2="98.2537" y2="57.5552">
					<stop  offset="0" style="stop-color:#F3F75F"/>
					<stop  offset="1" style="stop-color:#F3F75F;stop-opacity:0"/>
				</linearGradient>
				<polygon class="st96" points="99.2,57.4 99.2,57.3 98.7,57.5 99.1,57.8 				"/>
				<linearGradient id="SVGID_95_" gradientUnits="userSpaceOnUse" x1="94.4866" y1="58.2657" x2="98.2537" y2="58.2657">
					<stop  offset="0" style="stop-color:#F3F75F"/>
					<stop  offset="1" style="stop-color:#F3F75F;stop-opacity:0"/>
				</linearGradient>
				<polygon class="st97" points="99,58 99,58.3 98.1,58.6 97.8,58.4 98.9,57.9 				"/>
				<linearGradient id="SVGID_96_" gradientUnits="userSpaceOnUse" x1="94.4866" y1="58.877" x2="98.2536" y2="58.877">
					<stop  offset="0" style="stop-color:#F3F75F"/>
					<stop  offset="1" style="stop-color:#F3F75F;stop-opacity:0"/>
				</linearGradient>
				<polygon class="st98" points="98.9,58.6 98.7,59.2 97.8,59.2 98.2,58.8 98.8,58.5 				"/>
				<linearGradient id="SVGID_97_" gradientUnits="userSpaceOnUse" x1="94.4869" y1="59.606" x2="98.2535" y2="59.606">
					<stop  offset="0" style="stop-color:#F3F75F"/>
					<stop  offset="1" style="stop-color:#F3F75F;stop-opacity:0"/>
				</linearGradient>
				<polygon class="st99" points="98.6,59.3 98.7,59.3 98.5,59.9 98.3,59.9 				"/>
			</g>
			<linearGradient id="SVGID_98_" gradientUnits="userSpaceOnUse" x1="94.4715" y1="56.3384" x2="98.2247" y2="56.3384">
				<stop  offset="0" style="stop-color:#F3F75F"/>
				<stop  offset="1" style="stop-color:#F3F75F;stop-opacity:0"/>
			</linearGradient>
			<path class="st100" d="M89.2,56.6h0.9l0.1-0.6h-1L89.2,56.6C89.2,56.6,89.2,56.6,89.2,56.6z"/>
			<path class="st2" d="M30,67.2h7.1v3.5H30V67.2z"/>
			<polygon class="st2" points="33.5,56 22.9,56 22.9,56 22.9,69.6 14.1,56 10.3,56 10.3,76.6 14.2,76.6 14.2,63.1 23,76.6 
				26.8,76.6 26.8,59.9 33.5,59.9 			"/>
		</g>
		<linearGradient id="SVGID_99_" gradientUnits="userSpaceOnUse" x1="93.6857" y1="59.5177" x2="95.1476" y2="59.5177">
			<stop  offset="0" style="stop-color:#F3F75F"/>
			<stop  offset="1" style="stop-color:#F3F75F;stop-opacity:0"/>
		</linearGradient>
		<path class="st101" d="M93,59.7l0.2-0.4h-0.5C92.8,59.5,92.9,59.6,93,59.7z"/>
		<linearGradient id="SVGID_100_" gradientUnits="userSpaceOnUse" x1="93.6721" y1="58.8057" x2="95.6029" y2="58.8057">
			<stop  offset="0" style="stop-color:#F3F75F"/>
			<stop  offset="1" style="stop-color:#F3F75F;stop-opacity:0"/>
		</linearGradient>
		<path class="st102" d="M92.5,59.1l0.3-0.4l-0.4-0.2l-0.3,0.2C92.2,58.8,92.3,59,92.5,59.1z"/>
		<linearGradient id="SVGID_101_" gradientUnits="userSpaceOnUse" x1="92.3059" y1="58.0347" x2="93.2275" y2="58.0347">
			<stop  offset="0" style="stop-color:#F3F75F"/>
			<stop  offset="1" style="stop-color:#F3F75F;stop-opacity:0"/>
		</linearGradient>
		<path class="st103" d="M91.5,58.2L91.5,58.2l-0.3-0.2l0,0C91.3,58,91.4,58.1,91.5,58.2z"/>
		<linearGradient id="SVGID_102_" gradientUnits="userSpaceOnUse" x1="92.838" y1="56.9117" x2="95.2042" y2="56.9117">
			<stop  offset="0" style="stop-color:#F3F75F"/>
			<stop  offset="1" style="stop-color:#F3F75F;stop-opacity:0"/>
		</linearGradient>
		<path class="st104" d="M90.1,57.1L90,56.7h-0.6C89.6,56.8,89.9,57,90.1,57.1z"/>
		<linearGradient id="SVGID_103_" gradientUnits="userSpaceOnUse" x1="93.4672" y1="56.2574" x2="96.5427" y2="56.2574">
			<stop  offset="0" style="stop-color:#F3F75F"/>
			<stop  offset="1" style="stop-color:#F3F75F;stop-opacity:0"/>
		</linearGradient>
		<path class="st105" d="M88.9,56.5l0-0.4h-0.4l-0.1,0.2C88.6,56.3,88.8,56.4,88.9,56.5z"/>
		<linearGradient id="SVGID_104_" gradientUnits="userSpaceOnUse" x1="84.6962" y1="57.9712" x2="93.6959" y2="57.9712">
			<stop  offset="0.4743" style="stop-color:#F3F75F"/>
			<stop  offset="0.9734" style="stop-color:#F3F75F;stop-opacity:2.661700e-02"/>
		</linearGradient>
		<path class="st106" d="M93.1,59.9h0.8V56h-6.1C90,56.8,91.8,58.1,93.1,59.9z"/>
		<g>
			<path class="st2" d="M94.3,66.9c0-0.2,0-0.3,0-0.5c0-0.1,0-0.2,0-0.3l-0.4,0c0-0.1,0-0.2,0-0.3l0.4,0c0-0.3,0-0.5-0.1-0.8l-0.4,0
				c0-0.1,0-0.2,0-0.3l0.4-0.1c0-0.3-0.1-0.5-0.1-0.8L93.7,64c0-0.1,0-0.2-0.1-0.3l0.4-0.1c-0.1-0.3-0.1-0.5-0.2-0.8L93.4,63
				c0-0.1-0.1-0.2-0.1-0.2l0.4-0.1c-0.1-0.3-0.2-0.5-0.3-0.8L93,62c0-0.1-0.1-0.2-0.1-0.2l0.4-0.2c-0.1-0.2-0.2-0.5-0.4-0.7
				l-0.3,0.2c0-0.1-0.1-0.1-0.1-0.2l0.3-0.2c-0.1-0.2-0.3-0.5-0.5-0.7L92,60.2c-0.1-0.1-0.1-0.1-0.2-0.2l0.3-0.2
				c-0.2-0.2-0.3-0.4-0.5-0.6l-0.3,0.3c-0.1-0.1-0.1-0.1-0.2-0.2l0.3-0.3c-0.1-0.1-0.2-0.2-0.2-0.3c-0.1-0.1-0.2-0.2-0.3-0.3
				l-0.3,0.3c-0.1-0.1-0.1-0.1-0.2-0.2l0.3-0.3c-0.2-0.2-0.4-0.4-0.6-0.5L89.8,58c-0.1-0.1-0.1-0.1-0.2-0.2l0.2-0.3
				c-0.2-0.2-0.4-0.3-0.7-0.5l-0.2,0.3c-0.1,0-0.1-0.1-0.2-0.1l0.2-0.3c-0.2-0.1-0.5-0.3-0.7-0.4L88,56.9c-0.1,0-0.2-0.1-0.2-0.1
				l0.2-0.4c-0.2-0.1-0.5-0.2-0.8-0.3l-0.1,0.4c-0.1,0-0.2-0.1-0.2-0.1l0.1-0.4c-0.3-0.1-0.5-0.1-0.8-0.2L86,56.2
				c-0.1,0-0.2,0-0.3-0.1l0.1-0.4c-0.3-0.1-0.5-0.1-0.8-0.1l0,0.4c-0.1,0-0.2,0-0.3,0l0-0.4c-0.3,0-0.5,0-0.8,0l0,0.4
				c-0.1,0-0.2,0-0.3,0l0-0.4c-0.3,0-0.6,0-0.8,0l0,0.4c-0.1,0-0.2,0-0.3,0l0-0.4c-0.3,0-0.5,0.1-0.8,0.1l0.1,0.3h-0.3l-0.1-0.3
				c-0.3,0.1-0.5,0.1-0.8,0.2l0,0.1h-0.3l0,0c0,0,0,0,0,0H74l-0.9,3.8h1.9c-0.1,0.2-0.2,0.3-0.4,0.5l0.3,0.2c0,0.1-0.1,0.1-0.1,0.2
				l-0.3-0.2c-0.1,0.1-0.1,0.2-0.2,0.3c-0.1,0.2-0.2,0.3-0.2,0.5l0.4,0.2c0,0.1-0.1,0.2-0.1,0.2l-0.4-0.2c-0.1,0.2-0.2,0.5-0.3,0.7
				l0.4,0.1c0,0.1-0.1,0.2-0.1,0.2l-0.4-0.1c-0.1,0.3-0.2,0.5-0.2,0.8l0.4,0.1c0,0.1,0,0.2-0.1,0.3l-0.4-0.1
				c-0.1,0.3-0.1,0.5-0.2,0.8l0.4,0.1c0,0.1,0,0.2,0,0.3l-0.4-0.1c0,0.3-0.1,0.5-0.1,0.8l0.4,0c0,0.1,0,0.2,0,0.3l-0.4,0
				c0,0.2,0,0.3,0,0.5c0,0.1,0,0.2,0,0.3l0.4,0c0,0.1,0,0.2,0,0.3l-0.4,0c0,0.3,0,0.5,0.1,0.8l0.4,0c0,0.1,0,0.2,0,0.3L73.1,68
				c0,0.3,0.1,0.5,0.1,0.8l0.4-0.1c0,0.1,0,0.2,0.1,0.3L73.3,69c0.1,0.3,0.1,0.5,0.2,0.8l0.4-0.1c0,0.1,0.1,0.2,0.1,0.2l-0.4,0.1
				c0.1,0.3,0.2,0.5,0.3,0.8l0.4-0.2c0,0.1,0.1,0.2,0.1,0.2l-0.4,0.2c0.1,0.2,0.2,0.5,0.4,0.7l0.3-0.2c0,0.1,0.1,0.1,0.1,0.2
				L74.6,72c0.1,0.2,0.3,0.5,0.5,0.7l0.3-0.2c0.1,0.1,0.1,0.1,0.2,0.2l-0.3,0.2c0.2,0.2,0.3,0.4,0.5,0.6l0.3-0.3
				c0.1,0.1,0.1,0.1,0.2,0.2l-0.3,0.3c0,0.1,0.1,0.1,0.1,0.2c0.1,0.1,0.3,0.3,0.4,0.4l0.3-0.3c0.1,0.1,0.1,0.1,0.2,0.2l-0.3,0.3
				c0.2,0.2,0.4,0.4,0.6,0.5l0.2-0.3c0.1,0.1,0.1,0.1,0.2,0.2l-0.2,0.3c0.2,0.2,0.5,0.3,0.7,0.4l0.2-0.3c0.1,0,0.1,0.1,0.2,0.1
				l-0.2,0.3c0.2,0.1,0.5,0.3,0.7,0.4l0.2-0.4c0.1,0,0.2,0.1,0.2,0.1l-0.2,0.4c0.2,0.1,0.5,0.2,0.8,0.3l0.1-0.4
				c0.1,0,0.2,0.1,0.2,0.1l-0.1,0.4c0.3,0.1,0.5,0.1,0.8,0.2l0.1-0.4c0.1,0,0.2,0,0.3,0.1l-0.1,0.4c0.3,0.1,0.5,0.1,0.8,0.1l0-0.4
				c0.1,0,0.2,0,0.3,0l0,0.4c0.3,0,0.5,0,0.8,0l0-0.4c0.1,0,0.2,0,0.3,0l0,0.4c0,0,0,0,0.1,0c0.3,0,0.5,0,0.8,0l0-0.4
				c0.1,0,0.2,0,0.3,0l0,0.4c0.3,0,0.5-0.1,0.8-0.1l-0.1-0.4c0.1,0,0.2,0,0.3,0l0.1,0.4c0.3-0.1,0.5-0.1,0.8-0.2l-0.1-0.4
				c0.1,0,0.2,0,0.3-0.1l0.1,0.4c0.3-0.1,0.5-0.2,0.8-0.3L87.5,76c0.1,0,0.2-0.1,0.2-0.1l0.2,0.4c0.2-0.1,0.5-0.2,0.7-0.4l-0.2-0.4
				c0.1,0,0.2-0.1,0.2-0.1l0.2,0.3c0.2-0.1,0.5-0.3,0.7-0.4L89.4,75c0.1,0,0.1-0.1,0.2-0.2l0.2,0.3c0.2-0.2,0.4-0.3,0.7-0.5
				l-0.3-0.3c0.1-0.1,0.1-0.1,0.2-0.2l0.3,0.3c0.2-0.2,0.4-0.3,0.6-0.5c0,0,0,0,0,0L91,73.7c0.1-0.1,0.1-0.1,0.2-0.2l0.3,0.3
				c0.2-0.2,0.4-0.4,0.5-0.6l-0.3-0.3c0.1-0.1,0.1-0.1,0.2-0.2l0.3,0.2c0.2-0.2,0.3-0.4,0.5-0.7l-0.3-0.2c0-0.1,0.1-0.1,0.1-0.2
				l0.3,0.2c0.1-0.2,0.3-0.5,0.4-0.7l-0.4-0.2c0-0.1,0.1-0.2,0.1-0.2l0.4,0.2c0.1-0.2,0.2-0.5,0.3-0.7l-0.4-0.1
				c0-0.1,0.1-0.2,0.1-0.2l0.4,0.1c0.1-0.3,0.2-0.5,0.2-0.8l-0.4-0.1c0-0.1,0-0.2,0.1-0.3l0.4,0.1c0.1-0.3,0.1-0.5,0.2-0.8l-0.4-0.1
				c0-0.1,0-0.2,0-0.3l0.4,0.1c0-0.3,0.1-0.5,0.1-0.8l-0.4,0c0-0.1,0-0.2,0-0.3L94.3,66.9z M75.5,60l-0.1-0.1L75.5,60
				C75.6,59.9,75.5,60,75.5,60z M88,70.8c-1.2,1.2-2.6,1.8-4.3,1.8c-1.5,0-2.8-0.5-3.9-1.4c-1.5-1.2-2.2-2.8-2.2-4.8
				c0-1.8,0.6-3.3,1.7-4.5c1.2-1.2,2.6-1.8,4.3-1.8c1.7,0,3.1,0.6,4.3,1.8c1.2,1.2,1.8,2.7,1.8,4.5C89.8,68.1,89.2,69.6,88,70.8z"/>
			<polygon class="st2" points="63.5,56 64.6,59.9 68.4,59.9 66.3,69.2 62.6,56 53.6,56 54.5,59.9 58.3,59.9 55.7,69.2 52.7,56 
				36.6,56 36.6,59.9 36.6,59.9 40.2,59.9 40.2,76.6 44.2,76.6 44.2,59.9 49.7,59.9 53.5,76.6 57.2,76.6 60.9,63.3 64.7,76.6 
				68.5,76.6 73.1,56 			"/>
		</g>
	</g>
</g>
</svg>
