<?xml version="1.0" encoding="utf-8"?>
<!-- Generator: Adobe Illustrator 23.0.6, SVG Export Plug-In . SVG Version: 6.00 Build 0)  -->
<svg version="1.1" id="レイヤー_1" xmlns="http://www.w3.org/2000/svg" xmlns:xlink="http://www.w3.org/1999/xlink" x="0px"
	 y="0px" viewBox="0 0 297 76" style="enable-background:new 0 0 297 76;" xml:space="preserve">
<style type="text/css">
	.st0{fill:#FFFFFF;}
	.st1{fill:#989489;}
	.st2{fill:#E1E300;}
	.st3{fill:url(#SVGID_1_);}
	.st4{fill:url(#SVGID_2_);}
	.st5{fill:url(#SVGID_3_);}
	.st6{fill:url(#SVGID_4_);}
	.st7{fill:url(#SVGID_5_);}
	.st8{fill:url(#SVGID_6_);}
	.st9{fill:url(#SVGID_7_);}
	.st10{fill:url(#SVGID_8_);}
	.st11{fill:url(#SVGID_9_);}
	.st12{fill:url(#SVGID_10_);}
	.st13{fill:url(#SVGID_11_);}
	.st14{fill:url(#SVGID_12_);}
	.st15{fill:url(#SVGID_13_);}
	.st16{fill:url(#SVGID_14_);}
	.st17{fill:url(#SVGID_15_);}
	.st18{fill:url(#SVGID_16_);}
	.st19{fill:url(#SVGID_17_);}
	.st20{fill:url(#SVGID_18_);}
	.st21{fill:url(#SVGID_19_);}
	.st22{fill:url(#SVGID_20_);}
	.st23{fill:url(#SVGID_21_);}
	.st24{fill:url(#SVGID_22_);}
	.st25{fill:url(#SVGID_23_);}
	.st26{fill:url(#SVGID_24_);}
	.st27{fill:url(#SVGID_25_);}
	.st28{fill:url(#SVGID_26_);}
	.st29{fill:url(#SVGID_27_);}
	.st30{fill:url(#SVGID_28_);}
	.st31{fill:url(#SVGID_29_);}
	.st32{fill:url(#SVGID_30_);}
	.st33{fill:url(#SVGID_31_);}
	.st34{fill:url(#SVGID_32_);}
	.st35{fill:url(#SVGID_33_);}
	.st36{fill:url(#SVGID_34_);}
	.st37{fill:url(#SVGID_35_);}
	.st38{fill:url(#SVGID_36_);}
	.st39{fill:url(#SVGID_37_);}
	.st40{fill:url(#SVGID_38_);}
	.st41{fill:url(#SVGID_39_);}
	.st42{fill:url(#SVGID_40_);}
	.st43{fill:url(#SVGID_41_);}
	.st44{fill:url(#SVGID_42_);}
	.st45{fill:url(#SVGID_43_);}
	.st46{fill:url(#SVGID_44_);}
	.st47{fill:url(#SVGID_45_);}
	.st48{fill:url(#SVGID_46_);}
	.st49{fill:url(#SVGID_47_);}
	.st50{fill:url(#SVGID_48_);}
	.st51{fill:url(#SVGID_49_);}
	.st52{fill:url(#SVGID_50_);}
	.st53{fill:url(#SVGID_51_);}
	.st54{fill:url(#SVGID_52_);}
	.st55{fill:url(#SVGID_53_);}
	.st56{fill:url(#SVGID_54_);}
	.st57{fill:url(#SVGID_55_);}
	.st58{fill:url(#SVGID_56_);}
	.st59{fill:url(#SVGID_57_);}
	.st60{fill:url(#SVGID_58_);}
	.st61{fill:url(#SVGID_59_);}
	.st62{fill:url(#SVGID_60_);}
	.st63{fill:url(#SVGID_61_);}
	.st64{fill:url(#SVGID_62_);}
	.st65{fill:url(#SVGID_63_);}
	.st66{fill:url(#SVGID_64_);}
	.st67{fill:url(#SVGID_65_);}
	.st68{fill:url(#SVGID_66_);}
	.st69{fill:url(#SVGID_67_);}
	.st70{fill:url(#SVGID_68_);}
	.st71{fill:url(#SVGID_69_);}
	.st72{fill:url(#SVGID_70_);}
	.st73{fill:url(#SVGID_71_);}
	.st74{fill:url(#SVGID_72_);}
	.st75{fill:url(#SVGID_73_);}
	.st76{fill:url(#SVGID_74_);}
	.st77{fill:url(#SVGID_75_);}
	.st78{fill:url(#SVGID_76_);}
	.st79{fill:url(#SVGID_77_);}
	.st80{fill:url(#SVGID_78_);}
	.st81{fill:url(#SVGID_79_);}
	.st82{fill:url(#SVGID_80_);}
	.st83{fill:url(#SVGID_81_);}
	.st84{fill:url(#SVGID_82_);}
	.st85{fill:url(#SVGID_83_);}
	.st86{fill:url(#SVGID_84_);}
	.st87{fill:url(#SVGID_85_);}
	.st88{fill:url(#SVGID_86_);}
	.st89{fill:url(#SVGID_87_);}
	.st90{fill:url(#SVGID_88_);}
	.st91{fill:url(#SVGID_89_);}
	.st92{fill:url(#SVGID_90_);}
	.st93{fill:url(#SVGID_91_);}
	.st94{fill:url(#SVGID_92_);}
	.st95{fill:url(#SVGID_93_);}
	.st96{fill:url(#SVGID_94_);}
	.st97{fill:url(#SVGID_95_);}
	.st98{fill:url(#SVGID_96_);}
	.st99{fill:url(#SVGID_97_);}
	.st100{fill:url(#SVGID_98_);}
	.st101{fill:url(#SVGID_99_);}
	.st102{fill:url(#SVGID_100_);}
	.st103{fill:url(#SVGID_101_);}
	.st104{fill:url(#SVGID_102_);}
	.st105{fill:url(#SVGID_103_);}
	.st106{fill:url(#SVGID_104_);}
</style>
<g>
	<g>
		<ellipse class="st0" cx="37.9" cy="38.1" rx="34.5" ry="34.5"/>
		<g>
			<g>
				<path class="st1" d="M38.6,68.6v-18h18.7V47h-7.6v-7.2h15.2v18H46.2v3.6h16.4c5.8-6.1,9.3-14.3,9.3-23.3
					c0-18.7-15.2-33.9-33.9-33.9S4,19.4,4,38.1C4,56.8,19.2,72,37.9,72c5.3,0,10.3-1.2,14.8-3.4H38.6z"/>
				<path class="st2" d="M65,12.5c-0.1-0.1-0.2-0.2-0.3-0.3c-1.2-1.3-2.6-2.5-4-3.6c0,0-0.1-0.1-0.1-0.1c-0.7-0.6-1.5-1.1-2.3-1.6
					l0,0l0,0c-5.9-3.9-12.9-6.1-20.5-6.1c-7.6,0-14.6,2.3-20.5,6.1l0,0l0,0c-1.2,0.8-2.4,1.7-3.5,2.6l0,0l0,0
					C5.7,16.4,0.6,26.6,0.6,38.1s5.2,21.7,13.3,28.5l0,0l0,0c1.1,1,2.3,1.9,3.6,2.7c0.1,0,0.1,0.1,0.2,0.1c0.5,0.4,1.1,0.7,1.7,1
					c0.1,0.1,0.2,0.1,0.3,0.2c5.4,3,11.6,4.8,18.3,4.8c20.6,0,37.3-16.7,37.3-37.3C75.2,28.2,71.3,19.2,65,12.5z M37.9,4.2
					c4.7,0,9.2,1,13.3,2.7H38.4h0v26.4L22,8.2C26.7,5.7,32.2,4.2,37.9,4.2z M4,38.1c0-9.3,3.7-17.7,9.8-23.8v47.6
					C7.8,55.8,4,47.4,4,38.1z M37.9,72c-6,0-11.6-1.6-16.5-4.3v-47l17.2,26.4H46V14.5h16.2c6,6.1,9.6,14.4,9.6,23.7
					C71.8,56.8,56.7,72,37.9,72z"/>
			</g>
		</g>
	</g>
	<linearGradient id="SVGID_1_" gradientUnits="userSpaceOnUse" x1="284.3136" y1="19.5531" x2="290.9857" y2="19.5531">
		<stop  offset="0" style="stop-color:#E1E300"/>
		<stop  offset="1" style="stop-color:#E1E300;stop-opacity:0"/>
	</linearGradient>
	<path class="st3" d="M279.5,20.2l2-0.9l-0.8-0.5l-1.8,0.8C279.1,19.9,279.3,20,279.5,20.2z"/>
	<g>
		<linearGradient id="SVGID_2_" gradientUnits="userSpaceOnUse" x1="101.449" y1="54.2324" x2="86.2666" y2="54.2324">
			<stop  offset="0" style="stop-color:#E1E300"/>
			<stop  offset="1" style="stop-color:#E1E300;stop-opacity:0"/>
		</linearGradient>
		<polygon class="st4" points="83,53.9 84.8,55 85.8,54.5 84.1,53.5 		"/>
		<linearGradient id="SVGID_3_" gradientUnits="userSpaceOnUse" x1="101.4488" y1="56.8174" x2="86.2666" y2="56.8174">
			<stop  offset="0" style="stop-color:#E1E300"/>
			<stop  offset="1" style="stop-color:#E1E300;stop-opacity:0"/>
		</linearGradient>
		<polygon class="st5" points="85.9,57.6 86.9,56.5 86.1,56 84.8,56.6 83.8,57.6 		"/>
		<linearGradient id="SVGID_4_" gradientUnits="userSpaceOnUse" x1="101.4489" y1="54.2324" x2="86.2666" y2="54.2324">
			<stop  offset="0" style="stop-color:#E1E300"/>
			<stop  offset="1" style="stop-color:#E1E300;stop-opacity:0"/>
		</linearGradient>
		<polygon class="st6" points="85.8,53.9 87.5,55 88.6,54.5 86.9,53.5 		"/>
		<linearGradient id="SVGID_5_" gradientUnits="userSpaceOnUse" x1="101.4488" y1="58.3841" x2="86.2666" y2="58.3841">
			<stop  offset="0" style="stop-color:#E1E300"/>
			<stop  offset="1" style="stop-color:#E1E300;stop-opacity:0"/>
		</linearGradient>
		<polygon class="st7" points="84.9,57.8 82.8,57.8 82.2,59 84.3,59 		"/>
		<linearGradient id="SVGID_6_" gradientUnits="userSpaceOnUse" x1="101.4488" y1="55.5048" x2="86.2667" y2="55.5048">
			<stop  offset="0" style="stop-color:#E1E300"/>
			<stop  offset="1" style="stop-color:#E1E300;stop-opacity:0"/>
		</linearGradient>
		<polygon class="st8" points="87,55.2 86.3,54.7 83.9,55.8 84.6,56.3 		"/>
		<linearGradient id="SVGID_7_" gradientUnits="userSpaceOnUse" x1="101.4492" y1="51.3655" x2="86.2666" y2="51.3655">
			<stop  offset="0" style="stop-color:#E1E300"/>
			<stop  offset="1" style="stop-color:#E1E300;stop-opacity:0"/>
		</linearGradient>
		<polygon class="st9" points="86.6,52 86.8,50.7 84.6,50.7 84.5,52 		"/>
		<linearGradient id="SVGID_8_" gradientUnits="userSpaceOnUse" x1="101.4488" y1="52.9229" x2="86.2666" y2="52.9229">
			<stop  offset="0" style="stop-color:#E1E300"/>
			<stop  offset="1" style="stop-color:#E1E300;stop-opacity:0"/>
		</linearGradient>
		<polygon class="st10" points="84.2,52.2 84.5,53.2 85.4,53.7 86.6,53.2 86.2,52.2 		"/>
		<linearGradient id="SVGID_9_" gradientUnits="userSpaceOnUse" x1="101.4486" y1="56.8174" x2="86.2666" y2="56.8174">
			<stop  offset="0" style="stop-color:#E1E300"/>
			<stop  offset="1" style="stop-color:#E1E300;stop-opacity:0"/>
		</linearGradient>
		<polygon class="st11" points="88.6,57.6 89.6,56.5 88.8,56 87.5,56.6 86.6,57.6 		"/>
		<linearGradient id="SVGID_10_" gradientUnits="userSpaceOnUse" x1="101.4489" y1="54.2324" x2="86.2666" y2="54.2324">
			<stop  offset="0" style="stop-color:#E1E300"/>
			<stop  offset="1" style="stop-color:#E1E300;stop-opacity:0"/>
		</linearGradient>
		<polygon class="st12" points="88.5,53.9 90.3,55 91.3,54.5 89.6,53.5 		"/>
		<linearGradient id="SVGID_11_" gradientUnits="userSpaceOnUse" x1="101.4482" y1="58.3841" x2="86.2666" y2="58.3841">
			<stop  offset="0" style="stop-color:#E1E300"/>
			<stop  offset="1" style="stop-color:#E1E300;stop-opacity:0"/>
		</linearGradient>
		<polygon class="st13" points="87.7,57.8 85.5,57.8 84.9,59 87.1,59 		"/>
		<linearGradient id="SVGID_12_" gradientUnits="userSpaceOnUse" x1="101.4487" y1="55.5048" x2="86.2666" y2="55.5048">
			<stop  offset="0" style="stop-color:#E1E300"/>
			<stop  offset="1" style="stop-color:#E1E300;stop-opacity:0"/>
		</linearGradient>
		<polygon class="st14" points="89.8,55.2 89,54.7 86.6,55.8 87.4,56.3 		"/>
		<linearGradient id="SVGID_13_" gradientUnits="userSpaceOnUse" x1="101.4485" y1="51.3655" x2="86.2666" y2="51.3655">
			<stop  offset="0" style="stop-color:#E1E300"/>
			<stop  offset="1" style="stop-color:#E1E300;stop-opacity:0"/>
		</linearGradient>
		<polygon class="st15" points="89.4,52 89.5,50.7 87.4,50.7 87.2,52 		"/>
		<linearGradient id="SVGID_14_" gradientUnits="userSpaceOnUse" x1="101.4488" y1="52.9229" x2="86.2666" y2="52.9229">
			<stop  offset="0" style="stop-color:#E1E300"/>
			<stop  offset="1" style="stop-color:#E1E300;stop-opacity:0"/>
		</linearGradient>
		<polygon class="st16" points="86.9,52.2 87.3,53.2 88.1,53.7 89.4,53.2 89,52.2 		"/>
		<linearGradient id="SVGID_15_" gradientUnits="userSpaceOnUse" x1="101.4491" y1="56.8174" x2="86.2665" y2="56.8174">
			<stop  offset="0" style="stop-color:#E1E300"/>
			<stop  offset="1" style="stop-color:#E1E300;stop-opacity:0"/>
		</linearGradient>
		<polygon class="st17" points="91.4,57.6 92.4,56.5 91.5,56 90.3,56.6 89.3,57.6 		"/>
		<linearGradient id="SVGID_16_" gradientUnits="userSpaceOnUse" x1="101.4489" y1="54.2324" x2="86.2665" y2="54.2324">
			<stop  offset="0" style="stop-color:#E1E300"/>
			<stop  offset="1" style="stop-color:#E1E300;stop-opacity:0"/>
		</linearGradient>
		<polygon class="st18" points="91.3,53.9 93,55 94.1,54.5 92.4,53.5 		"/>
		<linearGradient id="SVGID_17_" gradientUnits="userSpaceOnUse" x1="101.4488" y1="58.3841" x2="86.2667" y2="58.3841">
			<stop  offset="0" style="stop-color:#E1E300"/>
			<stop  offset="1" style="stop-color:#E1E300;stop-opacity:0"/>
		</linearGradient>
		<polygon class="st19" points="90.4,57.8 88.3,57.8 87.7,59 89.8,59 		"/>
		<linearGradient id="SVGID_18_" gradientUnits="userSpaceOnUse" x1="101.4487" y1="55.5048" x2="86.2667" y2="55.5048">
			<stop  offset="0" style="stop-color:#E1E300"/>
			<stop  offset="1" style="stop-color:#E1E300;stop-opacity:0"/>
		</linearGradient>
		<polygon class="st20" points="92.5,55.2 91.8,54.7 89.4,55.8 90.1,56.3 		"/>
		<linearGradient id="SVGID_19_" gradientUnits="userSpaceOnUse" x1="101.4486" y1="51.3655" x2="86.2667" y2="51.3655">
			<stop  offset="0" style="stop-color:#E1E300"/>
			<stop  offset="1" style="stop-color:#E1E300;stop-opacity:0"/>
		</linearGradient>
		<polygon class="st21" points="92.1,52 92.3,50.7 90.1,50.7 90,52 		"/>
		<linearGradient id="SVGID_20_" gradientUnits="userSpaceOnUse" x1="101.4484" y1="52.9229" x2="86.2668" y2="52.9229">
			<stop  offset="0" style="stop-color:#E1E300"/>
			<stop  offset="1" style="stop-color:#E1E300;stop-opacity:0"/>
		</linearGradient>
		<polygon class="st22" points="89.7,52.2 90,53.2 90.9,53.7 92.1,53.2 91.7,52.2 		"/>
		<linearGradient id="SVGID_21_" gradientUnits="userSpaceOnUse" x1="101.4487" y1="56.8174" x2="86.2666" y2="56.8174">
			<stop  offset="0" style="stop-color:#E1E300"/>
			<stop  offset="1" style="stop-color:#E1E300;stop-opacity:0"/>
		</linearGradient>
		<polygon class="st23" points="94.1,57.6 95.1,56.5 94.3,56 93,56.6 92.1,57.6 		"/>
		<linearGradient id="SVGID_22_" gradientUnits="userSpaceOnUse" x1="101.4489" y1="54.2324" x2="86.2666" y2="54.2324">
			<stop  offset="0" style="stop-color:#E1E300"/>
			<stop  offset="1" style="stop-color:#E1E300;stop-opacity:0"/>
		</linearGradient>
		<polygon class="st24" points="94,53.9 95.8,55 96.8,54.5 95.1,53.5 		"/>
		<linearGradient id="SVGID_23_" gradientUnits="userSpaceOnUse" x1="101.4487" y1="58.3841" x2="86.2666" y2="58.3841">
			<stop  offset="0" style="stop-color:#E1E300"/>
			<stop  offset="1" style="stop-color:#E1E300;stop-opacity:0"/>
		</linearGradient>
		<polygon class="st25" points="93.2,57.8 91,57.8 90.4,59 92.6,59 		"/>
		<linearGradient id="SVGID_24_" gradientUnits="userSpaceOnUse" x1="101.4488" y1="55.5048" x2="86.2667" y2="55.5048">
			<stop  offset="0" style="stop-color:#E1E300"/>
			<stop  offset="1" style="stop-color:#E1E300;stop-opacity:0"/>
		</linearGradient>
		<polygon class="st26" points="95.3,55.2 94.5,54.7 92.1,55.8 92.9,56.3 		"/>
		<linearGradient id="SVGID_25_" gradientUnits="userSpaceOnUse" x1="101.449" y1="51.3655" x2="86.2664" y2="51.3655">
			<stop  offset="0" style="stop-color:#E1E300"/>
			<stop  offset="1" style="stop-color:#E1E300;stop-opacity:0"/>
		</linearGradient>
		<polygon class="st27" points="94.9,52 95,50.7 92.9,50.7 92.7,52 		"/>
		<linearGradient id="SVGID_26_" gradientUnits="userSpaceOnUse" x1="101.4488" y1="52.9229" x2="86.2666" y2="52.9229">
			<stop  offset="0" style="stop-color:#E1E300"/>
			<stop  offset="1" style="stop-color:#E1E300;stop-opacity:0"/>
		</linearGradient>
		<polygon class="st28" points="92.4,52.2 92.8,53.2 93.6,53.7 94.9,53.2 94.5,52.2 		"/>
		<linearGradient id="SVGID_27_" gradientUnits="userSpaceOnUse" x1="101.4488" y1="56.8174" x2="86.2667" y2="56.8174">
			<stop  offset="0" style="stop-color:#E1E300"/>
			<stop  offset="1" style="stop-color:#E1E300;stop-opacity:0"/>
		</linearGradient>
		<polygon class="st29" points="96.9,57.6 97.9,56.5 97,56 95.8,56.6 94.8,57.6 		"/>
		<linearGradient id="SVGID_28_" gradientUnits="userSpaceOnUse" x1="101.4488" y1="54.2324" x2="86.2665" y2="54.2324">
			<stop  offset="0" style="stop-color:#E1E300"/>
			<stop  offset="1" style="stop-color:#E1E300;stop-opacity:0"/>
		</linearGradient>
		<polygon class="st30" points="96.8,53.9 98.5,55 99.6,54.5 97.9,53.5 		"/>
		<linearGradient id="SVGID_29_" gradientUnits="userSpaceOnUse" x1="101.4491" y1="58.3841" x2="86.2663" y2="58.3841">
			<stop  offset="0" style="stop-color:#E1E300"/>
			<stop  offset="1" style="stop-color:#E1E300;stop-opacity:0"/>
		</linearGradient>
		<polygon class="st31" points="95.9,57.8 93.8,57.8 93.2,59 95.3,59 		"/>
		<linearGradient id="SVGID_30_" gradientUnits="userSpaceOnUse" x1="101.4488" y1="55.5048" x2="86.2667" y2="55.5048">
			<stop  offset="0" style="stop-color:#E1E300"/>
			<stop  offset="1" style="stop-color:#E1E300;stop-opacity:0"/>
		</linearGradient>
		<polygon class="st32" points="98,55.2 97.2,54.7 94.9,55.8 95.6,56.3 		"/>
		<linearGradient id="SVGID_31_" gradientUnits="userSpaceOnUse" x1="101.4488" y1="51.3655" x2="86.2669" y2="51.3655">
			<stop  offset="0" style="stop-color:#E1E300"/>
			<stop  offset="1" style="stop-color:#E1E300;stop-opacity:0"/>
		</linearGradient>
		<polygon class="st33" points="97.6,52 97.8,50.7 95.6,50.7 95.5,52 		"/>
		<linearGradient id="SVGID_32_" gradientUnits="userSpaceOnUse" x1="101.4488" y1="52.9229" x2="86.2666" y2="52.9229">
			<stop  offset="0" style="stop-color:#E1E300"/>
			<stop  offset="1" style="stop-color:#E1E300;stop-opacity:0"/>
		</linearGradient>
		<polygon class="st34" points="95.2,52.2 95.5,53.2 96.4,53.7 97.6,53.2 97.2,52.2 		"/>
		<linearGradient id="SVGID_33_" gradientUnits="userSpaceOnUse" x1="101.4488" y1="56.8174" x2="86.2662" y2="56.8174">
			<stop  offset="0" style="stop-color:#E1E300"/>
			<stop  offset="1" style="stop-color:#E1E300;stop-opacity:0"/>
		</linearGradient>
		<polygon class="st35" points="99.6,57.6 100.6,56.5 99.8,56 98.5,56.6 97.5,57.6 		"/>
		<linearGradient id="SVGID_34_" gradientUnits="userSpaceOnUse" x1="101.4487" y1="54.2324" x2="86.2669" y2="54.2324">
			<stop  offset="0" style="stop-color:#E1E300"/>
			<stop  offset="1" style="stop-color:#E1E300;stop-opacity:0"/>
		</linearGradient>
		<polygon class="st36" points="99.5,53.9 101.3,55 102.3,54.5 100.6,53.5 		"/>
		<linearGradient id="SVGID_35_" gradientUnits="userSpaceOnUse" x1="101.4488" y1="58.3841" x2="86.2666" y2="58.3841">
			<stop  offset="0" style="stop-color:#E1E300"/>
			<stop  offset="1" style="stop-color:#E1E300;stop-opacity:0"/>
		</linearGradient>
		<polygon class="st37" points="98.7,57.8 96.5,57.8 95.9,59 98.1,59 		"/>
		<linearGradient id="SVGID_36_" gradientUnits="userSpaceOnUse" x1="101.4488" y1="55.5048" x2="86.2667" y2="55.5048">
			<stop  offset="0" style="stop-color:#E1E300"/>
			<stop  offset="1" style="stop-color:#E1E300;stop-opacity:0"/>
		</linearGradient>
		<polygon class="st38" points="100.8,55.2 100,54.7 97.6,55.8 98.4,56.3 		"/>
		<linearGradient id="SVGID_37_" gradientUnits="userSpaceOnUse" x1="101.4487" y1="51.3655" x2="86.2668" y2="51.3655">
			<stop  offset="0" style="stop-color:#E1E300"/>
			<stop  offset="1" style="stop-color:#E1E300;stop-opacity:0"/>
		</linearGradient>
		<polygon class="st39" points="100.4,52 100.5,50.7 98.4,50.7 98.2,52 		"/>
		<linearGradient id="SVGID_38_" gradientUnits="userSpaceOnUse" x1="101.4488" y1="52.9229" x2="86.2666" y2="52.9229">
			<stop  offset="0" style="stop-color:#E1E300"/>
			<stop  offset="1" style="stop-color:#E1E300;stop-opacity:0"/>
		</linearGradient>
		<polygon class="st40" points="97.9,52.2 98.3,53.2 99.1,53.7 100.3,53.2 100,52.2 		"/>
		<linearGradient id="SVGID_39_" gradientUnits="userSpaceOnUse" x1="101.4489" y1="56.8174" x2="86.2667" y2="56.8174">
			<stop  offset="0" style="stop-color:#E1E300"/>
			<stop  offset="1" style="stop-color:#E1E300;stop-opacity:0"/>
		</linearGradient>
		<polygon class="st41" points="102.4,57.6 103.4,56.5 102.5,56 101.2,56.6 100.3,57.6 		"/>
		<linearGradient id="SVGID_40_" gradientUnits="userSpaceOnUse" x1="101.4488" y1="54.2324" x2="86.2665" y2="54.2324">
			<stop  offset="0" style="stop-color:#E1E300"/>
			<stop  offset="1" style="stop-color:#E1E300;stop-opacity:0"/>
		</linearGradient>
		<polygon class="st42" points="102.3,53.9 104,55 105,54.5 103.3,53.5 		"/>
		<linearGradient id="SVGID_41_" gradientUnits="userSpaceOnUse" x1="101.4487" y1="58.3841" x2="86.2671" y2="58.3841">
			<stop  offset="0" style="stop-color:#E1E300"/>
			<stop  offset="1" style="stop-color:#E1E300;stop-opacity:0"/>
		</linearGradient>
		<polygon class="st43" points="101.4,57.8 99.2,57.8 98.7,59 100.8,59 		"/>
		<linearGradient id="SVGID_42_" gradientUnits="userSpaceOnUse" x1="101.4489" y1="55.5048" x2="86.2673" y2="55.5048">
			<stop  offset="0" style="stop-color:#E1E300"/>
			<stop  offset="1" style="stop-color:#E1E300;stop-opacity:0"/>
		</linearGradient>
		<polygon class="st44" points="103.5,55.2 102.7,54.7 100.3,55.8 101.1,56.3 		"/>
		<linearGradient id="SVGID_43_" gradientUnits="userSpaceOnUse" x1="101.4488" y1="51.3655" x2="86.2663" y2="51.3655">
			<stop  offset="0" style="stop-color:#E1E300"/>
			<stop  offset="1" style="stop-color:#E1E300;stop-opacity:0"/>
		</linearGradient>
		<polygon class="st45" points="103.1,52 103.2,50.7 101.1,50.7 101,52 		"/>
		<linearGradient id="SVGID_44_" gradientUnits="userSpaceOnUse" x1="101.4488" y1="52.9229" x2="86.2659" y2="52.9229">
			<stop  offset="0" style="stop-color:#E1E300"/>
			<stop  offset="1" style="stop-color:#E1E300;stop-opacity:0"/>
		</linearGradient>
		<polygon class="st46" points="100.6,52.2 101,53.2 101.9,53.7 103.1,53.2 102.7,52.2 		"/>
		<linearGradient id="SVGID_45_" gradientUnits="userSpaceOnUse" x1="101.4488" y1="58.3841" x2="86.266" y2="58.3841">
			<stop  offset="0" style="stop-color:#E1E300"/>
			<stop  offset="1" style="stop-color:#E1E300;stop-opacity:0"/>
		</linearGradient>
		<polygon class="st47" points="104.1,57.8 102,57.8 101.4,59 103.6,59 		"/>
		<linearGradient id="SVGID_46_" gradientUnits="userSpaceOnUse" x1="101.4489" y1="51.3655" x2="86.267" y2="51.3655">
			<stop  offset="0" style="stop-color:#E1E300"/>
			<stop  offset="1" style="stop-color:#E1E300;stop-opacity:0"/>
		</linearGradient>
		<polygon class="st48" points="105.9,52 106,50.7 103.8,50.7 103.7,52 		"/>
		<linearGradient id="SVGID_47_" gradientUnits="userSpaceOnUse" x1="101.4489" y1="52.9229" x2="86.2673" y2="52.9229">
			<stop  offset="0" style="stop-color:#E1E300"/>
			<stop  offset="1" style="stop-color:#E1E300;stop-opacity:0"/>
		</linearGradient>
		<polygon class="st49" points="103.4,52.2 103.7,53.2 104.6,53.7 105.8,53.2 105.5,52.2 		"/>
		<linearGradient id="SVGID_48_" gradientUnits="userSpaceOnUse" x1="101.4487" y1="51.3655" x2="86.2663" y2="51.3655">
			<stop  offset="0" style="stop-color:#E1E300"/>
			<stop  offset="1" style="stop-color:#E1E300;stop-opacity:0"/>
		</linearGradient>
		<polygon class="st50" points="106.6,50.7 106.5,52 106.6,52 107,50.7 		"/>
		<linearGradient id="SVGID_49_" gradientUnits="userSpaceOnUse" x1="101.4481" y1="52.5129" x2="86.2639" y2="52.5129">
			<stop  offset="0" style="stop-color:#E1E300"/>
			<stop  offset="1" style="stop-color:#E1E300;stop-opacity:0"/>
		</linearGradient>
		<polygon class="st51" points="106.6,52.2 106.1,52.2 106.4,52.9 		"/>
		<linearGradient id="SVGID_50_" gradientUnits="userSpaceOnUse" x1="101.4492" y1="53.9787" x2="86.2682" y2="53.9787">
			<stop  offset="0" style="stop-color:#E1E300"/>
			<stop  offset="1" style="stop-color:#E1E300;stop-opacity:0"/>
		</linearGradient>
		<polygon class="st52" points="106.2,53.5 106.1,53.5 105,53.9 105.9,54.5 		"/>
		<linearGradient id="SVGID_51_" gradientUnits="userSpaceOnUse" x1="101.4488" y1="55.5048" x2="86.2667" y2="55.5048">
			<stop  offset="0" style="stop-color:#E1E300"/>
			<stop  offset="1" style="stop-color:#E1E300;stop-opacity:0"/>
		</linearGradient>
		<polygon class="st53" points="105.8,54.9 105.6,55.5 103.8,56.3 103.1,55.8 105.5,54.7 		"/>
		<linearGradient id="SVGID_52_" gradientUnits="userSpaceOnUse" x1="101.4487" y1="56.8174" x2="86.2664" y2="56.8174">
			<stop  offset="0" style="stop-color:#E1E300"/>
			<stop  offset="1" style="stop-color:#E1E300;stop-opacity:0"/>
		</linearGradient>
		<polygon class="st54" points="105.4,56.1 105,57.6 103,57.6 104,56.6 105.3,56 		"/>
		<linearGradient id="SVGID_53_" gradientUnits="userSpaceOnUse" x1="101.4489" y1="58.3841" x2="86.2673" y2="58.3841">
			<stop  offset="0" style="stop-color:#E1E300"/>
			<stop  offset="1" style="stop-color:#E1E300;stop-opacity:0"/>
		</linearGradient>
		<polygon class="st55" points="104.7,57.8 104.9,57.8 104.6,59 104.2,59 		"/>
		<linearGradient id="SVGID_54_" gradientUnits="userSpaceOnUse" x1="101.451" y1="51.3655" x2="86.267" y2="51.3655">
			<stop  offset="0" style="stop-color:#E1E300"/>
			<stop  offset="1" style="stop-color:#E1E300;stop-opacity:0"/>
		</linearGradient>
		<polygon class="st56" points="83.2,50.7 82.9,52 83.9,52 84,50.7 		"/>
		<linearGradient id="SVGID_55_" gradientUnits="userSpaceOnUse" x1="101.4477" y1="52.9229" x2="86.2664" y2="52.9229">
			<stop  offset="0" style="stop-color:#E1E300"/>
			<stop  offset="1" style="stop-color:#E1E300;stop-opacity:0"/>
		</linearGradient>
		<polygon class="st57" points="83.5,52.2 82.8,52.2 82.4,53.5 82.7,53.7 83.9,53.2 		"/>
		<linearGradient id="SVGID_56_" gradientUnits="userSpaceOnUse" x1="101.4477" y1="54.4983" x2="86.2664" y2="54.4983">
			<stop  offset="0" style="stop-color:#E1E300"/>
			<stop  offset="1" style="stop-color:#E1E300;stop-opacity:0"/>
		</linearGradient>
		<polygon class="st58" points="82,54.9 82.1,55 83.1,54.5 82.3,54 		"/>
		<linearGradient id="SVGID_57_" gradientUnits="userSpaceOnUse" x1="101.4482" y1="55.5048" x2="86.2665" y2="55.5048">
			<stop  offset="0" style="stop-color:#E1E300"/>
			<stop  offset="1" style="stop-color:#E1E300;stop-opacity:0"/>
		</linearGradient>
		<polygon class="st59" points="83.5,54.7 81.8,55.5 81.6,56.1 81.9,56.3 84.3,55.2 		"/>
		<linearGradient id="SVGID_58_" gradientUnits="userSpaceOnUse" x1="101.4489" y1="56.8174" x2="86.2666" y2="56.8174">
			<stop  offset="0" style="stop-color:#E1E300"/>
			<stop  offset="1" style="stop-color:#E1E300;stop-opacity:0"/>
		</linearGradient>
		<polygon class="st60" points="83.3,56 82,56.6 81.3,57.4 81.2,57.6 83.1,57.6 84.1,56.5 		"/>
		<linearGradient id="SVGID_59_" gradientUnits="userSpaceOnUse" x1="101.4485" y1="58.3841" x2="86.2665" y2="58.3841">
			<stop  offset="0" style="stop-color:#E1E300"/>
			<stop  offset="1" style="stop-color:#E1E300;stop-opacity:0"/>
		</linearGradient>
		<polygon class="st61" points="80.8,59 81.6,59 82.2,57.8 81.1,57.8 		"/>
	</g>
	<g>
		<linearGradient id="SVGID_60_" gradientUnits="userSpaceOnUse" x1="284.9215" y1="18.3677" x2="293.0155" y2="18.3677">
			<stop  offset="0" style="stop-color:#E1E300"/>
			<stop  offset="1" style="stop-color:#E1E300;stop-opacity:0"/>
		</linearGradient>
		<polygon class="st62" points="277.5,18.1 279.2,19.1 280.3,18.7 278.6,17.6 		"/>
		<linearGradient id="SVGID_61_" gradientUnits="userSpaceOnUse" x1="284.9212" y1="15.5009" x2="293.015" y2="15.5009">
			<stop  offset="0" style="stop-color:#E1E300"/>
			<stop  offset="1" style="stop-color:#E1E300;stop-opacity:0"/>
		</linearGradient>
		<polygon class="st63" points="278.3,16.1 278.5,14.9 276.3,14.9 276.2,16.1 		"/>
		<linearGradient id="SVGID_62_" gradientUnits="userSpaceOnUse" x1="284.9214" y1="17.0583" x2="293.0154" y2="17.0583">
			<stop  offset="0" style="stop-color:#E1E300"/>
			<stop  offset="1" style="stop-color:#E1E300;stop-opacity:0"/>
		</linearGradient>
		<polygon class="st64" points="275.9,16.3 276.2,17.3 277.1,17.8 278.3,17.3 277.9,16.3 		"/>
		<linearGradient id="SVGID_63_" gradientUnits="userSpaceOnUse" x1="284.9214" y1="18.3677" x2="293.0154" y2="18.3677">
			<stop  offset="0" style="stop-color:#E1E300"/>
			<stop  offset="1" style="stop-color:#E1E300;stop-opacity:0"/>
		</linearGradient>
		<polygon class="st65" points="280.2,18.1 282,19.1 283,18.7 281.3,17.6 		"/>
		<linearGradient id="SVGID_64_" gradientUnits="userSpaceOnUse" x1="284.9213" y1="15.5009" x2="293.015" y2="15.5009">
			<stop  offset="0" style="stop-color:#E1E300"/>
			<stop  offset="1" style="stop-color:#E1E300;stop-opacity:0"/>
		</linearGradient>
		<polygon class="st66" points="281.1,16.1 281.2,14.9 279.1,14.9 278.9,16.1 		"/>
		<linearGradient id="SVGID_65_" gradientUnits="userSpaceOnUse" x1="284.9213" y1="17.0583" x2="293.0153" y2="17.0583">
			<stop  offset="0" style="stop-color:#E1E300"/>
			<stop  offset="1" style="stop-color:#E1E300;stop-opacity:0"/>
		</linearGradient>
		<polygon class="st67" points="278.6,16.3 279,17.3 279.8,17.8 281.1,17.3 280.7,16.3 		"/>
		<linearGradient id="SVGID_66_" gradientUnits="userSpaceOnUse" x1="284.9213" y1="20.9528" x2="293.0152" y2="20.9528">
			<stop  offset="0" style="stop-color:#E1E300"/>
			<stop  offset="1" style="stop-color:#E1E300;stop-opacity:0"/>
		</linearGradient>
		<polygon class="st68" points="283.1,21.7 284.1,20.7 283.2,20.2 282,20.7 281,21.7 		"/>
		<linearGradient id="SVGID_67_" gradientUnits="userSpaceOnUse" x1="284.9214" y1="18.3677" x2="293.0151" y2="18.3677">
			<stop  offset="0" style="stop-color:#E1E300"/>
			<stop  offset="1" style="stop-color:#E1E300;stop-opacity:0"/>
		</linearGradient>
		<polygon class="st69" points="283,18.1 284.7,19.1 285.8,18.7 284.1,17.6 		"/>
		<linearGradient id="SVGID_68_" gradientUnits="userSpaceOnUse" x1="284.9214" y1="19.6402" x2="293.0153" y2="19.6402">
			<stop  offset="0" style="stop-color:#E1E300"/>
			<stop  offset="1" style="stop-color:#E1E300;stop-opacity:0"/>
		</linearGradient>
		<polygon class="st70" points="284.2,19.3 283.4,18.9 281.1,19.9 281.8,20.4 		"/>
		<linearGradient id="SVGID_69_" gradientUnits="userSpaceOnUse" x1="284.9214" y1="15.5009" x2="293.0155" y2="15.5009">
			<stop  offset="0" style="stop-color:#E1E300"/>
			<stop  offset="1" style="stop-color:#E1E300;stop-opacity:0"/>
		</linearGradient>
		<polygon class="st71" points="283.8,16.1 284,14.9 281.8,14.9 281.7,16.1 		"/>
		<linearGradient id="SVGID_70_" gradientUnits="userSpaceOnUse" x1="284.9214" y1="17.0583" x2="293.0154" y2="17.0583">
			<stop  offset="0" style="stop-color:#E1E300"/>
			<stop  offset="1" style="stop-color:#E1E300;stop-opacity:0"/>
		</linearGradient>
		<polygon class="st72" points="281.4,16.3 281.7,17.3 282.6,17.8 283.8,17.3 283.4,16.3 		"/>
		<linearGradient id="SVGID_71_" gradientUnits="userSpaceOnUse" x1="284.9214" y1="20.9528" x2="293.0153" y2="20.9528">
			<stop  offset="0" style="stop-color:#E1E300"/>
			<stop  offset="1" style="stop-color:#E1E300;stop-opacity:0"/>
		</linearGradient>
		<polygon class="st73" points="285.8,21.7 286.8,20.7 286,20.2 284.7,20.7 283.7,21.7 		"/>
		<linearGradient id="SVGID_72_" gradientUnits="userSpaceOnUse" x1="284.9213" y1="18.3677" x2="293.0153" y2="18.3677">
			<stop  offset="0" style="stop-color:#E1E300"/>
			<stop  offset="1" style="stop-color:#E1E300;stop-opacity:0"/>
		</linearGradient>
		<polygon class="st74" points="285.7,18.1 287.5,19.1 288.5,18.7 286.8,17.6 		"/>
		<linearGradient id="SVGID_73_" gradientUnits="userSpaceOnUse" x1="284.9214" y1="22.5195" x2="293.0157" y2="22.5195">
			<stop  offset="0" style="stop-color:#E1E300"/>
			<stop  offset="1" style="stop-color:#E1E300;stop-opacity:0"/>
		</linearGradient>
		<polygon class="st75" points="284.9,21.9 282.7,21.9 282.1,23.1 284.3,23.1 		"/>
		<linearGradient id="SVGID_74_" gradientUnits="userSpaceOnUse" x1="284.9214" y1="19.6402" x2="293.0155" y2="19.6402">
			<stop  offset="0" style="stop-color:#E1E300"/>
			<stop  offset="1" style="stop-color:#E1E300;stop-opacity:0"/>
		</linearGradient>
		<polygon class="st76" points="287,19.3 286.2,18.9 283.8,19.9 284.6,20.4 		"/>
		<linearGradient id="SVGID_75_" gradientUnits="userSpaceOnUse" x1="284.9214" y1="15.5009" x2="293.0152" y2="15.5009">
			<stop  offset="0" style="stop-color:#E1E300"/>
			<stop  offset="1" style="stop-color:#E1E300;stop-opacity:0"/>
		</linearGradient>
		<polygon class="st77" points="286.6,16.1 286.7,14.9 284.6,14.9 284.4,16.1 		"/>
		<linearGradient id="SVGID_76_" gradientUnits="userSpaceOnUse" x1="284.9214" y1="17.0583" x2="293.0153" y2="17.0583">
			<stop  offset="0" style="stop-color:#E1E300"/>
			<stop  offset="1" style="stop-color:#E1E300;stop-opacity:0"/>
		</linearGradient>
		<polygon class="st78" points="284.1,16.3 284.5,17.3 285.3,17.8 286.5,17.3 286.2,16.3 		"/>
		<linearGradient id="SVGID_77_" gradientUnits="userSpaceOnUse" x1="284.9213" y1="20.9528" x2="293.0154" y2="20.9528">
			<stop  offset="0" style="stop-color:#E1E300"/>
			<stop  offset="1" style="stop-color:#E1E300;stop-opacity:0"/>
		</linearGradient>
		<polygon class="st79" points="288.6,21.7 289.6,20.7 288.7,20.2 287.4,20.7 286.5,21.7 		"/>
		<linearGradient id="SVGID_78_" gradientUnits="userSpaceOnUse" x1="284.9214" y1="18.3677" x2="293.0152" y2="18.3677">
			<stop  offset="0" style="stop-color:#E1E300"/>
			<stop  offset="1" style="stop-color:#E1E300;stop-opacity:0"/>
		</linearGradient>
		<polygon class="st80" points="288.5,18.1 290.2,19.1 291.3,18.7 289.5,17.6 		"/>
		<linearGradient id="SVGID_79_" gradientUnits="userSpaceOnUse" x1="284.9214" y1="22.5195" x2="293.0153" y2="22.5195">
			<stop  offset="0" style="stop-color:#E1E300"/>
			<stop  offset="1" style="stop-color:#E1E300;stop-opacity:0"/>
		</linearGradient>
		<polygon class="st81" points="287.6,21.9 285.4,21.9 284.9,23.1 287,23.1 		"/>
		<linearGradient id="SVGID_80_" gradientUnits="userSpaceOnUse" x1="284.9214" y1="19.6402" x2="293.0152" y2="19.6402">
			<stop  offset="0" style="stop-color:#E1E300"/>
			<stop  offset="1" style="stop-color:#E1E300;stop-opacity:0"/>
		</linearGradient>
		<polygon class="st82" points="289.7,19.3 288.9,18.9 286.6,19.9 287.3,20.4 		"/>
		<linearGradient id="SVGID_81_" gradientUnits="userSpaceOnUse" x1="284.9214" y1="15.5009" x2="293.0152" y2="15.5009">
			<stop  offset="0" style="stop-color:#E1E300"/>
			<stop  offset="1" style="stop-color:#E1E300;stop-opacity:0"/>
		</linearGradient>
		<polygon class="st83" points="289.3,16.1 289.4,14.9 287.3,14.9 287.2,16.1 		"/>
		<linearGradient id="SVGID_82_" gradientUnits="userSpaceOnUse" x1="284.9214" y1="17.0583" x2="293.0153" y2="17.0583">
			<stop  offset="0" style="stop-color:#E1E300"/>
			<stop  offset="1" style="stop-color:#E1E300;stop-opacity:0"/>
		</linearGradient>
		<polygon class="st84" points="286.8,16.3 287.2,17.3 288.1,17.8 289.3,17.3 288.9,16.3 		"/>
		<linearGradient id="SVGID_83_" gradientUnits="userSpaceOnUse" x1="284.9214" y1="20.9528" x2="293.0154" y2="20.9528">
			<stop  offset="0" style="stop-color:#E1E300"/>
			<stop  offset="1" style="stop-color:#E1E300;stop-opacity:0"/>
		</linearGradient>
		<polygon class="st85" points="291.3,21.7 292.3,20.7 291.5,20.2 290.2,20.7 289.2,21.7 		"/>
		<linearGradient id="SVGID_84_" gradientUnits="userSpaceOnUse" x1="284.9213" y1="18.3677" x2="293.0153" y2="18.3677">
			<stop  offset="0" style="stop-color:#E1E300"/>
			<stop  offset="1" style="stop-color:#E1E300;stop-opacity:0"/>
		</linearGradient>
		<polygon class="st86" points="291.2,18.1 293,19.1 294,18.7 292.3,17.6 		"/>
		<linearGradient id="SVGID_85_" gradientUnits="userSpaceOnUse" x1="284.9215" y1="22.5195" x2="293.0151" y2="22.5195">
			<stop  offset="0" style="stop-color:#E1E300"/>
			<stop  offset="1" style="stop-color:#E1E300;stop-opacity:0"/>
		</linearGradient>
		<polygon class="st87" points="290.3,21.9 288.2,21.9 287.6,23.1 289.8,23.1 		"/>
		<linearGradient id="SVGID_86_" gradientUnits="userSpaceOnUse" x1="284.9214" y1="19.6402" x2="293.0153" y2="19.6402">
			<stop  offset="0" style="stop-color:#E1E300"/>
			<stop  offset="1" style="stop-color:#E1E300;stop-opacity:0"/>
		</linearGradient>
		<polygon class="st88" points="292.4,19.3 291.7,18.9 289.3,19.9 290,20.4 		"/>
		<linearGradient id="SVGID_87_" gradientUnits="userSpaceOnUse" x1="284.9209" y1="15.5009" x2="293.0154" y2="15.5009">
			<stop  offset="0" style="stop-color:#E1E300"/>
			<stop  offset="1" style="stop-color:#E1E300;stop-opacity:0"/>
		</linearGradient>
		<polygon class="st89" points="292.1,16.1 292.2,14.9 290,14.9 289.9,16.1 		"/>
		<linearGradient id="SVGID_88_" gradientUnits="userSpaceOnUse" x1="284.9211" y1="17.0583" x2="293.0154" y2="17.0583">
			<stop  offset="0" style="stop-color:#E1E300"/>
			<stop  offset="1" style="stop-color:#E1E300;stop-opacity:0"/>
		</linearGradient>
		<polygon class="st90" points="289.6,16.3 290,17.3 290.8,17.8 292,17.3 291.7,16.3 		"/>
		<linearGradient id="SVGID_89_" gradientUnits="userSpaceOnUse" x1="284.9211" y1="22.5195" x2="293.0154" y2="22.5195">
			<stop  offset="0" style="stop-color:#E1E300"/>
			<stop  offset="1" style="stop-color:#E1E300;stop-opacity:0"/>
		</linearGradient>
		<polygon class="st91" points="293.1,21.9 290.9,21.9 290.4,23.1 292.5,23.1 		"/>
		<linearGradient id="SVGID_90_" gradientUnits="userSpaceOnUse" x1="284.9215" y1="15.5009" x2="293.0153" y2="15.5009">
			<stop  offset="0" style="stop-color:#E1E300"/>
			<stop  offset="1" style="stop-color:#E1E300;stop-opacity:0"/>
		</linearGradient>
		<polygon class="st92" points="294.8,16.1 294.9,14.9 292.8,14.9 292.7,16.1 		"/>
		<linearGradient id="SVGID_91_" gradientUnits="userSpaceOnUse" x1="284.9217" y1="17.0583" x2="293.0153" y2="17.0583">
			<stop  offset="0" style="stop-color:#E1E300"/>
			<stop  offset="1" style="stop-color:#E1E300;stop-opacity:0"/>
		</linearGradient>
		<polygon class="st93" points="292.3,16.3 292.7,17.3 293.6,17.8 294.8,17.3 294.4,16.3 		"/>
		<linearGradient id="SVGID_92_" gradientUnits="userSpaceOnUse" x1="284.921" y1="15.5009" x2="293.0152" y2="15.5009">
			<stop  offset="0" style="stop-color:#E1E300"/>
			<stop  offset="1" style="stop-color:#E1E300;stop-opacity:0"/>
		</linearGradient>
		<polygon class="st94" points="295.5,14.9 295.4,16.1 295.6,16.1 296,14.9 		"/>
		<linearGradient id="SVGID_93_" gradientUnits="userSpaceOnUse" x1="284.9197" y1="16.6483" x2="293.0149" y2="16.6483">
			<stop  offset="0" style="stop-color:#E1E300"/>
			<stop  offset="1" style="stop-color:#E1E300;stop-opacity:0"/>
		</linearGradient>
		<polygon class="st95" points="295.5,16.3 295.1,16.3 295.3,17 		"/>
		<linearGradient id="SVGID_94_" gradientUnits="userSpaceOnUse" x1="284.9213" y1="18.1141" x2="293.0153" y2="18.1141">
			<stop  offset="0" style="stop-color:#E1E300"/>
			<stop  offset="1" style="stop-color:#E1E300;stop-opacity:0"/>
		</linearGradient>
		<polygon class="st96" points="295.1,17.7 295,17.6 294,18.1 294.9,18.6 		"/>
		<linearGradient id="SVGID_95_" gradientUnits="userSpaceOnUse" x1="284.9214" y1="19.6402" x2="293.0153" y2="19.6402">
			<stop  offset="0" style="stop-color:#E1E300"/>
			<stop  offset="1" style="stop-color:#E1E300;stop-opacity:0"/>
		</linearGradient>
		<polygon class="st97" points="294.7,19.1 294.6,19.6 292.8,20.4 292,19.9 294.4,18.9 		"/>
		<linearGradient id="SVGID_96_" gradientUnits="userSpaceOnUse" x1="284.9213" y1="20.9528" x2="293.0153" y2="20.9528">
			<stop  offset="0" style="stop-color:#E1E300"/>
			<stop  offset="1" style="stop-color:#E1E300;stop-opacity:0"/>
		</linearGradient>
		<polygon class="st98" points="294.4,20.3 293.9,21.7 292,21.7 292.9,20.7 294.2,20.2 		"/>
		<linearGradient id="SVGID_97_" gradientUnits="userSpaceOnUse" x1="284.9218" y1="22.5195" x2="293.0154" y2="22.5195">
			<stop  offset="0" style="stop-color:#E1E300"/>
			<stop  offset="1" style="stop-color:#E1E300;stop-opacity:0"/>
		</linearGradient>
		<polygon class="st99" points="293.7,21.9 293.9,21.9 293.5,23.1 293.1,23.1 		"/>
	</g>
	<linearGradient id="SVGID_98_" gradientUnits="userSpaceOnUse" x1="284.8878" y1="15.5009" x2="292.9521" y2="15.5009">
		<stop  offset="0" style="stop-color:#E1E300"/>
		<stop  offset="1" style="stop-color:#E1E300;stop-opacity:0"/>
	</linearGradient>
	<path class="st100" d="M273.6,16.1h2l0.1-1.2h-2.2l-0.1,1.2C273.5,16.1,273.6,16.1,273.6,16.1z"/>
	<path class="st2" d="M146.4,38.9h15.2v7.6h-15.2V38.9z"/>
	<polygon class="st2" points="153.8,14.9 131.1,14.9 131,14.9 131,43.9 112.1,14.9 104.1,14.9 104.1,59 112.5,59 112.5,30.1 
		131.3,59 139.4,59 139.4,23.1 153.8,23.1 	"/>
	<linearGradient id="SVGID_99_" gradientUnits="userSpaceOnUse" x1="283.2" y1="22.3296" x2="286.3423" y2="22.3296">
		<stop  offset="0" style="stop-color:#E1E300"/>
		<stop  offset="1" style="stop-color:#E1E300;stop-opacity:0"/>
	</linearGradient>
	<path class="st101" d="M281.7,22.7l0.4-0.8H281C281.3,22.2,281.5,22.5,281.7,22.7z"/>
	<linearGradient id="SVGID_100_" gradientUnits="userSpaceOnUse" x1="283.1708" y1="20.8001" x2="287.3205" y2="20.8001">
		<stop  offset="0" style="stop-color:#E1E300"/>
		<stop  offset="1" style="stop-color:#E1E300;stop-opacity:0"/>
	</linearGradient>
	<path class="st102" d="M280.6,21.4l0.7-0.8l-0.8-0.5l-0.7,0.3C280.1,20.8,280.3,21.1,280.6,21.4z"/>
	<linearGradient id="SVGID_101_" gradientUnits="userSpaceOnUse" x1="280.2352" y1="19.1442" x2="282.2163" y2="19.1442">
		<stop  offset="0" style="stop-color:#E1E300"/>
		<stop  offset="1" style="stop-color:#E1E300;stop-opacity:0"/>
	</linearGradient>
	<path class="st103" d="M278.6,19.4l0.2-0.1l-0.8-0.5l0,0C278.2,19.1,278.4,19.2,278.6,19.4z"/>
	<linearGradient id="SVGID_102_" gradientUnits="userSpaceOnUse" x1="281.3817" y1="16.7316" x2="286.4689" y2="16.7316">
		<stop  offset="0" style="stop-color:#E1E300"/>
		<stop  offset="1" style="stop-color:#E1E300;stop-opacity:0"/>
	</linearGradient>
	<path class="st104" d="M275.5,17.2l-0.3-0.9H274C274.5,16.6,275,16.9,275.5,17.2z"/>
	<linearGradient id="SVGID_103_" gradientUnits="userSpaceOnUse" x1="282.7234" y1="15.3269" x2="289.3278" y2="15.3269">
		<stop  offset="0" style="stop-color:#E1E300"/>
		<stop  offset="1" style="stop-color:#E1E300;stop-opacity:0"/>
	</linearGradient>
	<path class="st105" d="M272.9,15.8l0.1-0.9h-0.8l-0.2,0.5C272.3,15.5,272.6,15.6,272.9,15.8z"/>
	<linearGradient id="SVGID_104_" gradientUnits="userSpaceOnUse" x1="263.8823" y1="19.008" x2="283.2221" y2="19.008">
		<stop  offset="0.4743" style="stop-color:#E1E300"/>
		<stop  offset="0.9734" style="stop-color:#E1E300;stop-opacity:2.661700e-02"/>
	</linearGradient>
	<path class="st106" d="M282,23.1h1.7v-8.3h-13.1C275.2,16.4,279.2,19.3,282,23.1z"/>
	<g>
		<path class="st2" d="M284.5,38.2c0-0.4,0-0.7,0-1.1c0-0.2,0-0.4,0-0.6l-0.9,0c0-0.2,0-0.4,0-0.6l0.8,0c0-0.6-0.1-1.2-0.1-1.7
			l-0.8,0.1c0-0.2,0-0.4-0.1-0.6l0.8-0.1c-0.1-0.6-0.2-1.2-0.3-1.7l-0.8,0.2c0-0.2-0.1-0.4-0.1-0.5l0.8-0.2
			c-0.1-0.6-0.3-1.1-0.5-1.7l-0.8,0.3c-0.1-0.2-0.1-0.4-0.2-0.5l0.8-0.3c-0.2-0.6-0.4-1.1-0.7-1.6l-0.8,0.3
			c-0.1-0.2-0.2-0.3-0.2-0.5l0.8-0.4c-0.3-0.5-0.5-1-0.8-1.5l-0.7,0.4c-0.1-0.2-0.2-0.3-0.3-0.5l0.7-0.4c-0.3-0.5-0.6-1-1-1.5
			l-0.7,0.5c-0.1-0.2-0.2-0.3-0.3-0.4l0.7-0.5c-0.4-0.5-0.7-0.9-1.1-1.3l-0.6,0.6c-0.1-0.1-0.3-0.3-0.4-0.4l0.6-0.6
			c-0.2-0.2-0.3-0.4-0.5-0.6c-0.2-0.2-0.5-0.4-0.7-0.7l-0.6,0.6c-0.1-0.1-0.3-0.3-0.4-0.4l0.6-0.6c-0.4-0.4-0.9-0.8-1.4-1.1
			l-0.5,0.7c-0.1-0.1-0.3-0.2-0.4-0.3l0.5-0.7c-0.5-0.3-1-0.7-1.5-1l-0.4,0.7c-0.2-0.1-0.3-0.2-0.5-0.3l0.4-0.7
			c-0.5-0.3-1-0.6-1.6-0.8l-0.4,0.8c-0.2-0.1-0.3-0.2-0.5-0.2l0.3-0.8c-0.5-0.2-1.1-0.4-1.6-0.6l-0.3,0.8c-0.2-0.1-0.4-0.1-0.5-0.2
			l0.3-0.8c-0.6-0.2-1.1-0.3-1.7-0.4l-0.2,0.8c-0.2,0-0.4-0.1-0.5-0.1l0.2-0.9c-0.6-0.1-1.2-0.2-1.7-0.3l-0.1,0.8
			c-0.2,0-0.4,0-0.6-0.1l0.1-0.9c-0.6-0.1-1.2-0.1-1.8-0.1l0,0.9c-0.2,0-0.4,0-0.6,0l0-0.9c-0.6,0-1.2,0-1.8,0.1l0.1,0.9
			c-0.2,0-0.4,0-0.6,0.1l-0.1-0.9c-0.6,0.1-1.2,0.1-1.7,0.2l0.1,0.7h-0.6l-0.1-0.6c-0.6,0.1-1.1,0.3-1.7,0.4l0.1,0.2h-0.6l0,0
			c0,0,0,0-0.1,0h-13.8l-1.9,8.3h4.2c-0.3,0.4-0.5,0.7-0.8,1.1l0.7,0.5c-0.1,0.2-0.2,0.3-0.3,0.5l-0.7-0.5c-0.1,0.2-0.2,0.4-0.3,0.5
			c-0.2,0.3-0.4,0.7-0.5,1l0.8,0.4c-0.1,0.2-0.2,0.3-0.3,0.5l-0.8-0.4c-0.3,0.5-0.5,1.1-0.7,1.6l0.8,0.3c-0.1,0.2-0.1,0.4-0.2,0.5
			l-0.8-0.3c-0.2,0.5-0.4,1.1-0.5,1.7l0.8,0.2c0,0.2-0.1,0.4-0.1,0.5l-0.8-0.2c-0.1,0.6-0.3,1.1-0.4,1.7l0.9,0.1
			c0,0.2-0.1,0.4-0.1,0.6l-0.9-0.1c-0.1,0.6-0.1,1.2-0.2,1.7l0.9,0.1c0,0.2,0,0.4,0,0.6l-0.9,0c0,0.4,0,0.7,0,1.1c0,0.2,0,0.4,0,0.6
			l0.9,0c0,0.2,0,0.4,0,0.6l-0.8,0c0,0.6,0.1,1.2,0.1,1.7l0.8-0.1c0,0.2,0,0.4,0.1,0.6l-0.8,0.1c0.1,0.6,0.2,1.2,0.3,1.7l0.8-0.2
			c0,0.2,0.1,0.4,0.1,0.5l-0.8,0.2c0.1,0.6,0.3,1.1,0.5,1.7l0.8-0.3c0.1,0.2,0.1,0.4,0.2,0.5l-0.8,0.3c0.2,0.5,0.4,1.1,0.7,1.6
			l0.8-0.4c0.1,0.2,0.2,0.3,0.2,0.5l-0.8,0.4c0.3,0.5,0.5,1,0.8,1.5l0.7-0.4c0.1,0.2,0.2,0.3,0.3,0.5l-0.7,0.5c0.3,0.5,0.6,1,1,1.4
			l0.7-0.5c0.1,0.2,0.2,0.3,0.3,0.5l-0.7,0.5c0.4,0.5,0.7,0.9,1.1,1.3l0.6-0.6c0.1,0.1,0.3,0.3,0.4,0.4l-0.6,0.6
			c0.1,0.1,0.2,0.2,0.3,0.3c0.3,0.3,0.6,0.6,0.9,0.9l0.6-0.6c0.1,0.1,0.3,0.3,0.4,0.4l-0.6,0.6c0.4,0.4,0.9,0.8,1.4,1.1l0.5-0.7
			c0.1,0.1,0.3,0.2,0.5,0.3l-0.5,0.7c0.5,0.3,1,0.7,1.5,1l0.4-0.7c0.2,0.1,0.3,0.2,0.5,0.3l-0.4,0.7c0.5,0.3,1,0.5,1.6,0.8l0.4-0.8
			c0.2,0.1,0.3,0.2,0.5,0.2l-0.3,0.8c0.5,0.2,1.1,0.4,1.6,0.6l0.3-0.8c0.2,0.1,0.4,0.1,0.5,0.2l-0.3,0.8c0.6,0.2,1.1,0.3,1.7,0.4
			l0.2-0.8c0.2,0,0.4,0.1,0.5,0.1l-0.2,0.9c0.6,0.1,1.2,0.2,1.7,0.2l0.1-0.8c0.2,0,0.4,0,0.6,0.1l-0.1,0.9c0.6,0.1,1.2,0.1,1.8,0.1
			l0-0.9c0.2,0,0.4,0,0.6,0l0,0.9c0,0,0.1,0,0.1,0c0.5,0,1.1,0,1.6-0.1l-0.1-0.8c0.2,0,0.4,0,0.6,0L264,60c0.6-0.1,1.2-0.1,1.7-0.2
			l-0.1-0.8c0.2,0,0.4-0.1,0.6-0.1l0.2,0.9c0.6-0.1,1.1-0.3,1.7-0.4l-0.2-0.8c0.2,0,0.4-0.1,0.5-0.2l0.3,0.8
			c0.6-0.2,1.1-0.4,1.7-0.6l-0.3-0.8c0.2-0.1,0.3-0.1,0.5-0.2l0.3,0.8c0.5-0.2,1.1-0.5,1.6-0.8l-0.4-0.8c0.2-0.1,0.3-0.2,0.5-0.3
			l0.4,0.7c0.5-0.3,1-0.6,1.5-0.9l-0.5-0.7c0.2-0.1,0.3-0.2,0.5-0.3l0.5,0.7c0.5-0.3,0.9-0.7,1.4-1.1l-0.6-0.7
			c0.1-0.1,0.3-0.2,0.4-0.4l0.6,0.6c0.4-0.4,0.9-0.7,1.3-1.2c0,0,0,0,0,0l-0.6-0.6c0.1-0.1,0.3-0.3,0.4-0.4l0.6,0.6
			c0.4-0.4,0.8-0.9,1.2-1.3l-0.7-0.6c0.1-0.1,0.2-0.3,0.4-0.4l0.7,0.5c0.4-0.5,0.7-0.9,1-1.4l-0.7-0.5c0.1-0.2,0.2-0.3,0.3-0.5
			l0.7,0.5c0.3-0.5,0.6-1,0.9-1.5l-0.8-0.4c0.1-0.2,0.2-0.3,0.3-0.5l0.8,0.4c0.3-0.5,0.5-1.1,0.7-1.6l-0.8-0.3
			c0.1-0.2,0.1-0.4,0.2-0.5l0.8,0.3c0.2-0.5,0.4-1.1,0.5-1.7l-0.8-0.2c0-0.2,0.1-0.4,0.1-0.5l0.8,0.2c0.1-0.6,0.3-1.1,0.3-1.7
			l-0.8-0.1c0-0.2,0.1-0.4,0.1-0.6l0.8,0.1c0.1-0.6,0.1-1.2,0.2-1.7l-0.9-0.1c0-0.2,0-0.4,0-0.6L284.5,38.2z M244.1,23.3l-0.3-0.2
			h0.4C244.2,23.2,244.2,23.3,244.1,23.3z M271,46.6c-2.5,2.6-5.6,3.9-9.2,3.9c-3.2,0-6-1-8.4-3c-3.2-2.6-4.7-6-4.7-10.4
			c0-3.9,1.3-7.2,3.8-9.7c2.5-2.6,5.6-3.8,9.3-3.8c3.6,0,6.7,1.3,9.3,3.9c2.5,2.6,3.8,5.8,3.8,9.6C274.7,40.8,273.5,44,271,46.6z"/>
		<polygon class="st2" points="218.3,14.9 220.7,23.1 228.9,23.1 224.4,43 216.4,14.9 197.1,14.9 199,23.1 207.1,23.1 201.5,43 
			195.2,14.9 160.5,14.9 160.5,23.1 160.5,23.2 168.3,23.2 168.3,59 176.9,59 176.9,23.2 188.8,23.1 196.9,59 204.9,59 212.8,30.5 
			221,59 229,59 239,14.9 		"/>
	</g>
</g>
</svg>
