<svg xmlns="http://www.w3.org/2000/svg" data-name="logo" viewBox="0 0 372.03 70.78"><path d="M315.34 28.92L302 1.2a3.36 3.36 0 0 0-2.5-1.2h-19.6a2.94 2.94 0 0 0-2.84 2.16L260.73 66a2.94 2.94 0 0 0 2.7 4h17.79a3 3 0 0 0 2.85-2.22l7.05-27.49v-.12a3 3 0 0 1 5.59-.29l8.94 18.52a1.51 1.51 0 0 0 2.82-.28l7-27.25a2.87 2.87 0 0 0-.14-2zM369.06 0h-22.43a3 3 0 0 0-2.95 2.79 20.21 20.21 0 0 1-18 17.86 3 3 0 0 0-2.53 2.17c-1.5 5.88-10.94 42.89-11 43.16a4 4 0 0 0-.17 1 3 3 0 0 0 2.88 3h15.69a3 3 0 0 0 2.85-2.22l3.26-12.7v-.16a3 3 0 0 1 2.8-2.22h17.46a3 3 0 0 0 2.87-2.26l3.81-14.72a5.14 5.14 0 0 0 .11-.78 3 3 0 0 0-3-3h-14.49a3 3 0 0 1-3-3c0-.23 1.59-6 1.59-6a2.94 2.94 0 0 1 2.82-2.18h17.6a3 3 0 0 0 2.87-2.27l3.78-14.71A5.14 5.14 0 0 0 372 3a3 3 0 0 0-2.94-3z" fill="#fdd108"/><path d="M55.73 70.78c-4.86 0-5.67-1.1-4.41-6s2.6-5.93 7.46-5.93 5.62 1 4.37 5.93-2.55 6-7.42 6zm46.73-44.02h18.22l2.32-9.09h-22.95c-8.2 0-11.85 2.93-13.81 10.62L75.65 69.82h10.09l5.4-21.16h19l2.31-9.08h-19l1.85-7.25c1.05-4.11 2.87-5.57 7.16-5.57zM207 69.82c-11.54 0-15.41-4.17-12.78-14.5l9.6-37.65h10.09l-9.6 37.65c-1.07 4.18.21 5.42 5 5.42h15.39l-2.31 9.08zm68.17-20.65c-1.77 5.79-3.73 11.21-9.3 15.68-4.29 3.44-10.27 5-15.64 5-15 0-18.51-3.44-15.89-13.69l9.81-38.46h20.1c5.37 0 9.85 1.54 12.38 5 4.31 5.86 1.68 13-.1 20.88zM267.72 30c-1.2-2.13-3.24-3.22-6.73-3.22h-9.07l-7.36 28.85c-1 3.89.87 5.13 7.76 5.13a11.59 11.59 0 0 0 8.38-3.22c2.48-2.34 3.72-6.08 5.74-14S269 32.32 267.72 30zm-78.4-3.24l2.32-9.09h-34l-9.79 38.38c-2.64 10.33.7 13.77 12.24 13.77h18.29l2.32-9.08h-17.61c-4.79 0-6.07-1.24-5-5.42l1.85-7.25h16.8l2.31-9.07h-16.8l3.12-12.22zM142 17.62h-7.79l-12.85 50.05a1.73 1.73 0 0 0 1.69 2.15h7.8l12.78-50a1.71 1.71 0 0 0-1.63-2.2zm-90.45.05h-7.89L35 51.8 22.53 17.67h-9.72l-12.76 50a1.73 1.73 0 0 0 1.69 2.15h7.87l8.52-33.43L28.8 64.55c1.56 5.27 4.46 5.86 6.71 5.86 2.61 0 5.53-2.64 6.35-5.86l11.36-44.73a1.73 1.73 0 0 0-1.67-2.15z" fill="#2f2725"/></svg>