<?xml version="1.0" encoding="utf-8"?>
<!-- Generator: Adobe Illustrator 15.0.0, SVG Export Plug-In . SVG Version: 6.00 Build 0)  -->
<!DOCTYPE svg PUBLIC "-//W3C//DTD SVG 1.1//EN" "http://www.w3.org/Graphics/SVG/1.1/DTD/svg11.dtd">
<svg version="1.1" id="レイヤー_1" xmlns="http://www.w3.org/2000/svg" xmlns:xlink="http://www.w3.org/1999/xlink" x="0px"
	 y="0px" width="1133.859px" height="308px" viewBox="0 0 1133.859 308" enable-background="new 0 0 1133.859 308"
	 xml:space="preserve">
<g>
	<path fill="#FFFFFF" d="M349.419,178.77c-6.568,3.669-15.372,6.392-24.38,7.935c-23.796,4.074-39.381-6.116-42.931-26.858
		c-3.248-18.973,6.545-37.753,29.131-41.619c18.014-3.085,32.603,5.333,36.456,27.845c0.546,3.177,0.975,6.503,0.822,8.835
		l-42.752,7.318c1.891,7.804,10.581,10.077,20.395,8.396c6.858-1.173,12.591-3.248,17.706-5.698L349.419,178.77z M325.104,144.235
		c-1.009-5.893-4.431-12.948-12.632-11.543c-8.066,1.38-9.828,9.688-9.283,15.296L325.104,144.235z"/>
	<path fill="#FFFFFF" d="M449.074,185.845h-19.753v-35.857c0-8.106-1.828-13.36-7.309-13.36c-4.681,0-7.993,3.997-7.993,10.505
		v38.71h-19.754v-37.451c0-6.285-1.6-11.764-7.195-11.764c-2.968,0-8.107,2.398-8.107,10.62v38.596H359.21v-43.736
		c0-7.648-0.228-14.5-0.457-20.552h17.129l0.913,7.994h0.341c2.969-3.996,8.566-9.249,17.7-9.249c7.879,0,13.587,3.766,16.1,9.821
		h0.228c2.514-3.655,8.337-9.821,18.271-9.821c12.561,0,19.641,9.362,19.641,26.491v39.054H449.074z"/>
	<path fill="#FFFFFF" d="M513.256,170.659c0,5.708,0.228,11.304,1.027,15.188h-18.042l-1.142-6.168h-0.341
		c-3.882,5.139-9.935,7.423-16.558,7.423c-11.647,0-19.298-8.906-19.298-19.754c0-17.013,15.188-24.325,34.144-24.438
		c0-4.909-2.169-8.449-10.277-8.449c-6.053,0-11.763,1.825-15.873,4.339l-3.653-13.017c4.11-2.284,12.445-5.481,23.522-5.481
		c21.24,0,26.492,13.475,26.492,27.75L513.256,170.659L513.256,170.659z M493.73,155.47c-8.337,0-15.416,2.396-15.416,9.82
		c0,5.253,3.198,7.538,6.737,7.538c4.111,0,8.678-2.972,8.678-9.021L493.73,155.47L493.73,155.47z"/>
	<path fill="#FFFFFF" d="M564.417,139.94c-1.372-0.342-2.855-0.457-4.911-0.457c-5.139,0-9.934,2.397-11.646,8.106
		c-0.571,1.484-0.8,3.769-0.8,6.05v32.203h-20.097v-43.507c0-8.449-0.229-14.959-0.457-20.781h17.242l0.8,10.733h0.457
		c3.196-8.449,9.935-11.988,15.187-11.988c1.943,0,2.97,0.113,4.228,0.341v19.299H564.417z"/>
	<path fill="#FFFFFF" d="M632.59,185.845h-23.75l-11.764-25.692l-3.996,5.939v19.755h-20.096V93.923h20.096v54.923h0.342
		c1.371-3.309,2.514-5.936,3.883-8.448l10.047-18.842h23.182l-19.643,26.494L632.59,185.845z"/>
	<path fill="#FFFFFF" d="M688.203,183.444c-5.936,2.4-13.586,3.543-21.24,3.543c-20.209,0-31.627-12.106-31.627-32.201
		c0-18.386,10.732-34.486,29.918-34.486c15.299,0,26.146,10.277,26.146,32.086c0,3.084-0.113,6.279-0.566,8.45h-36.316
		c0.459,7.651,7.311,11.191,15.646,11.191c5.822,0,10.848-1.027,15.414-2.513L688.203,183.444z M673.018,147.022
		c0-5.708-1.828-12.905-8.795-12.905c-6.848,0-9.479,7.536-9.82,12.905H673.018z"/>
	<path fill="#FFFFFF" d="M704.994,109.794l19.869-5.593v17.354h13.359v14.502h-13.359v24.206c0,7.538,2.398,10.278,7.191,10.278
		c2.285,0,3.541-0.115,5.254-0.569l0.115,15.527c-2.512,0.802-6.967,1.485-12.334,1.485c-19.756,0-20.096-16.9-20.096-24.209v-26.72
		h-7.877v-14.501h7.877V109.794L704.994,109.794z"/>
	<path fill="#FFFFFF" d="M757.979,114.363c-6.051,0-10.275-4.339-10.275-10.162c0-6.054,4.34-10.279,10.275-10.279
		c6.053,0,10.277,4.225,10.277,10.279C768.256,110.252,763.801,114.363,757.979,114.363z M768.029,185.845h-20.098v-64.289h20.098
		V185.845z"/>
	<path fill="#FFFFFF" d="M838.369,185.845h-20.098v-37.341c0-6.737-2.055-11.645-7.764-11.645c-4.227,0-8.68,3.082-8.68,11.303
		v37.684h-20.096v-43.735c0-7.649-0.23-14.501-0.457-20.553h17.242l1.027,8.105h0.344c2.854-4.337,8.91-9.362,17.811-9.362
		c13.475,0,20.67,9.705,20.67,26.377V185.845L838.369,185.845z"/>
	<path fill="#FFFFFF" d="M908.484,121.556c-0.23,5.025-0.57,11.076-0.57,19.869v36.083c0,16.101-3.768,35.169-33.344,35.169
		c-7.535,0-14.959-1.369-20.326-3.995l3.654-15.301c3.768,1.941,9.594,3.77,15.988,3.77c8.793,0,14.156-5.255,14.156-15.418v-3.537
		h-0.227c-3.199,4.564-8.566,7.077-14.502,7.077c-15.418,0-24.207-14.272-24.207-31.173c0-20.667,11.646-33.8,26.033-33.8
		c6.852,0,11.873,3.083,14.844,8.22h0.229l0.914-6.965h17.357V121.556z M887.816,146.792c0-7.194-3.881-10.619-8.107-10.619
		c-6.281,0-10.389,7.079-10.389,17.586c0,10.049,3.879,16.44,10.162,16.44c4.338,0,8.334-2.854,8.334-10.962V146.792z"/>
	<path fill="#FFFFFF" d="M941.602,185.845h-20.098V93.922h20.098V185.845z"/>
	<path fill="#FFFFFF" d="M1006.008,170.659c0,5.708,0.229,11.304,1.029,15.188h-18.043l-1.143-6.168h-0.346
		c-3.879,5.139-9.93,7.423-16.553,7.423c-11.65,0-19.301-8.906-19.301-19.754c0-17.013,15.189-24.325,34.145-24.438
		c0-4.909-2.168-8.449-10.275-8.449c-6.055,0-11.764,1.825-15.871,4.339l-3.658-13.017c4.111-2.284,12.445-5.481,23.523-5.481
		c21.238,0,26.494,13.475,26.494,27.75v22.608H1006.008z M986.479,155.47c-8.334,0-15.412,2.396-15.412,9.82
		c0,5.253,3.195,7.538,6.736,7.538c4.109,0,8.676-2.972,8.676-9.021V155.47z"/>
	<path fill="#FFFFFF" d="M1040.156,128.408c3.424-4.796,8.902-8.107,16.439-8.107c14.275,0,22.836,13.587,22.836,31.973
		c0,23.065-12.332,34.828-25.801,34.828c-6.283,0-11.992-2.284-16.104-9.364h-0.227l-1.029,8.109h-17.014
		c0.229-5.024,0.455-12.563,0.455-19.641V93.923h20.098v34.484H1040.156z M1039.811,160.265c0,7.195,4.568,10.851,8.908,10.851
		c6.734,0,10.504-6.281,10.504-17.7c0-10.05-3.426-17.014-10.504-17.014c-4.453,0-8.908,3.998-8.908,10.962V160.265z"/>
</g>
<path fill="#096AA9" stroke="#FFFFFF" stroke-width="9.24" d="M163.688,255.979c-6.096-4.922-15.871-10.93-30.915-19.878
	c-10.507-6.255-21.376-12.719-29.881-18.686c-19.552-13.737-23.281-36.369-16.875-50.703c11.341-25.337,5.178-41.198,2.002-46.846
	c-3.659-6.494-9.125-10.882-13.256-13.488c0.306-6.726,0.813-18.259,1.05-26.271c16.974-6.233,24.75-19.174,27.556-29.408h60.315
	h60.323c2.803,10.234,10.578,23.175,27.556,29.408c0.23,8.019,0.735,19.544,1.054,26.271c-4.126,2.612-9.604,6.995-13.257,13.488
	c-3.174,5.648-9.343,21.517,1.995,46.846c6.411,14.334,2.67,36.966-16.881,50.703c-8.498,5.967-19.375,12.431-29.888,18.702
	C179.548,245.058,169.773,251.058,163.688,255.979L163.688,255.979z"/>
<g>
	<g>
		<path fill="#FFFFFF" d="M195.791,171.191c9.128-6.316,16.849-17.724,17.902-29.483c1.053-11.757-1.93-40.364-10.354-49.666
			c1.579-1.755,0.348-5.791,0.348-5.791s0.178-2.456-3.507-4.387c-2.623-1.372-7.011,0.182-9.331,1.194l-7.854-3.073l8.071-17.899
			l-9.65-3.512l-6.67,17.025l-5.088-1.931l-10.881,26.499l-12.635-5.087l-1.405,2.105l3.159,2.982l1.132,23.956l9.222,2.72
			l16.496-15.092l4.304-0.036l1.137-2.595l-8.248-3.639l0.616-1.692l1.949,0.725l4.79,2.097c0,0,0.828,0.112,2.176,0.498
			l0.111,0.043l0.004-0.007c4.802,1.402,15.874,6.215,20.349,21.402c5.792,19.656-8.072,33.344-12.635,33.696
			c-1.577,0.121-3.762-0.497-5.946-1.352c0.182-0.163,0.339-0.338,0.45-0.535c0.297-0.525,0.314-1.148,0.084-1.846l-11.59-4.936
			l-0.405,4.309l2.287,0.938l7.289,2.987c-0.528,0.137-1.125,0.24-1.795,0.307l-5.891-2.413l-1.986-0.814l-0.269,2.833
			c0.444,0.062,0.854,0.103,1.278,0.152l-2.054,4.567l-2.988-1.384l-2.945,3.416l-50.366-20.183l-3.509,8.425l19.48,7.897
			l-0.353,1.229l-3.509-1.404l-1.755,4.036l20.884,8.249l1.93-4.389l-3.51-1.579l0.176-1.931l12.831,5.606l-4.795,14.111
			l-10.6-4.293l0.876-1.932l-20.357-7.546l-2.28,4.036l20.62,8.601l0.788-1.27l17.936,7.076l6.392-14.057v25.73h-43.084
			l-4.563,12.637h92.836l-6.668-12.813l-12.811,0.176c0,0-12.46-24.219-10.179-28.08
			C181.227,176.807,186.667,177.51,195.791,171.191z"/>
	</g>
	<g>
		<path fill="#FFFFFF" d="M137.669,152.046c4.554,1.777,9.01,3.349,13.256,4.693l2.179-5.512l-27.093-11.102l-6.399,3.842
			C124.896,146.683,131.011,149.441,137.669,152.046z"/>
	</g>
	<g>
		<path fill="#FFFFFF" d="M172.762,148.672l-0.37,3.889l10.816,4.608C181.649,154.828,177.976,151.871,172.762,148.672z"/>
	</g>
	<g>
		<path fill="#FFFFFF" d="M171.898,148.148c-3.891-2.329-8.568-4.774-13.813-7.193l-1.87,4.719l15.299,6.515L171.898,148.148z"/>
	</g>
	<g>
		<path fill="#FFFFFF" d="M100.441,129.648c0.278,0.842,0.927,1.802,1.904,2.848l2.952-0.858L100.441,129.648z"/>
	</g>
	<g>
		<path fill="#FFFFFF" d="M125.065,139.737l-18.488-7.578l-3.542,1.035c3.078,2.987,8.585,6.604,15.723,10.333L125.065,139.737z"/>
	</g>
	<g>
		<path fill="#FFFFFF" d="M114.5,128.952l-7.052-3.002c-3.705-0.091-6.169,0.493-6.927,1.838c-0.131,0.233-0.199,0.489-0.224,0.757
			l6.487,2.659L114.5,128.952z"/>
	</g>
	<g>
		<path fill="#FFFFFF" d="M119.208,127.58c-3.299-0.709-6.289-1.199-8.861-1.446l5.618,2.392L119.208,127.58z"/>
	</g>
	<g>
		<path fill="#FFFFFF" d="M132.208,135.446l4.776-2.87c-5.755-1.94-11.189-3.492-16.031-4.606l-3.737,1.088L132.208,135.446z"/>
	</g>
	<g>
		<path fill="#FFFFFF" d="M138.002,132.923l-4.863,2.92l22.296,9.498l1.875-4.742c-3.348-1.525-6.915-3.036-10.655-4.5
			C143.72,134.954,140.826,133.892,138.002,132.923z"/>
	</g>
	<g>
		<path fill="#FFFFFF" d="M170.915,158.525l-17.023-6.976l-2.153,5.446c7.13,2.224,13.621,3.785,18.886,4.588L170.915,158.525z"/>
	</g>
	<g>
		<polygon fill="#FFFFFF" points="155.08,146.239 132.116,136.458 127.043,139.505 153.461,150.332 		"/>
	</g>
	<g>
		<polygon fill="#FFFFFF" points="171.419,153.199 155.861,146.572 154.246,150.652 171.009,157.521 		"/>
	</g>
	<g>
		<polygon fill="#FFFFFF" points="108.065,131.728 126.099,139.118 131.188,136.061 115.751,129.486 		"/>
	</g>
</g>
</svg>
