<?xml version="1.0" encoding="utf-8"?>
<!-- Generator: Adobe Illustrator 21.0.2, SVG Export Plug-In . SVG Version: 6.00 Build 0)  -->
<svg version="1.1" id="Layer_1" xmlns="http://www.w3.org/2000/svg" xmlns:xlink="http://www.w3.org/1999/xlink" x="0px" y="0px"
	 viewBox="0 0 68 90" style="enable-background:new 0 0 68 90;" xml:space="preserve">
<g>
	<g>
		<path d="M12.547,14.166h3.764c0,0,0,30.263,0,31.134c0,1.014,1.981,6.695,1.981,6.695s0.791-0.403,0.791-2.455
			c0-1.651,0-35.374,0-35.374h3.765v53.787c0.258,0.922-3.879,9.573-10.301,2.901l0.793-4.411c3.889,5.228,5.589,0.728,5.743-0.76
			v-8.555l-0.396,0.893h-2.377l-3.764-12.164V14.166z"/>
		<rect x="25.027" y="57.149" width="3.566" height="3.885"/>
		<g>
			<g>
				<path d="M34.537,15.305l-0.004-15.2H30.77v60.929h3.369l0.392-1.13c3.617,4.017,6.144-3.529,6.144-6.235V21.755
					C40.674,17.033,37.519,11.879,34.537,15.305z M34.491,53.076c0-3.146,0.039-31.393,0.039-31.393
					c0-1.939,2.531-1.939,2.531-0.038c0,1.901,0.027,28.481,0.027,31.518C37.09,55.72,34.529,55.654,34.491,53.076z"/>
			</g>
		</g>
		<g>
			<g>
				<path d="M53.152,37.601c0.226-4.821-0.174-9.656-0.363-13.012c-0.801-14.32-8.877-14.258-9.454,1.956
					c-0.053,1.5-0.618,6.261-0.637,11.446c-0.018,5.514,0.517,11.468,0.724,13.169c1.76,14.392,8.205,10.855,8.763,2.64
					c0.172-2.528,0.213-3.254,0.213-3.254l-1.938,0.009l-0.337,1.976c-0.542,3.126-2.866,3.341-2.866,0.088
					c0-3.816,0-15.019,0-15.019H53.152z M47.222,31.523c0,0,0-5.827,0-9.207c0-2.946,2.508-2.946,2.508,0
					c0,3.38-0.026,9.207-0.026,9.207H47.222z"/>
			</g>
		</g>
	</g>
	<g>
		<path d="M0.426,87.594c0.265-0.28,0.686-0.56,1.263-0.837c-0.115-0.066-0.21-0.136-0.284-0.208c-0.073-0.073-0.11-0.169-0.11-0.29
			c0-0.17,0.131-0.365,0.395-0.585c0.147-0.125,0.387-0.289,0.719-0.492c-0.295-0.1-0.549-0.241-0.761-0.424
			c-0.258-0.245-0.388-0.562-0.388-0.953c0-0.626,0.272-1.147,0.816-1.562c0.545-0.415,1.218-0.623,2.021-0.623
			c0.42,0,0.774,0.06,1.065,0.178s0.461,0.217,0.512,0.296h0.935v0.501H5.902c0.027,0.091,0.049,0.174,0.062,0.249
			s0.021,0.18,0.021,0.317c0,0.672-0.289,1.201-0.868,1.586c-0.579,0.386-1.203,0.579-1.871,0.579c-0.069,0-0.134-0.003-0.194-0.009
			c-0.06-0.006-0.134-0.018-0.221-0.034c-0.069,0-0.164,0.06-0.284,0.18C2.422,85.582,2.36,85.69,2.36,85.786
			c0,0.141,0.507,0.382,1.521,0.722c1.011,0.345,1.516,0.849,1.516,1.513c0,0.499-0.254,0.935-0.761,1.311
			c-0.508,0.375-1.273,0.563-2.297,0.563c-0.711,0-1.273-0.137-1.688-0.411s-0.623-0.608-0.623-1.002
			C0.028,88.17,0.161,87.874,0.426,87.594z M3.982,89.266c0.362-0.237,0.543-0.519,0.543-0.847c0-0.249-0.095-0.459-0.283-0.629
			c-0.102-0.091-0.266-0.189-0.491-0.293c-0.189-0.083-0.509-0.202-0.958-0.358c-0.45-0.156-0.71-0.233-0.778-0.233
			c-0.12,0-0.354,0.144-0.699,0.433s-0.519,0.615-0.519,0.981c0,0.552,0.265,0.932,0.795,1.139c0.277,0.108,0.618,0.162,1.024,0.162
			C3.165,89.621,3.62,89.502,3.982,89.266z M2.505,84.683c0.147,0.253,0.412,0.38,0.795,0.38c0.415,0,0.785-0.237,1.11-0.713
			c0.325-0.475,0.488-0.999,0.488-1.572c0-0.274-0.067-0.489-0.201-0.645C4.564,81.978,4.364,81.9,4.096,81.9
			c-0.517,0-0.933,0.247-1.249,0.741c-0.315,0.494-0.474,0.969-0.474,1.426C2.374,84.324,2.417,84.53,2.505,84.683z"/>
		<path d="M12.196,81.863c0.107,0.091,0.19,0.212,0.252,0.361l0.034,0.087l0.155-0.469c0.02-0.054,0.035-0.09,0.05-0.108
			c0.014-0.019,0.047-0.03,0.099-0.034l0.797-0.081c0.043,0,0.067,0.007,0.074,0.022s0.006,0.041-0.003,0.078
			c-0.021,0.054-0.035,0.097-0.045,0.128c-0.01,0.031-0.025,0.076-0.045,0.134l-0.685,2.228c-0.148,0.485-0.275,0.905-0.38,1.257
			c-0.17,0.637-0.256,1.001-0.256,1.092c0,0.058,0.018,0.101,0.052,0.127c0.035,0.027,0.078,0.04,0.129,0.04
			c0.041,0,0.087-0.012,0.138-0.037s0.113-0.062,0.186-0.112l0.124-0.087c0.039-0.029,0.082-0.063,0.131-0.103
			s0.107-0.088,0.175-0.146l0.452-0.398l0.166,0.131c-0.493,0.552-0.889,0.927-1.188,1.124c-0.298,0.197-0.582,0.296-0.853,0.296
			c-0.176,0-0.311-0.054-0.405-0.162c-0.095-0.108-0.142-0.242-0.142-0.404c0-0.149,0.031-0.363,0.094-0.643
			c0.062-0.279,0.123-0.515,0.183-0.705c-0.083,0.125-0.222,0.307-0.418,0.545c-0.195,0.239-0.436,0.471-0.722,0.695
			c-0.336,0.27-0.658,0.461-0.967,0.573c-0.239,0.075-0.47,0.112-0.691,0.112c-0.373,0-0.711-0.138-1.015-0.415
			c-0.305-0.276-0.456-0.668-0.456-1.175c0-0.873,0.438-1.783,1.314-2.73c0.904-0.984,1.842-1.477,2.812-1.477
			C11.71,81.607,11.995,81.692,12.196,81.863z M11.971,82.1c-0.154-0.141-0.341-0.212-0.56-0.212c-0.76,0-1.466,0.52-2.118,1.559
			c-0.573,0.915-0.86,1.702-0.86,2.363c0,0.333,0.08,0.575,0.238,0.727c0.159,0.151,0.355,0.228,0.591,0.228
			c0.694,0,1.364-0.505,2.009-1.515c0.62-0.918,0.931-1.748,0.931-2.488C12.202,82.461,12.125,82.241,11.971,82.1z"/>
		<path d="M17.063,81.623c0.016,0.023,0.024,0.049,0.024,0.078c-0.005,0.042-0.009,0.074-0.013,0.095l-0.705,2.428l0.16-0.288
			c0.332-0.585,0.72-1.12,1.165-1.604c0.444-0.484,0.867-0.726,1.269-0.726c0.217,0,0.384,0.064,0.501,0.193
			c0.118,0.129,0.177,0.276,0.177,0.442c0,0.187-0.059,0.341-0.177,0.464c-0.117,0.123-0.279,0.184-0.486,0.184
			c-0.143,0-0.251-0.025-0.324-0.075c-0.074-0.05-0.131-0.108-0.173-0.174l-0.083-0.137c-0.019-0.025-0.04-0.044-0.065-0.059
			s-0.057-0.022-0.093-0.022c-0.181,0-0.44,0.227-0.779,0.679c-0.34,0.453-0.644,0.942-0.911,1.47
			c-0.161,0.32-0.342,0.743-0.54,1.27c-0.125,0.333-0.293,0.804-0.502,1.414h-1.062l1.153-3.749
			c0.065-0.216,0.117-0.409,0.156-0.579c0.039-0.17,0.059-0.309,0.059-0.417c0-0.125-0.034-0.22-0.104-0.287
			c-0.069-0.066-0.189-0.1-0.36-0.1c-0.055,0-0.124,0.004-0.207,0.013s-0.183,0.019-0.298,0.031v-0.206l0.277-0.05
			c0.359-0.066,0.753-0.137,1.18-0.212s0.652-0.112,0.675-0.112C17.018,81.589,17.046,81.6,17.063,81.623z"/>
		<path d="M24.16,81.844c0.088,0.091,0.158,0.247,0.209,0.467l0.812-2.552c0.023-0.071,0.038-0.134,0.045-0.19
			c0.008-0.056,0.011-0.105,0.011-0.146c0-0.162-0.033-0.264-0.101-0.305c-0.066-0.042-0.162-0.062-0.287-0.062
			c-0.078,0-0.15,0.002-0.218,0.006c-0.066,0.004-0.155,0.011-0.267,0.019v-0.206c0.524-0.062,1.249-0.17,2.177-0.324l0.062,0.062
			l-0.015,0.069l-1.365,4.475l-0.93,2.96c-0.019,0.067-0.033,0.129-0.045,0.186s-0.018,0.108-0.018,0.154
			c0,0.113,0.031,0.187,0.094,0.22c0.062,0.034,0.116,0.05,0.163,0.05c0.135,0,0.326-0.106,0.573-0.319
			c0.145-0.129,0.343-0.33,0.595-0.601l0.159,0.137l-0.098,0.131c-0.171,0.229-0.392,0.462-0.661,0.7
			c-0.479,0.42-0.907,0.631-1.288,0.631c-0.126,0-0.239-0.025-0.342-0.075c-0.189-0.1-0.284-0.278-0.284-0.535
			c0-0.087,0.014-0.227,0.041-0.417s0.07-0.4,0.127-0.627c-0.352,0.481-0.735,0.875-1.153,1.182c-0.417,0.307-0.873,0.46-1.367,0.46
			c-0.401,0-0.752-0.129-1.053-0.386c-0.3-0.257-0.449-0.653-0.449-1.188c0-0.904,0.464-1.833,1.392-2.787
			c0.923-0.95,1.823-1.424,2.7-1.424C23.747,81.607,24.006,81.686,24.16,81.844z M20.713,86.468
			c0.129,0.188,0.349,0.283,0.658,0.283c0.66,0,1.295-0.477,1.903-1.43c0.587-0.896,0.881-1.743,0.881-2.543
			c0-0.253-0.047-0.462-0.14-0.628c-0.093-0.166-0.281-0.249-0.564-0.249c-0.705,0-1.388,0.51-2.048,1.53
			c-0.59,0.912-0.884,1.704-0.884,2.375C20.52,86.058,20.584,86.279,20.713,86.468z"/>
		<path d="M27.991,82.926c0.913-0.863,1.856-1.294,2.83-1.294c0.359,0,0.646,0.075,0.857,0.224c0.212,0.149,0.318,0.371,0.318,0.665
			c0,0.597-0.389,1.107-1.166,1.532c-0.776,0.425-1.595,0.685-2.452,0.78l-0.395,0.043c-0.06,0.17-0.102,0.306-0.124,0.408
			c-0.023,0.102-0.035,0.229-0.035,0.383c0,0.365,0.133,0.65,0.398,0.853c0.265,0.204,0.579,0.305,0.944,0.305
			c0.346,0,0.712-0.104,1.1-0.311c0.222-0.121,0.542-0.336,0.962-0.648l0.18,0.144c-0.208,0.236-0.505,0.479-0.893,0.729
			c-0.688,0.444-1.377,0.666-2.068,0.666c-0.489,0-0.918-0.155-1.287-0.466s-0.554-0.757-0.554-1.337
			C26.607,84.68,27.069,83.788,27.991,82.926z M30.233,83.761c0.553-0.441,0.83-0.879,0.83-1.314c0-0.157-0.042-0.283-0.125-0.376
			s-0.205-0.14-0.366-0.14c-0.3,0-0.594,0.115-0.882,0.345c-0.289,0.23-0.548,0.49-0.778,0.78c-0.245,0.339-0.438,0.665-0.582,0.975
			c-0.078,0.166-0.161,0.354-0.249,0.565C28.961,84.48,29.679,84.202,30.233,83.761z"/>
		<path d="M32.709,87.255l1.185-3.848c0.102-0.325,0.16-0.522,0.176-0.591c0.017-0.069,0.024-0.143,0.024-0.222
			c0-0.121-0.038-0.216-0.114-0.285s-0.225-0.104-0.446-0.104c-0.055,0-0.109,0.003-0.162,0.009
			c-0.054,0.006-0.112,0.014-0.177,0.022v-0.206c0.298-0.042,0.51-0.073,0.636-0.093c0.126-0.021,0.263-0.046,0.409-0.075
			l1.229-0.243c0.027,0.017,0.046,0.036,0.055,0.056l-0.917,2.678c0.566-0.776,1.04-1.354,1.422-1.731
			c0.668-0.668,1.268-1.003,1.797-1.003c0.204,0,0.381,0.036,0.529,0.106c0.283,0.137,0.424,0.384,0.424,0.741
			c0,0.1-0.011,0.203-0.034,0.311s-0.053,0.224-0.09,0.349l-0.911,2.983c-0.018,0.062-0.039,0.138-0.062,0.227
			c-0.023,0.089-0.035,0.153-0.035,0.19c0,0.062,0.017,0.118,0.049,0.168s0.084,0.075,0.154,0.075c0.115,0,0.248-0.063,0.398-0.19
			c0.15-0.126,0.396-0.397,0.736-0.812l0.2,0.162c-0.371,0.46-0.665,0.785-0.882,0.971c-0.371,0.328-0.726,0.492-1.065,0.492
			c-0.153,0-0.302-0.047-0.444-0.14c-0.144-0.094-0.215-0.263-0.215-0.508c0-0.07,0.006-0.145,0.018-0.224
			c0.012-0.079,0.026-0.147,0.045-0.206l0.883-3.026c0.046-0.166,0.077-0.302,0.094-0.408c0.016-0.106,0.024-0.182,0.024-0.228
			c0-0.1-0.027-0.186-0.08-0.258c-0.054-0.073-0.147-0.109-0.283-0.109c-0.351,0-0.792,0.282-1.324,0.846
			c-0.313,0.336-0.631,0.736-0.953,1.2c-0.241,0.361-0.431,0.712-0.569,1.055c-0.139,0.342-0.358,0.965-0.66,1.868H32.709z"/>
		<path d="M48.905,81.881c0.139,0.166,0.208,0.355,0.208,0.566c0,0.561-0.616,1.542-1.848,2.945
			c-1.167,1.333-1.865,1.999-2.096,1.999c-0.069,0-0.116-0.085-0.139-0.255c-0.014-0.096-0.021-0.257-0.021-0.486
			c0-0.278-0.03-0.749-0.091-1.414c-0.06-0.664-0.117-1.156-0.173-1.476c-0.115-0.701-0.228-1.154-0.339-1.357
			c-0.11-0.203-0.32-0.305-0.629-0.305c-0.051,0-0.11,0.002-0.177,0.006c-0.067,0.004-0.145,0.01-0.231,0.019v-0.162
			c0.138-0.025,0.428-0.081,0.871-0.168c0.442-0.087,0.677-0.135,0.705-0.144l0.228-0.062c0.064-0.017,0.115,0.016,0.152,0.096
			c0.037,0.081,0.083,0.231,0.139,0.452c0.175,0.722,0.307,1.434,0.396,2.136c0.056,0.436,0.11,1.081,0.166,1.937l0.229-0.218
			c0.475-0.452,0.95-0.99,1.425-1.612c0.476-0.623,0.713-1.063,0.713-1.32c0-0.128-0.104-0.283-0.312-0.464
			c-0.207-0.181-0.312-0.346-0.312-0.495c0-0.137,0.052-0.249,0.156-0.336c0.104-0.087,0.231-0.131,0.384-0.131
			C48.568,81.632,48.766,81.715,48.905,81.881z"/>
		<path d="M52.582,81.61c0.025,0.015,0.035,0.032,0.031,0.053l-1.397,4.446c-0.064,0.236-0.097,0.377-0.097,0.423
			c0,0.062,0.014,0.116,0.042,0.162c0.022,0.05,0.08,0.075,0.173,0.075c0.156,0,0.364-0.122,0.623-0.367
			c0.151-0.146,0.339-0.353,0.56-0.623l0.181,0.137l-0.069,0.087c-0.346,0.436-0.632,0.749-0.858,0.94
			c-0.354,0.299-0.701,0.449-1.037,0.449c-0.199,0-0.363-0.075-0.495-0.225c-0.132-0.149-0.197-0.326-0.197-0.529
			c0-0.121,0.009-0.226,0.027-0.314c0.019-0.089,0.054-0.221,0.104-0.396l0.984-3.201c0.014-0.05,0.025-0.095,0.035-0.137
			c0.009-0.042,0.014-0.083,0.014-0.125c0-0.149-0.062-0.242-0.184-0.277c-0.122-0.035-0.362-0.053-0.722-0.053v-0.206
			c0.38-0.042,0.653-0.074,0.82-0.097c0.167-0.022,0.335-0.046,0.505-0.071c0.219-0.033,0.428-0.071,0.624-0.112
			C52.446,81.609,52.556,81.596,52.582,81.61z M51.928,80.051c-0.134-0.133-0.2-0.292-0.2-0.479c0-0.191,0.066-0.353,0.2-0.486
			c0.134-0.133,0.295-0.199,0.484-0.199s0.352,0.066,0.488,0.199c0.136,0.133,0.204,0.295,0.204,0.486s-0.068,0.352-0.204,0.482
			c-0.137,0.131-0.299,0.196-0.488,0.196S52.062,80.184,51.928,80.051z"/>
		<path d="M55.983,79.702c0.019-0.054,0.029-0.108,0.034-0.162c0.005-0.054,0.007-0.097,0.007-0.131
			c0-0.141-0.062-0.227-0.188-0.258c-0.126-0.031-0.377-0.044-0.752-0.041v-0.205c0.208-0.025,0.448-0.054,0.72-0.087
			s0.449-0.056,0.532-0.068c0.26-0.042,0.575-0.104,0.946-0.187c0.032,0,0.064,0.021,0.098,0.062l-2.304,7.484
			c-0.051,0.178-0.08,0.286-0.09,0.324c-0.009,0.037-0.014,0.075-0.014,0.112c0,0.079,0.017,0.146,0.049,0.203
			c0.032,0.056,0.092,0.084,0.18,0.084c0.166,0,0.383-0.133,0.65-0.398s0.493-0.523,0.678-0.772l0.188,0.119
			c-0.398,0.527-0.708,0.893-0.93,1.096c-0.384,0.345-0.771,0.517-1.158,0.517c-0.167,0-0.314-0.038-0.444-0.112
			c-0.199-0.112-0.298-0.303-0.298-0.573c0-0.104,0.018-0.243,0.055-0.417c0.025-0.104,0.058-0.224,0.098-0.361L55.983,79.702z"/>
		<path d="M59.919,79.702c0.019-0.054,0.029-0.108,0.034-0.162c0.005-0.054,0.007-0.097,0.007-0.131
			c0-0.141-0.062-0.227-0.188-0.258c-0.126-0.031-0.377-0.044-0.752-0.041v-0.205c0.208-0.025,0.448-0.054,0.72-0.087
			s0.449-0.056,0.532-0.068c0.26-0.042,0.575-0.104,0.946-0.187c0.032,0,0.064,0.021,0.098,0.062l-2.304,7.484
			c-0.051,0.178-0.08,0.286-0.09,0.324c-0.009,0.037-0.014,0.075-0.014,0.112c0,0.079,0.017,0.146,0.049,0.203
			c0.032,0.056,0.092,0.084,0.18,0.084c0.166,0,0.383-0.133,0.65-0.398s0.493-0.523,0.678-0.772l0.188,0.119
			c-0.398,0.527-0.708,0.893-0.93,1.096c-0.384,0.345-0.771,0.517-1.158,0.517c-0.167,0-0.314-0.038-0.444-0.112
			c-0.199-0.112-0.298-0.303-0.298-0.573c0-0.104,0.018-0.243,0.055-0.417c0.025-0.104,0.058-0.224,0.098-0.361L59.919,79.702z"/>
		<path d="M66.373,81.863c0.107,0.091,0.19,0.212,0.252,0.361l0.034,0.087l0.155-0.469c0.02-0.054,0.035-0.09,0.05-0.108
			c0.014-0.019,0.047-0.03,0.099-0.034l0.797-0.081c0.043,0,0.067,0.007,0.074,0.022s0.006,0.041-0.003,0.078
			c-0.021,0.054-0.035,0.097-0.045,0.128c-0.01,0.031-0.025,0.076-0.045,0.134l-0.685,2.228c-0.148,0.485-0.275,0.905-0.38,1.257
			c-0.17,0.637-0.256,1.001-0.256,1.092c0,0.058,0.018,0.101,0.052,0.127c0.035,0.027,0.078,0.04,0.129,0.04
			c0.041,0,0.087-0.012,0.138-0.037s0.113-0.062,0.186-0.112l0.124-0.087c0.039-0.029,0.082-0.063,0.131-0.103
			s0.107-0.088,0.175-0.146l0.452-0.398l0.166,0.131c-0.493,0.552-0.889,0.927-1.188,1.124c-0.298,0.197-0.582,0.296-0.853,0.296
			c-0.176,0-0.311-0.054-0.405-0.162c-0.095-0.108-0.142-0.242-0.142-0.404c0-0.149,0.031-0.363,0.094-0.643
			c0.062-0.279,0.123-0.515,0.183-0.705c-0.083,0.125-0.222,0.307-0.418,0.545c-0.195,0.239-0.436,0.471-0.722,0.695
			c-0.336,0.27-0.658,0.461-0.967,0.573c-0.239,0.075-0.47,0.112-0.691,0.112c-0.373,0-0.711-0.138-1.015-0.415
			c-0.305-0.276-0.456-0.668-0.456-1.175c0-0.873,0.438-1.783,1.314-2.73c0.904-0.984,1.842-1.477,2.812-1.477
			C65.887,81.607,66.171,81.692,66.373,81.863z M66.148,82.1c-0.154-0.141-0.341-0.212-0.56-0.212c-0.76,0-1.466,0.52-2.118,1.559
			c-0.573,0.915-0.86,1.702-0.86,2.363c0,0.333,0.08,0.575,0.238,0.727c0.159,0.151,0.355,0.228,0.591,0.228
			c0.694,0,1.364-0.505,2.009-1.515c0.62-0.918,0.931-1.748,0.931-2.488C66.378,82.461,66.301,82.241,66.148,82.1z"/>
	</g>
</g>
</svg>
