<svg xmlns="http://www.w3.org/2000/svg" viewBox="0 0 517.35 81.98"><defs><style>.cls-1{fill:#604c3f;}</style></defs><title>アセット 1</title><g id="レイヤー_2" data-name="レイヤー 2"><g id="レイヤー_1-2" data-name="レイヤー 1"><path class="cls-1" d="M59,5.36A16.47,16.47,0,0,0,46.6,0c-4.24,0-7.12,1.88-9.43,3.39-1.83,1.19-3.28,2.13-5.05,2.13s-3.22-.94-5-2.13C24.76,1.88,21.88,0,17.64,0A16.47,16.47,0,0,0,5.26,5.36C1.82,9.15,0,14.67,0,21.31,0,30.91,4.26,38,7.37,43.24c1.79,3,3.33,5.57,3.33,7.39V73.24a8.73,8.73,0,1,0,17.46,0V62.4s0-4.21,3.95-4.21,4,4,4,4.21V73.24A8.75,8.75,0,0,0,44.8,82h0a8.74,8.74,0,0,0,7.81-4.86,8.56,8.56,0,0,0,.93-3.87h0v0c0-.46,0-49.67,0-49.67a2.09,2.09,0,1,0-4.17,0V29s0,0,0,.07v.56c-.15,6.32-8.44,11-15.87,11H33c-6.74,0-13.71-4.2-13.71-11.21V23.55a2,2,0,0,0-.27-1,.17.17,0,0,1,0-.05l-.11-.16a1.71,1.71,0,0,0-.39-.46,2.08,2.08,0,0,0-2.94.24c-4.11,4.86-4.34,6-4.42,6.38a2.08,2.08,0,0,0,1.64,2.45,1.9,1.9,0,0,0,.41,0,2.08,2.08,0,0,0,1.94-1.35c.15,9.48,9.16,15.14,17.87,15.14h.45a24.76,24.76,0,0,0,13.18-3.94,18.47,18.47,0,0,0,2.69-2.17V73.24a4.56,4.56,0,1,1-9.12,0V62.4C40.24,59,38.08,54,32.12,54S24,59.16,24,62.4V73.24a4.56,4.56,0,1,1-9.12,0V50.63c0-3-1.82-6-3.92-9.53-3-5.05-6.78-11.34-6.78-19.79,0-12.64,7-17.14,13.47-17.14,3,0,5,1.31,7.15,2.71s4.32,2.81,7.33,2.81,5.21-1.43,7.33-2.81S43.6,4.17,46.6,4.17c6.51,0,13.47,4.5,13.47,17.14a42.26,42.26,0,0,1-1.86,11.6,2.09,2.09,0,0,0,4,1.15,46.23,46.23,0,0,0,2-12.75C64.24,14.67,62.42,9.15,59,5.36Z"/><polygon class="cls-1" points="190.37 64.11 187.74 59.86 185.7 59.86 189.52 66.03 189.52 71.53 191.26 71.53 191.26 66.03 195.01 59.86 192.97 59.86 190.37 64.11"/><path class="cls-1" d="M209.63,64.72c-1-.73-1.29-1-1.38-1.07a2.16,2.16,0,0,1-.48-.64,1.34,1.34,0,0,1-.12-.56,1,1,0,0,1,.32-.76,1.42,1.42,0,0,1,1.65-.1,4.25,4.25,0,0,1,1,1l.2.27,1.42-1.08-.19-.26A5.27,5.27,0,0,0,210.47,60a3.25,3.25,0,0,0-3.13,0,2.81,2.81,0,0,0-1.1,1.06,2.86,2.86,0,0,0-.39,1.47,3.06,3.06,0,0,0,.65,1.88A9.52,9.52,0,0,0,208.28,66a8.84,8.84,0,0,1,1.82,1.69,1.55,1.55,0,0,1,.31.9,1.47,1.47,0,0,1-.82,1.32,1.83,1.83,0,0,1-.89.22c-.73,0-1.4-.55-2-1.65l-.17-.3L205,69l.15.27a5.26,5.26,0,0,0,1.62,1.91,3.6,3.6,0,0,0,2,.59,3.41,3.41,0,0,0,2.44-1,3.14,3.14,0,0,0,1-2.32,3.35,3.35,0,0,0-.58-1.84A8.09,8.09,0,0,0,209.63,64.72Z"/><polygon class="cls-1" points="227.3 59.86 223.06 68.48 218.79 59.86 218.12 59.86 216.45 71.53 218.18 71.53 219.16 64.37 222.71 71.53 223.4 71.53 226.92 64.43 227.9 71.53 229.64 71.53 227.96 59.86 227.3 59.86"/><path class="cls-1" d="M238.52,59.86,233,71.54h2l1.72-3.63H241l1.73,3.63h1.91l-5.44-11.68Zm1.7,6.33h-2.73l1.37-2.89Z"/><path class="cls-1" d="M254.37,66a2.88,2.88,0,0,0,1.35-1.15,3.25,3.25,0,0,0,.48-1.76,3.09,3.09,0,0,0-2.47-3.1,13,13,0,0,0-2.56-.16h-2.52V71.54h1.75V66.42h.14l4,5.12h2.19l-4-5.14A4.91,4.91,0,0,0,254.37,66ZM252,64.7l-1.58,0V61.59H252a4.26,4.26,0,0,1,1.5.18,1.27,1.27,0,0,1,.63.52,1.42,1.42,0,0,1,.25.83,1.51,1.51,0,0,1-.25.85,1.33,1.33,0,0,1-.67.54A4.45,4.45,0,0,1,252,64.7Z"/><polygon class="cls-1" points="259.87 61.59 262.33 61.59 262.33 71.53 264.11 71.53 264.11 61.59 266.57 61.59 266.57 59.86 259.87 59.86 259.87 61.59"/><path class="cls-1" d="M284.19,60.27a11.79,11.79,0,0,0-3.69-.41h-2.62V71.54h3.84a7.33,7.33,0,0,0,3.35-.64,4.89,4.89,0,0,0,2-2,6.05,6.05,0,0,0,.76-3.07,6.33,6.33,0,0,0-.95-3.49A5.16,5.16,0,0,0,284.19,60.27Zm-4.59,1.32h.45a12.67,12.67,0,0,1,3.31.31,3.54,3.54,0,0,1,2,1.42,4.34,4.34,0,0,1,.72,2.53,4.13,4.13,0,0,1-.66,2.39,3.27,3.27,0,0,1-1.78,1.33,11.55,11.55,0,0,1-3.07.27h-.94Z"/><polygon class="cls-1" points="292.38 71.53 299.3 71.53 299.3 69.8 294.13 69.8 294.13 66.13 299.3 66.13 299.3 64.39 294.13 64.39 294.13 61.59 299.35 61.59 299.35 59.86 292.38 59.86 292.38 71.53"/><polygon class="cls-1" points="311.24 67.75 304.39 59.86 303.67 59.86 303.67 71.53 305.46 71.53 305.46 63.74 312.26 71.53 312.99 71.53 312.99 59.86 311.24 59.86 311.24 67.75"/><polygon class="cls-1" points="316.98 61.59 319.44 61.59 319.44 71.53 321.22 71.53 321.22 61.59 323.68 61.59 323.68 59.86 316.98 59.86 316.98 61.59"/><path class="cls-1" d="M332,59.86l-5.52,11.68h2l1.72-3.63h4.33l1.73,3.63h1.91l-5.44-11.68Zm1.7,6.33H331l1.37-2.89Z"/><polygon class="cls-1" points="343.86 59.86 342.1 59.86 342.1 71.53 348.1 71.53 348.1 69.81 343.86 69.81 343.86 59.86"/><path class="cls-1" d="M369,68.42a4.55,4.55,0,0,1-3.62,1.69,4.44,4.44,0,0,1-3.26-1.25,4.17,4.17,0,0,1-1.28-3.13,4.44,4.44,0,0,1,.57-2.24,4.22,4.22,0,0,1,1.62-1.57,4.81,4.81,0,0,1,4.35-.14A4.41,4.41,0,0,1,369,63.1l.2.26,1.38-1.06-.19-.26a5.65,5.65,0,0,0-2.15-1.81,6.58,6.58,0,0,0-2.94-.65,6.19,6.19,0,0,0-4.48,1.75,5.8,5.8,0,0,0-1.79,4.3,6.16,6.16,0,0,0,1.48,4.14,6,6,0,0,0,4.81,2,6.79,6.79,0,0,0,2.89-.6,5.84,5.84,0,0,0,2.18-1.72l.2-.26-1.38-1Z"/><polygon class="cls-1" points="376.87 59.86 375.11 59.86 375.11 71.53 381.11 71.53 381.11 69.81 376.87 69.81 376.87 59.86"/><rect class="cls-1" x="385.11" y="59.86" width="1.76" height="11.68"/><polygon class="cls-1" points="399.38 67.75 392.53 59.86 391.81 59.86 391.81 71.53 393.6 71.53 393.6 63.74 400.4 71.53 401.12 71.53 401.12 59.86 399.38 59.86 399.38 67.75"/><rect class="cls-1" x="406.06" y="59.86" width="1.76" height="11.68"/><path class="cls-1" d="M422.43,68.18l-.2.24a4.56,4.56,0,0,1-3.63,1.69,4.43,4.43,0,0,1-3.25-1.25,4.14,4.14,0,0,1-1.29-3.13,4.45,4.45,0,0,1,.58-2.24,4.22,4.22,0,0,1,1.62-1.57,4.81,4.81,0,0,1,4.35-.14,4.41,4.41,0,0,1,1.61,1.32l.2.26,1.38-1.06-.19-.26a5.68,5.68,0,0,0-2.16-1.81,6.54,6.54,0,0,0-2.93-.65A6.19,6.19,0,0,0,414,61.33a5.81,5.81,0,0,0-1.8,4.3,6.12,6.12,0,0,0,1.49,4.14,6,6,0,0,0,4.81,2,6.83,6.83,0,0,0,2.89-.6,5.81,5.81,0,0,0,2.17-1.72l.21-.26Z"/><path class="cls-1" d="M112.18,11.61a1.2,1.2,0,0,0-1,.51L103.09,23.8l-7.8-11.41a1.72,1.72,0,0,0-1.43-.78,1.71,1.71,0,0,0-1.39,2.69l8.54,12V37.54a1.69,1.69,0,0,0,1.71,1.71,1.66,1.66,0,0,0,1.64-1.71V25.83l8.76-12.32a1.05,1.05,0,0,0,.26-.7A1.2,1.2,0,0,0,112.18,11.61Z"/><path class="cls-1" d="M138.28,27.12c1.77-2.38,5.11-8.44,5.11-10.43a2.39,2.39,0,0,0-2.51-2.34H124.47c-.42,0-1.4,0-1.4,1s1,1,1.4,1H139c.51,0,.77.19.77.57,0,1.3-4,14.58-17.29,18.73-.74.22-1.33.4-1.33,1.16a1,1,0,0,0,1,1,24.79,24.79,0,0,0,3-1,26.91,26.91,0,0,0,11.9-8.18A31.11,31.11,0,0,1,145.38,36l.14.18c1.14,1.44,1.34,1.7,2,1.7a1.7,1.7,0,0,0,1.64-1.74C149.21,34.59,144.46,30.38,138.28,27.12Z"/><path class="cls-1" d="M176.94,14.48H154.68c-.46,0-1.41,0-1.41,1s1,1,1.41,1h21c.34,0,.34.17.34.25-.09.54-3.5,7.83-11.24,12.46A16.33,16.33,0,0,0,159.36,26a1,1,0,0,0-1,1c0,.56.31.73,1.05,1.15l.16.08a25.69,25.69,0,0,1,8.58,9c.64,1.15.88,1.58,1.74,1.58a1.66,1.66,0,0,0,1.67-1.64c0-1.27-3.3-4.82-5.08-6.52,6.73-3.5,13-11.92,13-13.94A2.4,2.4,0,0,0,176.94,14.48Z"/><path class="cls-1" d="M202.74,24.64H184.08c-.85,0-1,.62-1,1.14s.18,1.14,1,1.14h18.62c.86,0,1-.62,1-1.14S203.63,24.64,202.74,24.64Z"/><path class="cls-1" d="M228.34,26.05A40.43,40.43,0,0,0,218,21.76v-8c0-1.26-.52-1.9-1.54-1.9-1.54,0-1.54,1.46-1.54,1.94V37.88c0,1.26.53,1.9,1.57,1.9,1.51,0,1.51-1.46,1.51-1.94v-14a23.44,23.44,0,0,1,9.25,5.32c.69.62,1.11,1,1.84,1a1.56,1.56,0,0,0,1.54-1.61C230.64,27.54,230,27.06,228.34,26.05Z"/><path class="cls-1" d="M264.16,21.37H238.09c-.42,0-1.41,0-1.41,1s1,1,1.41,1h11.56c0,6.34-.18,12.82-8.24,14.18-.35.07-1.15.22-1.15,1a1,1,0,0,0,.94,1,17.12,17.12,0,0,0,6.08-2c4.62-2.71,5.62-7.27,5.74-14.23h11.14c.42,0,1.4,0,1.4-1S264.58,21.37,264.16,21.37Z"/><path class="cls-1" d="M261,13.13a17.71,17.71,0,0,1,1.08,1.93l.06.14c.51,1.08.7,1.49,1.45,1.49A1.39,1.39,0,0,0,265,15.35c0-.87-2.58-4-3.16-4.17a1,1,0,0,0-1.32.9,1.63,1.63,0,0,0,.41.89Z"/><path class="cls-1" d="M242.93,15.29h16.25c.42,0,1.4,0,1.4-1s-1-1-1.4-1H242.93c-.42,0-1.4,0-1.4,1S242.51,15.29,242.93,15.29Z"/><path class="cls-1" d="M265.17,10.21a1,1,0,0,0-1.28.86,5.8,5.8,0,0,0,1,2c.16.26.3.49.36.61l.08.15c.68,1.29.82,1.56,1.53,1.56a1.27,1.27,0,0,0,1.24-1.27C268.07,13.2,265.72,10.37,265.17,10.21Z"/><path class="cls-1" d="M296.3,19.59c-.56,0-.68.24-1.34,1.56-2.84,5.76-9.84,12.72-21,15-1.46.3-2.51.52-2.51,1.76A1.68,1.68,0,0,0,273,39.72c.65,0,10.35-2.17,17.2-8.56,5.09-4.76,7-10,7-10.63A1,1,0,0,0,296.3,19.59Z"/><path class="cls-1" d="M273.05,13.35l.08,0A19.59,19.59,0,0,1,279.72,18c1,1.16,1.29,1.47,2.21,1.47a1.76,1.76,0,0,0,1.71-1.81c0-.85-.24-1.51-3.51-3.41a23.35,23.35,0,0,0-6.85-2.77,1,1,0,0,0-.94.93A1,1,0,0,0,273.05,13.35Z"/><path class="cls-1" d="M325.34,16.12H313.22c1-2.23,1-2.38,1-2.94a1.66,1.66,0,0,0-1.68-1.67c-1.26,0-1.49,1-1.73,1.94a18.33,18.33,0,0,1-7.74,11.14c-.93.62-1.12.74-1.12,1.26a1,1,0,0,0,1,1c.41,0,1.25-.47,2.79-1.59a21.29,21.29,0,0,0,6.49-7.1h11.11c.63,0,.93.29.93.9a23.93,23.93,0,0,1-3.9,10,3.34,3.34,0,0,0-.37-.5c-1.75-2-8.26-5.44-9.16-5.44a1,1,0,0,0-.26,2.05,18.44,18.44,0,0,1,6.73,5.07,2.71,2.71,0,0,0,1.27,1.08,23.94,23.94,0,0,1-14.17,6.17l-.11,0c-.68.09-1.39.18-1.39,1a1,1,0,0,0,1,1,48,48,0,0,0,6.68-1.25c5.85-1.55,10-4.33,12.93-8.73a29.31,29.31,0,0,0,4.25-11.32A2.19,2.19,0,0,0,325.34,16.12Z"/><path class="cls-1" d="M360.46,24.44c-.66,0-.93.63-1.08,1-3.13,7-8.44,9.26-8.84,9.26-.24,0-.3-.1-.3-.83V13.65c0-.47,0-1.88-1.58-1.88-1,0-1.5.64-1.5,1.91V35.94a2.32,2.32,0,0,0,2.34,2.41c1,0,4.93-1.9,7.83-5.42a22.71,22.71,0,0,0,4.14-7.52A1,1,0,0,0,360.46,24.44Z"/><path class="cls-1" d="M341.75,11.77c-1.54,0-1.54,1.46-1.54,1.94v6.12c0,8.48-.42,13.87-6.18,17.14-1.34.74-1.51.83-1.51,1.41a1,1,0,0,0,1,1,13.82,13.82,0,0,0,6.19-4.24c3-3.54,3.57-7.77,3.57-15.35V13.68C343.28,12.41,342.77,11.77,341.75,11.77Z"/><path class="cls-1" d="M388.26,16.28H376.79a18,18,0,0,0,1.38-4,1.64,1.64,0,0,0-1.7-1.51c-1.27,0-1.5,1-1.74,2-1.24,5.42-4.05,9.44-8.38,12-.54.34-.82.51-.82,1.06a1,1,0,0,0,1,1c.57,0,2.74-1.38,3.73-2.12a16.83,16.83,0,0,0,5.53-6.4H387a.53.53,0,0,1,.6.56,24.43,24.43,0,0,1-3.34,9.56c-3.26,5.41-8,8.16-15.71,9.16-.84.09-1.57.17-1.57,1.1a1,1,0,0,0,1,1A35.8,35.8,0,0,0,376.89,38C389.54,33.22,391,18.57,391,18.43,391,16.85,389.61,16.28,388.26,16.28Z"/><path class="cls-1" d="M417.6,11.24c-1.54,0-1.54,1.46-1.54,1.94v8.19c0,11.16-1.49,15.37-9.88,16.78l-.08,0c-.32.06-1.07.21-1.07,1a1,1,0,0,0,1,1A19.4,19.4,0,0,0,413.46,38c4.78-2.87,5.68-8,5.68-16.61V13.14C419.14,11.88,418.62,11.24,417.6,11.24Z"/><path class="cls-1" d="M402.53,11.41c-1.51,0-1.51,1.46-1.51,1.94v14.9c0,1.27.52,1.91,1.54,1.91s1.54-.65,1.54-1.94V13.31C404.1,11.74,403.25,11.41,402.53,11.41Z"/><path class="cls-1" d="M454.19,33.76H428.33c-1.18,0-1.78.48-1.78,1.41,0,.64.31,1.41,1.78,1.41h25.86c1.18,0,1.78-.48,1.78-1.41C456,34.53,455.66,33.76,454.19,33.76Z"/><path class="cls-1" d="M431.07,17.46h20.35c1.18,0,1.78-.47,1.78-1.41s-.6-1.41-1.78-1.41H431.07c-1.18,0-1.78.48-1.78,1.41S429.89,17.46,431.07,17.46Z"/><path class="cls-1" d="M470.18,21.18a18.33,18.33,0,0,1,2.08,4.24c.3.88.59,1.71,1.56,1.71h.26a1.51,1.51,0,0,0,1.3-1.51c0-1.06-3.64-6.32-4.68-6.32a.94.94,0,0,0-.94.91,1.85,1.85,0,0,0,.38.92Z"/><path class="cls-1" d="M481.9,18.59c-1,0-1.55.61-1.64,1.82a25.52,25.52,0,0,1-2.22,9.3,17.07,17.07,0,0,1-10.68,9.15c-.64.2-1.14.36-1.14,1.06a1,1,0,0,0,.94,1,18.43,18.43,0,0,0,3-1,19.08,19.08,0,0,0,10.7-9.86,33.84,33.84,0,0,0,2.6-9.74A1.62,1.62,0,0,0,481.9,18.59Z"/><path class="cls-1" d="M468.26,28.05c0-1.31-4.07-7.45-5.31-7.45a.92.92,0,0,0-.94,1,1.34,1.34,0,0,0,.35.83,18.35,18.35,0,0,1,2.5,4.71c.73,2,.88,2.45,2,2.45A1.49,1.49,0,0,0,468.26,28.05Z"/><path class="cls-1" d="M514.58,16.28H503.1a18,18,0,0,0,1.39-4,1.64,1.64,0,0,0-1.71-1.51c-1.27,0-1.5,1-1.74,2a17.73,17.73,0,0,1-8.38,12c-.54.34-.81.51-.81,1.06a1,1,0,0,0,1,1c.58,0,2.74-1.38,3.74-2.12a16.72,16.72,0,0,0,5.52-6.4h11.23a.53.53,0,0,1,.6.56,24.25,24.25,0,0,1-3.34,9.56c-3.26,5.41-8,8.16-15.7,9.16-.85.09-1.58.17-1.58,1.1a1,1,0,0,0,1,1A35.89,35.89,0,0,0,503.21,38c12.64-4.74,14.14-19.39,14.14-19.53C517.35,16.85,515.92,16.28,514.58,16.28Z"/></g></g></svg>