<svg width="205" height="147" fill="none" xmlns="http://www.w3.org/2000/svg"><g clip-path="url(#clip0)"><path d="M204.19 94.484c-.04-2.479-.163-4.952-.423-7.415.047-3.328.097-6.655-.195-9.988-.227-2.582-.616-5.298-1.491-7.794.025-.074.046-.15.074-.224.33-.906-.241-1.645-1.027-1.988-.805-1.555-1.867-2.967-3.297-4.122-1.404-1.133-3.145-.384-3.859.935a418.916 418.916 0 00-9.795-1.455c-3.482-1.138-6.876-2.527-10.276-3.882-5.43-2.162-11.053-3.955-16.577-5.875-6.067-2.11-12.183-4.099-18.408-5.706a123.288 123.288 0 00-6.553-1.498c3.023-7.739 7.527-14.975 9.435-23.053.315.09.644.131.975.114a3.038 3.038 0 002.101-1.008l.443-.645a3.07 3.07 0 00.267-.75c.06-.108.129-.238.208-.394a3.4 3.4 0 00.253-1.719 3.508 3.508 0 00-2.084-2.8 3.493 3.493 0 00-3.415.37 3.368 3.368 0 00-1.32 2.05 2.155 2.155 0 00-.303.336c-5.614 7.8-7.966 17.96-14.344 25.208a10.463 10.463 0 01.104-2.113c.163-1.024-.566-1.72-1.394-1.914.097-.547.199-1.092.301-1.636.032-.176.029-.345.009-.509 3.486-7.597 8.039-14.782 12.286-21.905 1.555-.03 3.234-1.008 3.277-2.746.024-.975.011-1.95-.103-2.92a8.438 8.438 0 00-.245-1.167c-.4-1.482-1.48-2.068-2.832-2.559-1.148-.417-2.413.055-3.276.813-1.094.961-1.717 2.155-2.377 3.439-.623 1.213-.103 2.678.839 3.63.098.13.208.25.327.364-3.805 4.542-6.941 9.741-9.608 14.97-2.027 3.97-4.367 8.707-4.9 13.41a10.17 10.17 0 00-.953-.218c.75-7.924 3.146-15.552 5.664-23.133 1.271-3.289 2.418-6.621 3.323-10.043.164-.129.31-.28.428-.46.642-.977 1.274-1.937 1.42-3.124.112-.92.025-1.78 0-2.7-.036-1.32-1.127-2.82-2.63-2.649-.557.063-1.025.148-1.543.33a4.884 4.884 0 01-.531.157c-.891.204-1.325.778-1.886 1.443-.574.68-1.114 1.674-1.229 2.55-.134 1.03.404 1.756 1.172 2.207.19.636.475 1.174.898 1.663-1.149 3.808-2.423 7.6-3.649 11.406-.988-.353-2.271.017-2.416 1.323-.307 2.83-.818 5.648-1.334 8.465-1.292 3.25-2.585 6.499-3.799 9.77a23.29 23.29 0 01-.597 1.14l-.853 1.248c-.311.19-.594.332-.688.29-.103-.047-.368-1.438-.441-1.935-.224-1.524-.31-3.033-.789-4.496.164-7.665-.027-15.357-.07-23.014.525-.123.992-.379 1.34-.818.313-.394.489-.824.575-1.272.724-.588 1.321-1.318 1.693-2.152 1.303-2.92-1.8-5.283-4.376-5.612a3.243 3.243 0 00-1.709.25c-.688-.464-1.6-.634-2.32-.2-1.395.843-2.023 1.134-2.5 2.504-.442 1.27-.322 2.547.153 3.784.605 1.576 1.97 2.504 3.503 2.834l.091.052c-1.561 4.885-1.491 10.35-1.988 15.37-.287 2.886-.557 5.656-.555 8.567.001 1.028.14 2.36.167 3.714a9.716 9.716 0 00-2.12.822c-.51-2.466-1.196-4.91-2.128-7.21-.262-2.197-.536-4.393-.8-6.59.085-4.175.068-8.343-.79-12.406.12-.15.236-.3.342-.444 1.158-1.584 1.331-4.358-.711-5.22-.298-1.297-1.856-2.13-3.108-2.04a2.954 2.954 0 00-2.156 1.178c-2.536.124-4.412 2.609-3.937 4.952.309 1.516 1.458 3.127 3.279 2.852.245-.037.487-.077.727-.12.683.39 1.451.653 2.231.687-.825 9.094-3.646 18.184-3.193 27.323-.493.04-.987.076-1.479.119-2.9-4.557-5.924-9.089-8.388-13.89-.182-.42-.367-.838-.56-1.254a81.166 81.166 0 00-1.203-5.117c-.421-1.546-.894-3.207-1.846-4.534.23-.265.405-.574.489-.909.17-.68-.055-1.332-.439-1.886a1.025 1.025 0 00-.278-.535 4.075 4.075 0 00-.31-1.218l.053.088c-.1-.356-.216-.708-.35-1.054-.098-.291-.376-.73-.587-1.036-.598-.867-1.57-1.324-2.602-1.413a7.718 7.718 0 00-.659-.035 6.48 6.48 0 00-1.01.102c-.716.159-1.062.45-1.615.896-.767.62-.94 1.622-1.016 2.526-.037.442.17 1.073.328 1.525.14.4.42.782.746 1.098.163.296.364.578.595.845.112 1.392 1.064 2.579 2.126 3.485.623.532 1.336.377 1.778-.069.045.65.134 1.301.23 1.924-.06.134-.099.288-.104.467-.206 7.279 2.612 14.25 5.29 21.027-3.772.502-7.517 1.1-11.217 1.776-1.793.328-3.577.701-5.361 1.073-.86.18-1.331.718-1.482 1.333a313.787 313.787 0 00-21.237 4.712c-6.782 1.75-13.585 3.648-20.053 6.348-5.1 2.13-11.342 5.064-13.768 10.336-.01.021-.016.042-.024.063-.569-1.297-2.88-1.628-3.183.071C-.353 78.141-.094 86.1.383 94.078c.202 3.373.625 6.743.967 10.104.189 1.865-.225 3.945-.293 5.819-.136 3.789-.428 8.151 3.301 10.361 1.544.915 3.242 1.202 4.976 1.331.128.271.33.53.63.755 2.346 1.76 4.935 3.018 7.622 4.067 2.304 1.402 4.566 2.879 6.887 4.245 3.976 2.338 8.044 3.847 12.42 4.896.371.171.743.34 1.116.503 7.776 3.396 16.23 5.239 24.589 6.579 10.19 1.633 20.561 2.347 30.845 3.162 12.591.998 25.253 1.53 37.869.656 7.461-.517 15.124-1.422 22.327-3.48 6.614-1.889 12.557-5.477 18.523-8.768 5.433-2.996 11.484-4.853 16.755-8.099a20.19 20.19 0 001.73-1.192c4.272-1.311 8.324-3.406 10.844-7.218.291-.442.55-.895.783-1.356 1.03-.211 1.989-.952 2.147-1.984 1.024-6.713.535-13.328-.231-19.975zM5.113 72.607a.849.849 0 00-.464-.406.776.776 0 00-.14-.425.625.625 0 01-.156-.203l.005-.222c.26.375.709.627 1.17.667a1.192 1.192 0 00-.415.589zM6.3 109.978c.004-.138.004-.276.009-.412.067.111.134.224.204.334a2.218 2.218 0 00-.213.078zm2.517-26.433a31.05 31.05 0 01-.003-.833c.02-1.923.336-5.166 1.583-7.239a99.407 99.407 0 00-1.58 8.072zm3.754 25.273c-.121-1.718-.435-3.422-.861-5.11.348-2.692-.112-5.493-.664-8.182-.015-1.428 0-2.855.043-4.274.157-5.308.653-10.74 1.957-15.928l.038-.005c-.01.257-.018.513-.033.773-.028.065-.052.131-.089.195a1.1 1.1 0 00.027.857c-.599 8.923-2.693 18.993 1.325 27.175.207 1.942.563 3.792 1.156 5.18-.947-.3-1.913-.531-2.899-.681zm5.591-3.59c-.07-.581-.13-1.164-.181-1.746-.442-5.019-.405-10.08-.282-15.114.014-.567.035-1.133.052-1.7.086.76.177 1.52.27 2.278.03 1.458.076 2.913.168 4.36a72.17 72.17 0 00.405 4.439c-.254 2.41-.501 4.973-.432 7.483zm5.553 8.009c.046-.152.079-.311.084-.485.009-.303.013-.605.017-.906.236.512.498 1.018.77 1.52-.29-.047-.58-.09-.871-.129zm26.214-28.79l-.16.02c.393-.074.788-.14 1.18-.204.523-.084 1.05-.15 1.577-.208-.864.15-1.731.281-2.597.392zm6.213 47.663l.414.05c1.61.201 3.216.42 4.82.647a224.502 224.502 0 01-5.234-.697zm10.286-78.496c-3.738.518-7.368 1.61-11.032 2.493-2.38.406-4.755.82-7.122 1.231-1.426.249-1.968 1.45-1.748 2.477-1.346.25-2.689.512-4.03.794-5.965.605-11.96 2.042-17.69 3.527-6.18 1.603-12.392 3.79-17.912 7.037 1.76-3.518 5.845-5.74 9.67-7.378-.238 1.179.885 2.548 2.376 1.988 13.896-5.214 28.238-9.178 42.809-12.01a170.301 170.301 0 0116.76-1.4c-4.04.262-8.072.686-12.08 1.24zm25.712-22.01c-.093 1.477-.053 2.961.013 4.446a15.722 15.722 0 00-.816 2.832l-.03.055c.133-2.446.447-4.89.833-7.334zm-3.095 16.263a1.334 1.334 0 00-.015-.494c1.794-.126 3.59-.225 5.386-.312.034.09.064.182.1.272.135.35.347.596.594.759-2.018-.102-4.04-.182-6.065-.225zm7.58.302c.103-.05.2-.108.292-.177.074.078.155.148.242.212-.178-.011-.355-.025-.534-.035zm38.135 1.743c6.143 1.378 12.173 3.23 18.149 5.19 3.092 1.013 6.207 2.016 9.308 3.054-1.643-.23-3.284-.441-4.922-.634-7.901-2.473-15.99-4.305-24.201-5.617a.159.159 0 00-.018-.002c.116-.59-.069-1.233-.733-1.725-.371-.276-.749-.53-1.129-.767a2.229 2.229 0 00-.058-.24c1.205.23 2.408.473 3.604.741zm-10.134 87.459a1.93 1.93 0 001.001-.312 89.111 89.111 0 0010.509-1.714c4.326-.973 8.338-2.247 12.088-4.353 1.536-.483 3.066-.988 4.585-1.523 6.225-2.19 11.852-5.552 18.041-7.793.664-.239 5.412-1.655 5.361-.855-.062.983-1.251 1.804-1.949 2.351-1.466 1.15-3.216 1.972-4.884 2.789-5.706 2.797-11.91 4.571-17.957 6.482-9.04 2.857-18.49 4.368-27.954 5.252a1.65 1.65 0 00-.414-.302c.525-.008 1.048-.011 1.573-.022zm-25.141-90.07l-.048-.434c2.87-.075 5.75-.085 8.632-.022.169.027.34.032.51.012 1.263.032 2.525.077 3.788.138.686 1.29 2.766 1.519 3.299.196l.109.007c-.008.028-.017.054-.024.082-.46 1.73 1.904 2.676 3.13 1.779.028.353.063.706.107 1.06a326.789 326.789 0 00-9.101-.755c-2.062-.248-4.13-.472-6.205-.665-1.516-.14-3.037-.259-4.56-.366.26-.206.414-.541.363-1.032zm19.962 90.164c-2.31.187-4.629.339-6.952.46l-.042-.001c1.414-.127 2.827-.268 4.237-.427l.009.002c.917.006 1.833-.009 2.748-.034zm53.597-8.075c-4.916 2.525-9.606 5.449-14.64 7.753-5.465 2.499-11.378 3.603-17.296 4.48-12.519 1.854-25.321 1.708-37.927 1.022-.938-.051-1.876-.109-2.814-.164.672-.021 1.336-.042 1.99-.056 2.688-.06 5.377-.15 8.066-.273 10.448.329 21.002-.55 31.253-2.554 15.273-2.99 29.752-8.677 42.569-17.146-.114.591.013 1.196.305 1.731-3.709 1.989-8.028 3.421-11.506 5.207zm6.306-7.826c.223-1.478-.59-2.848-1.907-3.519 3.804-1.527 7.697-2.754 11.706-3.205-3.062 2.509-6.361 4.728-9.799 6.724z" fill="#231815"/><path d="M58.603 67.056c-.58 4.254 1.908 7.227 3.559 10.494 1.688 3.34 3.443 6.645 5.315 10.247V65.944l5.315-.472c-.45 18.048-.346 35.924-.083 53.954l-5.157-.479c.062-6.043.133-11.941.168-17.84.005-.724.001-1.542-.31-2.163-3.291-6.567-6.646-13.104-10.27-19.54v38.207c-.71-.068-1.687-.129-2.654-.263-.933-.127-1.856-.329-2.642-.471V67.974l6.76-.918zm87.452-.606l6.416.86c.744 8 6.039 13.945 9.209 20.803V68.752l5.3.9v45.662c-1.585.282-3.479.62-5.008.891 0-5.303.008-10.454-.01-15.603-.002-.663.044-1.422-.248-1.973-3.403-6.422-6.866-12.812-10.304-19.196v38.32l-5.354.628-.001-51.931zm-48.183-2.094v9.467c-1.156-.697-2.177-1.403-3.275-1.958-3.87-1.956-7.409-.967-9.656 2.695-2.295 3.74-2.318 7.87-1.673 11.969 1.267 8.035 4.668 15.157 10.035 21.33.642.739 1.472 1.317 2.442 2.167v-30.55c.738-.035 1.72-.095 2.704-.12.947-.021 1.895-.004 2.548-.004-.177 14.067-.751 28.012.438 42.033-.199-.076-.58-.144-.867-.342-7.776-5.435-14.695-11.644-18.483-20.568-3.612-8.512-5.31-17.3-2.86-26.408.626-2.323 2.078-4.516 3.51-6.514 1.421-1.981 3.636-3.08 6.144-3.172 2.912-.107 5.833-.025 8.993-.025zm38.087 1.04v9.21c-1.188-.752-2.254-1.525-3.406-2.14-4.434-2.365-8.15-1.064-10.139 3.496-1.668 3.822-1.48 7.795-.72 11.724 1.461 7.558 4.542 14.369 10.098 19.916.611.609 1.349 1.095 2.178 1.757V79.856l5.317.292c-.276 13.308-.751 26.395.342 39.714-1.131-.614-2.312-1.202-3.442-1.873-17.082-10.154-21.323-27.817-19.347-42.121.234-1.702.842-3.407 1.57-4.977 1.976-4.26 5.177-6.658 10.179-6.104 2.418.265 4.851.404 7.37.61zM19.854 90.683v19.93l-5.116-1.279V75.832l5.189-1.377c-.125 2.725-.237 5.21-.35 7.695l.572.196c1.814-2.15 3.63-4.296 5.437-6.45.126-.151.28-.371.258-.538-.343-2.644 1.642-2.76 3.42-3.13 1.988-.414 3.97-.856 6.277-1.356-.3.56-.408.903-.628 1.149-3.66 4.08-7.36 8.127-10.975 12.244-.418.476-.742 1.474-.525 1.989 3.413 8.063 6.908 16.092 10.422 24.111.53 1.208 1.25 2.333 2.067 3.834l-7.87-1.662c.447-4.197-1.509-7.737-3.047-11.373-1.517-3.587-3.196-7.106-4.805-10.654l-.326.172zm154.133-19.685c1.79.379 3.71.777 5.625 1.2.32.07.618.244 1.179.473-3.881 3.721-4.211 8.243-3.312 13.007 1.147 6.075 3.843 11.325 8.68 15.367.566.473 1.246.817 1.887 1.197.276.162.592.26 1.037.451V74.445l5.126 1.323v33.877c-4.147-.601-8.308-1.641-11.477-4.722-7.306-7.1-11.238-15.633-10.303-25.941.241-2.64 1.007-5.234 1.558-7.984zM40.099 69.994l4.882-.834c-.243 15.616-.153 31.038-.066 46.647-1.4-.243-3.306-.572-4.904-.851.35-14.963.235-29.767.087-44.962zm6.777 51.121c-3.605-.108-7.223-.544-10.81-.882-1.675-.158-3.353-.29-5.03-.428.013-.035.024-.07.038-.105.074-.187-.226-.298-.308-.113-.028.062-.05.127-.077.19-1.016-.085-2.033-.17-3.047-.267-.174-.016-.154.25.01.268.969.104 1.937.213 2.906.323-1.1 2.713-1.529 5.65-2.215 8.483-2.09-1.834-3.252-4.235-4.675-6.565-.07-.115-.271-.081-.235.072.308 1.298 1.124 2.473 1.86 3.571.847 1.263 1.842 2.461 3.027 3.426.108.087.303.072.342-.084.728-2.963 1.177-5.996 2.25-8.864 1.695.191 3.39.38 5.09.533 3.589.322 7.265.829 10.874.736.194-.005.188-.287 0-.294z" fill="#fff"/><path d="M36.9 128.493c.174.067.35.136.525.208.178.075.287-.202.124-.291-.262-.142-.53-.27-.8-.389-.07-.224-.139-.449-.213-.672-.559-1.697-1.23-3.445-2.2-4.957-.072-.113-.292-.107-.311.046-.036.276-.081.551-.133.825-.033-.006-.064-.015-.101-.017-.05-.001-.069.073-.015.078.039.005.067.019.1.028-.245 1.274-.634 2.528-.98 3.788a7.378 7.378 0 00-.365-.009c-.237.003-.245.391-.007.402.088.004.175.011.262.018a23.127 23.127 0 00-.41 1.787c-.04.217.319.255.36.034.115-.613.312-1.202.534-1.781a13.83 13.83 0 013.117.716c.18.59.347 1.184.498 1.783.145.571.189 1.215.452 1.744.06.12.253.121.269-.029.07-.677-.2-1.422-.363-2.075a24.86 24.86 0 00-.344-1.237zm-2.81-5.008c.444.577-.524 2.508-.779 3.063.236-1.027.497-2.049.779-3.063zm-.654 3.682c.37-.924.771-1.838.977-2.813.086-.401.029-.826-.283-1.012.036-.128.071-.259.108-.387.723 1.491 1.378 2.986 1.906 4.563.032.094.058.192.089.288a10.016 10.016 0 00-2.797-.639zm11.963.881c-1.118-1.393-2.64-2.501-4.28-3.218-.977-.427-2.417-.767-2.967.403-.078.166.181.325.264.153.286-.59.82-.741 1.467-.627a.142.142 0 00-.12.121c-.199 1.08-.288 2.177-.327 3.276-.564.042-1.152.162-.864.492.118.138.356 0 .267-.167.051.096.277.143.58.161a47.36 47.36 0 00-.012 1.051c0 1.015-.142 2.449.401 3.359.057.095.241.104.237-.039-.035-1.206-.216-2.4-.225-3.613-.002-.25.002-.5.005-.748.784-.007 1.785-.116 2.044-.12 1.142-.017 2.301-.014 3.429-.217.113-.021.172-.18.1-.267zm-5.12.087c-.04 0-.218-.004-.446.001a29.37 29.37 0 01.245-3.206.142.142 0 00-.07-.147c1.658.368 3.976 2.341 4.862 3.234-1.509.226-3.075.141-4.59.118zm10.904 3.739c.042.015.086.027.128.043.184.072.31-.175.13-.265a4.888 4.888 0 00-.396-.182 32.678 32.678 0 00-.593-1.573c-.29-.714-.67-1.437-1.182-2.022.191-.297.387-.589.587-.879.083-.119-.121-.28-.215-.162-.207.259-.403.526-.595.796a3.369 3.369 0 00-1.336-.823c-.137-.045-.185.182-.063.234.485.204.883.498 1.223.847a36.808 36.808 0 00-1.52 2.468l-.03.051c-.157-.041-.314-.081-.47-.124a37.573 37.573 0 01-.488-.139c-.084-.026-.132-.023-.164-.007-.015-.065-.066-.125-.153-.123-.078.001-.146.007-.198.069a.153.153 0 00-.002.187c.2.276.714.436 1.224.55-.492.791-1.115 1.755-1.115 2.592 0 .094.126.128.182.059.586-.725.936-1.702 1.358-2.563.247.047.469.087.624.129.824.227 1.692.398 2.518.651.316 1.216.566 2.439.985 3.391.075.17.367.128.337-.075-.152-1.033-.434-2.097-.776-3.13zm-2.704-1.163l-.776-.203c.443-.802.908-1.593 1.4-2.366.698.844 1.103 1.97 1.423 3.132-.67-.227-1.377-.384-2.047-.563zm12.104-3.064c-1.206 1.943-1.255 4.353-.968 6.578-1.857-2.291-3.475-4.78-3.935-7.741-.036-.236-.403-.205-.428.023a62.427 62.427 0 00-.267 3.412c-.16 1.823-.173 3.663-.156 5.488-.005.292.456.324.459.04.021-2.416.008-4.83.326-7.228.773 2.603 2.436 4.872 4.178 6.957.15.181.437.009.405-.201-.374-2.414-.38-4.929.792-7.146.138-.262-.261-.416-.406-.182zm19.145 10.92c-1.491-2.11-1.154-5.132-3.246-6.91-.119-.101-.346-.069-.35.118-.039 1.684-.632 3.382-.496 5.066-1.522-1.784-2.358-3.991-3.26-6.138-.003-.31-.005-.619-.01-.928-.002-.158-.247-.197-.25-.028l-.003.337a41.028 41.028 0 00-.155-.356c-.067-.153-.32-.098-.252.066.136.33.268.663.4.998a543.842 543.842 0 00-.033 5.798 30.99 30.99 0 01-.17-1.985c-.003-.087-.14-.079-.143.004-.05 1.901.303 3.78.31 5.677 0 .209.341.211.341-.007-.003-2.922.003-5.846-.026-8.77.85 2.179 1.727 4.361 3.389 6.069.134.138.386.025.346-.169-.353-1.706.258-3.458.39-5.177.947 1.008 1.332 2.397 1.71 3.701.28.966.488 2.173 1.295 2.858.148.126.313-.083.213-.224zm6.126.86a18.667 18.667 0 01-1.156-3.033 33.29 33.29 0 001.047-.041c.148-.008.141-.227-.004-.235a35.533 35.533 0 00-1.13-.042 34.237 34.237 0 01-.627-2.719 30.5 30.5 0 01.657-1.917c.062-.159-.184-.288-.252-.121a26.23 26.23 0 00-.521 1.412 151.13 151.13 0 01-.428-2.569c-.029-.185-.331-.192-.305.007.143 1.084.312 2.165.508 3.239-.279.863-.534 1.732-.794 2.597l-.02.063a97.61 97.61 0 00-.765.009c-.216.002-.216.317-.005.32.223.002.446.005.67.006-.307 1.011-.61 2.022-.778 3.064-.02.13.173.162.216.043.363-1.02.663-2.06.953-3.105.382.004.765 0 1.146-.005.263 1.135.612 2.37 1.405 3.172.09.091.234-.039.183-.145zm-2.641-3.361c.182-.66.363-1.321.555-1.979.097.499.2.995.311 1.49.037.16.073.325.11.494-.324-.004-.65-.006-.976-.005zm15.272-3.994c-1.786-.785-3.875-1.166-5.768-1.637-.157-.04-.216.204-.074.26.366.144.746.273 1.126.4a24.972 24.972 0 00-.357 3.129 11.878 11.878 0 00-1.569-.143c.264-1.203-.401-2.067-1.61-2.369-.457-.114-.972-.171-1.468-.217-.009-.311-.019-.623-.023-.933-.002-.177-.27-.162-.273.016-.003.297 0 .593.003.89l-.32-.029c-.24-.023-.4.978-.45 1.105-.045.115.103.218.171.099.156-.27.292-.544.362-.845.027.011.063.025.123.044.038.012.077.02.116.03.02 1.286.083 2.57.132 3.854.03.799.072 1.595.115 2.393-.41.382-.804.77-.83.966.015-.118-.15-.175-.2-.06-.111.258.116.339.328.258.268-.101.51-.29.733-.501.015.397.035.838.166 1.184.035.091.17.099.19-.008.007-.034.001-.067-.001-.101-.002-.015-.01-.021-.016-.031.008-.017.019-.031.02-.055.002-.108.006-.216.01-.325.01-.313-.003-.623-.018-.937l-.004-.082c.074-.081.146-.16.215-.233 1.02-1.09 2.011-2.389 2.451-3.831a9.224 9.224 0 011.633.198c-.035 1.289.067 2.577.417 3.732.004.012.014.015.02.025a.316.316 0 00-.033-.005c-.657-.107-1.705-.188-2.274-.577-.132-.091-.256.118-.146.216.69.621 1.954.686 2.826.82 1.247.192 2.628.35 3.861.025.158-.043.076-.284-.072-.272-1.336.115-2.67.021-3.992-.183a.111.111 0 00.035-.083c-.02-1.144-.231-2.283-.26-3.432-.002-.056.002-.111 0-.165.89.247 1.717.649 2.55 1.257.1.072.181-.082.117-.159-.675-.815-1.638-1.244-2.665-1.465.01-1.041.11-2.075.25-3.107 1.429.462 2.931.823 4.365 1.13.146.032.23-.183.088-.246zm-7.041 2.005c-.125.009-.134.156-.06.231-.31 1.102-1.078 2.107-1.796 2.975a6.624 6.624 0 01-.521.516c-.034-.679-.066-1.357-.102-2.036-.068-1.277-.144-2.557-.188-3.838.126.015.253.024.376.034 1.41.105 2.618.555 2.29 2.118zm34.086-4.418c-.822-.76-1.958-1.382-3.214-1.803.027-.19.058-.381.089-.571.311.164.621.34.935.525.079.046.165-.069.1-.132a5.012 5.012 0 00-.981-.73c.11-.684.205-1.369.163-2.053-.004-.069-.109-.057-.115.006-.068.643-.159 1.289-.238 1.938a6.6 6.6 0 00-1.544-.567c.202-.73.312-1.491.25-2.188-.006-.056-.086-.036-.093.011-.089.72-.181 1.436-.343 2.136a9.506 9.506 0 00-1.939-.197c.02-.522.027-1.051-.069-1.544-.012-.068-.102-.057-.114.006-.099.491-.091 1.019-.07 1.541-.793.015-1.573.114-2.29.268-.078-1.015-.25-2.044-.372-3.034-.011-.092-.141-.073-.149.011-.097 1.018.135 2.05.289 3.072l-.034.008c-.688.162-1.38.4-2.051.706-.077-.714-.088-1.433-.122-2.166-.004-.07-.102-.055-.105.008-.035.741-.011 1.487.093 2.22-1.758.827-3.338 2.126-4.192 3.817-.043.083.071.135.12.059a10.141 10.141 0 014.116-3.616c.032.189.064.379.11.566a4.88 4.88 0 00-1.013.898c-1.212.848-2.33 1.848-3.422 2.813-.076.067-.048.207.026.259 1.14.805 2.323 1.466 3.574 1.874.736 1.129 1.908 1.576 3.221 1.564a5.662 5.662 0 001.043 2.134c.051.065.164-.003.126-.077-.364-.699-.703-1.359-.931-2.063.896-.043 1.848-.293 2.766-.674.298.672.536 1.386.905 1.991.044.074.142.007.113-.066a26.842 26.842 0 00-.78-1.773 8.231 8.231 0 01-.098-.21c.88-.379 1.721-.881 2.449-1.443.282.605.5 1.239.771 1.869.028.065.132.022.116-.043-.164-.656-.391-1.339-.715-1.965.59-.475 1.1-.987 1.474-1.507.566-.29 1.13-.575 1.692-.834a.14.14 0 00.025-.242c-.104-.083-.211-.166-.317-.249.246-.099.488-.203.721-.319.084-.044.093-.171.024-.234zm-5.265-1.481a2.256 2.256 0 00-.491-.575c.104.007.204.021.306.031l-.03.072c-.037.081.077.143.116.062.019-.039.036-.08.055-.12.078.009.154.014.232.025.572.254 1.127.57 1.662.916-.005.124-.017.247-.018.371-.001.076.111.051.113-.018.003-.094.011-.186.018-.281.672.441 1.315.927 1.923 1.402a45.02 45.02 0 01-1.663.521c-.537.158-1.077.307-1.619.452.373-.938-.049-1.947-.604-2.858zm.094 1.757a1.5 1.5 0 00-.073-.375 5.231 5.231 0 00-.824-1.843c.06.042.122.076.181.124.695.575 1.255 1.881 1.077 2.771-.036.182-.1.35-.18.51l-.17.045c.011-.072.026-.143.032-.217.03-.318.012-.664-.043-1.015zm-3.904 2.994a3.53 3.53 0 01-.438-.267c.326-.053.778-.131 1.255-.242.741.058 1.5-.14 2.197-.669.153-.038.303-.083.456-.121a2.669 2.669 0 01-.188.422c-.907.678-2.238.989-3.248.97.013-.032.006-.074-.034-.093zm-3.238-2.33c.231-.501.537-.922.891-1.286-.26.689-.372 1.386-.281 1.95.06.378.181.695.346.959-.484.01-.972-.033-1.379-.231-.665-.322.079-1.227.387-1.651-.03.067-.064.132-.093.202-.035.088.09.144.129.057zm1.407-1.744c.647-.495 1.413-.83 2.236-1.031-.125.1-.244.205-.354.318-.68.135-1.299.479-1.744 1.107-.575.813-.482 1.659-.053 2.369a7.557 7.557 0 00-.164.55c-.003.012-.001.025-.002.037-.011 0-.021.002-.031.003-.661-.849-.495-2.205.112-3.353zm3.439 1.438a.575.575 0 00-.077-.025l.253-.34c.081.034.165.071.25.111l-.013.089c-.135.06-.274.111-.413.165zm.149-.734c.013-.022.029-.041.042-.061.043-.063.054-.125.043-.181.172-.11.23-.093.227.364-.101-.046-.207-.083-.312-.122zm-.716-.233c.127-.141.251-.261.258-.261.259 0 .128.098-.024.232-.033.023-.068.043-.103.065l-.131-.036zm-.542.539c-.022.022-.039.046-.06.07-.007-.001-.011-.005-.018-.006a.274.274 0 00-.286.224l-.011.007c-.112-.201-.249-.39-.368-.557-.063-.089-.164-.088-.254-.053a.188.188 0 00-.023-.016c.054-.06.109-.12.164-.176.155.011.309.032.461.059.163.028.323.064.483.104a1.2 1.2 0 00-.088.344zm-1.116-.799c-.262.029-.393.145-.222.402a6.885 6.885 0 00-.908 1.3c-.132-.775.169-1.569 1.136-2.122.109-.062.233-.112.363-.155a4.323 4.323 0 00-.369.575zm-.208 2.795c.075.046.15.09.227.131l-.05.07-.003.008-.199.025c-.023-.055-.032-.124-.044-.188.023-.017.047-.032.069-.046zm1.445-.344c.047-.042.101-.093.156-.145a3.048 3.048 0 00-.157.503c-.153.027-.304.056-.457.079.153-.145.301-.294.458-.437zm.756-.394c.08-.012.161-.022.243-.026.155-.008.129-.249-.023-.245l-.135.009a.73.73 0 01.181-.053c.165-.022.241-.194.192-.329.038-.016.077-.029.116-.047l-.031.114c-.031.109.145.183.185.072.038-.102.072-.207.104-.315.054-.026.107-.057.161-.084.204.128.388.284.503.48.198.339-.127.625-.52.838-.417.091-.835.176-1.253.255a4.78 4.78 0 01.277-.669zm1.11-1.221a3.037 3.037 0 00-.177-.103c.035-.323.002-.646-.183-.928-.038-.059-.14-.083-.195-.034a3.055 3.055 0 01-.235.184l.004-.007c.045-.063-.003-.177-.086-.178-.333 0-.644.164-.855.418-.179-.043-.345-.078-.484-.109a4.649 4.649 0 00-.33-.058c.417-.334.9-.565 1.458-.629.157-.019.312-.004.467.025.629.162 1.196.461 1.51.874a.112.112 0 01-.048.063 8.44 8.44 0 01-.846.482zm-2.618-1.068c.109-.156.225-.307.351-.449.194-.027.393-.044.6-.042-.35.114-.664.285-.951.491zm-.867 3.696c.009.032.016.064.026.095a.14.14 0 00.163.099l.121-.022a3.9 3.9 0 00.529.312c-.02-.001-.04 0-.059-.002-.552-.043-.979-.194-1.306-.415.18-.02.357-.042.526-.067zm4.279-1.46c-.044.065-.103.116-.155.173a.737.737 0 00.046-.548c-.073-.252-.245-.465-.474-.645.275-.147.548-.301.819-.47.017.034.029.07.043.106.034.17.06.341.074.511-.021.267-.129.559-.353.873zm-.774-4.107c.456-.021.915-.017 1.376.005-.042.127-.085.25-.134.374a8.268 8.268 0 00-1.242-.379zm2.263.837c.265.053.525.111.773.183.049.012.097.031.146.047-.007.094-.008.189-.014.283a15.304 15.304 0 00-.905-.513zm.11-.755c.15.016.139-.21.003-.233a11.145 11.145 0 00-.74-.103c.016-.05.028-.103.044-.153a8.962 8.962 0 011.584.64c-.023.202-.045.406-.063.609a11.243 11.243 0 00-1.817-.427c.056-.131.108-.265.159-.401.276.017.553.037.83.068zm-2.744-.766c.25.005.499.011.748.031.396.032.77.1 1.13.195-.017.063-.029.127-.047.192a11.377 11.377 0 00-1.845-.018c.003-.131.009-.266.014-.4zm.39 1.295c.33.354.596.793.786 1.271a1.857 1.857 0 00-.245-.162 5.44 5.44 0 00-.512-.239l-.056-.024a2.606 2.606 0 00-.399-.137 4.558 4.558 0 00-1.583-.201 2.667 2.667 0 01.544-.392 9.522 9.522 0 011.465-.116zm-.628-1.301l.016.418c-.016.002-.033.002-.049.003-.787-.405-1.555-.298-2.23.094-.004-.083-.012-.167-.018-.251.749-.17 1.514-.26 2.281-.264zm-.345.772c.121.006.242.018.362.032.049.03.1.058.149.092a2.457 2.457 0 00-.79.152c-.996.122-1.934.419-2.728.926.129-.179.269-.344.417-.498a9.609 9.609 0 012.59-.704zm-2.42-.396c.089-.025.18-.039.268-.062.014.108.029.215.041.323-.073.05-.146.099-.216.156a6.86 6.86 0 00-1.818.823c-.038-.189-.063-.377-.089-.566a11.645 11.645 0 011.814-.674zm-1.67 1.892a.09.09 0 01.006.02c.02.061.115.03.097-.028l-.012-.047c.251-.152.506-.3.768-.436a5.73 5.73 0 00-.405.674c-.44.39-.817.863-1.104 1.433-.013-.087-.103-.161-.186-.092a3.472 3.472 0 00-.736.847c-.325-.416-.099-.981.169-1.415.452-.34.92-.66 1.403-.956zm-4.143 3.228c.791-.691 1.584-1.384 2.415-2.028-.16.378-.204.938.107 1.256-.211.395-.28.818.034 1.142-.028.008-.054.035-.046.069.092.428.223.8.381 1.131-1.01-.384-1.975-.931-2.891-1.57zm3.395 2.108a8.449 8.449 0 002.787.343c.023.311.069.622.136.927-1.154.04-2.195-.313-2.923-1.27zm2.928-.07c-.004-.109-.161-.104-.16.002 0 .033.004.068.005.102-1.06.041-2.084-.144-3.066-.492a5.233 5.233 0 01-.482-1.225c.032.028.061.057.101.083.528.356 1.274.407 2.014.358 1.154 1.091 3.424.731 4.931-.14-.335.414-.779.741-1.265.997-.235.072-.47.145-.709.204-.46.116-.914.18-1.362.208-.001-.034-.006-.064-.007-.097zm.216 1.328a5.624 5.624 0 01-.183-.921c.061-.005.12-.001.181-.008-.002.071.046.145.134.13a6.161 6.161 0 001.425-.407c.25-.064.497-.139.744-.219.149.212.279.439.395.677-.901.402-1.827.681-2.696.748zm2.83-.811a4.902 4.902 0 00-.376-.667c.897-.302 1.77-.695 2.632-1.116.065.108.124.216.181.327a14.025 14.025 0 01-2.437 1.456zm2.599-1.58c-.057-.096-.113-.192-.176-.284.42-.207.837-.418 1.251-.632-.317.305-.68.615-1.075.916zm-.367-.541a4.464 4.464 0 00-.412-.468c-.047-.044-.125.04-.084.087.129.145.241.297.347.452-.678.319-1.363.621-2.061.881.374-.31.695-.673.914-1.099.128-.105.245-.213.347-.325a2.41 2.41 0 00.23-.295c.381-.101.763-.195 1.141-.301.882-.248 1.811-.486 2.689-.81.092.071.181.142.27.213-1.124.534-2.243 1.124-3.381 1.665zm3.557-2.406c-.156.059-.315.108-.473.162a25.814 25.814 0 00-2.211-1.568c.01-.106.024-.211.037-.315a8.814 8.814 0 012.007.952c.246.157.767.736 1.01.623-.119.057-.246.1-.37.146z" fill="#fff"/><path d="M111.612 128.095c-.353-.782-.318-1.567-.435-2.389-.011-.079-.127-.085-.139-.003-.12.838.01 1.724.382 2.485.064.132.252.036.192-.093zm4.018 10.084c-1.06-.282-1.618-1.469-1.956-2.397-.056-.155-.276-.054-.223.098.215.636.503 1.235.92 1.767.284.359.738.771 1.236.696.082-.012.119-.139.023-.164zm1.792-24.691c.491-.075.991-.161 1.489-.177.066-.003.108-.072.114-.128.144-1.294.024-2.737-.473-3.91.014-.184.031-.369.034-.555a.122.122 0 00-.117-.119 11.703 11.703 0 00-.265 0c-.676-1.081-1.781-1.781-3.442-1.628-.101.009-.126.147-.065.212 1.11 1.173 1.275 2.484 1.426 4.007.03.301.074.6.121.898.043.264-.698.385-1.197.439.062-.026.124-.056.186-.082.105-.043.042-.214-.069-.17-.261.101-.521.208-.781.313-.41.043-.828.083-1.234.105-.077.005-.091.138-.009.144.198.01.394.015.589.017-1.246.514-2.484 1.048-3.726 1.572-.033-.023-.065-.045-.097-.072-.036-.031-.086.026-.051.06.019.019.041.032.06.049-.25.106-.502.213-.754.318a5.871 5.871 0 01-.17.066c.036-.158.073-.311.108-.457.011-.048-.061-.056-.073-.012-.045.169-.09.335-.131.497-.17.037-.218-.054-.37-.335-.257-.48-.519-.959-.777-1.438-.555-1.031-1.085-2.081-1.405-3.208-.048-.17-.285-.128-.296.039-.158 2.585.781 5.664 2.713 7.482.07.066.14.127.209.182.181.321.452.631.841.934.058.045.126.026.171-.024.106-.116.199-.24.29-.366 1.117.047 2.07-.98 2.597-2.176.061.241.128.481.198.72.023.303.066.606.121.908-.03.062-.058.126-.081.191-.129.359-.047.693-.02 1.058.007.093.134.074.136-.013.004-.275.001-.515.06-.766.633 2.696 2.489 5.144 5.141 6.129.04.021.087.009.121-.02l.004-.003a.085.085 0 00.022-.038.073.073 0 00.005-.03c0-.008.007-.014.004-.023a23.244 23.244 0 01-.249-1.043l.008-.016h.147c.079 0 .123-.072.123-.143.001-.219-.039-.812-.008-1.345.078-.255.162-.508.249-.76a.471.471 0 00.016-.163.241.241 0 01.066-.037c.053-.017.079-.08.072-.13l-.005-.036a.13.13 0 00-.139-.111c-.043.004-.087.034-.13.08l-.012.012a1.084 1.084 0 00-.037.05l-.011.014a1.894 1.894 0 00-.165.331l.102-.701c.025-.165-.228-.235-.263-.068.224-1.864-.376-3.865-.957-5.609.008-.077-.038-.161-.138-.164-.099-.006-.198-.022-.296-.036-.056-.152-.161-.278-.276-.404l-.161-.169c.027-.001.056-.002.095-.009.269-.048.54-.092.812-.133zm-10.077-.337c-.094.441-.181.936-.178 1.419a10.35 10.35 0 01-.836-3.733c.284.787.646 1.544 1.03 2.291-.005.009-.013.012-.016.023zm1.106 3.53c-.107-.126-.203-.262-.302-.396.164.038.339.036.515.017-.004.236.018.465.071.689a5.605 5.605 0 01-.284-.31zm.222-.602c-.305.014-.6-.042-.837-.249a8.965 8.965 0 01-.399-.696c-.142-.563-.05-1.239.041-1.781.333.639.675 1.273.995 1.912a.205.205 0 00.258.099l.054-.022a5.91 5.91 0 00-.112.737zm10.084-5.043c-.478-.045-.943.098-1.423-.064-.287-.097-.504-.332-.693-.554-.103-.12-.102-.242-.1-.387.643-.113 1.232-.41 1.892-.434.169.462.272.948.324 1.439zm-3.096-3.023c-.146-.275-.352-.52-.549-.758-.035-.042 1.314.117 1.41.151.612.211 1.07.668 1.417 1.195-.519 0-1.057-.033-1.458-.361-.091-.075-.194.071-.11.144.459.397 1.107.45 1.713.453.079.137.153.277.219.417.032.071.054.145.082.218-.019 0-.05-.005-.105-.001-.644.04-1.198.377-1.859.339-.069-.003-.11.064-.111.122-.001.067-.017.159-.021.248-.104-.749-.268-1.484-.628-2.167zm.81 4.463c.05-.015.081-.077.074-.127-.1-.656-.149-1.329-.233-1.991.006.018.009.041.021.057.207.296.442.602.781.759.508.238 1.119.21 1.663.089.014.159.026.317.033.474.015.378-.01.756-.041 1.131-.022.259-.241.181-.508.211a1.138 1.138 0 01-.105.008c-.088-.561-.541-1.133-.853-1.587-.056-.081-.167.023-.117.099.274.42.66.944.751 1.456-.764-.013-1.489-.072-2.189-.398.241-.05.482-.108.723-.181zm-4.649 1.514c-.209.59-.433 1.168-.595 1.761a1.896 1.896 0 00-.3-.703c-.133-.185-.328-.295-.528-.399.476-.215.95-.437 1.423-.659zm-1.904 4.213c-.077.094-.282-.099-.443-.278.175.087.348.146.518.18-.026.033-.049.067-.075.098zm.241-.317c-.426-.084-.828-.346-1.172-.653a2.41 2.41 0 01-.19-.945c.24-.042.48-.121.696-.22.08-.037.048-.161-.043-.134a4.062 4.062 0 01-.649.137c.011-.259.048-.52.096-.776.46-.185.913-.384 1.365-.588.15.095.299.192.422.328.326.358.413.825.406 1.296a5.371 5.371 0 00-.066.475 8.418 8.418 0 00-.691.851c-.057.078-.117.153-.174.229zm.894-.119a1.315 1.315 0 01-.629.146c.193-.292.374-.592.586-.873-.003.055-.009.108-.009.163-.002.14.192.168.214.024.032-.224.059-.456.069-.689.106-.684.32-1.332.547-1.991.001.748 0 1.498-.009 2.246 0 .076.09.182.167.104.039-.04.074-.083.112-.123-.263.405-.59.757-1.048.993zm2.594.58c.305.733.669 1.438 1.117 2.093.465.679 1.191 1.512 2.085 1.568.076.417.168.83.251 1.238a9.283 9.283 0 01-1.293-1.098c-1.038-1.047-1.756-2.383-2.16-3.801zm3.567 4.145a30.428 30.428 0 01-.098-.491.95.95 0 00.204-.049l.004.017a22.01 22.01 0 00-.11.523zm.011-.905l.015.058a.831.831 0 01-.172.059 7.544 7.544 0 01-.059-.423c.074.096.145.199.216.306zm.087 1.801c.035-.023.065-.056.067-.105.01-.234.044-.463.087-.691.048.249.085.501.085.743 0 .14.206.112.206-.025l.001-.233c.06.101.124.196.194.281.015.019.037.03.059.04.09.245.181.465.232.486a6.063 6.063 0 01-.931-.496zm-.614-8.946a.163.163 0 00.153.094l.129-.003c-.134.194-.265.384-.388.568-.314.037-.598.145-.684.463-.025.093 0 .324.058.592-.213.425-.386.88-.501 1.421-.019.088.044.19.144.19.553 0 1.105-.009 1.658-.02.076-.001.105-.084.1-.144-.021-.315-.468-2.2-.083-2.31.122-.033.057-.207-.051-.208-.11 0-.235-.003-.364-.002.113-.14.227-.28.333-.419.493 1.543.9 3.144.889 4.77-.003.385-.036.928-.195 1.389l-.018-.041c-.095-.182-.231-.184-.298-.075a2.646 2.646 0 00-.225-.326c-.082-.1-.252-.072-.246.076.009.182.028.385.053.594a4.995 4.995 0 00-.239-.292c-.082-.092-.227-.008-.222.1.015.291.054.582.102.874-.85-.032-1.599-1.148-1.978-1.732a11.169 11.169 0 01-1.057-2.156c.112.221.249.418.446.426.62.027.663-1.946.698-2.252.013-.107-.117-.186-.202-.117-.422.339-.871.723-1.209 1.172-.033-.103-.067-.206-.098-.31.03.04.058.08.092.118.077.086.214-.033.15-.122-.277-.39-.401-.88-.538-1.357l.033-.056c.089.253.189.501.386.694.041.041.118-.025.081-.07-.221-.265-.318-.593-.43-.912.022-.085.043-.171.059-.255.018-.096-.112-.146-.158-.055l-.012.025a1.544 1.544 0 00-.274-.44c-.058-.062-.15.038-.095.097.137.147.223.322.295.505l-.018.04a3.364 3.364 0 00-.083-.213l-.002-.009-.002.001-.014-.037c-.072-.162-.306-.057-.272.103.046.221.095.443.147.663-.047.11-.095.215-.144.324-.185.247-.374.491-.577.724-.007-.85-.013-1.7-.008-2.55a.09.09 0 00-.03-.069 94.251 94.251 0 012.335-1.07c.38-.019.758-.061 1.134-.127-.012.036-.016.073.003.108.035.067.078.123.117.185a.45.45 0 00-.123.172c-.155.371-.088.865.309.99.303.094.617.198.934.271zm.353 2.38c.025.205.043.411.061.617.143.047.158.065.047.052l-.411-.01c-.319-.008-.637-.006-.955-.006.073-.329.152-.655.258-.974.117.406.286.803.458.896.478.26.363-1.183.361-1.398 0-.046-.071-.039-.072.005a5.171 5.171 0 01-.089.912c-.119.63-.319-.308-.374-.499-.027-.095-.076-.231-.108-.375.114-.251.276-.49.454-.722.102-.013.208-.018.313-.019-.175.411.026 1.261.057 1.521zm-3.347.403c.261-.347.593-.651.925-.927a9.593 9.593 0 01-.232 1.334c-.035.131-.1.491-.248.287-.16-.221-.259-.491-.445-.694zm2.842-3.105c-.303-.078-.601-.18-.896-.267.014.004-.099-.485.039-.67.112.158.232.31.37.455.133.14.346.301.487.482zm-.139-.785a.84.84 0 00-.17-.213c.186.043.373.077.562.1a2.03 2.03 0 00-.392.113z" fill="#fff"/></g><defs><clipPath id="clip0"><path fill="#fff" d="M0 0h205v147H0z"/></clipPath></defs></svg>