<svg xmlns="http://www.w3.org/2000/svg" viewBox="0 0 65.84 65.84"><defs/><g id="レイヤー_2" data-name="レイヤー 2"><g id="レイヤー_1-2" data-name="レイヤー 1"><path d="M32.92 5.93c8.79 0 9.83 0 13.3.19a18.34 18.34 0 0 1 6.12 1.14 10.15 10.15 0 0 1 3.78 2.46 10.15 10.15 0 0 1 2.46 3.78 18.34 18.34 0 0 1 1.14 6.12c.16 3.47.19 4.51.19 13.3s0 9.83-.19 13.3a18.34 18.34 0 0 1-1.14 6.12 10.9 10.9 0 0 1-6.24 6.24 18.34 18.34 0 0 1-6.12 1.14c-3.47.16-4.51.19-13.3.19s-9.83 0-13.3-.19a18.34 18.34 0 0 1-6.12-1.14 10.15 10.15 0 0 1-3.78-2.46 10.15 10.15 0 0 1-2.46-3.78 18.34 18.34 0 0 1-1.14-6.12c-.15-3.47-.19-4.51-.19-13.3s0-9.83.19-13.3a18.34 18.34 0 0 1 1.14-6.12 10.15 10.15 0 0 1 2.46-3.78 10.15 10.15 0 0 1 3.78-2.46 18.34 18.34 0 0 1 6.12-1.14c3.47-.15 4.51-.19 13.3-.19m0-5.93C24 0 22.86 0 19.35.2a24 24 0 0 0-8 1.53 16.08 16.08 0 0 0-5.83 3.8 16.08 16.08 0 0 0-3.8 5.83 24 24 0 0 0-1.53 8C0 22.86 0 24 0 32.92S0 43 .2 46.49a24 24 0 0 0 1.53 8 16.79 16.79 0 0 0 9.63 9.63 24 24 0 0 0 8 1.53c3.51.16 4.63.2 13.57.2s10.06 0 13.57-.2a24 24 0 0 0 8-1.53 16.72 16.72 0 0 0 9.63-9.63 24 24 0 0 0 1.53-8c.16-3.51.2-4.63.2-13.57s0-10.06-.2-13.57a24 24 0 0 0-1.53-8 16.79 16.79 0 0 0-9.63-9.63 24 24 0 0 0-8-1.53C43 0 41.86 0 32.92 0z" fill="#4c4b4b" /><path d="M32.92 16a16.91 16.91 0 1 0 16.91 16.9A16.89 16.89 0 0 0 32.92 16zm0 27.87a11 11 0 1 1 11-11 11 11 0 0 1-11 11.02z" fill="#4c4b4b"/><circle cx="50.49" cy="15.35" r="3.95" fill="#4c4b4b"/></g></g></svg>