<svg xmlns="http://www.w3.org/2000/svg" width="385" height="240" viewBox="0 0 385 240"><defs><style>.cls-1{fill:#fff;}.cls-2{fill:none;}</style></defs><title>o_logo</title><g id="O"><rect class="cls-1" x="20.571" y="1.346" width="2.545" height="16.603"/><path class="cls-1" d="M36.373,11.285a5,5,0,0,0,3.254-4.737c0-3.011-2.39-5.2-5.8-5.2H27.541v16.6h2.546v-6.2h3.63l3.7,6.2h3.01Zm-2.7-1.816H30.087V3.648h3.586c2.168,0,3.343,1.2,3.343,2.922C37.016,8.276,35.841,9.469,33.673,9.469Z"/><path class="cls-1" d="M73.2,1.346V11.374c0,2.834-1.682,4.4-4.162,4.4-2.567,0-4.139-1.571-4.139-4.4V1.346H62.353V11.551a6.3,6.3,0,0,0,6.641,6.664,6.339,6.339,0,0,0,6.685-6.664V1.346Z"/><polygon class="cls-1" points="79.882 1.346 79.882 17.949 91.458 17.949 91.458 15.624 82.427 15.624 82.427 10.732 90.462 10.732 90.462 8.496 82.427 8.496 82.427 3.648 91.348 3.648 91.348 1.346 79.882 1.346"/><path class="cls-1" d="M106.6,1.346h-5.622v16.6H106.6a8.152,8.152,0,0,0,8.455-8.3A8.125,8.125,0,0,0,106.6,1.346Zm-.332,14.278h-2.746V3.648h2.746a5.705,5.705,0,0,1,6.086,6A5.7,5.7,0,0,1,106.263,15.624Z"/><path class="cls-1" d="M129.212,1.346V11.374c0,2.834-1.681,4.4-4.161,4.4-2.567,0-4.139-1.571-4.139-4.4V1.346h-2.546V11.551a6.663,6.663,0,1,0,13.325,0V1.346Z"/><polygon class="cls-1" points="176.084 1.346 176.084 17.949 186.776 17.949 186.776 15.624 178.63 15.624 178.63 1.346 176.084 1.346"/><polygon class="cls-1" points="189.54 1.346 189.54 17.949 201.116 17.949 201.116 15.624 192.085 15.624 192.085 10.732 200.12 10.732 200.12 8.496 192.085 8.496 192.085 3.648 201.005 3.648 201.005 1.346 189.54 1.346"/><rect class="cls-1" x="204.766" y="1.346" width="2.546" height="16.603"/><polygon class="cls-1" points="211.737 1.346 211.737 17.949 222.429 17.949 222.429 15.624 214.282 15.624 214.282 1.346 211.737 1.346"/><path class="cls-1" d="M220.032,2.743h.287c.232,0,.367.123.367.327s-.135.321-.367.321h-.287Zm-.5-.427V4.66h.5V3.818h.169l.444.842h.573l-.5-.906a.729.729,0,0,0,.479-.689.766.766,0,0,0-.8-.749ZM218.618,3.5a1.66,1.66,0,1,1,3.319,0,1.66,1.66,0,1,1-3.319,0m-.479,0a2.145,2.145,0,1,0,2.138-2.156A2.149,2.149,0,0,0,218.139,3.5"/><path class="cls-1" d="M1.582,9.647a8.214,8.214,0,0,0,8.344,8.568,7.824,7.824,0,0,0,7.527-5.247l-2.479-.863a5.148,5.148,0,0,1-5.091,3.7c-3.187,0-5.6-2.413-5.6-6.154,0-3.542,2.414-6.154,5.534-6.154a4.958,4.958,0,0,1,4.937,3.388l2.368-1.064A7.491,7.491,0,0,0,9.883,1.08a8.392,8.392,0,0,0-8.3,8.567"/><path class="cls-1" d="M76.038,20.185A12.386,12.386,0,0,1,68.955,22.4c-5.976,0-10.382-3.143-15.186-4.98a8.239,8.239,0,0,0,5.269-7.771,8.37,8.37,0,1,0-16.736,0,8.445,8.445,0,0,0,6.488,8.346c5.666,1.262,10.69,6.154,18.948,6.154A12.81,12.81,0,0,0,76.592,21ZM44.98,9.647c0-3.653,2.5-6.154,5.691-6.154s5.689,2.5,5.689,6.154c0,3.63-2.5,6.154-5.689,6.154S44.98,13.277,44.98,9.647Z"/><path class="cls-1" d="M141.493,5.839c0,1.926,1.4,3.985,4.451,4.671l2.235.509c1.726.4,2.479,1.35,2.479,2.413,0,1.439-1.129,2.525-3.3,2.525-2.414,0-3.652-1.307-3.785-3.3l-2.546.4c.2,2.922,2.523,5.159,6.2,5.159,3.852,0,6.066-2.171,6.066-4.916,0-2.1-1.571-3.94-4.516-4.626l-2.191-.51c-1.9-.442-2.568-1.35-2.568-2.478,0-1.219,1.018-2.391,3.055-2.391,1.97,0,3.1.93,3.365,2.568l2.412-.4A5.417,5.417,0,0,0,147.16,1.08c-3.541,0-5.667,2.236-5.667,4.759"/><path class="cls-1" d="M164.18,1.08a8.366,8.366,0,0,0-8.368,8.567,8.37,8.37,0,1,0,16.736,0A8.366,8.366,0,0,0,164.18,1.08Zm0,14.721c-3.188,0-5.689-2.524-5.689-6.154,0-3.653,2.5-6.154,5.689-6.154s5.689,2.5,5.689,6.154C169.869,13.277,167.367,15.8,164.18,15.8Z"/><path class="cls-1" d="M169.26,238.04c-13.253-1.353-27.846,2.158-37.663.35C149.882,237.947,141.6,232.722,169.26,238.04Z"/><path class="cls-1" d="M168.1,231.163c-11.193-2.312-15.877,2.551-25.673,1.938,11.508,2.593,25.655.455,27.181.287,3-.335,10.369.4,18.342-.224C182.51,232.933,174.593,230.729,168.1,231.163Z"/><path class="cls-1" d="M57.645,235.358c4.956,1.024,23.676,4.959,33.7,2.538,10.81-2.62,17.34-4.946,22.056-4.318C106.948,231.281,78.573,235.875,57.645,235.358Z"/><path class="cls-1" d="M125.411,179.705a.076.076,0,0,0,.006.021Z"/><path class="cls-1" d="M125.411,179.705a.076.076,0,0,0,.006.021Z"/><path class="cls-2" d="M127.972,156.923c.916-1.233,1.093-3.986,1.222-6.532-1.129,1.846-2.284,3.739-3.45,5.647.217.181.444.39.684.633C126.731,156.979,127.586,157.552,127.972,156.923Z"/><path class="cls-2" d="M103.958,166.674s-.666.831-1.037,1.37a10.533,10.533,0,0,0-1.182,2.941c.117.422,1.4,2.493,1.623,3.316.968,3.562,2.083,5.022,2.78,5.011a.666.666,0,0,0,.725-.475h0l.547-1.489a9.487,9.487,0,0,1-1.313-.61c-.7-.394-1.616-1.027-1.616-1.027l-.279-.8a18.96,18.96,0,0,0,.237-2.94c-.012-.953-.309-1.745-.35-2.619-.03-.577-.059-1.442-.068-1.693l0-.012C104.02,167.415,103.958,166.674,103.958,166.674Z"/><path class="cls-2" d="M103.921,191.759l-12.766,20.6a51.023,51.023,0,0,0,11.209,7.144l1.55.654c0-1.568.021-13.45.723-16.64.1-.479-.933-1.965-1-3.049C101.985,196.545,102.2,196.464,103.921,191.759Z"/><path d="M114.556,194.932l0,.012c.007-.023.015-.045.022-.068-.005.019-.013.035-.017.053Z"/><path class="cls-2" d="M103.436,47.543c-.554,0-1.1.012-1.652.028C90.661,50.764,81.11,57.834,73.7,68.48c-10.283,14.787-15.72,35.327-15.72,59.4,0,37.535,15.615,68.571,31.087,82.68l.489.432,15.322-24.707a13.108,13.108,0,0,1,.929-4.207c-2.535.65-8.12-11.782-6.944-12.6.22-2.517,3.22-6.711,3.525-8.021a15.19,15.19,0,0,1,1.086-3.651c1.848-1.385,1.611-2.466,3.832-3.761a25.919,25.919,0,0,1,1.605-5.021c-.368-.216-.212-.812-.617-1.088-.26-.175-.746-.434-.9-.819-.149-.369-.835-3.3,1.132-4.91.608.142,1.059.549,1.754.679s1.2-.376,1.53-.043c-.452.876.562,1.957.2,2.729.723-.809,1.6-2.144,1.763-2.073a1.236,1.236,0,0,1,.309.243s-.8,1.149-.62,1.308c.095.083,1.448-1.99,1.729-1.863.261.12.662.879.73,1-.049,0-1.21.832-1.409.965s.065.36.065.36a24.777,24.777,0,0,1-3.146,2s-.226-.7-.785-.378c0,0,.439.578-.343.74-.043.486.665.417.665.417a8.427,8.427,0,0,0-1.429,3.263c0,.91.561,2.033.42,2.8-.125.687-1.192,1.406-1.261,2.388-.107,1.483-1.616,1.964-.983,2.177a1.306,1.306,0,0,0,1.613-.984c.347-2.055,1.684-3.508,1.684-3.929s-.771-1.894-.563-2.525c.109-.328.541-1.711.771-2.418-.019.823-.138,2.654.318,2.745,2.416-.636,2.888.175,3.9-.268-.339-.121-.967-.043-1.121-.513-.186-.585-1.085-.633-1.254-.858-.306-.4-.187-1.327-.411-1.5a11.028,11.028,0,0,0-1.018-.613c2.069,0,1.492,1.288,1.8,1.489,1.5.406.94,1.375,2.376,1.806.1-.341.479-.883.088-1.467-.2.27-.545.811-.545.811.021-.643-.417-1.442.984-2.453a8.618,8.618,0,0,0-1.262-1.08l.187-.281s.712.431.712.14a.683.683,0,0,1,.454-.619l-.037.5s.448-.906.438-.943c-.5.209-3.951,1.948-3.951,1.948-.463-.5.773-.61,3.994-2.886a2.41,2.41,0,0,1,.168,1.531c-.127.256-.476.149-.485.677,0,.06.831,1.509.959,1.742,0,0-.021.5-.792.525,0,0,.18.78-.136.766,0,0,.016.9-.372.841l-.005.344s1.386-.152,1.584.19c1.648-.375,3.553,1.313,5.433,3.29a2.058,2.058,0,0,1,.99.17l5.265-8.49c.131-.8.33-1.361.663-1.519a.428.428,0,0,1,.283-.006l10.148-16.363c.863-1.34,1.944-.623,2.019.214a.987.987,0,0,0-.578.43c-.1.172-4.657,7.644-10.478,17.175-1.222.323-.87-1.29-.87-1.29a.585.585,0,0,0-.052-.049h-.006c-.039.066-.077.131-.112.2-.012.021-.023.042-.034.063l-.069.129c-.013.025-.025.05-.037.075s-.036.074-.052.111-.024.053-.035.079l-.04.1-.029.079c-.01.031-.019.062-.027.092s-.015.052-.02.076-.011.057-.015.085-.008.049-.01.072a.566.566,0,0,0,0,.082.654.654,0,0,0,.009.1.515.515,0,0,0,.017.087c.008.02.019.04.028.058a.549.549,0,0,0,.031.059.387.387,0,0,0,.045.055.343.343,0,0,0,.046.048.449.449,0,0,0,.063.047.444.444,0,0,0,.063.039.7.7,0,0,0,.082.041l.082.03c.033.011.066.021.1.031s.068.014.1.021.08.014.124.02.087.008.13.012.09.009.141.011a5.893,5.893,0,0,0,.723-.025c-.306,2.95-1.621,2.826-1.621,2.826v1.5c1.133,3.446.061,9.666-.261,9.632a16.887,16.887,0,0,1-7.814-2.7l-.008,0h0a9.576,9.576,0,0,1-2.451-2.277c-.331.919-.1,1.184-.279,1.59-1.171.451-1.846-2.613-2.043-4.159-1.216,3.981-.607,9.18-.7,13.669v0c-.008.375-.02.746-.04,1.109,0,.062-.008.123-.012.184-.018.313-.039.623-.068.926-.013.137-.032.268-.048.4-.027.233-.052.467-.087.693-.052.332-.115.654-.187.969a9.155,9.155,0,0,1-.732,2.09c-.212.412,5.893-5.095,5.893-5.095l-.717,2.03a4.968,4.968,0,0,1,2.271,1.9c.253.583-.546,2.029-.546,2.029-.293-1.523-3.072-1.776-3.072-1.776l-3.043,1.606c.347.189,4.28-.7,4.99,1,.457,1.1-.935.468-1.128,1.056-.23.69,2.682,1.722,3.033,3.595.724,3.9,1.828,8.252,2.063,9.032,1.992,6.624-1.138,7.769-.043,8.357,1.224.654,2.625-1.683,2.625-1.683,1.916,6.517-7.289,4.175-4.771,6.2,1.157.093,2.412.093,3.085,1.129-2.822,7.116-4.529,12.813-5.034,14.447-.177.568.223.682.5,1.182a1.141,1.141,0,0,1,.172.55h0a1.242,1.242,0,0,1-.119.459c-.007.019-.012.039-.019.06s-.009.03-.013.045a.591.591,0,0,0-.013.112c0,.011,0,.023,0,.036a.5.5,0,0,0,.022.126l0,.012a.864.864,0,0,0,.074.161c.009.012.017.028.026.043a1.811,1.811,0,0,0,.144.2c1.292,1.532-.5,1.576.429,1.869l.007.047c.166.043.338.087.523.131a19.131,19.131,0,0,0,5.886.522c.294,0,.264-1.128-.875-1.13a3.8,3.8,0,0,1-2.176-.791c-.219-.379-1.473-1.217-2.371-2.314,27.206-7.8,43.729-37.452,43.729-77.5C167.115,101.786,145.5,47.543,103.436,47.543Z"/><path class="cls-2" d="M178.782,65.706c-16.149-18.793-37.518-29.143-60.171-29.143-24.109,0-46.2,10.979-62.2,30.916-14.788,18.424-23.269,43.136-23.269,67.8,0,42.711,26.211,81.594,62.535,93.1,5.425-.68,11.166-1.08,14.109-.2,1.028.08,1.913.22,2.721.352a18.794,18.794,0,0,0,3.117.327,13.5,13.5,0,0,0,3.048-.373,128.141,128.141,0,0,1,27.855-2.946q.987,0,1.941.015c16.376-7.116,30.285-19.987,40.233-37.23a112.117,112.117,0,0,0,14.687-55.206C203.387,108.476,194.418,83.9,178.782,65.706ZM164.4,201.383c-10.616,15.259-25.562,23.325-43.221,23.325a45.773,45.773,0,0,1-16.506-3.057l-2.745-1.158a52.482,52.482,0,0,1-12.305-8l-1.273-1.129C78.6,202.473,70.46,189.3,64.806,173.255a140.125,140.125,0,0,1-7.9-45.374c0-24.3,5.5-45.049,15.914-60.017C83.434,52.6,98.374,44.539,116.026,44.539c13.46,0,32.737,5.733,48.127,33.045,10.121,17.96,16.164,41.8,16.164,63.782C180.317,165.663,174.813,186.416,164.4,201.383Z"/><path class="cls-1" d="M120.368,161.315c.237.588.51,1.3.8,2.214l2.337-3.824c-.541-.327-1.055-.672-1.52-1Z"/><path class="cls-1" d="M116.026,44.539c-17.652,0-32.592,8.065-43.207,23.325-10.411,14.968-15.914,35.721-15.914,60.017a140.125,140.125,0,0,0,7.9,45.374C70.46,189.3,78.6,202.473,88.351,211.363l1.273,1.129a52.482,52.482,0,0,0,12.305,8l2.745,1.158a45.773,45.773,0,0,0,16.506,3.057c17.659,0,32.6-8.066,43.221-23.325,10.412-14.967,15.916-35.72,15.916-60.017,0-21.978-6.043-45.822-16.164-63.782C148.763,50.272,129.486,44.539,116.026,44.539ZM103.914,220.161l-1.55-.654a51.023,51.023,0,0,1-11.209-7.144l12.766-20.6c-1.72,4.705-1.936,4.786-.279,8.713.062,1.084,1.1,2.57,1,3.049C103.935,206.711,103.914,218.593,103.914,220.161ZM120.354,208c-.138,1.076-1.833,10.45-3.164,10.9a3.023,3.023,0,0,0-.22,1.175,67.289,67.289,0,0,1-8.963.6l.586,1.471-2.113-.815.208-.881s-1.064-2.57-.5-3.977c.518-1.293,3.138-13.86,3.123-13.982-.009-.08-.654-.058-.935-.331-.958-.926,3.051-3.47,2.391-3.87-.394-.239-4.165,1.842-4.542,1.542-.339-.272,3.084-1.466,2.831-2.438s-1.163-1.625-.487-1.339,2.115,1.212,2.367.766-.934-1.58-.718-1.74,1.67.966,1.777.728-1.812-1.771-2.03-2.509c-.3-.992,2,.689,3.427-.433,0,0,1.291,1.785,1.192,2.04.653,1.455,2.6,6.159,6.318,6.191-.18,1.073.456.757.456.757C119.85,205.271,120.7,205.3,120.354,208ZM104.1,169.352c.041.874.338,1.666.35,2.619a18.96,18.96,0,0,1-.237,2.94l.279.8s.917.633,1.616,1.027a9.487,9.487,0,0,0,1.313.61l-.547,1.489h0a.666.666,0,0,1-.725.475c-.7.011-1.812-1.449-2.78-5.011-.224-.823-1.506-2.894-1.623-3.316a10.533,10.533,0,0,1,1.182-2.941c.371-.539,1.037-1.37,1.037-1.37s.062.741.074.973l0,.012C104.038,167.91,104.067,168.775,104.1,169.352Zm19.289,49.319c.9,1.1,2.152,1.935,2.371,2.314a3.8,3.8,0,0,0,2.176.791c1.139,0,1.169,1.13.875,1.13a19.131,19.131,0,0,1-5.886-.522c-.185-.044-.357-.088-.523-.131l-.007-.047c-.925-.293.863-.337-.429-1.869a1.811,1.811,0,0,1-.144-.2c-.009-.015-.017-.031-.026-.043a.864.864,0,0,1-.074-.161l0-.012a.5.5,0,0,1-.022-.126c0-.013,0-.025,0-.036a.591.591,0,0,1,.013-.112c0-.015.009-.03.013-.045s.012-.041.019-.06a1.242,1.242,0,0,0,.119-.459h0a1.141,1.141,0,0,0-.172-.55c-.282-.5-.682-.614-.5-1.182.5-1.634,2.212-7.331,5.034-14.447-.673-1.036-1.928-1.036-3.085-1.129-2.518-2.023,6.687.319,4.771-6.2,0,0-1.4,2.337-2.625,1.683-1.095-.588,2.035-1.733.043-8.357-.235-.78-1.339-5.132-2.063-9.032-.351-1.873-3.263-2.905-3.033-3.595.193-.588,1.585.042,1.128-1.056-.71-1.7-4.643-.811-4.99-1l3.043-1.606s2.779.253,3.072,1.776c0,0,.8-1.446.546-2.029a4.968,4.968,0,0,0-2.271-1.9l.717-2.03s-6.105,5.507-5.893,5.095a9.155,9.155,0,0,0,.732-2.09c.072-.315.135-.637.187-.969.035-.226.06-.46.087-.693.016-.133.035-.264.048-.4.029-.3.05-.613.068-.926,0-.061.009-.122.012-.184.02-.363.032-.734.04-1.108v0c.092-4.489-.517-9.688.7-13.669.2,1.546.872,4.61,2.043,4.159.18-.406-.052-.671.279-1.59a9.576,9.576,0,0,0,2.451,2.277h0l.008,0a16.887,16.887,0,0,0,7.814,2.7c.322.034,1.394-6.186.261-9.632v-1.5s1.315.124,1.621-2.826a5.893,5.893,0,0,1-.723.025c-.051,0-.095-.007-.141-.011s-.09-.006-.13-.012-.083-.014-.124-.02-.072-.013-.1-.021-.07-.02-.1-.031l-.082-.03a.7.7,0,0,1-.082-.041.444.444,0,0,1-.063-.039.449.449,0,0,1-.063-.047.343.343,0,0,1-.046-.048.387.387,0,0,1-.045-.055.549.549,0,0,1-.031-.059c-.009-.018-.02-.038-.028-.058a.515.515,0,0,1-.017-.087.654.654,0,0,1-.009-.1.566.566,0,0,1,0-.082c0-.023.006-.048.01-.072s.008-.056.015-.085.013-.051.02-.076.017-.061.027-.092l.029-.079.04-.1c.011-.026.022-.052.035-.079s.034-.074.052-.111.024-.05.037-.075l.069-.129c.011-.021.022-.042.034-.063.035-.065.073-.13.112-.2h.006a.585.585,0,0,1,.052.049s-.352,1.613.87,1.29c5.821-9.531,10.382-17,10.478-17.175a.987.987,0,0,1,.578-.43c-.075-.837-1.156-1.554-2.019-.214l-10.148,16.363a.428.428,0,0,0-.283.006c-.333.158-.532.718-.663,1.519l-5.265,8.49a2.058,2.058,0,0,0-.99-.17c-1.88-1.977-3.785-3.665-5.433-3.29-.2-.342-1.584-.19-1.584-.19l.005-.344c.388.059.372-.841.372-.841.316.014.136-.766.136-.766.771-.02.792-.525.792-.525-.128-.233-.959-1.682-.959-1.742.009-.528.358-.421.485-.677a2.41,2.41,0,0,0-.168-1.531c-3.221,2.276-4.457,2.39-3.994,2.886,0,0,3.447-1.739,3.951-1.948.01.037-.438.943-.438.943l.037-.5a.683.683,0,0,0-.454.619c0,.291-.712-.14-.712-.14l-.187.281a8.618,8.618,0,0,1,1.262,1.08c-1.4,1.011-.963,1.81-.984,2.453,0,0,.35-.541.545-.811.391.584.007,1.126-.088,1.467-1.436-.431-.874-1.4-2.376-1.806-.312-.2.265-1.486-1.8-1.489a11.028,11.028,0,0,1,1.018.613c.224.168.105,1.091.411,1.5.169.225,1.068.273,1.254.858.154.47.782.392,1.121.513-1.015.443-1.487-.368-3.9.268-.456-.091-.337-1.922-.318-2.745-.23.707-.662,2.09-.771,2.418-.208.631.563,2.1.563,2.525s-1.337,1.874-1.684,3.929a1.306,1.306,0,0,1-1.613.984c-.633-.213.876-.694.983-2.177.069-.982,1.136-1.7,1.261-2.388.141-.77-.42-1.893-.42-2.8a8.427,8.427,0,0,1,1.429-3.263s-.708.069-.665-.417c.782-.162.343-.74.343-.74.559-.327.785.378.785.378a24.777,24.777,0,0,0,3.146-2s-.264-.227-.065-.36,1.36-.961,1.409-.965c-.068-.119-.469-.878-.73-1-.281-.127-1.634,1.946-1.729,1.863-.185-.159.62-1.308.62-1.308a1.236,1.236,0,0,0-.309-.243c-.159-.071-1.04,1.264-1.763,2.073.367-.772-.647-1.853-.2-2.729-.334-.333-.833.174-1.53.043s-1.146-.537-1.754-.679c-1.967,1.613-1.281,4.541-1.132,4.91.156.385.642.644.9.819.405.276.249.872.617,1.088a25.919,25.919,0,0,0-1.605,5.021c-2.221,1.295-1.984,2.376-3.832,3.761a15.19,15.19,0,0,0-1.086,3.651c-.3,1.31-3.3,5.5-3.525,8.021-1.176.814,4.409,13.246,6.944,12.6a13.108,13.108,0,0,0-.929,4.207L89.56,210.993l-.489-.432c-15.472-14.109-31.087-45.145-31.087-82.68,0-24.074,5.437-44.614,15.72-59.4,7.406-10.646,16.957-17.716,28.08-20.909.548-.016,1.1-.028,1.652-.028,42.067,0,63.679,54.243,63.679,93.626C167.115,181.219,150.592,210.869,123.386,218.671Zm2.358-62.633c1.166-1.908,2.321-3.8,3.45-5.647-.129,2.546-.306,5.3-1.222,6.532-.386.629-1.241.056-1.544-.252C126.188,156.428,125.961,156.219,125.744,156.038Z"/><path class="cls-1" d="M179.6,65c-16.358-19.035-38.018-29.52-60.99-29.52a77.552,77.552,0,0,0-27.1,4.842c-44.129,9.956-71.969,51.988-71.969,95.412,0,45.2,31,86.058,72.537,93.133-4.22.619-7.741,1.271-8.8,1.388-3,.334-10.726.255-18.342.221,6.254.854,15.9,2.681,22.9,1.557,9.4-1.5,15.39-2.484,19.267-2.811.362-.018.717-.03,1.068-.03a23.88,23.88,0,0,1,4.162.4,19.76,19.76,0,0,0,3.29.339,14.453,14.453,0,0,0,3.289-.4,124.844,124.844,0,0,1,25.1-2.894c10.638,2.35,22.809-1.288,26-.616-7.249-1.8-14.344-.595-20.158.089,16.173-7.29,29.912-20.145,39.782-37.252a113.235,113.235,0,0,0,14.829-55.745C204.465,108.221,195.4,83.393,179.6,65Zm9.1,123.323c-9.948,17.243-23.857,30.114-40.233,37.23q-.956-.015-1.941-.015a128.141,128.141,0,0,0-27.855,2.946,13.5,13.5,0,0,1-3.048.373,18.794,18.794,0,0,1-3.117-.327c-.808-.132-1.693-.272-2.721-.352-2.943-.881-8.684-.481-14.109.2-36.324-11.51-62.535-50.393-62.535-93.1,0-24.661,8.481-49.373,23.269-67.8,16-19.937,38.092-30.916,62.2-30.916,22.653,0,44.022,10.35,60.171,29.143,15.636,18.2,24.6,42.77,24.6,67.414A112.117,112.117,0,0,1,188.7,188.326Z"/><polygon class="cls-1" points="114.553 194.944 114.553 194.944 114.552 194.946 114.553 194.944"/><path class="cls-1" d="M114.586,194.9h0a.272.272,0,0,0-.011-.025A.272.272,0,0,1,114.586,194.9Z"/><path class="cls-1" d="M110.82,200.808l-.011.021Z"/><path class="cls-1" d="M170.771,219.555h2.992v.743H172.7v3.126h-.866V220.3h-1.059Zm7.258,0v3.869h-.778v-1.5a4.353,4.353,0,0,1,.048-.845l-.865,2.318h-.644l-.888-2.331a6.616,6.616,0,0,1,.033.858v1.5h-.775v-3.869h.867l1.068,2.994,1.058-2.994Z"/></g></svg>