<svg id="copy.svg" xmlns="http://www.w3.org/2000/svg" width="692.372" height="244.813" viewBox="0 0 692.372 244.813">
  <defs>
    <style>
      .cls-1 {
        fill: #fff;
        fill-rule: evenodd;
      }
    </style>
  </defs>
  <path id="One_and_only." data-name="One and only." class="cls-1" d="M1046.38,519.81c-0.28,0-.55-0.481-0.83-1.445q-1.23-4.539-8.67-4.748h-0.2a11.888,11.888,0,0,0-7.23,2.274,54.285,54.285,0,0,0-5.78,4.754q-4.755,4.965-12.59,17.776-3.72,6.2-12.388,20.67-28.488,47.328-46.861,67.795-29.107,32.654-52.022,43.819-17.751,8.68-34.681,8.68h-0.207q-26.01,0-34.887-20.518A47.331,47.331,0,0,1,826.112,640a34.724,34.724,0,0,1,1.651-10.983q0.415-1.452,1.239-1.451c0.413,0,.619.342,0.619,1.032a21.877,21.877,0,0,1-1.032,5.057,21.957,21.957,0,0,0-1.032,5.471v1.032q0,15.067,14.037,23.947,12.8,8.05,31.791,8.257H873.8a63.11,63.11,0,0,0,22.295-3.716q19.407-7.228,37.365-25.6a259.977,259.977,0,0,0,30.14-37.158q26.214-38.605,24.566-39.636a94.124,94.124,0,0,1-13.625,6.4H973.92q-3.513,0-3.51-4.128a12.491,12.491,0,0,1,1.446-4.748q3.056-5.053,7.519-13.192-10.5,11.6-20.316,17.527-10.735,6.4-18.785,6.4-9.909,0-9.909-9.289a22.613,22.613,0,0,1,1.7-7.987,80.952,80.952,0,0,1-17.594,13.767q-8.468,4.954-14.45,4.955-6.4,0-6.4-5.987,0-4.746,4.335-11.973,7.844-13.209,10.735-21.47v-0.619c0-.413-0.139-0.619-0.413-0.619a1.2,1.2,0,0,0-.826.206,91.069,91.069,0,0,0-18.992,16.515q-4.131,7.433-13.212,21.676a2.191,2.191,0,0,1-1.445,1.032c-0.277,0-.69-0.484-1.238-1.445a8.317,8.317,0,0,1-1.239-3.716,6.18,6.18,0,0,1,1.032-3.3q3.716-5.365,10.735-16.515c0.6-1.189,1.263-2.514,2-3.965a69.343,69.343,0,0,1-18.308,9.333,22.254,22.254,0,0,1-7.018,1.238,8.652,8.652,0,0,1-3.923-.826,71.322,71.322,0,0,1-5.573,8.671q-8.052,10.529-15.9,10.528h-0.206q-6.611-.208-6.813-8.051v-0.206a23.75,23.75,0,0,1,1.445-7.845q2.681-7.635,9.909-15.689T853.16,531.99a14.826,14.826,0,0,1,5.367-1.239q0.822-1.239,5.987-2.064h0.206a0.881,0.881,0,0,1,.826.825v0.413a5.086,5.086,0,0,1-.413,1.858q-4.955,11.976-4.955,15.9,0,5.37,5.368,5.367,4.537,0,12.386-4.335a66.988,66.988,0,0,0,8.525-5.611q3.179-6.21,7.781-15.033a1.867,1.867,0,0,1,1.652-1.032,3.6,3.6,0,0,1,2.064,1.032,2.755,2.755,0,0,1,1.239,1.858,3.535,3.535,0,0,1-.619,1.652q-2.686,4.751-7.226,14.863a176.88,176.88,0,0,1,25.805-19.818,2.23,2.23,0,0,1,1.238-.413q2.478,0,2.478,2.271a4.539,4.539,0,0,1-1.033,2.477q-11.975,17.757-16.927,31.585a11.764,11.764,0,0,0-.826,3.923q0,5.161,4.954,5.16a12.366,12.366,0,0,0,5.781-1.651,74.063,74.063,0,0,0,20.975-16.6c0.226-.449.451-0.9,0.7-1.358q6.813-11.351,21.47-36.333,8.873-15.894,28.281-47.067,8.671-12.8,16.726-19.612,16.1-13.625,23.32-13.625,3.72,0,3.72,3.716,0,6.813-9.08,21.676-21.675,35.51-51.82,55.944-3.1,1.859-8.877,5.161-19.614,32.412-19.611,42.939,0,6.609,5.987,6.606,5.365,0,14.037-4.748,12.68-6.935,23.46-21.106,2.261-4.188,4.819-9.034a5.086,5.086,0,0,0,.413-1.858,1.014,1.014,0,0,0-1.238-1.032q-1.239,0-5.161,2.064a26.709,26.709,0,0,1-4.335,2.065,0.832,0.832,0,0,1-.826-1.032,1.51,1.51,0,0,1,1.238-1.445q11.97-4.337,17.96-7.019a3.342,3.342,0,0,1,1.445-.413,1.791,1.791,0,0,1,1.445.826,2.514,2.514,0,0,1,.62,1.238q0,1.035-1.652,3.1A110.582,110.582,0,0,0,986.512,548.3q-6.811,11.768-6.812,16.309,0,2.477,1.858,2.477,2.889,0,8.257-4.955a32.95,32.95,0,0,0,6.4-7.431q5.992-9.493,11.565-16.928,15.885-21.468,24.35-26.837,5.37-3.507,9.71-3.509,5.985,0,5.98,5.367v1.651Q1046.995,519.814,1046.38,519.81Zm-190.33,12.8q-5.163,0-12.8,13-6.4,10.945-8.051,17.96a16.216,16.216,0,0,0-.413,3.923q0,4.542,3.1,4.541,3.717,0,9.5-7.225a66.688,66.688,0,0,0,6.606-10.735,5.752,5.752,0,0,1-1.238-3.509,13.725,13.725,0,0,1,1.445-5.78,58,58,0,0,0,3.716-11.354A2.578,2.578,0,0,0,856.05,532.609ZM966.7,514.855q29.52-21.26,45.213-50.989,6.6-12.387,6.6-19.4c0-2.2-.82-3.3-2.47-3.3-1.38,0-2.89.825-4.55,2.477q-9.5,9.5-25.388,34.681-8.878,13.625-26.217,40.874A79.409,79.409,0,0,0,966.7,514.855ZM791.026,543.963h-0.619q-7.431,0-16.308-5.987-10.737,18.581-21.883,29.727-5.162,5.163-10.115,5.161H741.9q-6.4-.208-6.4-7.225v-0.62a22.783,22.783,0,0,1,2.249-8.34A81.3,81.3,0,0,1,719.6,571.006q-8.467,4.954-14.451,4.955-6.4,0-6.4-5.987,0-4.746,4.336-11.973,7.842-13.209,10.734-21.47v-0.619q0-.62-0.413-0.619a1.2,1.2,0,0,0-.825.206,91.018,91.018,0,0,0-18.992,16.515q-4.133,7.433-13.212,21.676a2.195,2.195,0,0,1-1.445,1.032c-0.278,0-.691-0.484-1.239-1.445a8.317,8.317,0,0,1-1.239-3.716,6.1,6.1,0,0,1,.934-3.122q-11.683,12.4-22.4,12.412-10.529,0-10.529-11.148a25.449,25.449,0,0,1,2.891-10.941q-7.228,9.705-14.864,14.038a10.967,10.967,0,0,1-5.367,1.651q-4.132,0-4.748-5.367-1.035-9.493,9.5-22.089,7.431-8.874,20.024-15.07a32.305,32.305,0,0,1,11.561-2.89q3.507-5.157,3.922-5.161,5.985,0,5.574,1.445a19.379,19.379,0,0,1-1.858,3.716q1.857,0.209,4.748.826a1.9,1.9,0,0,1,1.032,1.032c0,0.278-.206.413-0.619,0.413a24.855,24.855,0,0,1-2.684-.413,21.373,21.373,0,0,0-3.1-.413q-14.04,24.773-16.514,29.314-4.132,7.848-4.129,13.006a6.307,6.307,0,0,0,1.548,4.644q1.548,1.55,5.058,1.549a12.83,12.83,0,0,0,4.954-1.032q4.128-1.656,11.148-11.148,6.23-8.241,11.484-8.45,1.929-3.008,4.2-6.62,3.716-7.431,11.148-21.676a1.866,1.866,0,0,1,1.651-1.032,3.6,3.6,0,0,1,2.065,1.032,2.756,2.756,0,0,1,1.238,1.858,3.524,3.524,0,0,1-.619,1.652q-2.685,4.751-7.225,14.863a176.873,176.873,0,0,1,25.8-19.818,2.231,2.231,0,0,1,1.239-.413q2.476,0,2.477,2.271a4.536,4.536,0,0,1-1.032,2.477q-11.974,17.757-16.928,31.585a11.789,11.789,0,0,0-.826,3.923q0,5.161,4.955,5.16a12.359,12.359,0,0,0,5.78-1.651,74.982,74.982,0,0,0,23-18.963,66.428,66.428,0,0,1,4.634-6.116c0.217-.311.437-0.616,0.651-0.932a0.7,0.7,0,0,1,.461-0.36q9.606-10.848,18.737-12.646a127.785,127.785,0,0,1-22.5-29.726q-11.148-19.818-11.354-34.888a31.061,31.061,0,0,1,29.933-31.791h0.826q22.086,0,29.107,26.836A65.607,65.607,0,0,1,793.3,477.7q0,25.808-17.96,58.215a31.829,31.829,0,0,0,15.9,5.161h0.619a17.843,17.843,0,0,0,12.18-4.335,1.687,1.687,0,0,1,1.032-.62,0.608,0.608,0,0,1,.413.207,1.192,1.192,0,0,1-.413.826Q798.664,543.76,791.026,543.963Zm-141.072,5.78q6.231-9.492,12.67-20.85h-1.455q-9.555.417-20.773,13.625t-11.215,22.708q0,3.1,2.494,3.1Q637.693,568.322,649.954,549.743Zm101.54-3.1q-8.981,13.833-9.187,20.024v0.206q0,2.685,2.065,2.89h0.413q2.061,0,4.954-2.683a129.1,129.1,0,0,0,22.708-30.14,40.78,40.78,0,0,1-5.78-4.748h-0.619Q760.474,532.816,751.494,546.647Zm34.784-46.655a89.763,89.763,0,0,0,1.652-16.308,66.327,66.327,0,0,0-7.225-31.172q-8.052-15.274-21.676-15.277-9.909,0-15.689,6.709t-5.987,17.032v1.032q0,15.071,9.083,34.888a128,128,0,0,0,18.992,30.552,40.184,40.184,0,0,0,8.051,7.225Q783.181,516.3,786.278,499.992ZM556.932,546.853h-0.207a20.465,20.465,0,0,1-2.477,1.239c-1.238.551-1.929,0.551-2.064,0q0-.823,1.445-1.652,9.081-4.746,9.909-14.244,0.2-2.477-2.477-2.477a4.311,4.311,0,0,0-3.51,1.858q-7.848,9.5-12.8,23.74a33.355,33.355,0,0,0-2.064,10.735q0,8.466,6.193,8.463,4.954,0,12.18-6.4a0.746,0.746,0,0,1,1.032,0q0.411,0.406-.207,1.006-7.639,6.837-14.863,6.839A15.539,15.539,0,0,1,540,574.316q-5.163-2.672-5.161-9.458a30.131,30.131,0,0,1,1.652-8.015c0.287-.949.661-1.9,1.013-2.851a83.014,83.014,0,0,1-20.625,17.014q-8.466,4.954-14.45,4.955-6.4,0-6.4-5.987,0-4.746,4.336-11.973,7.842-13.209,10.734-21.47v-0.619c0-.413-0.139-0.619-0.413-0.619a1.2,1.2,0,0,0-.825.206,91.049,91.049,0,0,0-18.993,16.515q-4.131,7.433-13.211,21.676a2.194,2.194,0,0,1-1.446,1.032c-0.277,0-.69-0.484-1.238-1.445a8.317,8.317,0,0,1-1.239-3.716,6.18,6.18,0,0,1,1.032-3.3q3.717-5.365,10.735-16.515,3.716-7.431,11.148-21.676a1.866,1.866,0,0,1,1.651-1.032,3.6,3.6,0,0,1,2.065,1.032,2.756,2.756,0,0,1,1.238,1.858,3.524,3.524,0,0,1-.619,1.652q-2.685,4.751-7.225,14.863a176.82,176.82,0,0,1,25.8-19.818,2.231,2.231,0,0,1,1.239-.413q2.476,0,2.477,2.271a4.536,4.536,0,0,1-1.032,2.477q-11.976,17.757-16.928,31.585a11.764,11.764,0,0,0-.826,3.923q0,5.161,4.955,5.16a12.359,12.359,0,0,0,5.78-1.651,75.553,75.553,0,0,0,24.112-20.336,67.875,67.875,0,0,1,6.234-10.578q6.4-8.941,13.418-10.383a39.138,39.138,0,0,0,8.464-2.261q3.3-1.65,3.3,2.684a15.153,15.153,0,0,1-7.225,13.418l-1.858,1.239q14.036-3.3,41.494-10.942c0.687-.274,1.032-0.135,1.032.413a1.031,1.031,0,0,1-.826,1.239Q585.832,538.8,556.932,546.853Zm-93.515-2.684q-25.188,26.427-53.673,34.062a79.387,79.387,0,0,1-20.644,2.89q-15.69,0-24.669-7.638t-8.98-20.85q0-14.863,11.561-33.236,20.02-31.788,56.357-47.48a77.53,77.53,0,0,1,20.643-5.368h0.413q17.544-7.015,25.805-7.019a47.684,47.684,0,0,1,7.844.62q18.163,3.1,18.167,22.3a35.281,35.281,0,0,1-1.239,9.7Q487.154,519.4,463.417,544.169Zm10.322-81.336a31.593,31.593,0,0,0-7.225-.825q-17.34,0-26.837,13-7.229,9.909-7.225,16.721a6.45,6.45,0,0,0,3.1,5.987c0.413,0,.62.139,0.62,0.413v0.413a1.053,1.053,0,0,1-1.032.413h-0.413a13.632,13.632,0,0,1-7.432-3.716,6.306,6.306,0,0,1-2.064-4.542,14.449,14.449,0,0,1,.619-3.509q3.1-11.148,14.863-18.579a70.93,70.93,0,0,0-16.721,4.954q-33.651,14.863-51.4,49.132-7.228,14.042-7.225,26.011,0,12.594,8.258,20.127t23.12,7.535a68.83,68.83,0,0,0,13.419-1.445q26.834-5.365,49.751-30.965,21.675-23.944,26.63-49.751a52.18,52.18,0,0,0,.826-9.7Q487.364,466.139,473.739,462.833Zm563.971,96.406q3.915,0,3.92,3.51,0,2.476-2.69,5.677a14.353,14.353,0,0,1-5.16,4.231,4.577,4.577,0,0,1-1.44.207q-3.51,0-3.72-3.1v-0.619a9.067,9.067,0,0,1,2.69-6.709A8.5,8.5,0,0,1,1037.71,559.239Z" transform="translate(-355.438 -434.562)"/>
</svg>
