<svg xmlns="http://www.w3.org/2000/svg" viewBox="0 0 240 160">
	<defs>
		<style>.a{fill:#192b49;}</style>
	</defs>
	<path class="a" d="M142.79.91A16.29,16.29,0,1,0,159.08,17.2,16.3,16.3,0,0,0,142.79.91Zm0,27.1A10.81,10.81,0,1,1,153.61,17.2,10.8,10.8,0,0,1,142.79,28Z"/>
	<path class="a" d="M240,27.4,229.81,67.46h-4.37a72.56,72.56,0,0,0,1.5-19.73c-.69-12.14-6.91-23.65-17.5-24.36C198,22.63,188.55,27.2,174.85,42,154,64.4,147.68,95.38,149.7,117.72c1.84,20.39,19.05,29.6,37.87,22.21,20.37-8,33.5-27.32,35.68-33.15h2.94s-1.84,8-14.56,26.22-29.87,24.4-41.5,25.86-23.08-4.44-26.65-7.65c-6.1-5.59-11-11.12-13.81-29.5C126,98,138.42,69.27,149.35,53.61s35.34-39,60.09-39S240,27.4,240,27.4"/>
	<path class="a" d="M116.6,4.19,0,115.52H66.59l-10.3,39.33H77.06l10.3-39.33h19.86l3.22-12.39H90.65ZM69.87,103.13H29.3L84.32,48Z"/>
</svg>
