<svg id="レイヤー_1" data-name="レイヤー 1" xmlns="http://www.w3.org/2000/svg" viewBox="0 0 328.62 201.21"><defs><style>.cls-1{fill:#231815;}.cls-2{fill:#4a0000;}.cls-3{fill:#00215b;}.cls-4{fill:none;}</style></defs><title>logo</title><path class="cls-1" d="M70.49,177.33c5.48,0,10.53,1.59,10.53,6.19,0,2.78-2,4.11-4.34,4.95v.09c2.74.79,5,2.48,5,5.84,0,3.54-3.18,6.19-8.76,6.19H56.65v-.8c.84,0,1.24-.27,1.24-.79V178.92c0-.53-.4-.79-1.24-.79v-.8Zm-7.56,9.11h8.45c2.65,0,4.6-.44,4.6-2.65s-1.94-2.65-4.6-2.65H62.92Zm0,10.08h8.45c3.62,0,5.21-1.24,5.21-3.14s-1.59-3.14-5.21-3.14H62.92Z"/><path class="cls-1" d="M105.4,181.14c5.26,0,8.36,1.55,8.36,5.75,0,3.23-2.61,4.91-5,5.49l4.33,6.32a2.83,2.83,0,0,0,1.68,1.11v.8H108v-.8c.27,0,.57-.09.57-.4a2.67,2.67,0,0,0-.66-1.37l-3.49-5.21H98.23v6.32c0,.44.49.66.84.66v.8H93.19v-.8c.49,0,.8-.22.8-.66V182.59c0-.44-.31-.66-.8-.66v-.8Zm-7.08,8.4h7c3,0,4.33-.93,4.33-2.74,0-1.46-1.33-2.39-4.33-2.39h-7Z"/><path class="cls-1" d="M124,200.59v-.8c.93,0,1.24-.22,1.24-.66V182.59c0-.44-.31-.66-1.24-.66v-.8h6.73v.8c-.84,0-1.24.22-1.24.66v16.54c0,.44.4.66,1.24.66v.8Z"/><path class="cls-1" d="M141.53,200.59v-.8c.71,0,1-.22,1-.66V182.59c0-.44-.31-.66-1-.66v-.8h12.29c6.94,0,9.77,4.82,9.77,9.73s-2.65,9.73-9.6,9.73Zm5.26-3.27h5.75c3.63,0,6.81-.67,6.81-6.59s-3.19-6.32-6.81-6.32H146.8Z"/><path class="cls-1" d="M193.54,182.65,191,187.52l-.53-.31a2.59,2.59,0,0,0,.09-.49c0-1.12-3.32-2.63-6.55-2.63-4.33,0-8.09,1.92-8.09,6.87s4.25,6.7,7.69,6.7a14.51,14.51,0,0,0,6.73-1.3v-2.81h-4.56c-.67,0-1.2.22-1.28.94h-.8v-4.6h.8c.09.58.62.72,1.28.72h8.66v.8a.94.94,0,0,0-.66,1.07v4.24c0,.54.09.67.66.89v.54a18.28,18.28,0,0,1-10.3,2.81c-7.69,0-12.47-3.84-12.47-10.09s4.78-10.09,12.47-10.09a14.73,14.73,0,0,1,5.35,1,18.31,18.31,0,0,0,2.57,1,1.32,1.32,0,0,0,1-.36Z"/><path class="cls-1" d="M221.75,185.25H221c0-.62-.44-.84-1.37-.84H208.79v4.42h6.81c1,0,1.46-.09,1.46-.71h.8v4.69H217c.18-.62-.57-.71-1.72-.71h-6.46v5.22h11.33c.71,0,1.24-.36,1.24-.89h.8v4.78h-.8c0-.53-.53-.62-1.24-.62H203.89v-.8a.65.65,0,0,0,.66-.66V182.59a.65.65,0,0,0-.66-.66v-.8h15.7c.93,0,1.37-.35,1.37-.79h.8Z"/><path class="cls-1" d="M274.1,197.05l-.35.36c-.17,0-.31,0-.48,0-.67,0-5.62,3.49-11.32,3.49-7.48,0-14.15-4.06-14.15-11.89s6.68-11.89,14.15-11.89a25.92,25.92,0,0,1,7.29,1.11c1.82.53,2.92,1.11,3.14,1.11s.48-.4.61-.57l.67.53-3.45,5.35-.44-.31a2.91,2.91,0,0,0-.09-.58c-.26-1.33-4.82-2.83-7.73-2.83-5,0-9.29,2.88-9.29,8s4.29,8,9.29,8c3.71,0,8.8-1.9,8.8-3.54a1,1,0,0,0-.18-.53l.62-.35Z"/><path class="cls-2" d="M41.84,41.84v52H54.36a39.46,39.46,0,0,1,78.91,0h12.51a39.45,39.45,0,0,1,78.91,0H237.2a39.45,39.45,0,1,1,78.9,0h12.52v-52Z"/><polygon class="cls-3" points="328.62 29.33 328.62 0 0 0 0 135.66 328.62 135.66 328.62 106.33 29.32 106.33 29.32 29.33 328.62 29.33"/><rect class="cls-4" width="328.62" height="200.59"/></svg>