<svg xmlns="http://www.w3.org/2000/svg" width="221" height="296.719" viewBox="0 0 221 296.719">
  <defs>
    <style>
      .cls-1 {
        fill: #fff;
      }
    </style>
  </defs>
  <g id="グループ_68" data-name="グループ 68" transform="translate(-324.702 -254.28)">
    <path id="パス_57" data-name="パス 57" class="cls-1" d="M435.2,260.8a104.184,104.184,0,0,1,103.964,99.133H545.7a110.611,110.611,0,0,0-221,0h6.536A104.184,104.184,0,0,1,435.2,260.8" transform="translate(0)"/>
    <path id="パス_58" data-name="パス 58" class="cls-1" d="M531.6,358.366a98.093,98.093,0,0,0-195.937,0H342.2a91.562,91.562,0,0,1,182.857,0H531.6" transform="translate(1.574 1.572)"/>
    <path id="パス_59" data-name="パス 59" class="cls-1" d="M485.818,356.775h31.655a85.663,85.663,0,0,0-80.523-80.483v6.543a79.135,79.135,0,0,1,73.284,67.414h-6.057a73.03,73.03,0,0,0-144.257,0h-6.057a79.137,79.137,0,0,1,73.289-67.414v-6.543a85.662,85.662,0,0,0-80.527,80.483h31.654a53.994,53.994,0,0,1,107.539,0m-113.187-6.526h-6.1a66.5,66.5,0,0,1,131.027,0h-6.094a60.507,60.507,0,0,0-118.836,0" transform="translate(3.15 3.163)"/>
    <path id="パス_60" data-name="パス 60" class="cls-1" d="M495.516,355.225h-6.548a53.994,53.994,0,0,1-107.539,0H324.7A110.728,110.728,0,0,0,430.3,460.769v-6.53a104.207,104.207,0,0,1-98.53-92.49h44.009a60.507,60.507,0,0,0,118.836,0h44.014a104.213,104.213,0,0,1-98.531,92.49v6.53A110.724,110.724,0,0,0,545.7,355.225H495.516" transform="translate(0 14.505)"/>
    <path id="パス_61" data-name="パス 61" class="cls-1" d="M354.395,366.638H337.013a98.083,98.083,0,0,0,192.839,0H510.375a79.012,79.012,0,0,1-153.887,0h-2.093m79.038,67.579A85.687,85.687,0,0,0,515.4,373.165h6.241a91.547,91.547,0,0,1-176.412,0h6.239a85.694,85.694,0,0,0,81.968,61.052" transform="translate(1.769 16.145)"/>
    <path id="パス_62" data-name="パス 62" class="cls-1" d="M430.213,421.7a73.141,73.141,0,0,0,70.782-55.064h-6.757a66.5,66.5,0,0,1-128.055,0h-6.757A73.147,73.147,0,0,0,430.213,421.7" transform="translate(4.99 16.145)"/>
    <path id="パス_63" data-name="パス 63" class="cls-1" d="M425.986,389.85a2.876,2.876,0,0,0,2.88-2.876V372.512c12.727.05,20.064.493,23.98,2.357,3.186,1.515,4.207,4.07,4.554,11.393A2.877,2.877,0,0,0,460.273,389c.046,0,.089,0,.138,0a2.871,2.871,0,0,0,2.737-3c-.318-6.791-1.157-13.15-7.827-16.32-4.9-2.33-12.582-2.861-26.455-2.92v-2.11c2.025.041,4.176.119,6.418.2,4.163.15,8.875.325,14.127.325,4.289,0,7.187-.336,9.307-2.054,2.3-1.855,2.922-4.757,3.159-8.543a2.879,2.879,0,0,0-5.746-.357c-.1,1.625-.318,3.847-1.038,4.432-.841.682-3.477.771-5.682.771-5.143,0-9.8-.173-13.913-.327-2.314-.082-4.528-.161-6.632-.2v-2.1h13.77c10.194,0,12.374-4.3,12.7-11.736.141-3.191-.675-5.725-2.413-7.546-2.789-2.913-7.262-3.286-10.848-3.286H426.5a3.121,3.121,0,0,0-.511-.053,3.176,3.176,0,0,0-.514.053H409.9c-3.584,0-8.057.373-10.846,3.286a9.844,9.844,0,0,0-2.418,7.546c.325,7.434,2.507,11.736,12.7,11.736h13.771v2.1c-2.1.043-4.319.122-6.63.2-4.112.154-8.771.327-13.914.327-2.2,0-4.842-.089-5.684-.771-.718-.584-.936-2.807-1.036-4.432a2.879,2.879,0,0,0-5.747.357c.238,3.787.866,6.688,3.161,8.543,2.12,1.718,5.016,2.054,9.306,2.054,5.248,0,9.964-.175,14.126-.325,2.243-.083,4.393-.161,6.418-.2v2.11c-13.875.058-21.555.59-26.455,2.92-6.667,3.17-7.509,9.529-7.83,16.32a2.879,2.879,0,0,0,5.752.266c.345-7.323,1.367-9.878,4.553-11.393,3.916-1.864,11.256-2.307,23.98-2.357v14.462a2.877,2.877,0,0,0,2.879,2.876m2.88-50.545h13.205c3.723,0,6.07.562,7.177,1.719a3.159,3.159,0,0,1,.63,1.05H428.866Zm0,8.52h21.1a4.675,4.675,0,0,1-1.018,2.459c-.921.964-2.986,1.436-6.312,1.436h-13.77Zm-26.141-6.8c1.109-1.157,3.455-1.719,7.178-1.719h13.205v2.769H402.1a3.253,3.253,0,0,1,.629-1.05m6.612,10.7c-3.325,0-5.39-.472-6.311-1.436a4.685,4.685,0,0,1-1.017-2.459h21.1v3.9Z" transform="translate(9.213 11.48)"/>
    <path id="パス_64" data-name="パス 64" class="cls-1" d="M409,318.933a2.54,2.54,0,0,0-2.542,2.537V327.5c-11.164-.309-11.467-2.721-11.81-5.486a2.542,2.542,0,0,0-5.045.634c.972,7.746,6.686,9.682,16.855,9.928v.747a2.541,2.541,0,0,0,5.081,0v-.747c6.8-.162,11.607-1.086,14.336-3.994,2.725,2.907,7.532,3.831,14.335,3.994v.747a2.54,2.54,0,0,0,5.079,0v-.747c10.171-.246,15.886-2.182,16.855-9.928a2.541,2.541,0,0,0-5.041-.634c-.345,2.765-.652,5.177-11.813,5.486V321.47a2.54,2.54,0,0,0-5.079,0V327.5c-11.165-.309-11.471-2.721-11.817-5.486a1.653,1.653,0,0,0-.037-.161c-.016-.091-.038-.189-.063-.279s-.057-.144-.087-.216a1.825,1.825,0,0,0-.106-.237c-.039-.071-.082-.134-.124-.2s-.1-.141-.147-.2-.1-.111-.157-.166a2.417,2.417,0,0,0-.2-.18,1.741,1.741,0,0,0-.17-.125,2.234,2.234,0,0,0-.236-.145c-.066-.037-.135-.064-.2-.094s-.161-.07-.244-.1-.17-.041-.261-.059c-.06-.007-.114-.03-.175-.039a.47.47,0,0,0-.057,0,2.15,2.15,0,0,0-.257-.007,2.193,2.193,0,0,0-.261.007.4.4,0,0,0-.053,0c-.06.007-.113.027-.173.039-.09.018-.18.034-.268.059a2.494,2.494,0,0,0-.237.095c-.069.032-.143.059-.209.1a2.092,2.092,0,0,0-.232.145,1.767,1.767,0,0,0-.173.125,1.886,1.886,0,0,0-.2.186,1.92,1.92,0,0,0-.15.157,2.165,2.165,0,0,0-.157.218c-.039.062-.081.12-.118.184-.043.08-.075.17-.115.255-.025.065-.055.129-.078.2a2.98,2.98,0,0,0-.066.3c-.009.05-.025.1-.035.15-.346,2.765-.648,5.177-11.814,5.486V321.47A2.538,2.538,0,0,0,409,318.933" transform="translate(9.323 9.29)"/>
    <path id="パス_65" data-name="パス 65" class="cls-1" d="M346.491,513.365a1.929,1.929,0,0,1-1.287-.406,2.1,2.1,0,0,1-.63-1.277l-1.729.166a3.328,3.328,0,0,0,1.068,2.245,3.783,3.783,0,0,0,2.56.771,4.947,4.947,0,0,0,1.913-.32,2.521,2.521,0,0,0,1.19-.978,2.61,2.61,0,0,0,.419-1.414,2.643,2.643,0,0,0-.35-1.407,2.477,2.477,0,0,0-.973-.891,8.661,8.661,0,0,0-1.916-.634,4.736,4.736,0,0,1-1.632-.589.671.671,0,0,1-.263-.532.641.641,0,0,1,.281-.546,2.028,2.028,0,0,1,1.211-.32,1.811,1.811,0,0,1,1.125.3,1.524,1.524,0,0,1,.488.976l1.777-.08a2.579,2.579,0,0,0-.879-1.936,3.724,3.724,0,0,0-2.493-.725,4.434,4.434,0,0,0-1.732.306,2.4,2.4,0,0,0-1.1.891,2.248,2.248,0,0,0-.38,1.257,2.294,2.294,0,0,0,.81,1.771,4.811,4.811,0,0,0,2,.866c.742.189,1.213.315,1.424.384a1.441,1.441,0,0,1,.635.382.792.792,0,0,1,.186.532,1.072,1.072,0,0,1-.435.847,1.989,1.989,0,0,1-1.295.364" transform="translate(2.607 36.136)"/>
    <path id="パス_66" data-name="パス 66" class="cls-1" d="M355.411,505.894l-3.425,8.8h1.883l.725-2h3.518l.767,2h1.93l-3.521-8.8m-2.146,5.318,1.187-3.265,1.211,3.265Z" transform="translate(3.921 36.155)"/>
    <path id="パス_67" data-name="パス 67" class="cls-1" d="M365.738,505.9H362.89v8.794h1.775v-3.317h1.156a10.226,10.226,0,0,0,1.841-.127,2.554,2.554,0,0,0,.923-.416,2.431,2.431,0,0,0,.746-.868,2.842,2.842,0,0,0,.3-1.361,2.72,2.72,0,0,0-.509-1.711,2.29,2.29,0,0,0-1.268-.862,10.5,10.5,0,0,0-2.111-.131m1.858,3.411a1.164,1.164,0,0,1-.556.432,4.482,4.482,0,0,1-1.406.141h-.97v-2.5h.859a8.7,8.7,0,0,1,1.275.059,1.27,1.27,0,0,1,.716.39,1.147,1.147,0,0,1,.281.792,1.187,1.187,0,0,1-.2.684" transform="translate(5.487 36.155)"/>
    <path id="パス_68" data-name="パス 68" class="cls-1" d="M377.376,506.028a10.47,10.47,0,0,0-2.11-.131h-2.851v8.794h1.777v-3.317h1.159a10.271,10.271,0,0,0,1.841-.127,2.549,2.549,0,0,0,.922-.416,2.442,2.442,0,0,0,.746-.868,2.841,2.841,0,0,0,.294-1.361,2.74,2.74,0,0,0-.508-1.711,2.292,2.292,0,0,0-1.27-.862m-.253,3.28a1.167,1.167,0,0,1-.555.432,4.468,4.468,0,0,1-1.4.141h-.972v-2.5h.859a8.692,8.692,0,0,1,1.275.059,1.25,1.25,0,0,1,.715.39,1.127,1.127,0,0,1,.282.792,1.179,1.179,0,0,1-.2.684" transform="translate(6.856 36.155)"/>
    <path id="パス_69" data-name="パス 69" class="cls-1" d="M382.854,506.9a4.092,4.092,0,0,0-.82,1.207,5.609,5.609,0,0,0-.4,2.256,4.54,4.54,0,0,0,1.157,3.294,4.151,4.151,0,0,0,3.122,1.2A4.1,4.1,0,0,0,389,513.654a5.387,5.387,0,0,0-.009-6.687,4.15,4.15,0,0,0-3.11-1.2,4.832,4.832,0,0,0-1.9.348,3.435,3.435,0,0,0-1.135.791m3.05.378a2.253,2.253,0,0,1,1.761.742,3.317,3.317,0,0,1,.661,2.258,3.356,3.356,0,0,1-.682,2.293,2.367,2.367,0,0,1-3.493,0,4.1,4.1,0,0,1-.018-4.537,2.258,2.258,0,0,1,1.77-.751" transform="translate(8.18 36.136)"/>
    <path id="パス_70" data-name="パス 70" class="cls-1" d="M396.236,511.483a12.877,12.877,0,0,1,.934,1.292l1.283,1.912h2.125l-1.075-1.714a10.109,10.109,0,0,0-1.009-1.427,4.107,4.107,0,0,0-.954-.736,2.79,2.79,0,0,0,1.741-.816,2.358,2.358,0,0,0,.586-1.634,2.517,2.517,0,0,0-.388-1.386,2.016,2.016,0,0,0-1.021-.843,6.453,6.453,0,0,0-2.049-.237h-3.736v8.794h1.775v-3.669h.359a2.844,2.844,0,0,1,.893.1,1.406,1.406,0,0,1,.536.366m-1.789-1.871v-2.231h1.386c.721,0,1.151.009,1.3.032a1.069,1.069,0,0,1,.668.343,1.056,1.056,0,0,1,.237.721,1.138,1.138,0,0,1-.18.656.957.957,0,0,1-.5.37,6.645,6.645,0,0,1-1.6.109Z" transform="translate(9.767 36.155)"/>
    <path id="パス_71" data-name="パス 71" class="cls-1" d="M406.726,505.765a4.816,4.816,0,0,0-1.9.348,3.487,3.487,0,0,0-1.139.791,4.133,4.133,0,0,0-.818,1.209,5.553,5.553,0,0,0-.4,2.254,4.535,4.535,0,0,0,1.159,3.294,4.15,4.15,0,0,0,3.121,1.2,4.1,4.1,0,0,0,3.095-1.207,5.392,5.392,0,0,0-.009-6.687,4.155,4.155,0,0,0-3.111-1.2m1.759,6.81a2.215,2.215,0,0,1-1.741.767,2.246,2.246,0,0,1-1.752-.772,3.3,3.3,0,0,1-.69-2.265,3.343,3.343,0,0,1,.671-2.273,2.461,2.461,0,0,1,3.532-.009,3.311,3.311,0,0,1,.663,2.258,3.35,3.35,0,0,1-.684,2.293" transform="translate(11.175 36.136)"/>
    <path id="パス_72" data-name="パス 72" class="cls-1" d="M426.43,505.894v8.795H428.2v-3.845h3.481v3.845h1.775v-8.795h-1.775v3.463H428.2v-3.463" transform="translate(14.617 36.155)"/>
    <path id="パス_73" data-name="パス 73" class="cls-1" d="M443.6,506.967a4.157,4.157,0,0,0-3.114-1.2,4.827,4.827,0,0,0-1.9.348,3.469,3.469,0,0,0-1.135.791,4.119,4.119,0,0,0-.82,1.209,5.593,5.593,0,0,0-.4,2.254,4.53,4.53,0,0,0,1.157,3.294,4.144,4.144,0,0,0,3.118,1.2,4.1,4.1,0,0,0,3.1-1.207,5.391,5.391,0,0,0-.007-6.687m-1.351,5.608a2.218,2.218,0,0,1-1.743.767,2.246,2.246,0,0,1-1.752-.772,4.116,4.116,0,0,1-.018-4.537,2.458,2.458,0,0,1,3.529-.009,3.316,3.316,0,0,1,.666,2.258,3.368,3.368,0,0,1-.682,2.293" transform="translate(16.026 36.136)"/>
    <path id="パス_74" data-name="パス 74" class="cls-1" d="M455.038,505.894H452.65l-3.589,3.909v-3.909h-1.777v8.795h1.777v-2.657l1.441-1.471,2.417,4.128h2.3l-3.49-5.369" transform="translate(17.614 36.155)"/>
    <path id="パス_75" data-name="パス 75" class="cls-1" d="M457.407,505.894v8.795h1.775v-2.657l1.441-1.471,2.417,4.128h2.3l-3.49-5.369,3.311-3.426h-2.387l-3.589,3.909v-3.909" transform="translate(19.069 36.155)"/>
    <path id="パス_76" data-name="パス 76" class="cls-1" d="M470.151,505.894l-3.424,8.8h1.884l.725-2h3.516l.766,2h1.934l-3.52-8.8m-2.15,5.318,1.188-3.265,1.211,3.265Z" transform="translate(20.408 36.155)"/>
    <rect id="長方形_22" data-name="長方形 22" class="cls-1" width="1.775" height="8.794" transform="translate(499.551 542.048)"/>
    <path id="パス_77" data-name="パス 77" class="cls-1" d="M489.216,506.874a2.926,2.926,0,0,0-1.323-.81,6.3,6.3,0,0,0-1.677-.168H482.97v8.794h3.343a5.278,5.278,0,0,0,1.573-.187,3.086,3.086,0,0,0,1.248-.7,3.818,3.818,0,0,0,.939-1.553,5.723,5.723,0,0,0,.272-1.87,6.449,6.449,0,0,0-.291-2.079,3.845,3.845,0,0,0-.838-1.425m-.889,5.038a1.777,1.777,0,0,1-.464.846,1.655,1.655,0,0,1-.716.37,4.951,4.951,0,0,1-1.073.082h-1.327v-5.827h.8a7.7,7.7,0,0,1,1.457.088,1.631,1.631,0,0,1,.823.412,1.97,1.97,0,0,1,.5.852,5.165,5.165,0,0,1,.182,1.566,5.654,5.654,0,0,1-.182,1.612" transform="translate(22.742 36.155)"/>
    <path id="パス_78" data-name="パス 78" class="cls-1" d="M496.587,505.765a4.818,4.818,0,0,0-1.9.348,3.424,3.424,0,0,0-1.138.791,4.116,4.116,0,0,0-.819,1.209,5.574,5.574,0,0,0-.4,2.254,4.531,4.531,0,0,0,1.159,3.294,4.142,4.142,0,0,0,3.12,1.2,4.1,4.1,0,0,0,3.094-1.207,5.391,5.391,0,0,0-.007-6.687,4.155,4.155,0,0,0-3.111-1.2m1.759,6.81a2.217,2.217,0,0,1-1.742.767,2.245,2.245,0,0,1-1.752-.772,3.292,3.292,0,0,1-.689-2.265,3.337,3.337,0,0,1,.67-2.273,2.46,2.46,0,0,1,3.531-.009,3.31,3.31,0,0,1,.663,2.258,3.362,3.362,0,0,1-.682,2.293" transform="translate(24.087 36.136)"/>
    <path id="パス_79" data-name="パス 79" class="cls-1" d="M438.665,498.048h17.558c11.864,0,16.988-6.511,16.988-14.525S468.087,469,456.223,469H438.665c1.116,1.7,1.592,3.589,1.592,8.445V489.6c0,4.855-.476,6.741-1.592,8.447m8.333-24.9h6.638c10.569,0,12.834,4.556,12.834,10.374S464.2,493.9,453.636,493.9H447Z" transform="translate(16.375 30.853)"/>
    <path id="パス_80" data-name="パス 80" class="cls-1" d="M397.841,498.048h29.693v-6.636c-1.506,1.552-4.2,2.243-10.636,2.243h-10.72v-8.507h7.091c6.438,0,8.373.5,10.634,1.66v-7.468c-2.261,1.165-4.2,1.661-10.634,1.661h-7.091v-7.609h10.345c6.439,0,8.371.5,10.634,1.66V469H397.841c1.12,1.7,1.6,3.587,1.6,8.445V489.6c0,4.853-.476,6.741-1.6,8.447" transform="translate(10.509 30.853)"/>
    <path id="パス_81" data-name="パス 81" class="cls-1" d="M354.748,498.048h9.932c-1.12-1.706-1.6-3.595-1.6-8.447v-1.316l5.087-4.113,8.272,9.407c1.716,2.091,2.207,3.288.934,4.47h13c-2.019-.914-3.708-2.351-6.121-4.8l-11.923-12.654,9.4-7.089A44.914,44.914,0,0,1,388.7,469H376.064c1.484.889.419,2.25-2.327,4.591l-10.652,8.63v-4.776c0-4.859.476-6.743,1.6-8.445h-9.932c1.118,1.7,1.6,3.587,1.6,8.445V489.6c0,4.853-.477,6.741-1.6,8.447" transform="translate(4.317 30.853)"/>
    <path id="パス_82" data-name="パス 82" class="cls-1" d="M513.424,492.577,501.388,469h-7.172l-11.88,23.35c-1.5,2.882-2.437,4.307-4.493,5.7h11.688c-2.047-1.9-1.814-2.839.477-7.692h15.369c2.293,4.854,2.521,5.79.477,7.692h11.955c-2-1.356-2.951-2.742-4.385-5.473M491.843,486.5,497.668,474h.161L503.6,486.5Z" transform="translate(22.005 30.853)"/>
    <path id="パス_83" data-name="パス 83" class="cls-1" d="M339.777,476.844h-9.93c1.116,1.7,1.593,3.595,1.593,8.447v3.184c0,4.853-.477,6.739-1.593,8.447h9.93c-1.119-1.709-1.6-3.595-1.6-8.447v-3.184c0-4.853.477-6.743,1.6-8.447" transform="translate(0.739 31.981)"/>
    <path id="パス_84" data-name="パス 84" class="cls-1" d="M339.231,470.6a4.614,4.614,0,1,0-4.611,4.614,4.612,4.612,0,0,0,4.611-4.614" transform="translate(0.762 30.42)"/>
  </g>
</svg>
