<svg id="h_station" xmlns="http://www.w3.org/2000/svg" viewBox="0 0 32 32"><defs><style>.cls-1 {fill: #045dce;}</style></defs><title>h_station</title><g><circle class="cls-1" cx="12.31" cy="19.62" r="1.71"/><circle class="cls-1" cx="19.69" cy="19.62" r="1.71"/><rect class="cls-1" x="9.57" y="9.49" width="12.85" height="6.34" rx="1.91"/><path class="cls-1" d="M23.33,4.86h-.84V4.78a1.92,1.92,0,0,0-1.91-1.91H11.42A1.92,1.92,0,0,0,9.51,4.78v.08H8.67A3.68,3.68,0,0,0,5,8.53v14.6A3.68,3.68,0,0,0,8.67,26.8h.59l-.48.49A1,1,0,0,0,9.51,29a1.06,1.06,0,0,0,.73-.3l1.93-1.94h7.66l1.93,1.94a1.06,1.06,0,0,0,.73.3,1,1,0,0,0,.73-1.75l-.48-.49h.59A3.68,3.68,0,0,0,27,23.13V8.53A3.68,3.68,0,0,0,23.33,4.86Zm1.61,18.27a1.61,1.61,0,0,1-1.61,1.61H8.67a1.61,1.61,0,0,1-1.61-1.61V8.53A1.62,1.62,0,0,1,8.67,6.91H23.33a1.62,1.62,0,0,1,1.61,1.62Z"/></g></svg>
