<?xml version="1.0" encoding="utf-8"?>
<!-- Generator: Adobe Illustrator 15.0.2, SVG Export Plug-In . SVG Version: 6.00 Build 0)  -->
<!DOCTYPE svg PUBLIC "-//W3C//DTD SVG 1.1//EN" "http://www.w3.org/Graphics/SVG/1.1/DTD/svg11.dtd">
<svg version="1.1" id="レイヤー_1" xmlns="http://www.w3.org/2000/svg" xmlns:xlink="http://www.w3.org/1999/xlink" x="0px"
	 y="0px" width="230px" height="170px" viewBox="0 0 230 170" enable-background="new 0 0 230 170" xml:space="preserve">
<rect fill="#DDDDDD" width="230" height="170"/>
<g>
	<path fill="#FFFFFF" d="M100.917,110.984c-0.867-0.006-2.051,0.707-2.063,2.143c-0.012,1.295,0.976,2.146,2.027,2.159
		c1.219,0.008,2.034-1.033,2.041-2.117C102.936,111.919,101.962,110.993,100.917,110.984"/>
	<path fill="#FFFFFF" d="M100.935,107.326c-3.199-0.027-5.815,2.548-5.843,5.755c-0.026,3.207,2.545,5.822,5.744,5.848
		c3.205,0.028,5.815-2.544,5.844-5.753C106.705,109.971,104.138,107.354,100.935,107.326 M100.867,116.78
		c-2.075-0.018-3.697-1.711-3.681-3.666c0.019-2.081,1.748-3.658,3.741-3.64c1.974,0.016,3.674,1.577,3.657,3.674
		C104.565,115.396,102.795,116.793,100.867,116.78"/>
	<path fill="#FFFFFF" d="M114.535,107.44c-3.203-0.026-5.819,2.549-5.848,5.755c-0.027,3.211,2.546,5.822,5.749,5.848
		c3.208,0.028,5.822-2.542,5.847-5.749C120.312,110.085,117.74,107.469,114.535,107.44 M117.543,116.815l-1.661-0.012l0.03-3.384
		c0.006-0.571,0.021-2.192-1.386-2.204c-0.307-0.005-0.84,0.132-1.153,0.591c-0.304,0.418-0.312,1.127-0.315,1.709l-0.025,3.265
		l-1.665-0.017l0.06-6.855l1.542,0.016l-0.011,0.593c0.285-0.26,0.857-0.816,1.923-0.808c0.597,0.002,1.512,0.272,2.082,0.965
		c0.627,0.762,0.616,1.911,0.61,2.443L117.543,116.815z"/>
	<path fill="#FFFFFF" d="M128.154,111.198c-0.613-0.002-1.659,0.317-1.982,1.582l3.849,0.031
		C129.844,111.714,128.979,111.207,128.154,111.198"/>
	<path fill="#FFFFFF" d="M128.146,107.554c-3.208-0.027-5.825,2.553-5.851,5.753c-0.028,3.212,2.544,5.828,5.752,5.851
		c3.198,0.027,5.812-2.544,5.839-5.75S131.341,107.582,128.146,107.554 M131.614,114.149l-5.405-0.045
		c0.065,0.451,0.712,1.407,1.909,1.418c0.733,0.008,1.293-0.293,1.606-0.864l1.764,0.017c-0.411,1.234-1.757,2.367-3.383,2.352
		c-2.077-0.019-3.668-1.662-3.648-3.656c0.017-1.938,1.553-3.705,3.692-3.69c2.21,0.019,3.588,1.911,3.575,3.638
		C131.723,113.644,131.668,113.925,131.614,114.149"/>
	<path fill="#FFFFFF" d="M119.198,56.864l-2.144-1.106c-0.115-0.062-0.313-0.05-0.359,0.139c-0.211,1.314-0.642,3.436-2.345,4.161
		l0.069-8.37c0.004-0.15-0.136-0.29-0.297-0.296l-2.194-0.021c-0.174,0.009-0.299,0.115-0.309,0.295l-0.098,11.669
		c0.009,0.172,0.122,0.296,0.288,0.312c0.68-0.004,1.931-0.073,3.285-0.697c3.265-1.492,3.994-4.508,4.261-5.825
		C119.378,57.011,119.356,56.941,119.198,56.864"/>
	<path fill="#FFFFFF" d="M132.187,60.033l-4.465-0.037l0.044-5.392l3.835,0.031c0.124-0.024,0.216-0.117,0.24-0.244l0.021-2.234
		c-0.025-0.152-0.144-0.26-0.303-0.263v-0.003l-10.319-0.086v0.001c-0.172,0.002-0.298,0.124-0.315,0.292l-0.018,2.171
		c0.013,0.144,0.105,0.249,0.24,0.276l3.71,0.032l-0.045,5.391l-4.312-0.036c-0.176,0.017-0.296,0.146-0.296,0.322h-0.006
		l-0.021,2.102h0.006c0,0.171,0.113,0.297,0.273,0.32l11.726,0.1c0.134-0.017,0.229-0.102,0.265-0.23l0.018-2.271
		C132.43,60.138,132.327,60.049,132.187,60.033"/>
	<path fill="#FFFFFF" d="M97.633,50.947v-0.002L85.32,50.841c-0.171,0.006-0.292,0.122-0.311,0.282l-0.017,2.155
		c0.015,0.152,0.125,0.262,0.28,0.281l8.977,0.077c0,0,0.261-0.032,0.155,0.172c-0.529,0.943-1.145,1.486-2.074,2.003
		c0.026-0.385,0.046-0.702,0.063-1.228c-0.014-0.174-0.142-0.297-0.312-0.306v-0.006l-2.238-0.019c-0.172,0-0.298,0.121-0.312,0.293
		c0.007,0.275,0.004,0.402,0.004,0.543c-0.025,3.256-1.312,4.832-4.292,6.03c0,0-0.275,0.159-0.055,0.449
		c0,0,1.295,1.633,1.418,1.762c0.198,0.198,0.428,0.051,0.449,0.038h0.002c3.474-1.56,4.775-3.927,5.163-6.684l1.263,1.259
		c0.097,0.113,0.246,0.141,0.38,0.079c2.279-1.466,3.632-3.271,4.083-6.797C97.962,50.957,97.802,50.95,97.633,50.947"/>
	<path fill="#FFFFFF" d="M105.708,55.569l-7.872-0.065c-0.178-0.002-0.332,0.144-0.333,0.331l-0.02,2.221
		c0,0.186,0.149,0.337,0.331,0.337l7.869,0.068c0.185,0.004,0.333-0.148,0.337-0.333l0.02-2.221
		C106.04,55.721,105.893,55.571,105.708,55.569"/>
	<path fill="#FFFFFF" d="M110.63,51.532l-2.215-0.02c-0.165,0.009-0.29,0.113-0.294,0.283l-0.027,2.97
		c-0.01,0.997-0.004,1.979-0.373,3.581c-0.362,1.535-0.901,2.283-1.361,2.788c-0.123,0.124-0.127,0.288-0.027,0.419l1.793,1.919
		c0.106,0.097,0.271,0.14,0.361,0.048c2.291-2.361,2.39-6.773,2.408-8.934l0.023-2.769C110.918,51.668,110.782,51.541,110.63,51.532
		"/>
	<path fill="#FFFFFF" d="M144.753,51.85l-11.17-0.096c-0.153,0.019-0.262,0.128-0.275,0.287l-0.021,2.234
		c0.014,0.159,0.12,0.271,0.273,0.291l7.852,0.069c0,0,0.334-0.046,0.266,0.301c-0.437,2.271-1.362,4.967-7.369,6.127
		c-0.137,0.067-0.196,0.204-0.168,0.345l1.046,2.194c0.054,0.084,0.136,0.131,0.229,0.143c3.327-0.673,5.929-2.137,7.425-4.17
		c1.648-2.252,2.112-5.083,2.166-7.505C144.977,51.95,144.882,51.867,144.753,51.85"/>
	<path fill="#FFFFFF" d="M114.561,104.833c10.697,0.091,19.438-8.505,19.531-19.2c0.086-10.706-8.51-19.437-19.203-19.529
		c-10.691-0.09-19.436,8.498-19.526,19.202C95.272,96.004,103.868,104.741,114.561,104.833 M115.198,71.685
		c3.315,0.027,10.506,1.575,13.129,9.565l-7.097-0.059c-0.743-1.316-2.194-3.789-6.083-3.825c-3.842-0.031-7.645,2.732-7.688,8.046
		c-0.037,4.43,3.099,8.128,7.838,8.169c2.086,0.019,4.177-0.943,5.861-3.542l7.095,0.06c-2.175,5.762-7.085,9.224-13.244,9.169
		c-6.73-0.054-13.931-5.436-13.856-14.011C101.219,77.344,107.952,71.624,115.198,71.685"/>
</g>
</svg>
