<?xml version="1.0" encoding="utf-8"?>
<!-- Generator: Adobe Illustrator 22.1.0, SVG Export Plug-In . SVG Version: 6.00 Build 0)  -->
<svg version="1.1" id="レイヤー_1" xmlns="http://www.w3.org/2000/svg" xmlns:xlink="http://www.w3.org/1999/xlink" x="0px"
	 y="0px" viewBox="0 0 160 47" style="enable-background:new 0 0 160 47;" xml:space="preserve">
<style type="text/css">
	.st0{fill:#171C61;}
</style>
<g>
	<path class="st0" d="M3.2,0.6l0.6,0.1h22.6l0.5-0.1c1.3,0,2.1,0.8,2.3,2.5c-0.3,1.4-1.1,2.1-2.5,2.1H5.5v15.5h13.8l1.6-0.1
		c1,0,1.7,0.8,2.1,2.3c0,1-0.6,1.8-1.9,2.3l-2.3-0.1H5.5v16.4l0.1,0.7c-0.3,1.5-1.1,2.2-2.2,2.2H3.2c-1.5-0.3-2.2-1-2.2-2.2V2.9
		c0.2-1.5,1-2.2,2.2-2.2L3.2,0.6z"/>
	<path class="st0" d="M36,5.3c1.5,0.4,2.2,1,2.2,1.9V8c0,1.1-0.8,1.7-2.4,1.9c-1,0-1.7-0.8-2.1-2.3C34,6.1,34.8,5.3,36,5.3z
		 M36,13.1c1.5,0.4,2.2,1,2.2,1.9v27.3c0,1.1-0.7,1.8-2.2,2.1h-0.1c-1.2,0-1.9-0.8-2.2-2.3V15.7C33.9,14,34.7,13.1,36,13.1z"/>
	<path class="st0" d="M48.4,13.3c1.4,0.4,2.2,1,2.2,1.9v2.5c3.3-3,6.9-4.4,10.7-4.4c4.3,0,8.1,1.8,11.4,5.3c2.4,3,3.6,6.1,3.6,9.4
		v14.4c0,1-0.7,1.6-2.2,1.9H74c-1.4-0.3-2.2-1-2.2-2.2V29.5c0-5.7-2.4-9.4-7.3-11.2c-1.2-0.3-2.3-0.5-3.2-0.5H61
		c-4.1,0-7.3,2.1-9.5,6.4c-0.6,1.3-0.9,3.4-0.9,6.2v11.9c0,1.1-0.7,1.8-2.2,2h-0.1c-1.2,0-1.9-0.8-2.2-2.3V15.9
		C46.3,14.2,47,13.3,48.4,13.3z"/>
	<path class="st0" d="M109.9,0.9h0.5c1.4,0.3,2.1,0.9,2.1,1.9v22.7l0.1,3.9c0,3-1.2,6.1-3.7,9.4c-3.5,3.7-7.4,5.6-11.7,5.6h-0.9
		c-4.2,0-8.2-2-11.8-5.9c-2.2-3.2-3.3-6.4-3.3-9.8c0-5.1,2.3-9.4,6.8-12.8c2.9-1.9,5.9-2.9,9-2.9c4,0,7.7,1.6,11.2,4.7v-13l-0.1-1.8
		C108.4,1.6,109,0.9,109.9,0.9z M85.6,28.3v0.6c0,4.7,2.4,8.2,7.3,10.4c1.3,0.4,2.5,0.6,3.6,0.6h0.7c4.6,0,8-2.4,10.3-7.3
		c0.4-1.5,0.6-2.6,0.6-3.4v-0.7c0-4.7-2.5-8.1-7.5-10.4c-1.5-0.4-2.7-0.6-3.6-0.6h-0.5c-4.6,0-8,2.4-10.3,7.2
		C85.8,26,85.6,27.2,85.6,28.3z"/>
	<path class="st0" d="M124.7,36.1c2.1,0,3.5,1.3,4.1,3.8v0.7c0,1.5-1,2.7-2.9,3.6c-0.3,0.1-0.7,0.2-1.2,0.2h-0.1
		c-2.3,0-3.6-1.4-4.1-4.2c0-1.8,1-3.1,3-3.9C123.8,36.1,124.1,36.1,124.7,36.1z"/>
	<path class="st0" d="M138.7,13.1c1.5,0.4,2.2,1,2.2,1.9v2.5c3.3-3,6.9-4.5,10.7-4.5c2,0,4.2,0.5,6.5,1.5c0.6,0.6,0.9,1.2,0.9,1.8
		v0.1c-0.2,1.4-1,2.2-2.2,2.2h-0.1c-2.1-0.7-3.7-1-4.7-1h-0.7c-4.5,0-7.8,2.3-9.8,7c-0.4,1.2-0.7,2.6-0.7,4.2v13.5
		c0,1.1-0.7,1.8-2.2,2.1h-0.1c-1.2,0-1.9-0.8-2.2-2.3V15.7C136.6,14,137.3,13.1,138.7,13.1L138.7,13.1z"/>
</g>
</svg>
