<svg xmlns="http://www.w3.org/2000/svg" viewBox="0 0 478.68 200.33"><defs><style>.cls-1{isolation:isolate;}.cls-2{fill:#004ea2;}.cls-3{fill:#e4007f;}.cls-4{fill:#094;}.cls-5,.cls-8{mix-blend-mode:multiply;}.cls-6,.cls-8{fill:#b5b5b6;}.cls-14,.cls-7,.cls-9{fill:#fff;}.cls-7,.cls-9{stroke:#231815;}.cls-10,.cls-7,.cls-9{stroke-miterlimit:10;}.cls-7{stroke-width:0.55px;}.cls-9{stroke-width:0.52px;}.cls-10{fill:#b81c22;stroke:#b81c22;stroke-width:1.58px;}.cls-11{fill:#ea5504;}.cls-12{fill:#543007;}.cls-13{fill:#7f4f21;}</style></defs><title>bLandTitle</title><g class="cls-1"><g id="layer_2" data-name="layer 2"><g id="layer_1-2" data-name="layer 1"><path class="cls-2" d="M27.39,111.28c.74.27.77.28,1.34-1.34.45-1.27.51-1.41-.63-1.82-1.75-.62-3.1-1.1-2.25-3.5.93-2.6,2.59-2.3,4-1.78,3.13,1.11,5.52,2.39,5.39,4.49-.05.63-.06,1.15-1.71,5.77-.48,1.35-1.3,3.63-2.28,4.26-1.3.84-2.62.37-4-.12l-5.1-1.82-.7,2c7.84,3,6.93,11.06,6.35,12.68-.78,2.19-3,2-4.22,1.55-1.93-.69-1.84-1.63-1.64-3.84.33-4-1.46-5-2.28-5.37l-.16.46c-.91,2.54-2.39,3.9-6,2.62L3.41,121.86c-3.53-1.26-3.9-3.21-3-5.81l5.13-14.41c.92-2.57,2.43-3.88,6-2.61l10.16,3.62c3.71,1.33,3.83,3.42,3,5.82l-.59,1.64Zm-16.76-6.46-.74-.27a.26.26,0,0,0-.33.15L5.43,116.3a.25.25,0,0,0,.16.32l.74.26Zm3.74,1.33-4.3,12.07,1,.35,4.3-12.07Zm4.7,1.68-4.3,12.07.74.26a.29.29,0,0,0,.33-.14L20,108.41a.26.26,0,0,0-.19-.33Z"/><path class="cls-2" d="M30.41,87.57a2.87,2.87,0,0,1-.25,2.88c-.64.71-1.66.85-3,1-.4,0-2,.31-2.33.32a2.26,2.26,0,0,1-1.68-.63c-.94-.86-1.54-3-.53-4.1s4.86-1.45,5.72-1.37l-3.68-3.37a2.58,2.58,0,0,1-.56,2.4c-.68.74-1.84.76-3.06.93-2.35.34-3.06.44-3.85-.28a3.23,3.23,0,0,1-.45-4.2c.46-.49.87-.61,3.07-1.13a9.42,9.42,0,0,1,2.83-.19c-.56-1.51,0-2.66,1.15-3.86l2.75-3c-1.49-1.36,0-3,.29-3.3.91-1,2.35-2.47,3.79-1.15l3.48-3.79c.41-.46,1.55-1.7,3.36,0s.77,2.87.17,3.53a1.49,1.49,0,0,1,1,.43,1.84,1.84,0,0,1,2.94-.13,1.87,1.87,0,0,1,.18,3c2.84,2.6,2.54,3.7.49,5.94l-3.15,3.43c-2.34,2.56-3.26,2.79-6.1.19l-.83.91,2.5,2.29c.32.28.46.42,1.42,1.34.17-.51.36-.67,1.23-1.62L44,76.7c.56-.61,2.24-2.44,4.45-.42,1.54,1.41,1.82,3.37,1.91,5.49,1.76-1.34,2-1.54,2.56-1.68a2,2,0,0,1,1.95.62,5.48,5.48,0,0,1,1.39,2.1,1.86,1.86,0,0,1-.61,2c-1.72,1.87-5.62,3.37-6,3.54A17.41,17.41,0,0,1,47,94.19c-1.06,1.15-2.83.57-3.86-.38.94,1.49,1.66,2.68.39,4.06-1,1.09-2.9,1.63-4.12.5a7.41,7.41,0,0,1-1.35-1.85A32.4,32.4,0,0,0,34,91.16C32.9,90,31.13,88.23,30.8,87.92Zm-1.32-8.44.83-.91a1.35,1.35,0,0,1-.56-.93l-.79.86a.34.34,0,0,0,0,.51ZM33.58,92a56.36,56.36,0,0,1,4.27,5.24c1.52,2.06,2.79,3.81,1.44,5.27a2.88,2.88,0,0,1-4.11.35A7.3,7.3,0,0,1,33.81,101,32.15,32.15,0,0,0,31,97c-1.64-1.92-2.37-3.3-1.07-4.72A2.59,2.59,0,0,1,33.58,92ZM32.36,74a1.54,1.54,0,0,1,1,.48l1.85-2a1.37,1.37,0,0,1-.57-.93Zm4.1,3.35.48.44a.34.34,0,0,0,.54,0l1.34-1.47a.34.34,0,0,0,0-.54l-.48-.44ZM41.6,89.21a2.47,2.47,0,0,1-.76-2c-.89,1-1.24,1.4-1.8,1.43,1.49,1.66,2.91,3.49,3.43,4.18a1.4,1.4,0,0,1,0-1.23c.11-.32.74-1.53.85-1.8A2.28,2.28,0,0,1,41.6,89.21Zm1.13-4.08c.35-.09,2.07-.38,2.42-.52.12-.47.46-1.9.22-2.12a.17.17,0,0,0-.24,0Z"/><path class="cls-2" d="M65.09,59.67a12.33,12.33,0,0,1,2.83,2.91c3.24,4.62,1.89,8.35,0,11a23.84,23.84,0,0,1-5.37,5.2,2.84,2.84,0,0,1-4.35-.69c-1.46-2.08.08-3.2,1.16-4,4.12-2.93,4.55-4.39,4.88-5.42A7.79,7.79,0,0,1,61.89,71c-5.64,4-9.11,1-10.35-.78-1.84-2.62-1.9-6.71,2.79-10a12.56,12.56,0,0,1,2.9-1.52l-.79-1.07c-1.64,1.19-4.57,3.36-8.13,5.86-2.16,1.52-2.81,2-3.54,2a2.7,2.7,0,0,1-2.4-1.34c-1.61-2.3.14-3.53,1.1-4.2L48,56.75c1.71-1.2,3.4-2.47,5.09-3.69-.58-.83-2-2.69.55-4.45s3.75.12,4.27.86c.65-.45,2.39-1.83,2.94-2.22.75-.52,2.48-1.58,4,.61s0,3.4-.81,4l-2.93,2.17Zm-4.28,4c-1.1-1.58-3.23-.12-3.38,0-.77.55-2.07,1.9-1.17,3.18,1,1.49,3.09.14,3.34,0C60.4,66.27,61.68,64.94,60.81,63.71Z"/><path class="cls-2" d="M72.48,37.67c2.14-1.06,3.84-1.91,5.49,1.42a18.14,18.14,0,0,1,1.49,6.83c0,.42.06,1.17.09,1.23s.1.13.72.41a11,11,0,0,1,4.63,5c2.29,4.61.53,6-1.52,7-1.32.66-1.93.81-2.72.52l1.74,3.5c1,2,.47,3.08-1.21,3.91C79,68.61,78,66.74,77.62,66L67.36,45.35c-1.75-3.53-1.49-4.39,1.83-6ZM74.61,48a25.35,25.35,0,0,0-.69-3.85c0-.23-.22-.87-.61-.68-.61.27-.76.38-.59.73Zm3.91,7.88c.08-.26.15-.33.53-.66s.12-.93,0-1.23a6,6,0,0,0-2.93-3Zm17-16.62C97.3,42.8,97,43.7,93.64,45.35a13.81,13.81,0,0,0,1,1.34c.46-1.4.66-2,1.54-2.48a3,3,0,0,1,3.7,1.54c.58,1.17.19,2.1-.91,4.28.29.18,1.79.86,2.71,1.27a2.74,2.74,0,0,1,1.52,1.4A3.37,3.37,0,0,1,102,57.05a2.84,2.84,0,0,1-1.88.28,11.53,11.53,0,0,1-3.62-2,2.16,2.16,0,0,1-.39,2.81A58.26,58.26,0,0,1,89.5,63.1c-2.11,1.05-3.44-1.49-3.59-1.78-1-2.07.08-2.88,1.51-3.85L78.6,39.73c-1.7-3.42-1.51-4.35,1.83-6l6-3c3.35-1.66,4.19-1.28,5.9,2.17ZM88.33,37,88,36.3a.34.34,0,0,0-.5-.19l-3.35,1.67c-.22.11-.23.29-.13.5l.35.7ZM90,40.44l-4,2,.52,1,3.65-1.81a.35.35,0,0,0,.16-.52Zm-1.31,7.35L92,54.42a13,13,0,0,1,1.2-.75,1.91,1.91,0,0,1,.9-.26,23.91,23.91,0,0,1-4.85-5.89Z"/><path class="cls-2" d="M109.18,22.33c6.74-2.44,11,4.21,13.08,10,2.54,7,2.11,11.78-2.38,15.66a21.86,21.86,0,0,1-6.78,3.87c-2,.74-4.23,1.29-5.22-1.47s1.11-3.59,1.74-3.82c.35-.13,1.92-.63,2.23-.77,6-2.53,6.52-5.93,4.55-11.39-1.46-4-3.38-7.27-6-6.33-3.25,1.18-4.79,7.38-3.32,11.43.16.46,1,2.36,1.09,2.76.28.76,1,2.85-1.76,3.86a2.61,2.61,0,0,1-3.09-.62,20.51,20.51,0,0,1-2.12-4.6,90.89,90.89,0,0,1-3.4-11c-.44-2-.86-3.92,1.76-4.87.78-.28,3-.95,3.88,1.44a6.58,6.58,0,0,1,.3,1.66A8.78,8.78,0,0,1,109.18,22.33Z"/><path class="cls-2" d="M136.36,43.58c-1.39.36-1.92-.07-4.44-2.17-.56-.46-3.17-2.3-3.69-2.7a3,3,0,0,1-1.07-1.54,3.18,3.18,0,0,1,2.21-3.75c1-.26,1.86-.05,4.94,2,2.76,1.91,4.17,3,4.4,3.93A3.41,3.41,0,0,1,136.36,43.58Z"/><path class="cls-3" d="M171.63,13.42c.81-.16,3.22-.62,3.73,2a3.17,3.17,0,0,1-.93,3,4.2,4.2,0,0,1-1.25.81l1.2-.24c.63-.12,2.26-.43,2.72,2s-1.12,2.74-1.79,2.87l-1.2.23.16.83c.82,4.26.15,4.65-4.4,5.53a5.25,5.25,0,0,1-2.21.16,2.31,2.31,0,0,1-1.4-1.92c-.45-2.31,1.11-2.64,2-2.81s.84-.16.72-.8l-1.24.24a1.83,1.83,0,0,1-2.15-.82c.88,6.5.29,6.68-2.3,7.18-1.12.22-2.17.42-2.76-.89a1.8,1.8,0,0,1-1.72,1.45,4.92,4.92,0,0,0,2.89.28L176,29.7c2.11-.41,2.89,1,3.13,2.29.36,1.85-.34,2.95-2,3.27l-14,2.69a7.72,7.72,0,0,1-6.58-1.42c-.84,2.32-1.25,3.39-2.79,3.69a3.78,3.78,0,0,1-4-3.06c-.23-1.22.2-1.93,1.21-3.12.59-.68.72-.83,1-1.26l-1-5.19c-.12-.61-.13-.7-.4-.65-1.78.34-2.75-.67-3.06-2.24-.43-2.24.15-3.31,2.16-3.7l1.21-.23c3.58-.69,4.32-.2,5.08,3.71l.53,2.78a14.51,14.51,0,0,0,0-2.1,34,34,0,0,0-.59-4.5l-.78-4.06a1.73,1.73,0,0,1-1.76-.7A3.25,3.25,0,0,1,151,18.3c-1.29.25-1.8-.25-4-2.49l-1.27-1.24a2.28,2.28,0,0,1-.56-1.13,3.18,3.18,0,0,1,2.49-3.59c.75-.15,1.36-.07,3.06,1.3a14.58,14.58,0,0,1,2.11,2c.17-1.36,1.26-1.57,2.1-1.73l-.14-.71c-.18-1-.24-2.41,2-2.84,2.11-.41,3.06,0,3.41,1.8l.13.7a2.05,2.05,0,0,1,2.37.64,23.13,23.13,0,0,0,1.27-3.16A2.38,2.38,0,0,1,166.21,6c1.66-.32,2.81.49,3,1.45a2.8,2.8,0,0,1,0,.49L172,7.44c.57-.11,2.31-.44,2.78,2s-1.23,2.83-1.83,2.94l-5.33,1a6.37,6.37,0,0,1-.39.87ZM167,18.79a2,2,0,0,1-2.67-1.72,2,2,0,0,1,0-.79,2.8,2.8,0,0,1-1.84-1.14,4.18,4.18,0,0,1-.95.28l-2.19.43.14.77,1.48-.29c1.17-.22,1.72-.3,2.51.25s1,1.1,1.46,3.34c.06.32.21,1.28.29,1.67a1.76,1.76,0,0,1,1.58-1.17l1.23-.24A1.21,1.21,0,0,1,169,19c.59-.18.55-.4.53-.47-.05-.25-.35-.2-.44-.18Zm-5.26,8a35.25,35.25,0,0,0-.62-5.69c-.1-.51-.19-.49-.86-.36a39.44,39.44,0,0,1,.66,7C161.68,27.51,161.73,27.47,161.76,26.83Z"/><path class="cls-3" d="M187.84,5.78c.88-.09,3-.33,3.29,2.46.19,1.68-.34,2.4-1.87,4.44A13,13,0,0,0,186.39,22c.45,4,2.77,5.43,5.93,5.07,2.84-.31,5.54-1.53,4.9-7.24a21.68,21.68,0,0,0-4.06-10,7.83,7.83,0,0,1-1.72-3.28c-.25-2.17,2-2.95,2.86-3.05,1.59-.17,2.18.68,2.95,1.81a14.56,14.56,0,0,0,7,5c1.71.63,2.64,1,2.83,2.64.16,1.43-.52,3.37-2.32,3.57-1.18.14-2.21-.5-3.48-1.31a17.88,17.88,0,0,1,1.34,5c.79,7.12-2,12-9.18,12.8-6.36.72-11.65-1.64-12.51-9.32a17.27,17.27,0,0,1,2.69-11.49c-.48.12-1.48.33-1.9.38a2.72,2.72,0,0,1-3.36-2.67c-.25-2.27,1-3.2,2.52-3.37Zm12.3-1.15a2.27,2.27,0,0,1-.16-.57c-.11-1,.94-1.22,1.22-1.25.58-.07.94.19,1.47,1.34a13.27,13.27,0,0,1,1,2.81,1.21,1.21,0,0,1-1.14,1.38c-.74.08-1-.35-1.18-.82-.08-.22-.48-1.29-.56-1.48S200.22,4.82,200.14,4.63Zm3.15-1.3a1.4,1.4,0,0,1-.13-.58c-.1-1,.94-1.25,1.19-1.28.58-.06,1,.22,1.48,1.38a11.44,11.44,0,0,1,1,2.81A1.2,1.2,0,0,1,205.64,7a1,1,0,0,1-1.13-.79c-.09-.25-.49-1.29-.57-1.51S203.37,3.52,203.29,3.33Z"/><path class="cls-3" d="M232.88,8.28c2.48-.1,4.11.72,4.24,4.17l.28,7c.13,3.42-1.43,4.39-3.91,4.49l-10.44.4c-2.64.11-4.12-.88-4.24-4.17l-.28-7c-.13-3.38,1.37-4.39,3.91-4.49l1.44,0c.05-.2.05-.27.15-.79L219.65,8a2.26,2.26,0,0,1-1.61-.4,3.3,3.3,0,0,1-3,2.93c-1.2,0-1.71-.56-3.09-2.1-.39-.44-2.18-2.3-2.5-2.71a2.22,2.22,0,0,1-.54-1.38,3.29,3.29,0,0,1,2.85-3.25c.95,0,1.51.27,3,1.62a18.37,18.37,0,0,1,2.47,2.57,1.94,1.94,0,0,1,2.18-2.14l.74,0a1.3,1.3,0,0,1-.25-.75C219.88.5,222.73.32,223.28.3a2.75,2.75,0,0,1,2.61,1c.26.38.26.45.49,1.62l2.3-.09c.08-.24.29-1.25.37-1.45A2.73,2.73,0,0,1,231.64,0c1.26,0,3.41.19,3.47,1.69a4.55,4.55,0,0,1-.06.85l.95,0c.64,0,2.3-.09,2.39,2.32s-1.37,2.5-2.2,2.54l-6.28.24a4.27,4.27,0,0,1-.21.79ZM212.37,18.83c0-.52,0-.68-.3-.67a2.36,2.36,0,0,1-2.61-2.58c-.08-1.92.49-3,2.67-3.1l1.19-.05c1.5-.06,2.79-.08,3.56.71s.87,1.92.94,3.72l.18,4.79c.1,2.47,1.53,3.62,4.19,3.52l14.3-.56a2.59,2.59,0,0,1,2.81,2.77c.07,1.92-.81,2.93-2.55,3l-13.85.54a15.76,15.76,0,0,1-3.6-.42,7.21,7.21,0,0,1-2.87-1.94c-1.12,2-1.75,3.13-3.25,3.19a3.76,3.76,0,0,1-3.48-3.62c0-1.07.36-1.77,1.61-2.83a13.75,13.75,0,0,0,1.27-1.19ZM231.47,13l0-.56a.33.33,0,0,0-.35-.34l-6.56.25a.33.33,0,0,0-.29.37l0,.56Zm.1,2.51-7.2.28,0,.91,7.19-.28Zm.13,3.38-7.2.28,0,.56a.33.33,0,0,0,.35.34l6.53-.25a.33.33,0,0,0,.32-.37Z"/><path class="cls-3" d="M252.35,24.73a2.73,2.73,0,0,1,.62,1.84c0,1.3-.8,2-3.59,3a20.9,20.9,0,0,1-6.67,1.55c-2.36-.07-2.27-2.84-2.26-3.1.06-2,1.38-2.24,2.34-2.37a44.87,44.87,0,0,0,5.4-1.07l-5.58-.18c-.58,0-2.32-.07-2.25-2.48.07-2.25,1.16-2.61,2.41-2.57l24.65.77c.65,0,2.33.08,2.25,2.59s-1.52,2.49-2.4,2.46L261.85,25c2.67.71,2.91.78,4.13,1,1.53.31,3.2.63,3.14,2.68,0,.68-.44,3.18-2.67,3.11a27.25,27.25,0,0,1-5.33-1.41c-3.09-1.07-4.63-1.64-4.58-3.5a2.73,2.73,0,0,1,1-2ZM263.42,1.27c2.54.08,4,1.07,3.94,4.46l-.3,9.28c-.1,3.46-1.69,4.29-4.2,4.21l-15.47-.49c-2.57-.08-4-1.1-3.94-4.46L243.74,5C243.85,1.57,245.41.7,248,.78ZM261.2,14.21l-12-.38,0,.62a.34.34,0,0,0,.33.37l11.36.36a.31.31,0,0,0,.31-.35Zm.14-4.4-12-.37,0,1,12,.38Zm.11-3.29V5.9a.33.33,0,0,0-.29-.37l-11.36-.35a.35.35,0,0,0-.35.35l0,.62Z"/><path class="cls-3" d="M275.3,14.07c-2.28-.24-2.49-2.1-2.37-3.26.26-2.5,1.88-2.69,2.5-2.76a33.2,33.2,0,0,1,4.31,0c.19-.6.9-3.28,1.1-3.78a2.4,2.4,0,0,1,2.66-1.59c.95.09,3.24.59,3,2.93a14.65,14.65,0,0,1-.72,2.77c4.18.44,7.34,1.78,6.34,11.31-.58,5.61-1.71,10-4.11,11.67a6.35,6.35,0,0,1-4.25,1,10.34,10.34,0,0,1-4.26-1.46,2.67,2.67,0,0,1-1.17-2.61c0-.16.39-3.14,2.82-2.89a4.06,4.06,0,0,1,1.46.48,4.32,4.32,0,0,0,1.32.4c.79.08,1.09-.41,1.61-2.19a35.54,35.54,0,0,0,1-5.63c.38-3.7.13-4.25-2.75-4.42a98.6,98.6,0,0,1-6.08,14c-1.56,2.86-2.65,3-3.56,2.91a3.44,3.44,0,0,1-3-3.39c.1-.94.43-1.43,1.63-3.24a61.16,61.16,0,0,0,5-10.3C277.15,14.06,275.82,14.12,275.3,14.07ZM297.63,9.3a17.38,17.38,0,0,1,2.22,8.59,28.82,28.82,0,0,1-.07,3.37c-.23,2.17-1.5,3.12-3.54,2.91s-2.46-1.53-2.4-2.94c.22-4.2.35-7.27-1.82-10.08a3.49,3.49,0,0,1-1-2.6,2.8,2.8,0,0,1,3-2.37C295.45,6.32,296.66,7.73,297.63,9.3Zm-1.79-4.38a1.73,1.73,0,0,1-.1-.79c.06-.62.91-1,1.49-1,.33,0,.73.08,1.34,1.91a8,8,0,0,1,.58,2.65,1.28,1.28,0,0,1-1.49,1c-.49-.05-.67-.33-.86-.88l-.46-1.52Zm3.53-.12a1.87,1.87,0,0,1-.11-.8c.07-.65.94-1,1.49-1s.87.51,1.34,1.88a8.19,8.19,0,0,1,.59,2.68,1.29,1.29,0,0,1-1.46,1c-.67-.07-.69-.21-1.36-2.41A10,10,0,0,0,299.37,4.8Z"/><path class="cls-4" d="M327.88,34.38c.56.14,2.08.51,1.66,2.82-.46,2.5-2.15,2.19-2.75,2.08l-24.74-4.53c-.57-.11-2.32-.43-1.87-2.9s2-2.14,2.68-2.06l.26-1.37c.71-3.92,1.74-4.26,4.94-3.67l17.41,3.19c-1-.31-2.16-.79-3.67-3.39-2.59,1.05-3.84,1.38-4.71,1.22a2,2,0,0,1-1.59-1.51c-.9,1-1.6,1.06-4,.62-1.75-.32-3.7-.71-2.86-3.77-1.77,3.35-2.85,3.62-4,3.4s-2.87-1.52-2.56-3.21c.13-.71.47-1.18,1.5-2.71a11.2,11.2,0,0,0,1.77-4.22l.59-3.27c.63-3.43,2.38-4,4.79-3.53l8.65,1.59c.15-1,.38-2.42,3.22-1.9,2.56.47,2.5,1.79,2.42,2.93l1.26.23c.26-1.71,2.13-2.09,3.16-1.9s1.66.43,2.09,2.86c1,.19,2.59.48,2.14,2.92-.41,2.27-1.78,2.22-2.74,2l-2.44-.44a2.84,2.84,0,0,1,1.61,2.91c-.09.51-.24,1.31-3.27,3.24a1.23,1.23,0,0,0,.47.19c.42.08.57-.06,1.26-.6a1.68,1.68,0,0,1,1.53-.55,2.6,2.6,0,0,1,2.08,2.77A6.24,6.24,0,0,1,330,27.15a4.25,4.25,0,0,1-3.55,1c2.41.77,2.08,2.57,1.65,4.91ZM308,30.73l1.86.35.23-1.25-1.53-.29a.34.34,0,0,0-.4.3Zm2-12.91a19.65,19.65,0,0,1-.89,2.29,1.91,1.91,0,0,1,2.13-.57c.57.1,1-.32,1.07-.9.07-.35-.2-.44-.56-.5Zm5.16-3.53c1.24.23,3.41.62,2.92,3.28-.13.74-.56,2.22-.71,2.69,1.32-.42,1.49-.46,2.49-.83a26.07,26.07,0,0,1-.72-5.24l-7.72-1.41a.3.3,0,0,0-.36.29l-.09.45Zm-.7,17.63,1.68.31.23-1.25-1.69-.31ZM321,33.11l1.74.32.17-.9a.33.33,0,0,0-.24-.41l-1.45-.26Zm4-17.86c.05.61.09,1.21.14,1.62,1.27-1,1.49-1.12,2-1.22Z"/><path class="cls-4" d="M352.53,15.75c6.92,1.87,6.56,9.75,5,15.72-2,7.21-5,10.86-10.94,11.46a21.86,21.86,0,0,1-7.77-.72c-2.1-.57-4.2-1.37-3.44-4.21s3-2.3,3.63-2.12c.35.09,1.93.59,2.26.65,6.39,1.39,8.75-1.11,10.26-6.71,1.12-4.13,1.41-7.9-1.25-8.62-3.34-.9-8.16,3.3-9.29,7.45-.12.47-.57,2.48-.68,2.89a2.65,2.65,0,0,1-3.66,2.15,2.61,2.61,0,0,1-2.18-2.28,20.24,20.24,0,0,1,.91-5,89.12,89.12,0,0,1,3.53-11c.76-1.86,1.55-3.71,4.24-3,.8.22,3,.95,2.34,3.41a6.37,6.37,0,0,1-.7,1.53A8.75,8.75,0,0,1,352.53,15.75Z"/><path class="cls-4" d="M373.89,21.86c.63.23,2.91,1.15,2,3.56a6.85,6.85,0,0,1-.62,1.23c4.72,1.57,5.59,1.86,6.86,2.23a9.37,9.37,0,0,1,1,.31c.69.26,2.69,1.1,1.69,3.82-.94,2.54-2.85,2-3.82,1.75-.44-.13-5.24-1.66-8.83-2.89C369.53,36.09,363,45.34,361,47.17a2.49,2.49,0,0,1-2.6.49c-1-.37-2.93-1.78-2.15-3.89A7.41,7.41,0,0,1,358,41.4a85.47,85.47,0,0,0,8.66-11.46c-2.19-.81-2.85-1.06-3.27-1.59a2.94,2.94,0,0,1-.16-2.92c1-2.69,3-2,4-1.63l2.39.89C370.81,22.42,371.56,21,373.89,21.86Zm.65,31.59c-5.78-2.14-9.79-4.36-8.06-9,.83-2.23,2.31-3.77,4.58-2.93.38.14,2.65,1,2,2.89-.07.18-.53.91-.59,1.06a.75.75,0,0,0,.25.83,8,8,0,0,0,2.14,1.1c.69.26,2.72.87,3.74,1.11s1.76.45,2.05.55c2,.75,1.86,2.4,1.43,3.56C381,55.34,379.31,55.22,374.54,53.45Zm7.23-10.25c-.49-.18-2.61-1.07-3.07-1.24s-1.39-.48-2.95-1c-2.32-.69-2.59-.76-3-.9-1.67-.61-2.1-2-1.46-3.73a2.62,2.62,0,0,1,3-1.9,42.67,42.67,0,0,1,7.4,2.16c3.88,1.43,4.59,2.35,3.62,5A2.47,2.47,0,0,1,381.77,43.2Zm4.18-16a1.35,1.35,0,0,1,.12-.58c.34-.92,1.39-.67,1.62-.58.55.2.76.59.74,1.87a13.08,13.08,0,0,1-.4,2.95,1.2,1.2,0,0,1-1.63.68,1,1,0,0,1-.69-1.23c0-.23.15-1.37.17-1.6S385.94,27.44,386,27.23Zm3.34.86a3.06,3.06,0,0,1,.12-.58c.34-.92,1.4-.7,1.66-.6.55.2.75.62.71,1.89a13.74,13.74,0,0,1-.4,2.91,1.2,1.2,0,0,1-1.63.72c-.69-.26-.72-.72-.69-1.23,0-.27.14-1.37.17-1.61S389.28,28.29,389.29,28.09Z"/><path class="cls-4" d="M393.14,41.25c12.08-1,12.94-1,17-2.06a4.08,4.08,0,0,1,3.09,0,3.23,3.23,0,0,1,1.38,4.32c-.52,1-1.27,1.63-4.08,2.06a83.65,83.65,0,0,1-13.3,1c-.79,0-1.28,0-1.44.33s-.05.49.49,1.2a98.15,98.15,0,0,1,8.29,12.15c.89,1.63,1.52,2.83.72,4.4a3.46,3.46,0,0,1-4.42,1.59,4.66,4.66,0,0,1-2-2.26,69.84,69.84,0,0,0-7.63-13.06,26.77,26.77,0,0,1-2.3-3.44,4.32,4.32,0,0,1,0-3.81A4.51,4.51,0,0,1,393.14,41.25Z"/><path class="cls-4" d="M419.63,55.26c-2.16-1.51-2.78-2.07-3.11-2.77a2.91,2.91,0,0,1,.44-2.88,2.65,2.65,0,0,1,4.15-.68c.65.45,3.48,2.51,4.08,2.93,1.46,1,2.13,1.45,2.88,1.93a8.79,8.79,0,0,1,.88-2c1.46-2.09,3.75-.6,4.15-.32a2.39,2.39,0,0,1,1.1,2.87c-.23.76-.7,2.06-.93,2.61,1.58.95,2.35,1.41,3.12,1.79,1.05.54,2.42,1.25,2.62,1.39,1.78,1.25,1.2,3,.47,4-1.61,2.3-3.11,1.57-7.55-1.06a31.94,31.94,0,0,0-.06,5.53,3.88,3.88,0,0,1-.51,2.87,3,3,0,0,1-4.15.79,7.81,7.81,0,0,1-1.79-2.24,18.94,18.94,0,0,0-4.88-5.17c-.7-.49-4-2.81-5.66-.46-1.16,1.66.82,3.53,3.64,5.49a31,31,0,0,0,5.81,3.24,17,17,0,0,1,2.41,1,2.71,2.71,0,0,1,.56,4,2.78,2.78,0,0,1-2.83,1.32,28.19,28.19,0,0,1-8.65-4.38c-4.32-3-10-8-5.77-14.14,1.64-2.35,5.89-5.75,12.87-.87a17.41,17.41,0,0,1,3.39,3c.07-1.43.11-2.23.26-3.36C424.22,58.38,421.92,56.86,419.63,55.26Z"/><path class="cls-4" d="M448.45,79.92c3.4,3.69-.17,7-.92,7.67-.5.46-2.82,2.22-3.28,2.64a1.32,1.32,0,0,0-.32,2c1.35,1.46,4.58-.89,6.27-2.28.29-.22,1.53-1.33,1.82-1.55a2.72,2.72,0,0,1,4.24.14c2.1,2.27.25,4-.47,4.63a36.75,36.75,0,0,1-5.56,4.08c-1.59.92-6.73,3.9-11.33-1.1-2.85-3.09-2.59-6.32.72-9.37.45-.42,2.56-2,2.95-2.38a1.18,1.18,0,0,0,.09-1.92c-2-2.12-6.43.47-9.2,2.14-1.66,1-3.06,1.78-4.57.13a3,3,0,0,1,0-4.31,9.66,9.66,0,0,1,2-1.25c5.49-2.89,11-5.69,16.63-8.31,3.8-1.79,3.8-1.79,4.44-2a2.59,2.59,0,0,1,2.65.81c.41.45,2,2.63.23,4.29a6.9,6.9,0,0,1-1.76,1.08c-2.43,1-4.85,2-7.3,3.05A6.09,6.09,0,0,1,448.45,79.92Z"/><path class="cls-4" d="M453.31,108.06a3.68,3.68,0,1,1,1.53-5.15A3.81,3.81,0,0,1,453.31,108.06ZM468.12,91.2c.73-.43,2.76-1.54,4.43,1.32,1.13,1.93,1,3.44-1,4.61l-4.71,2.74-7.87,3.2c-1,.43-2.25.86-3.15-.68s-.22-2.32.9-3.18l6.67-5.27Z"/><path class="cls-4" d="M457.14,116.75a3.69,3.69,0,1,1,2.18-4.91A3.81,3.81,0,0,1,457.14,116.75ZM474,101.94c.78-.33,2.94-1.17,4.22,1.88.87,2.06.58,3.55-1.56,4.44l-5,2.12-8.22,2.16c-1.08.29-2.35.56-3-1.08s.08-2.33,1.3-3l7.29-4.37Z"/><g class="cls-5"><path class="cls-6" d="M169.05,136.15a27.65,27.65,0,0,0-5.41-22.56c-5.24-6.69-13.51-11.29-23.92-13.28l-25.25-4.84a35,35,0,0,0-6.58-.69c-13.33,0-18,10.06-19.67,18.5L77.74,168c-1.39,7.27-.63,13,2.34,17.42s8.08,7.41,15.47,8.83L123,199.48a45.83,45.83,0,0,0,8.69.85,34.73,34.73,0,0,0,21.83-7.15,30.88,30.88,0,0,0,11.24-18.75c1.64-8.57-.08-16.57-4.76-23A25.55,25.55,0,0,0,169.05,136.15Z"/><path class="cls-6" d="M96.53,188.48c-11.31-2.17-15-8-12.87-19l10.48-54.69c2.39-12.47,9.23-14.74,19-12.88l25.25,4.84c19,3.64,26.77,16.22,24.4,28.58a19.38,19.38,0,0,1-13.11,15.08c7.44,5.44,10.6,13.88,8.81,23.2C155.72,188,142.21,197.24,124,193.74Zm17.84-52.84,15.62,3c5.76,1.1,7.78-2.1,8.29-4.72.9-4.71-3.15-6.25-6.09-6.81l-13.4-2.57a2,2,0,0,0-2.61,1.67Zm-3.81,19.9-2.21,11.53a2,2,0,0,0,1.78,2.62l13.41,2.57c3,.58,10.11,1.07,11.32-5.22,1-5-3-7.42-8.69-8.51Z"/></g><path class="cls-7" d="M165.57,132.67a27.67,27.67,0,0,0-5.41-22.56c-5.24-6.7-13.51-11.3-23.92-13.29L111,92a35,35,0,0,0-6.58-.68c-13.33,0-18,10-19.67,18.49L74.25,164.48c-1.39,7.28-.62,13,2.34,17.42s8.09,7.42,15.47,8.83L119.51,196a46.74,46.74,0,0,0,8.7.84A34.75,34.75,0,0,0,150,189.69,30.89,30.89,0,0,0,161.27,171c1.65-8.57-.08-16.58-4.76-22.95A25.62,25.62,0,0,0,165.57,132.67Z"/><path class="cls-4" d="M93.05,185c-11.32-2.17-15-8-12.88-19l10.49-54.7c2.39-12.46,9.23-14.74,19-12.87l25.25,4.84c19,3.64,26.76,16.21,24.39,28.58A19.35,19.35,0,0,1,146.18,147c7.43,5.44,10.6,13.87,8.81,23.2-2.75,14.35-16.26,23.6-34.49,20.1Zm17.84-52.85,15.61,3c5.76,1.1,7.79-2.09,8.29-4.71.9-4.72-3.15-6.25-6.08-6.82L115.3,121a2,2,0,0,0-2.6,1.68Zm-3.82,19.9-2.2,11.53a2,2,0,0,0,1.77,2.62l13.41,2.57c3,.58,10.12,1.07,11.33-5.22,1-5-3-7.42-8.69-8.51Z"/><path class="cls-8" d="M381.38,171.43a13.09,13.09,0,0,0-16.6-11.67,83.17,83.17,0,0,1-13.93,3,40.86,40.86,0,0,1-4.57.28,15,15,0,0,1-4.42-.51,12.77,12.77,0,0,1,1.67-2.15l.22-.24a11.16,11.16,0,0,0,2.71-8.7c-.73-6.57-7.13-11.92-14.24-11.92a13.47,13.47,0,0,0-1.56.09,12.72,12.72,0,0,0-8.12,4.13l-.11.12c-.56.66-1.18,1.42-1.81,2.28-.1-2.24-.18-4.47-.23-6.71a12,12,0,0,0,4.1.72h0a13.2,13.2,0,0,0,3.62-.52c4-1.14,10.05-2.56,14.71-3.36a10.5,10.5,0,0,0-.4,4.34c.7,6.21,6.91,11.27,13.84,11.27a13.25,13.25,0,0,0,1.54-.09,13.42,13.42,0,0,0,9.46-5c1.09-1.32,9-11.39,7.81-22.18-.93-8.23-7.48-17-23.07-17a48.28,48.28,0,0,0-5.26.3,215,215,0,0,0-25.06,4.7,14.64,14.64,0,0,0-3.52,1.41,12.31,12.31,0,0,0-1.11-1.3,14.67,14.67,0,0,0-10.54-4.23,16.79,16.79,0,0,0-1.75.1c-5,.57-9,3-11.18,6.69A14.72,14.72,0,0,0,283.09,110a17.44,17.44,0,0,0-8.51,1.6l-6.64,2.88c-11.46,4.93-25.72,11.07-34.71,16.63-4.06,2.5-9.09,6.15-11.95,11.61-4.74-7.67-13.29-12.47-23.68-12.47a30.86,30.86,0,0,0-31.11,31.05c0,12.49,7.55,21.56,17.95,21.56a17,17,0,0,0,7.46-1.6,11,11,0,0,0,9.4,4.68c5.26,0,19.07-5.13,23-20a46.52,46.52,0,0,0,5.2,5.18l.05,0c10,8.61,24.37,18.34,33.91,24.78l1.36.91.09.07a18.55,18.55,0,0,0,8.88,3.11c.35,0,.69,0,1,0h0a15.09,15.09,0,0,0,15.27-13.85,13,13,0,0,0-6.46-12.13c-7.51-4.69-21.49-13.66-30.61-21.05l-.06,0-.66-.53c.22-.12.45-.25.71-.37l.1-.06c9.77-5.15,22.17-9.9,34.07-14.34a16.06,16.06,0,0,0,4.71-2.74c.34,13.64,1.32,27.6,3,42.34.15,1.3.33,2.73.51,4.12s.32,2.49.44,3.53a13.58,13.58,0,0,0,13.91,12.29h0a17.29,17.29,0,0,0,1.76-.09,14.73,14.73,0,0,0,10.07-5.57,13.26,13.26,0,0,0,2.46-5.65c4.65,3,11.33,5.09,20.94,5.09h0a77.46,77.46,0,0,0,8.53-.5,113.76,113.76,0,0,0,17.12-3.2A14.2,14.2,0,0,0,381.38,171.43Z"/><path class="cls-9" d="M378.07,168.11a13.09,13.09,0,0,0-16.6-11.66,83.17,83.17,0,0,1-13.93,3,41,41,0,0,1-4.57.29,15,15,0,0,1-4.42-.52,13.32,13.32,0,0,1,1.67-2.15l.22-.24a11.13,11.13,0,0,0,2.71-8.7c-.73-6.57-7.13-11.92-14.24-11.92a13.47,13.47,0,0,0-1.56.09,12.75,12.75,0,0,0-8.12,4.12l-.11.13c-.56.66-1.18,1.42-1.81,2.28q-.15-3.34-.23-6.71a12.18,12.18,0,0,0,4.1.71h0a13.19,13.19,0,0,0,3.62-.51c4-1.14,10.06-2.55,14.71-3.36a10.67,10.67,0,0,0-.4,4.34c.69,6.21,6.91,11.27,13.84,11.27a13.25,13.25,0,0,0,1.54-.09,13.42,13.42,0,0,0,9.46-5c1.09-1.32,9-11.39,7.81-22.18-.93-8.22-7.48-17-23.08-17a48.47,48.47,0,0,0-5.25.31,215,215,0,0,0-25.06,4.7,14.49,14.49,0,0,0-3.53,1.42,12.41,12.41,0,0,0-1.1-1.32,14.7,14.7,0,0,0-10.54-4.22,17.11,17.11,0,0,0-1.75.1c-5,.57-9,3-11.18,6.69a14.65,14.65,0,0,0-10.48-5.21,17.46,17.46,0,0,0-8.52,1.6c-2,.9-4.29,1.86-6.64,2.87-11.46,4.94-25.72,11.08-34.71,16.64-4.06,2.5-9.09,6.15-12,11.61-4.74-7.67-13.28-12.47-23.68-12.47A30.87,30.87,0,0,0,163.18,158c0,12.5,7.55,21.57,18,21.57a17,17,0,0,0,7.45-1.61,11,11,0,0,0,9.4,4.68c5.26,0,19.07-5.13,23-20a44.08,44.08,0,0,0,5.2,5.18l.05,0c10,8.61,24.37,18.34,33.91,24.78l1.35.91.11.07a18.44,18.44,0,0,0,8.87,3.11c.35,0,.69,0,1,0h0a15.09,15.09,0,0,0,15.27-13.86,13,13,0,0,0-6.46-12.12c-7.52-4.69-21.49-13.66-30.62-21l0,0-.66-.53c.22-.12.45-.25.7-.37l.11-.05c9.77-5.16,22.17-9.91,34.07-14.35a16.06,16.06,0,0,0,4.71-2.74c.34,13.64,1.33,27.6,3,42.35.15,1.29.33,2.72.51,4.11s.32,2.48.44,3.53a13.59,13.59,0,0,0,13.91,12.3h0a14.85,14.85,0,0,0,1.76-.11,14.68,14.68,0,0,0,10.07-5.56,13.46,13.46,0,0,0,2.47-5.65c4.64,3,11.32,5.09,20.93,5.09h0a77.61,77.61,0,0,0,8.53-.5,113.16,113.16,0,0,0,17.11-3.2A14.21,14.21,0,0,0,378.07,168.11Z"/><path class="cls-10" d="M199.14,145.8c0,1.4-2.61,10.85-5,16.38-3.23,7.56-6.84,11.48-13,11.48-8.15,0-12.06-7.88-12.06-15.66a25,25,0,0,1,25.2-25.15c12.95,0,21.82,9.08,21.82,21.34,0,17.49-14.45,22.55-18.11,22.55a5.14,5.14,0,0,1-5.48-5.12c0-3,1.93-4.48,5.06-5.32,5.69-1.57,8.35-5.89,8.35-12.05,0-6.84-4.38-10.55-8.09-11.7A4.59,4.59,0,0,1,199.14,145.8Zm-20.35,12.31c0,.52,0,5.9,2.29,5.9,3.44,0,6.89-11.75,8.09-16.7.73-3.19.94-3.92,2.14-5A15.73,15.73,0,0,0,178.79,158.11Z"/><path class="cls-11" d="M281.74,128.87c-12.21,4.55-24.7,9.34-34.73,14.64-2.12,1.06-5.34,3.09-5.46,5-.14,2.23,2,3.9,4.44,5.86,8.74,7.07,21.85,15.61,31.18,21.44a7.07,7.07,0,0,1,3.69,6.75,9.26,9.26,0,0,1-10,8.29,12.58,12.58,0,0,1-6-2.18c-9.39-6.34-24.54-16.47-34.72-25.26-4.71-4.16-8.9-8.54-8.46-15.55.35-5.55,3.56-10.16,11.41-15,10.44-6.46,28.67-13.9,40.68-19.16a11.66,11.66,0,0,1,5.73-1.1,8.49,8.49,0,0,1,8.19,8.93C287.43,124.5,285.61,127.39,281.74,128.87Z"/><path class="cls-11" d="M313.25,166.37c.45,4,1.25,9.6,1.64,12.31.87,5.42-3.14,8.8-7.4,9.28s-8.55-1.7-9.14-7c-.26-2.22-.68-5.19-1-7.65a457.23,457.23,0,0,1-3.06-54.73c.08-4.67,3.85-7.07,7.77-7.51,4.34-.49,9.27,2,9.13,6.89A334.58,334.58,0,0,0,313.25,166.37Zm52.54,11.92a107.19,107.19,0,0,1-16.3,3c-15.4,1.74-31.38-.86-33.14-16.52-1-8.85,3.68-16.27,7.26-20.47a6.8,6.8,0,0,1,4.4-2.22c4.43-.49,8.85,2.8,9.28,6.63A5.34,5.34,0,0,1,336,153c-1.4,1.45-4,4.67-3.68,7.14.57,5.1,7.41,6.14,15.92,5.18A87.77,87.77,0,0,0,363,162.14c4.93-1.33,8.69,2.3,9.19,6.64C372.64,172.61,371.05,176.92,365.79,178.29Zm-6.42-38.58a7.66,7.66,0,0,1-5.54,2.87c-4.17.47-8.47-2.5-8.86-6a5.49,5.49,0,0,1,1.66-4.41c1-1.15,2.11-2.66,1.92-4.36s-2.43-1.71-6.34-1.27a148.34,148.34,0,0,0-19,4c-4.92,1.42-8.65-2.56-9.15-7a7.66,7.66,0,0,1,5.84-8.67,204.81,204.81,0,0,1,24.22-4.54c15-1.69,21.05,4.78,21.81,11.5C366.73,129.31,361.42,137.24,359.37,139.71Z"/><path class="cls-12" d="M349.27,67.42c-.28-2.79-2.77-8.27-11.37-9a11.7,11.7,0,0,0,.63-5.31c-.29-1.74-3.61-9.93-14.33-8.46-3.91.53-124.93,20.86-134.19,22.41-10.46,1.74-25.9,5-24.27,16.11,1.47,10,8.74,10.69,11,11.27-1.61,1.15-3.5,3.24-3.06,5.76,1.07,6.12,6,5.74,6.86,6a4.74,4.74,0,0,0-.41,4.21c2.42,7.21,10.86,6,19.16,4.58l141-23.55a7.3,7.3,0,0,0,6.14-8.16c-.73-4.89-4.34-6-5-6.47C344.91,75.71,349.91,73.73,349.27,67.42Z"/><path class="cls-13" d="M196.86,112.73l141-23.54A7.27,7.27,0,0,0,344,81c-.9-5.36-7-6-7-6,2.68-.45,11-3.09,9.85-9.91-1.46-8.76-13.59-6.49-13.59-6.49,2.5-.79,3-4.5,2.47-7.66-.73-4.39-7.67-7-11.57-6.33L190,67.09c-10.47,1.74-25.85,5-24.28,16.11,1.5,10.6,14.34,9.07,14.34,9.07s-7.24,3.44-6.42,8c.94,5.23,8.92,4.76,8.92,4.76s-3.82.67-2.47,5.42C181.34,114.87,188.34,114.16,196.86,112.73Z"/><path class="cls-14" d="M191.85,95.26a2.2,2.2,0,0,0-.4,1.63c.24,1.45,2.23,2.44,6.3,1.75a21.64,21.64,0,0,0,6.81-2.26,5,5,0,0,1,1.85-.77,3,3,0,0,1,3.47,2.49c.35,2.08-1.35,3.08-2.49,3.66a28.75,28.75,0,0,1-8.52,2.72c-2,.34-12,2-13.48-6.37-.45-2.62.57-6.58,3.22-7a3,3,0,0,1,3.49,2.42A2.43,2.43,0,0,1,191.85,95.26Zm11-17.8a3.06,3.06,0,0,1,2.67,2.59c.42,2.43-1.62,3.42-3,3.66-.35.05-3.31.4-5.45.76s-5.61,1.18-6.75,1.54a19.65,19.65,0,0,1-2.16.59,3.23,3.23,0,0,1-4-2.6c-.33-1.92.8-3.09,2.86-3.73a65.92,65.92,0,0,1,8.93-2.07C197.4,78,201.7,77.27,202.87,77.46Z"/><path class="cls-14" d="M227.49,79.34a3.35,3.35,0,0,0,2.6.59,3.47,3.47,0,0,0,2.72-2.28,2.71,2.71,0,0,1,.62,1.33c.44,2.58-1.89,3.24-2.94,3.54-.7.22-7,2.07-10.71,4.48-1,.62-3.1,2.22-2.7,4.58.32,1.86,2.4,3.62,7,2.83a24.53,24.53,0,0,0,5.62-1.64,9.37,9.37,0,0,1,2.2-.83,2.77,2.77,0,0,1,3.31,2.29c.44,2.65-1.84,3.53-4.15,4.44a31.27,31.27,0,0,1-6,1.56c-7.66,1.31-13.14-1.13-14.21-7.4-.86-5.11,2.35-8.32,6.08-10.64a18.19,18.19,0,0,1-1.92-5.58c-.11-.63-.61-3.59,2.5-4.12a3,3,0,0,1,3.58,2.31,14.72,14.72,0,0,0,1.44,4.49c1.58-.66,2.55-1,3.35-1.31C226.22,78.19,227.23,79.18,227.49,79.34ZM229,73.23A14.76,14.76,0,0,1,231,74.88a2.29,2.29,0,0,1,.66,1.25,2.16,2.16,0,0,1-1.75,2.48c-.82.14-1.52-.17-2.51-1.19a8.5,8.5,0,0,0-.94-.82,2,2,0,0,1-.74-1.27,2.09,2.09,0,0,1,1.72-2.46A2,2,0,0,1,229,73.23Zm4.67-3.29a19,19,0,0,1,1.82,1.54,2.34,2.34,0,0,1,.86,1.44,2.16,2.16,0,0,1-3.72,1.8,17.29,17.29,0,0,0-1.68-1.5,2,2,0,0,1-.55-1.1,2.13,2.13,0,0,1,1.69-2.46A2.27,2.27,0,0,1,233.71,69.94Z"/><path class="cls-14" d="M251.8,79.64c.37-.09,1.39-.4,2.06-.64a24.9,24.9,0,0,1,2.71-.88,2.83,2.83,0,0,1,3.36,2.18c.29,1.71-.7,2.75-2.47,3.44-1.1.41-3.86,1.34-4.95,1.59.28,2.06.53,4.29,5,3.53,1.61-.27,5.26-1.12,4.57-5.19a8.41,8.41,0,0,0-.54-1.65,14,14,0,0,1-.84-2,2.69,2.69,0,0,1,2.49-3.31,3,3,0,0,1,3.24,1.72,12.42,12.42,0,0,1,1.49,4.19c.6,3.53.37,10.13-9.47,11.79-5,.85-10.35,0-11.44-6.42-.06-.31-.13-.91-.18-1.39-.62.11-1.38.23-1.92.29-3.45.33-5.64-.72-6.07-3.21-.35-2.09.84-4.65,2.39-5a2.87,2.87,0,0,1-3.51-2.32,2.84,2.84,0,0,1,2.12-3.15L245,72.05a7.24,7.24,0,0,1-.13-2.32,2.81,2.81,0,0,1,2.33-2.34,3,3,0,0,1,3.14,1.51c.19.36.18.52.36,1.95l5.49-1.13a2.87,2.87,0,0,1,3.42,2.37,2.82,2.82,0,0,1-2.13,3.13l-6.05,1.25Zm-10-1.18c2-.19,2.26,1.07,2.3,1.29a1.53,1.53,0,0,1,0,.52,1.49,1.49,0,0,0,0,.46c.06.31.39.58,2,.24-.26-2.13-.3-2.38-.4-3.3Z"/><path class="cls-14" d="M277.08,77.75a51.15,51.15,0,0,1,.6,8.69,3.37,3.37,0,0,1,2-.8,94.93,94.93,0,0,0,1.88-13.33c.1-1.93.32-2.91,2.4-3.26,2.43-.42,3.7.37,3.88,1.44.27,1.61-2.09,12.69-2.35,13.8,3.46-.78,4.11-1,7.09-1.76-.08-.14-1.79-2.71-2.67-4.08a3.2,3.2,0,0,1-.61-1.3c-.31-1.83,2-2.9,2.82-3,1.33-.23,1.91.55,2.83,1.73,1.76,2.32,5.84,8.44,6.06,9.7.26,1.52-1.81,3.07-3.48,3.35-1.3.22-1.69-.4-2.24-1.53-8.6,2.47-14.36,3.87-14.9,4-.73.12-2.1.26-2.89-2.29-.26,2.27-.37,3.34-1.92,3.6-1.16.2-4-.79-4.28-2.68a7.42,7.42,0,0,1,.1-2.09,26.9,26.9,0,0,0-.12-8.68l-1.6-9.46c-.36-2.08-.54-3.18.61-4.19.62-.56,1.53-.71,3-1l6.28-1.07c-.32-1.66,0-2.63,2.49-3.05s3.31,0,3.62,2l8-1.37c2-.33,3.24-.55,3.72,2.25s-1,3-2.79,3.27l-19,3.23Z"/><path class="cls-14" d="M314.33,77.05a4.73,4.73,0,0,1-2.06,1.26,1.41,1.41,0,0,1-1.38-.48c.12,1.27,0,2-.88,2.45s-5.13,3-6.08,3.17c-.63.11-1.14-.22-1.5-1a14.25,14.25,0,0,1-.8-2.62c-.28-1.64.47-2,2-2.78l-1.17-6.84c-1.87.19-2.32-.87-2.57-2.39s-.29-2.8,1.61-3.26l-.65-3.87c-.36-2.11-.55-3.22,2.32-3.7,2.64-.46,2.85.77,3.19,2.76l.66,3.88c1.05-.28,1.85,0,2.3,2.65s-.44,2.9-1.34,3l.92,5.39a1.17,1.17,0,0,1,1.23.34c.13-.15.85-.7,1-.85A12.6,12.6,0,0,0,313.3,72c-1.67.29-2.31.36-2.8.15a2.17,2.17,0,0,1-1.23-1.9c-.27-1.54.52-2.26,1.88-2.49l17-2.89c1.26-.21,2.28,0,2.61,2A2,2,0,0,1,329,69.3l-10.44,1.77c-.07.15-.21.46-.4.85l8.82-1.5c3.32-.57,3.81,1.2,4.17,3.35a29.92,29.92,0,0,1,.37,7.33c-.24,1.21-.83,2.12-2.72,2.44l-2.72.46c-1.19.2-1.7.13-2.26-.3a4.12,4.12,0,0,1-1-1.8c-1,1.5-2.52,3.35-4.09,3.62A2.58,2.58,0,0,1,316,83.78a1.16,1.16,0,0,1,.24-.85,14.92,14.92,0,0,1,1.5-1.5,12.59,12.59,0,0,0,3.44-5.54l-.89.15c-2.19,5-7,8.55-8.46,8.8a2.32,2.32,0,0,1-2.49-2c-.14-.85.14-1.13,1.57-2a16,16,0,0,0,4.62-3.93Zm-5.45-15.43c-.49-2.89-.81-4.72,2.7-5.32l10.81-1.84c2.58-.44,4.41-.75,5,2.84l.39,2.27c.43,2.53.75,4.42-2.72,5l-10.84,1.85c-2.49.42-4.42.74-5-2.72Zm5.28-2.51.17,1,7.6-1.29-.17-1Zm.55,3.24.17,1,7.6-1.29-.17-1Zm10.81,12.8A25.27,25.27,0,0,1,324,79.72c1.48-.28,1.76-.33,2-.77.4-.71.16-3,.05-3.9Z"/></g></g></g></svg>