<?xml version="1.0" encoding="utf-8"?>
<!-- Generator: Adobe Illustrator 15.1.0, SVG Export Plug-In . SVG Version: 6.00 Build 0)  -->
<!DOCTYPE svg PUBLIC "-//W3C//DTD SVG 1.1//EN" "http://www.w3.org/Graphics/SVG/1.1/DTD/svg11.dtd">
<svg version="1.1" id="レイヤー_1" xmlns="http://www.w3.org/2000/svg" xmlns:xlink="http://www.w3.org/1999/xlink" x="0px"
	 y="0px" width="400px" height="400px" viewBox="0 0 400 400" enable-background="new 0 0 400 400" xml:space="preserve">
<g>
	<path fill="#FFFFFF" d="M177.327,349.907l11.518-13.708h-29.763l22.43-26.83l-10.216,0.209l-6.15,0.176
		c-2.174,0.068-4.333,0.143-6.496,0.223l-6.421,0.24l-0.012,0.014l-4.006,0.175l2.761,15.608l-40.493,29.043l4.213-42.6
		l-4.649,0.359v-12.644l-4.744,0.398c-1.369,0.116-5.283,0.456-5.283,0.456l-0.917-0.745c-2.391-1.948-4.785-3.886-7.179-5.815
		l-7.951-6.404l-2.233,6.146l-54.715,5.41l33.514-46.697l4.387-23.384l-5.805,0.56c-9.654,0.928-23.204,2.297-31.714,3.248
		l-1.208,0.139l-0.943-0.762c-4.116-3.309-8.174-6.664-12.074-9.966l-5.285-4.479l6.895-0.648c4.007-0.379,8.707-0.812,13.811-1.271
		l10.348-0.928l-12.422-10.621l-5.491-4.711l8.412-0.483c2.781-0.161,6.353-0.378,10.243-0.617l0.136-0.007
		c9.522-0.583,21.375-1.308,27.896-1.565l3.456-0.137l0.667-3.389c0.262-1.327,0.749-3.655,1.338-6.487
		c0.78-3.744,1.743-8.362,2.608-12.676l1.913-9.54L61.8,167.767l14.91-25.82l-17.635,3.12l-32.055-44.69l54.727,5.413l6.117,16.832
		l14.88-25.779l5.777,15.782l21.58-12.458l-14.539-5.282l-4.912-49.651L161,81.345l-4.39-35.991h22.861L200,0l20.525,45.354h22.861
		l-4.402,36.123l50.539-36.243l-4.914,49.651l-14.539,5.282l21.578,12.458l5.773-15.782l14.887,25.779l6.111-16.832l54.729-5.413
		l-32.054,44.69l-17.64-3.122l14.889,25.691l-14.706-2.506l-4.234,10.83l12.74,13.632l0.613,0.021
		c6.824,0.224,12.31,0.377,17.199,0.51c8.969,0.25,16.188,0.486,25.868,0.928l-17.911,15.456l24.194,1.777l-18.651,15.45
		c-10.164-0.836-27.906-2.182-37.402-2.793l-2.396-0.153l11.11,25.301l38.38,53.531l-54.725-5.41l-2.135-5.882l-7.609,6.14
		c-2.396,1.931-4.791,3.867-7.186,5.815l-0.918,0.746l-1.177-0.104c-3.457-0.306-6.924-0.591-10.379-0.863l-4.723-0.371v6.459
		l-8.182,7.553l9.546,0.691l4.024,40.662l-40.494-29.043l2.766-15.635l-5.005-0.205c-2.818-0.117-5.644-0.226-8.445-0.32
		l-1.964-0.066l-1.825-0.055c-2.178-0.066-4.354-0.127-6.532-0.184l-9.629-0.238l6.071,7.408l16.284,19.479H211.15l11.518,13.708
		L200,400L177.327,349.907z"/>
	<polygon fill="#283457" points="200,98.708 313.3,170.914 317.185,170.914 232.732,117.413 228.657,112.877 228.657,107.703 
		217.152,107.703 200,96.705 182.845,107.703 171.347,107.703 171.347,112.877 167.266,117.413 82.817,170.914 86.702,170.914 	"/>
	<polygon fill="#283457" points="103.698,170.914 115.712,170.914 115.712,163.137 	"/>
	<polygon fill="#283457" points="284.291,170.914 296.299,170.914 284.291,163.137 	"/>
	<polygon fill="#283457" points="33.143,296.085 79.624,291.486 86.251,273.241 98.822,265.982 93.323,281.029 93.335,281.053 
		105.856,276.979 114.503,249.111 	"/>
	<path fill="#283457" d="M146.122,315.348c-1.924,0.092-3.847,0.176-5.777,0.279l-3.32,0.178v-0.002L133,316.045l-18.985,32.885
		l33.764-24.215L146.122,315.348z"/>
	<path fill="#283457" d="M284.584,245.628l9.489,0.692l0.44,0.041c3.563,0.318,7.123,0.654,10.682,1.009l7.08,0.7l4.8,0.533
		l5.719,0.666c2.294,0.271,4.585,0.558,6.875,0.842l-21.554,4.146l12.568,7.261l19.115-3.384l27.225,37.951l-81.359-46.974
		L284.584,245.628z"/>
	<path fill="#283457" d="M267.275,316.05c2.193,0.134,4.396,0.271,6.59,0.416l6.275,0.433c0.955,0.066,1.911,0.143,2.861,0.211
		l3.145,31.82l-18.982-32.885L267.275,316.05z"/>
	<path fill="#283457" d="M206.771,320.996l10.28,12.285h17.624l-15.967-19.1l-9.732-0.119c-2.113-0.017-4.222-0.028-6.328-0.035
		h-1.062h-1.298c-0.097,0-0.19,0-0.287,0v78.896l19.257-42.548l-12.486-14.862V320.996L206.771,320.996z"/>
	<path fill="#8399BA" d="M115.582,245.628l-9.487,0.692l-0.446,0.041c-3.561,0.318-7.121,0.654-10.677,1.009l-7.081,0.7l-4.8,0.533
		l-5.719,0.666c-2.292,0.271-4.583,0.558-6.876,0.842l21.556,4.146l-12.568,7.261l-19.118-3.384l-27.221,37.951l81.361-46.974
		L115.582,245.628z"/>
	<path fill="#8399BA" d="M132.89,316.05c-2.193,0.134-4.395,0.271-6.591,0.416l-6.271,0.433c-0.955,0.066-1.909,0.143-2.863,0.211
		l-3.147,31.82L133,316.045L132.89,316.05z"/>
	<polygon fill="#8399BA" points="367.023,296.085 320.544,291.486 313.915,273.241 301.346,265.982 306.844,281.029 306.83,281.053 
		294.311,276.979 285.666,249.111 	"/>
	<path fill="#8399BA" d="M254.042,315.348c1.931,0.092,3.856,0.176,5.776,0.279l3.32,0.178v-0.002l4.024,0.242l18.987,32.885
		l-33.766-24.215L254.042,315.348z"/>
	<path fill="#8399BA" d="M193.782,314.048l-6.133,0.052c-2.12,0.024-4.243,0.053-6.368,0.09l-15.957,19.093h17.625l10.282-12.285
		v14.519l-12.489,14.862L200,392.927v-78.897C197.924,314.027,195.852,314.035,193.782,314.048"/>
	<path fill="#283457" d="M134.439,251.902c-0.061,0.002-0.124,0.009-0.185,0.013v-3.405c-0.302-0.279-0.607-0.556-0.912-0.838
		c-1.164,0.079-2.329,0.161-3.492,0.242c-0.318,0.335-0.637,0.668-0.95,1.001v14.874c0.313,0.289,0.632,0.578,0.95,0.865
		c1.139-0.081,2.277-0.161,3.416-0.236c0.333-0.344,0.658-0.689,0.988-1.036v-3.7c-1.467,0.098-2.936,0.201-4.404,0.301v-0.291
		c3.193-2.271,6.392-4.528,9.59-6.769c0.071-0.006,0.136-0.009,0.205-0.014v12.345c-1.188,1.244-2.377,2.492-3.57,3.741
		c-3.003,0.194-6.012,0.399-9.016,0.623c-1.185-1.078-2.366-2.156-3.547-3.229v-19.27c1.181-1.256,2.362-2.512,3.547-3.768
		c3.004-0.22,6.013-0.428,9.016-0.621c1.192,1.094,2.381,2.192,3.57,3.291v2.233C137.913,249.468,136.176,250.684,134.439,251.902"
		/>
	<path fill="#283457" d="M146.431,242.118c2.531-0.14,5.071-0.265,7.608-0.382c1.903,8.666,3.808,17.341,5.711,26.018
		c-1.736,0.072-3.475,0.146-5.21,0.225c-0.323-1.574-0.649-3.146-0.97-4.717c-2.225,0.104-4.45,0.213-6.68,0.336
		c-0.312,1.603-0.628,3.207-0.944,4.811c-1.743,0.097-3.485,0.193-5.227,0.299C142.622,259.839,144.526,250.975,146.431,242.118
		 M147.842,258.873c1.593-0.083,3.186-0.162,4.784-0.238c-0.766-3.73-1.528-7.461-2.292-11.188c-0.068,0.002-0.137,0.006-0.203,0.01
		C149.368,251.26,148.603,255.066,147.842,258.873"/>
	<path fill="#283457" d="M182.089,240.883v26.229c-1.59,0.025-3.178,0.062-4.769,0.096c-0.008-5.24-0.011-10.477-0.019-15.713
		c-1.186,3.111-2.373,6.232-3.555,9.354c-1.198,0.028-2.394,0.062-3.594,0.098c-1.187-3.053-2.369-6.104-3.555-9.155
		c-0.01,5.239-0.025,10.478-0.038,15.716c-1.621,0.055-3.238,0.113-4.855,0.174c0.019-8.742,0.036-17.484,0.052-26.229
		c2.105-0.08,4.209-0.153,6.311-0.22c1.284,3.408,2.565,6.817,3.852,10.23c1.313-3.484,2.62-6.967,3.929-10.447
		C177.926,240.961,180.008,240.919,182.089,240.883"/>
	<path fill="#283457" d="M200.521,245.46c-3.383-0.002-6.765,0.013-10.15,0.043v5.64c2.613-0.021,5.227-0.039,7.839-0.041v4.672
		c-2.612,0.002-5.226,0.017-7.839,0.041v6.429c3.386-0.032,6.768-0.046,10.15-0.043v4.764c-5.183-0.007-10.364,0.029-15.551,0.106
		v-26.264c5.188-0.078,10.369-0.113,15.551-0.109V245.46z"/>
	<path fill="#283457" d="M219.859,252.559c-3.44,2.131-6.879,4.276-10.315,6.441v3.242c1.64,0.015,3.274,0.035,4.911,0.06v-4.506
		c0.07,0,0.141,0.003,0.212,0.004c1.729,1.136,3.456,2.277,5.192,3.423c0,1.978,0,3.957,0,5.932
		c-5.241-0.102-10.478-0.164-15.717-0.184v-10.806c3.438-2.185,6.875-4.351,10.312-6.501v-3.113
		c-0.333-0.335-0.664-0.669-1.003-1.002c-1.127-0.018-2.26-0.031-3.389-0.04c-0.312,0.3-0.623,0.604-0.934,0.905v3.389
		c-0.064,0-0.134,0-0.204-0.001c-1.731-1.12-3.463-2.235-5.196-3.347v-2.271c1.181-1.154,2.36-2.311,3.537-3.463
		c3.016,0.024,6.025,0.057,9.035,0.108c1.186,1.185,2.373,2.371,3.557,3.562C219.859,247.113,219.859,249.835,219.859,252.559"/>
	<path fill="#283457" d="M235.198,241.314c1.184,1.211,2.37,2.422,3.556,3.635v19.268c-1.186,1.122-2.372,2.242-3.556,3.363
		c-3.011-0.107-6.019-0.199-9.029-0.279c-1.185-1.195-2.369-2.39-3.554-3.585v-19.267c1.185-1.139,2.369-2.277,3.554-3.412
		C229.18,241.119,232.188,241.21,235.198,241.314 M233.357,261.803v-14.835c-0.323-0.325-0.646-0.655-0.971-0.983
		c-1.135-0.037-2.268-0.07-3.406-0.106c-0.319,0.312-0.647,0.618-0.969,0.925v14.836c0.32,0.326,0.648,0.653,0.969,0.979
		c1.14,0.034,2.271,0.069,3.406,0.106C232.712,262.419,233.034,262.109,233.357,261.803"/>
	<path fill="#283457" d="M257.118,254.01c-3.437,1.999-6.868,4.018-10.308,6.051v3.241c1.64,0.08,3.276,0.162,4.912,0.248
		c0-1.504,0-3.004,0-4.506c0.07,0.003,0.142,0.006,0.207,0.011c1.729,1.2,3.459,2.41,5.188,3.62v5.935
		c-5.234-0.305-10.468-0.565-15.702-0.784c0-3.604,0-7.205,0-10.806c3.439-2.056,6.873-4.092,10.309-6.105c0-1.039,0-2.078,0-3.117
		c-0.334-0.347-0.672-0.691-1.006-1.04c-1.13-0.06-2.257-0.114-3.387-0.168c-0.309,0.292-0.617,0.581-0.928,0.872v3.385
		c-0.071-0.001-0.137-0.004-0.207-0.006c-1.73-1.188-3.458-2.367-5.19-3.546v-2.271c1.177-1.11,2.356-2.219,3.533-3.328
		c3.013,0.138,6.019,0.287,9.026,0.449c1.184,1.233,2.369,2.465,3.552,3.698V254.01L257.118,254.01z"/>
	<path fill="#283457" d="M272.436,243.354c1.186,1.256,2.369,2.512,3.551,3.769v19.271c-1.182,1.07-2.365,2.148-3.551,3.228
		c-3.008-0.222-6.014-0.429-9.015-0.623c-1.183-1.242-2.366-2.481-3.551-3.722c0-6.422,0-12.846,0-19.267
		c1.185-1.095,2.368-2.188,3.551-3.274C266.422,242.925,269.432,243.131,272.436,243.354 M270.6,263.77v-14.834
		c-0.324-0.342-0.646-0.683-0.971-1.021c-1.134-0.081-2.268-0.159-3.398-0.237c-0.323,0.299-0.646,0.594-0.965,0.887V263.4
		c0.318,0.341,0.642,0.678,0.965,1.018c1.133,0.075,2.266,0.152,3.398,0.234C269.953,264.359,270.273,264.064,270.6,263.77"/>
	<path fill="#283457" d="M125.79,276.264c0.009,4.455,0.015,8.909,0.021,13.361c-2.096,0.141-4.191,0.283-6.294,0.434
		c-0.011-4.453-0.031-8.908-0.043-13.361c-2.172,0.158-4.346,0.318-6.518,0.486c0,4.455,0,8.909,0,13.364
		c-6.404,0.494-12.808,1.046-19.207,1.649c2.396,1.934,4.793,3.875,7.19,5.822c4.002-0.353,8.013-0.685,12.017-0.994
		c0,4.213,0,8.427,0,12.639c2.172-0.17,4.346-0.331,6.518-0.486c0.013-4.212,0.033-8.428,0.043-12.64
		c2.098-0.149,4.198-0.295,6.294-0.435c-0.007,4.215-0.013,8.426-0.021,12.642c2.21-0.147,4.422-0.284,6.636-0.419
		c-0.025-10.826-0.048-21.649-0.067-32.477C130.164,275.979,127.979,276.118,125.79,276.264"/>
	<path fill="#283457" d="M139.933,275.419c-1.444,1.521-2.883,3.041-4.325,4.567v23.828c1.442,1.355,2.881,2.722,4.325,4.086
		c3.661-0.196,7.323-0.373,10.985-0.532c1.451-1.505,2.901-3.011,4.354-4.509v-23.85c-1.452-1.378-2.902-2.751-4.354-4.123
		C147.258,275.047,143.594,275.225,139.933,275.419 M148.7,300.284c-0.398,0.437-0.799,0.866-1.202,1.303
		c-1.389,0.065-2.779,0.134-4.167,0.204c-0.387-0.374-0.772-0.75-1.156-1.12v-18.233c0.416-0.437,0.831-0.873,1.247-1.308
		c1.38-0.069,2.763-0.139,4.146-0.203c0.374,0.368,0.755,0.735,1.132,1.103V300.284L148.7,300.284z"/>
	<path fill="#283457" d="M171.143,285.059c-2.033,1.373-4.062,2.754-6.095,4.135v-14.834c-2.17,0.066-4.337,0.141-6.51,0.222v32.479
		c2.173-0.082,4.339-0.153,6.51-0.221v-11.441c1.183-0.797,2.373-1.594,3.556-2.39c0.87,0.533,1.742,1.068,2.61,1.604v12.051
		c2.184-0.057,4.367-0.105,6.551-0.148V292.2c-1.384-0.865-2.764-1.728-4.147-2.586c1.384-0.929,2.764-1.857,4.147-2.782v-12.798
		c-2.208,0.043-4.414,0.095-6.621,0.149L171.143,285.059L171.143,285.059z"/>
	<path fill="#283457" d="M193.663,284.701c-2.035,1.333-4.067,2.673-6.098,4.015v-14.834c-2.168,0.023-4.34,0.056-6.507,0.095
		v32.478c2.167-0.037,4.338-0.067,6.507-0.093v-11.438c1.186-0.777,2.375-1.552,3.56-2.322c0.867,0.554,1.739,1.104,2.607,1.657
		v12.05c2.183-0.012,4.37-0.02,6.556-0.02v-14.312c-1.386-0.895-2.771-1.781-4.151-2.666c1.383-0.904,2.768-1.807,4.151-2.703
		v-12.797c-2.211,0-4.418,0.006-6.625,0.021V284.701L193.663,284.701z"/>
	<path fill="#283457" d="M209.625,273.848c-2.318,10.807-4.637,21.625-6.956,32.445c2.12,0.006,4.245,0.016,6.368,0.031
		c0.385-1.96,0.771-3.922,1.156-5.879c2.709,0.022,5.428,0.056,8.138,0.099c0.396,1.972,0.788,3.938,1.183,5.909
		c2.114,0.035,4.229,0.076,6.346,0.125c-2.319-10.88-4.642-21.752-6.961-32.616C215.812,273.912,212.718,273.873,209.625,273.848
		 M211.35,294.678c0.93-4.646,1.858-9.299,2.789-13.941c0.088,0,0.168,0.003,0.252,0.003c0.928,4.668,1.856,9.341,2.787,14.012
		C215.232,294.721,213.296,294.698,211.35,294.678"/>
	<path fill="#283457" d="M228.26,306.636c2.186,0.052,4.369,0.115,6.557,0.181v-32.479c-2.188-0.066-4.371-0.128-6.557-0.184
		V306.636z"/>
	<path fill="#283457" d="M238.561,274.457c0.02,10.828,0.031,21.652,0.049,32.48c5.158,0.176,10.32,0.387,15.477,0.629
		c1.396-1.328,2.797-2.657,4.191-3.981v-23.987c-1.435-1.508-2.868-3.015-4.303-4.516
		C248.839,274.837,243.702,274.629,238.561,274.457 M251.729,300.165c-0.48,0.448-0.967,0.896-1.451,1.341
		c-1.69-0.076-3.383-0.146-5.073-0.213v-20.68c1.712,0.066,3.429,0.139,5.142,0.214c0.463,0.479,0.924,0.964,1.385,1.444
		C251.729,288.234,251.729,294.199,251.729,300.165"/>
	<path fill="#283457" d="M266.059,275.721c-1.44,1.357-2.884,2.721-4.32,4.084v23.824c1.438,1.523,2.88,3.049,4.32,4.572
		c3.664,0.212,7.321,0.443,10.982,0.691c1.447-1.342,2.896-2.684,4.346-4.021V281.02c-1.449-1.539-2.896-3.076-4.346-4.605
		C273.38,276.165,269.723,275.934,266.059,275.721 M274.823,301.564c-0.399,0.388-0.802,0.776-1.203,1.166
		c-1.386-0.088-2.772-0.178-4.163-0.263c-0.387-0.416-0.77-0.829-1.154-1.247v-18.23c0.412-0.393,0.832-0.782,1.246-1.172
		c1.377,0.084,2.764,0.173,4.143,0.262c0.379,0.41,0.756,0.816,1.133,1.229L274.823,301.564L274.823,301.564z"/>
	<path fill="#283457" d="M284.591,290.314v6.479c5.026,0.377,10.046,0.784,15.067,1.227c2.398-1.946,4.792-3.889,7.188-5.821
		C299.434,291.498,292.016,290.87,284.591,290.314"/>
	<path fill="#283457" d="M374.57,210.287c-15.85-1.15-35.51-2.107-51.388-2.941c0.777-0.82,1.559-1.645,2.336-2.472
		c-0.008-5.86-0.01-11.719-0.02-17.58c-2.435-2.731-4.877-5.429-7.322-8.086h-26.056c0.084,19.229,0.167,38.46,0.243,57.692
		c3.731,0.318,7.457,0.656,11.185,1.011c-0.036-7.214-0.073-14.429-0.11-21.642c1.345,0.082,2.691,0.164,4.034,0.252
		c2.996,7.442,5.986,15.008,8.979,22.699c4.093,0.44,8.188,0.899,12.272,1.389c-3.253-7.928-6.511-15.7-9.77-23.332
		c13.28,0.918,30.341,1.951,43.595,3.174C366.555,217.15,370.562,213.768,374.57,210.287 M303.344,189.85
		c2.905,0.049,5.816,0.104,8.722,0.157c0.787,0.86,1.569,1.722,2.353,2.588l0.044,11.764c-0.819,0.812-1.637,1.619-2.453,2.426
		c-2.867-0.137-5.736-0.27-8.604-0.396C303.384,200.875,303.363,195.362,303.344,189.85"/>
	<path fill="#283457" d="M77.644,179.492c-2.376,11.919-4.744,23.988-7.114,36.224c-15.175,1.048-40.335,3.271-55.469,4.696
		c4.003,3.395,8.013,6.695,12.009,9.917c10.469-1.172,30.957-3.222,41.449-4.163c-0.95,4.939-1.898,9.91-2.845,14.902
		c3.591-0.434,7.182-0.848,10.776-1.245c0.886-4.878,1.769-9.736,2.654-14.571c4.171-0.345,8.34-0.67,12.518-0.979
		c0.856,4.598,1.712,9.176,2.568,13.734c3.588-0.339,7.172-0.66,10.765-0.963c-3.872-18.857-7.732-38.023-11.595-57.562
		C88.119,179.486,82.88,179.491,77.644,179.492 M80.977,215.023c1.425-7.731,2.848-15.406,4.273-23.023
		c0.138-0.003,0.279-0.005,0.418-0.008c1.379,7.549,2.76,15.047,4.14,22.492C86.863,214.657,83.921,214.837,80.977,215.023"/>
	<path fill="#283457" d="M118.657,179.474c-3.718,0.002-7.429,0.003-11.145,0.003c-0.065,19.123-0.132,38.25-0.2,57.375
		c8.242-0.68,16.488-1.265,24.742-1.76c2.446-3.508,4.894-6.978,7.34-10.422c-6.965,0.305-13.933,0.659-20.895,1.071
		C118.552,210.318,118.604,194.896,118.657,179.474"/>
	<path fill="#283457" d="M256.598,179.208h-36.58c0.004,3.245,0.008,6.487,0.01,9.734c4.203,0.025,8.41,0.058,12.615,0.094
		c0.027,14.795,0.055,29.592,0.084,44.384c3.737,0.118,7.473,0.257,11.213,0.41l-0.109-44.721c4.27,0.021,8.534,0.044,12.798,0.073
		C256.621,185.855,256.609,182.533,256.598,179.208"/>
	<path fill="#283457" d="M262.016,179.208c-3.877,18.51-7.764,36.79-11.649,54.907c3.604,0.171,7.215,0.359,10.817,0.562
		c0.645-3.314,1.285-6.636,1.935-9.966c4.606,0.226,9.209,0.472,13.813,0.74c0.676,3.45,1.356,6.914,2.03,10.387
		c3.591,0.263,7.179,0.544,10.771,0.839c-4.006-19.482-8.004-38.62-12-57.47H262.016z M265.047,214.904
		c1.553-7.926,3.104-15.893,4.654-23.904c0.141,0.002,0.277,0.003,0.42,0.006c1.605,8.054,3.206,16.16,4.812,24.312
		C271.637,215.171,268.342,215.033,265.047,214.904"/>
	<path fill="#283457" d="M28.423,202.477c4.017,3.473,8.023,6.854,12.028,10.154c6.348-0.456,19.061-1.572,25.42-1.975
		c0.669-3.493,1.34-6.973,2.011-10.438"/>
	<path fill="#283457" d="M330.924,202.48c6.029,0.281,19.938,0.772,25.964,1.093c4.012-3.374,8.018-6.833,12.034-10.385
		c-10.048-0.328-27.974-0.817-38.025-1.082C330.907,195.563,330.913,199.022,330.924,202.48"/>
	<polygon fill="#8399BA" points="77.644,179.492 81.586,185.867 89.004,185.867 98.813,233.414 104.957,237.047 93.362,179.484 	"/>
	<polygon fill="#8399BA" points="81.586,185.869 71.879,236.005 76.451,239.824 85.247,192 	"/>
	<path fill="#8399BA" d="M95.656,218.874l-5.849-4.39c-19.995,1.01-55.393,4.099-74.749,5.928l5.831,4.859
		C42.604,223.128,77.477,220.15,95.656,218.874"/>
	<path fill="#8399BA" d="M67.882,200.219l-0.999,5.139l-32.611,2.127l-5.85-5.008C37.727,201.95,58.431,200.591,67.882,200.219"/>
	<path fill="#8399BA" d="M107.512,179.477l5.727,4.987l-0.149,46.897l22.671-1.438l3.633-5.253
		c-6.826,0.308-14.009,0.624-20.895,1.072l0.158-46.27L107.512,179.477z"/>
	<polygon fill="#8399BA" points="220.018,179.208 224.705,184.418 251.867,184.418 256.627,189.182 256.598,179.208 	"/>
	<polygon fill="#8399BA" points="238.193,184.499 238.343,229.118 243.939,233.829 243.829,189.111 	"/>
	<polygon fill="#8399BA" points="265.047,214.904 265.047,214.904 269.701,191 265.872,185.024 258.665,219.663 256.885,229.018 
		261.184,234.678 263.117,224.712 258.665,219.663 280.875,220.768 282.879,230.729 289.732,236.678 277.732,179.208 
		262.016,179.208 265.872,185.024 273.792,184.951 279.986,215.566 	"/>
	<path fill="#8399BA" d="M374.57,210.287c-9.517-0.674-41.41-2.396-51.388-2.941l2.336-2.472l-0.02-17.578l-7.322-8.088h-26.056
		l5.896,5.587l17.562,0.194l4.3,4.564l0.148,15.007l-6.562,5.314l-1.459-3.091l-8.594-0.396l-0.07-16.539l-5.324-5.055v47.744
		l5.53,5.372l-0.11-26.613l7.967,0.56l11.097,28.033l6.458,0.721l-12.21-28.555c17.771,1.152,38.953,2.301,51.732,3.377
		L374.57,210.287z"/>
	<path fill="#8399BA" d="M330.896,192.104l-0.073,5.235c4.211,0,30.387,1.092,31.736,1.244l6.362-5.396
		C362.291,192.872,338.935,192.281,330.896,192.104"/>
	<path fill="#283457" d="M147.801,184.194l-5.728-4.986c-0.016,5.707-0.031,11.417-0.044,17.128h5.747L147.801,184.194z"/>
	<path fill="#283457" d="M147.702,229.043l0.062-28.521l-5.736-4.168c-0.039,12.645-0.074,25.292-0.11,37.936
		c8.256-0.418,16.515-0.743,24.773-0.975c2.446-3.34,4.891-6.66,7.336-9.961l-3.682,4.985L147.702,229.043z"/>
	<polygon fill="#283457" points="210.839,212.973 190.322,199.852 185.532,203.326 205.27,215.958 205.27,221.105 210.839,223.396 	
		"/>
	<polygon fill="#283457" points="189.471,188.623 183.883,186.309 183.883,196.336 189.471,196.336 	"/>
	<polygon fill="#283457" points="193.229,228.061 188.583,223.548 188.568,222.087 182.995,216.741 182.995,225.842 190.318,232.93 
		208.971,232.93 206.059,228.041 	"/>
	<polygon fill="#283457" points="217.257,195.259 211.68,189.919 211.686,189.915 211.686,188.564 207.064,184.033 194.193,184.033 
		197.141,188.883 204.191,188.883 206.119,190.783 206.119,195.259 	"/>
	<path fill="#8399BA" d="M147.765,200.521l-0.062,28.521l22.645-0.703l3.682-4.986c-6.973,0.121-13.946,0.304-20.916,0.533
		c0.015-6.48,0.033-12.965,0.045-19.443L147.765,200.521z"/>
	<path fill="#8399BA" d="M147.775,196.336h5.401c0.013-5.711,0.028-11.421,0.041-17.128h-11.144l5.728,4.986L147.775,196.336z"/>
	<polygon fill="#8399BA" points="207.064,184.033 211.686,188.565 211.686,189.916 217.257,195.259 217.257,186.346 
		209.932,179.185 191.245,179.185 183.883,186.309 189.471,188.623 189.471,196.334 195.061,196.334 195.061,190.934 
		197.141,188.882 194.193,184.033 	"/>
	<polygon fill="#8399BA" points="210.839,212.973 210.839,223.396 205.27,221.105 203.148,223.157 196.137,223.193 194.172,221.255 
		194.133,216.704 182.999,216.743 188.571,222.085 188.568,222.089 188.586,223.548 193.229,228.061 206.059,228.042 
		208.971,232.926 216.41,225.693 216.41,209.988 195.108,196.373 190.322,199.852 	"/>
	<polygon fill="#283457" points="168.58,186.737 164.484,199.335 168.58,204.971 	"/>
	<polygon fill="#8399BA" points="168.58,186.737 172.672,199.335 168.58,204.971 	"/>
	<polygon fill="#283457" points="151.237,199.336 161.955,207.123 168.58,204.971 	"/>
	<polygon fill="#8399BA" points="151.237,199.336 164.484,199.336 168.58,204.971 	"/>
	<polygon fill="#283457" points="157.861,219.723 168.58,211.936 168.58,204.973 	"/>
	<polygon fill="#8399BA" points="157.861,219.723 161.955,207.123 168.58,204.973 	"/>
	<polygon fill="#8399BA" points="179.296,219.723 175.202,207.123 168.58,204.973 	"/>
	<polygon fill="#283457" points="179.296,219.723 168.58,211.936 168.58,204.973 	"/>
	<polygon fill="#8399BA" points="185.921,199.336 172.672,199.336 168.58,204.971 	"/>
	<polygon fill="#283457" points="185.921,199.336 175.202,207.123 168.58,204.971 	"/>
	<polygon fill="#283457" points="367.023,103.914 320.537,108.513 313.907,126.763 301.33,134.024 306.83,118.974 298.02,103.705 
		283.324,143.843 290.117,148.147 	"/>
	<polygon fill="#8399BA" points="339.797,141.874 367.023,103.914 290.117,148.147 307.997,159.468 332.705,163.779 
		323.887,148.512 308.102,145.75 320.68,138.49 	"/>
	<polygon fill="#8399BA" points="283.238,135.786 269.639,127.934 262.422,130.603 275.251,138.728 	"/>
	<polygon fill="#8399BA" points="116.819,143.785 102.146,103.705 93.335,118.974 98.835,134.024 86.263,126.763 79.628,108.513 
		33.143,103.915 109.984,148.11 	"/>
	<polygon fill="#283457" points="33.143,103.914 60.368,141.874 79.488,138.49 92.065,145.751 76.282,148.512 67.467,163.779 
		91.977,159.504 109.984,148.11 	"/>
	<polygon fill="#8399BA" points="161.676,115.402 162.811,110.28 159.317,86.741 153.914,89.787 151.451,103.845 144.984,92.647 
		147.996,75.612 114.183,51.359 154.081,120.206 	"/>
	<polygon fill="#283457" points="114.183,51.359 118.28,92.77 134.539,98.679 141.005,109.879 127.601,104.979 113.998,112.831 
		146.772,124.83 154.081,120.206 	"/>
	<polygon fill="#283457" points="238.49,115.402 237.357,110.28 240.852,86.741 246.257,89.787 248.715,103.845 255.182,92.647 
		252.171,75.612 285.984,51.359 246.086,120.206 	"/>
	<polygon fill="#8399BA" points="285.984,51.359 281.891,92.77 265.629,98.679 259.161,109.879 272.566,104.979 286.17,112.831 
		253.396,124.83 246.086,120.206 	"/>
	<polygon fill="#283457" points="130.528,127.935 116.931,135.786 124.847,138.702 137.686,130.583 	"/>
	<polygon fill="#283457" points="200,32.901 200,7.075 184.627,41.042 	"/>
	<polygon fill="#8399BA" points="215.378,41.042 200,7.073 200,32.903 	"/>
	<polygon fill="#283457" points="153.583,148.408 169.11,138.357 169.11,130.728 165.782,130.728 153.583,138.63 	"/>
	<polygon fill="#283457" points="151.068,140.257 136.111,149.933 136.111,159.738 151.068,150.035 	"/>
	<polygon fill="#283457" points="169.489,105.979 182.502,105.979 184.429,104.762 165.082,104.762 169.489,111.024 	"/>
	<polygon fill="#283457" points="230.512,105.979 230.512,111.024 234.919,104.762 215.566,104.762 217.494,105.979 	"/>
	<polygon fill="#283457" points="118.804,170.935 133.599,161.33 133.599,151.56 118.804,161.168 	"/>
	<polygon fill="#283457" points="246.418,148.408 230.891,138.357 230.891,130.728 234.223,130.728 246.418,138.63 	"/>
	<polygon fill="#283457" points="248.93,140.257 263.889,149.933 263.889,159.738 248.93,150.035 	"/>
	<polygon fill="#283457" points="281.24,170.924 266.402,161.33 266.402,151.56 281.24,161.159 	"/>
	<polygon fill="#283457" points="204.348,124.385 194.318,124.385 194.318,126.265 204.348,126.265 205.802,125.326 	"/>
	<polygon fill="#283457" points="187.506,165.349 188.387,165.349 188.635,165.099 188.635,163.708 187.506,164.442 	"/>
	<polygon fill="#283457" points="200.445,161.937 199.959,164.349 200.969,164.349 200.486,161.937 	"/>
	<path fill="#283457" d="M234.516,128.312l66.229,42.601h9.222l-109.936-69.81l-109.997,69.81h9.219l66.23-42.601h13.481v2.419
		h-7.339v7.512h7.339v2.213h-3.339h-5.554l-3.213,2.076h6.419h5.687v2.083h-1.528h-6.517h-7.291l-3.058,1.97h8.119h5.692h4.583
		v2.084h-7.816h-4.821h-8.982l-3.056,1.97h9.812h3.995h9.813h1.056v2.084h-3.413h-10.683h-3.127h-10.683l-3.058,1.97h11.511h2.299
		h11.512h5.642v2.084h-8.005h-12.38h-1.423h-12.382l-3.056,1.972h13.207h0.602h13.206h10.232v2.084h-12.588h-13.809h-0.273H138.49
		l-3.056,1.969h13.806h1.095h13.81h14.821v2.086h-17.179h-13.81h-1.966h-13.807l-3.022,1.947h13.811h2.781h13.808h19.383v2.106
		h-21.768h-13.806h-3.666h-13.808l-3.056,1.971h154.273l-3.051-1.971H221.1v-2.106h49.719l-3.021-1.947H221.1v-2.086h43.467
		l-3.053-1.969h-13.811h-0.273h-13.805H221.1v-2.084h10.168h13.203h0.604h13.208l-3.058-1.972h-12.381h-1.428h-12.379H221.1v-2.084
		h5.578h11.51h2.297h11.515l-3.062-1.97h-10.681h-3.122h-10.688H221.1v-2.084h0.992h9.809h3.998h9.812l-3.052-1.97h-8.99h-4.82
		H221.1v-2.084h4.521h5.692h8.111l-3.05-1.97h-7.295h-6.521H221.1v-2.083h5.625h6.418l-3.22-2.076h-5.552H221.1v-2.213h7.276v-7.512
		H221.1v-2.419H234.516z M182.251,120.875l-2.317,1.492l0.911,2.462l-0.024,0.007l-2.351-1.514l-2.354,1.514l-0.021-0.007
		l0.911-2.462l-2.318-1.492v-0.029h2.866l0.898-2.446h0.036l0.902,2.446h2.863v0.029H182.251z M189.769,162.974l-0.711,0.464
		l0.711,0.464v1.741l-0.727,0.723h-2.676v-5.611h2.658l0.745,0.741V162.974z M191.078,166.366h-0.992v-1.018h0.992V166.366z
		 M194.594,166.366h-3.106v-5.611h1.14v4.594h1.966V166.366z M198.273,161.773h-2.145v1.202h1.656v0.999h-1.656v1.374h2.122
		l-0.216,1.018h-3.045v-5.611h3.283V161.773L198.273,161.773z M201.374,166.366l-0.206-1.018h-1.406l-0.201,1.018h-1.105
		l1.206-5.611h1.608l1.207,5.611H201.374z M206.111,161.984l-1.098,0.709h-0.043v-0.73l-0.193-0.19h-0.736l-0.198,0.198v3.178
		l0.198,0.199h0.723l0.207-0.207v-0.793h-0.93v-0.061l2.027-1.312h0.043v2.64l-0.756,0.75h-1.904l-0.749-0.747V161.5l0.749-0.745
		h1.904l0.756,0.749V161.984z M210.007,165.658l-0.712,0.708h-1.91l-0.734-0.735v-4.876h1.115v4.404l0.201,0.198h0.711l0.206-0.201
		v-4.401h1.123V165.658L210.007,165.658z M213.867,161.773h-2.145v1.202h1.655v0.999h-1.655v1.374h2.145v1.018h-3.282v-5.611h3.282
		V161.773z M213.867,151.846l-13.752,6.102l-13.749-6.102v-38.235h27.5L213.867,151.846L213.867,151.846z M219.248,124.835
		l-0.023-0.007l0.906-2.462l-2.314-1.492v-0.029h2.865l0.899-2.446h0.032l0.902,2.446h2.867v0.029l-2.318,1.492l0.906,2.462
		l-0.021,0.007l-2.354-1.514L219.248,124.835z"/>
	<path fill="#283457" d="M211.979,150.573v-35.08h-23.722v35.131l11.859,5.212L211.979,150.573z M189.065,129.084l1.749-1.133v-8.3
		h0.139l3.365,2.181h10.03l1.454-0.942l-1.454-0.938h-10.926l-4.356-2.82v-0.134h16.165l5.537,3.582v0.144l-3.685,2.384l3.685,2.388
		v0.141l-5.541,3.584h-16.161L189.065,129.084L189.065,129.084z M189.065,140.165l1.749-1.132v-7.402l-1.749-1.135v-0.134h15.152
		v0.134l-4.361,2.819h-5.538v4.031h12.54v-2.583h0.136l3.368,2.18v3.357h-21.295L189.065,140.165L189.065,140.165z M189.065,149.098
		h1.749v-6.386l-1.749-1.135v-0.134h19.328v0.134l-4.363,2.82h-9.71v4.042l5.797,2.571l4.6-2.041l-4.6-2.039v-0.246h10.245v3.015
		l-10.245,4.546l-11.05-4.903L189.065,149.098L189.065,149.098z"/>
	<polygon fill="#283457" points="188.628,162.017 188.379,161.773 187.499,161.773 187.499,163.37 188.628,162.641 	"/>
	<polygon fill="#283457" points="178.451,67.899 173.792,67.899 172.616,103.063 177.422,103.063 	"/>
	<path fill="#283457" d="M218.872,48.273L200,38.281l-18.872,9.992h-21.22l6.674,54.791h4.451l0.694-20.552l-3-5.997l-1.496-18.944
		h15.322L200,48.729l17.449,8.842h15.318l-1.494,18.944l-2.998,5.997l0.695,20.552h4.447l6.678-54.791H218.872z M218.436,53.305
		L200,43.339l-18.433,9.966h-18.814l-0.221-1.532h17.941L200,41.191l19.527,10.583h17.94l-0.217,1.532L218.436,53.305
		L218.436,53.305z"/>
	<polygon fill="#283457" points="214.086,57.55 200,50.283 185.915,57.55 	"/>
	<polygon fill="#283457" points="221.546,67.899 226.207,67.899 227.385,103.063 222.578,103.063 	"/>
	<polygon fill="#283457" points="168.9,59.049 170.067,76.061 171.883,79.288 172.409,66.314 227.594,66.314 228.115,79.288 
		229.93,76.061 231.1,59.049 	"/>
	<path fill="#283457" d="M178.987,98.392h15.024c0.94-0.594,1.879-1.191,2.733-1.729H179.03L178.987,98.392z"/>
	<path fill="#283457" d="M208.875,100.26c1.479,0.935,2.602,1.642,2.766,1.749h9.403l-0.045-1.749H208.875z"/>
	<path fill="#283457" d="M178.892,102.008h9.403c0.167-0.105,1.287-0.813,2.761-1.748h-12.117L178.892,102.008z"/>
	<path fill="#283457" d="M220.904,96.663h-17.713c0.852,0.539,1.793,1.135,2.731,1.731h15.028L220.904,96.663z"/>
	<path fill="#283457" d="M220.811,93.067h-11.267c0.954-0.55,1.837-1.173,2.627-1.868h8.597l-0.047-1.73h-6.902
		c0.479-0.585,0.896-1.204,1.259-1.85h5.598l-0.046-1.746h-4.727c0.225-0.599,0.38-1.219,0.498-1.849h4.183l-0.046-1.749h-3.941
		c0.004-0.113,0.02-0.226,0.02-0.338c0-0.51-0.04-1.014-0.106-1.51h3.979l-0.043-1.747h-4.327c-0.194-0.635-0.429-1.253-0.724-1.85
		h5.006l-0.047-1.748h-0.525h-5.49c-0.462-0.649-0.979-1.272-1.562-1.848h4.69h2.839l-0.041-1.749h-5.025h-4.59
		c-1.068-0.733-2.256-1.35-3.528-1.848h5.765h6.42h0.91l-0.043-1.73h-20.201h-20.205l-0.04,1.73h0.911h6.417h5.761
		c-1.268,0.499-2.457,1.115-3.523,1.848H184.7h-5.024l-0.04,1.749h2.835h4.692c-0.584,0.576-1.102,1.199-1.561,1.848h-5.494h-0.522
		l-0.041,1.748h5.003c-0.298,0.597-0.533,1.215-0.725,1.85h-4.33l-0.043,1.747h3.983c-0.067,0.496-0.109,1-0.109,1.51
		c0,0.112,0.015,0.225,0.02,0.338h-3.943l-0.046,1.749h4.182c0.12,0.63,0.277,1.25,0.499,1.849h-4.729l-0.041,1.746h5.595
		c0.363,0.646,0.782,1.264,1.257,1.85h-6.9l-0.045,1.73h8.594c0.791,0.695,1.674,1.317,2.627,1.868h-11.27l-0.041,1.749h15.475
		c1.272,0.358,2.606,0.609,3.995,0.705c0.508-0.323,0.875-0.555,1.115-0.705c0.193-0.122,0.303-0.193,0.303-0.193
		s0.109,0.071,0.299,0.193c0.242,0.149,0.607,0.382,1.119,0.705c1.387-0.096,2.723-0.346,3.99-0.705h15.477L220.811,93.067z
		 M199.968,94.267c-8.471,0-15.337-5.52-15.337-12.328c0-6.811,6.866-12.331,15.337-12.331c8.472,0,15.337,5.52,15.337,12.331
		C215.305,88.747,208.439,94.267,199.968,94.267"/>
	<polygon fill="#283457" points="200.471,76.402 200.083,76.305 200.471,75.452 200.471,72.849 199.502,72.849 199.502,77.516 
		200.305,77.516 200.471,76.841 	"/>
	<polygon fill="#283457" points="196.734,78.019 193.514,73.976 192.655,74.381 195.877,78.419 	"/>
	<polygon fill="#283457" points="193.977,79.794 188.401,77.462 187.846,78.159 193.423,80.491 	"/>
	<rect x="186.288" y="82.344" fill="#283457" width="6.441" height="0.859"/>
	<polygon fill="#283457" points="193.423,85.051 187.843,87.382 188.401,88.081 193.977,85.747 	"/>
	<polygon fill="#283457" points="192.655,91.164 193.617,91.565 196.782,87.595 194.062,89.396 	"/>
	<rect x="199.5" y="88.026" fill="#283457" width="0.967" height="4.666"/>
	<polygon fill="#283457" points="203.13,87.526 206.352,91.565 207.318,91.163 204.094,87.122 	"/>
	<polygon fill="#283457" points="205.994,85.747 211.57,88.081 212.122,87.384 206.546,85.051 	"/>
	<rect x="207.242" y="82.342" fill="#283457" width="6.441" height="0.859"/>
	<polygon fill="#283457" points="206.551,80.491 212.128,78.161 211.57,77.46 205.994,79.794 	"/>
	<polygon fill="#283457" points="207.314,74.38 206.454,73.976 203.234,78.016 204.094,78.419 	"/>
	<path fill="#283457" d="M200.809,75.957l0.403,0.098l-1.556,6.085c-0.368,0.077-0.643,0.362-0.643,0.716
		c0,0.093,0.021,0.181,0.057,0.264l-2.83,2.996l-0.272-0.27l-1.942,2.964l2.955-1.958l-0.271-0.271l3.178-2.983
		c0.432-0.023,0.776-0.343,0.776-0.742c0-0.145-0.06-0.274-0.14-0.389l1.277-6.271l0.398,0.098l0.123-3.542L200.809,75.957z"/>
	<path fill="#283457" d="M199.988,71.728c4.643,0,9.809,1.76,11.966,4.313c-2.349-3.231-6.824-5.419-11.966-5.419
		c-5.153,0-9.625,2.188-11.972,5.419C190.174,73.487,195.338,71.728,199.988,71.728"/>
</g>
</svg>
