<?xml version="1.0" encoding="utf-8"?>
<!-- Generator: Adobe Illustrator 23.0.3, SVG Export Plug-In . SVG Version: 6.00 Build 0)  -->
<svg version="1.1" id="レイヤー_1" xmlns="http://www.w3.org/2000/svg" xmlns:xlink="http://www.w3.org/1999/xlink" x="0px"
	 y="0px" viewBox="0 0 126 126" style="enable-background:new 0 0 126 126;" xml:space="preserve">
<style type="text/css">
	.st0{fill:#FFFFFF;}
</style>
<g>
	<path class="st0" d="M97.2,38.3h-9.8c0,0,0,0,0,0c0,0,0,0,0,0H43.2c-0.3,0-0.6,0-0.9-0.1c-0.2,0-0.3,0.1-0.5,0.1h-13
		c-0.1,0-0.3,0.1-0.3,0.3v48.9c0,0.1,0.1,0.3,0.3,0.3h68.5c0.1,0,0.3-0.1,0.3-0.3V38.5C97.5,38.4,97.4,38.3,97.2,38.3z M48.3,45.8
		c5.2,0,9.5,4.3,9.5,9.5s-4.3,9.5-9.5,9.5s-9.5-4.3-9.5-9.5S43.1,45.8,48.3,45.8z M63.8,79.9c-0.6,0.8-1.5,1.2-2.4,1.2H35.3
		c-1,0-1.9-0.5-2.4-1.2c-0.6-0.8-0.7-1.8-0.4-2.7l2.5-7.6c0.9-2.6,3.2-4.3,5.9-4.3h14.9c2.7,0,5.1,1.7,5.9,4.3l2.5,7.5
		C64.5,78.1,64.4,79.1,63.8,79.9z M90.7,77.8H74.4c-1.7,0-3-1.3-3-3s1.3-3,3-3h16.3c1.7,0,3,1.3,3,3S92.4,77.8,90.7,77.8z
		 M90.7,64.8H74.4c-1.7,0-3-1.3-3-3s1.3-3,3-3h16.3c1.7,0,3,1.3,3,3S92.4,64.8,90.7,64.8z M90.7,51.8H74.4c-1.7,0-3-1.3-3-3
		s1.3-3,3-3h16.3c1.7,0,3,1.3,3,3S92.4,51.8,90.7,51.8z"/>
	<path class="st0" d="M48.3,58.8c1.9,0,3.5-1.6,3.5-3.5s-1.6-3.5-3.5-3.5c-1.9,0-3.5,1.6-3.5,3.5S46.4,58.8,48.3,58.8z"/>
	<path class="st0" d="M55.8,71.3H40.9c-0.1,0-0.2,0.1-0.2,0.2l-1.2,3.6h17.8L56,71.5C56,71.4,55.9,71.3,55.8,71.3z"/>
	<path class="st0" d="M63,0C28.2,0,0,28.2,0,63s28.2,63,63,63s63-28.2,63-63S97.8,0,63,0z M103.5,93.7c-6,0-81-0.1-81-0.1l0-61.4
		h19.3c0.2,0,0.4,0,0.5,0.1c0.3,0,0.6-0.1,0.9-0.1h44.2c0,0,0,0,0,0c0,0,16.1,0,16.1,0C103.6,36.8,103.5,93.7,103.5,93.7z"/>
</g>
</svg>
