<svg xmlns="http://www.w3.org/2000/svg" viewBox="0 0 150 30"><defs><style>*{font-family:-apple-system,BlinkMacSystemFont, mplus-1c, "M+ 1c", HiraginoSans-W3, sans-serif;}.a{fill:#175a49;}</style></defs><title> 1</title><path class="a" d="M99.1,27.58a7,7,0,0,0,4.47-1.7,7.75,7.75,0,0,0,2.76-4l2.29-8.54a4.46,4.46,0,0,0-.62-4,4.08,4.08,0,0,0-3.55-1.7H101.6a3.51,3.51,0,0,0-2.18.7A4.91,4.91,0,0,0,98,10.51L100.24,2h-5.7L87.67,27.55H99.1ZM97.19,13.37a4,4,0,0,1,1.38-2,3.61,3.61,0,0,1,2.23-.81,2.09,2.09,0,0,1,1.8.81,2.32,2.32,0,0,1,.32,2l-2.32,8.54a3.75,3.75,0,0,1-1.35,2,3.62,3.62,0,0,1-2.27.85H94.13l3.06-11.37Z"/><polygon class="a" points="121.14 2.03 115.41 2.03 114.67 4.87 120.38 4.87 121.14 2.03"/><path class="a" d="M130.93,25.91a4.16,4.16,0,0,0,3.58,1.67h5.73c3.38,0,5.79-1.87,7.23-5.67h-2.85A3.42,3.42,0,0,1,141,24.74h-2.85a2.1,2.1,0,0,1-1.83-.85,2.19,2.19,0,0,1-.29-2l.76-2.84h11.44l1.52-5.67a4.46,4.46,0,0,0-.61-4,4.11,4.11,0,0,0-3.56-1.7h-5.7a7.21,7.21,0,0,0-4.47,1.67,7.49,7.49,0,0,0-2.76,4l-2.29,8.54a4.15,4.15,0,0,0,.53,4Zm7.37-12.54a4.07,4.07,0,0,1,1.38-2,3.61,3.61,0,0,1,2.24-.81A2.08,2.08,0,0,1,144,13.37l-.73,2.84h-5.73l.76-2.84Z"/><path class="a" d="M72.47,27.58h5.7a7.09,7.09,0,0,0,4.5-1.7,7.57,7.57,0,0,0,2.76-4l2.3-8.54a4.58,4.58,0,0,0-.59-4,4.17,4.17,0,0,0-3.59-1.7H77.82a7.21,7.21,0,0,0-4.47,1.67,7.49,7.49,0,0,0-2.76,4L68.3,21.91a4.55,4.55,0,0,0,.59,4,4.22,4.22,0,0,0,3.58,1.67ZM74,21.91l2.32-8.54a4.07,4.07,0,0,1,1.38-2,3.61,3.61,0,0,1,2.24-.81,2.08,2.08,0,0,1,1.79.81,2.19,2.19,0,0,1,.29,2l-2.29,8.54a3.7,3.7,0,0,1-1.38,2,3.6,3.6,0,0,1-2.23.85,2,2,0,0,1-1.8-.85,2.23,2.23,0,0,1-.32-2Z"/><polygon class="a" points="125.02 27.58 131.9 2.03 126.19 2.03 119.32 27.58 125.02 27.58"/><polygon class="a" points="114.26 27.58 119.61 7.7 113.91 7.7 108.53 27.58 114.26 27.58"/><path class="a" d="M15.9,26a7.77,7.77,0,0,0,2.76-4L21,13.52a4.48,4.48,0,0,0-.61-4,4.1,4.1,0,0,0-3.56-1.69H13.93a3.48,3.48,0,0,0-2.17.7,4.93,4.93,0,0,0-1.47,2.13l2.29-8.5H6.88L0,27.69H11.43A7,7,0,0,0,15.9,26ZM6.49,24.86,9.55,13.52a4,4,0,0,1,1.38-2,3.57,3.57,0,0,1,2.24-.82A2.06,2.06,0,0,1,15,11.5a2.28,2.28,0,0,1,.32,2L13,22.05a3.82,3.82,0,0,1-1.35,2,3.62,3.62,0,0,1-2.26.85H6.49Z"/><path class="a" d="M44,13.37a4,4,0,0,1,1.39-2,3.6,3.6,0,0,1,2.26-.81,2.11,2.11,0,0,1,1.79.81,2.32,2.32,0,0,1,.33,2L45.93,27.58h5.71l3.82-14.21a4,4,0,0,1,1.38-2,3.59,3.59,0,0,1,2.23-.81,2.16,2.16,0,0,1,1.79.84,2.22,2.22,0,0,1,.3,2L57.34,27.58h5.73l3.82-14.21a4.55,4.55,0,0,0-.62-4,4.2,4.2,0,0,0-3.58-1.67H59.84a7.3,7.3,0,0,0-2.68.5A6.36,6.36,0,0,0,55,9.69c-.56-1.35-1.83-2-3.77-2H48.4a3.3,3.3,0,0,0-2.14.7,4.91,4.91,0,0,0-1.47,2.14l.76-2.84h-5.7L34.5,27.55h5.67L44,13.37Z"/><polygon class="a" points="32.95 15.39 23.36 15.39 22.51 20.27 32.06 20.27 32.95 15.39"/></svg>
