<svg xmlns="http://www.w3.org/2000/svg" viewBox="0 0 546.63 338.44"><defs><style>.cls-1{fill:#fff;}</style></defs><title>アセット 2</title><g id="レイヤー_2" data-name="レイヤー 2"><g id="レイヤー_1-2" data-name="レイヤー 1"><path class="cls-1" d="M246.18,93.12a41.33,41.33,0,1,1-41.31-41.31A41.34,41.34,0,0,1,246.18,93.12Z"/><path class="cls-1" d="M534.39,222.05a63.26,63.26,0,0,0-33-25Q523,177.47,523,149.21a75.46,75.46,0,0,0-6.64-30.61,70.73,70.73,0,0,0-17.51-25,63,63,0,0,0-26.72-13.79c-10.41-2.72-24.46-4.09-42-4.09H396.3v-.09H296.1A93.09,93.09,0,1,0,187.34,184.56V301.17H39.64V75.73H0V338.44l307.74-.19h0c16.15,0,29.76-4.92,41.2-15.11,11.77-10.74,17.68-24.06,17.68-40.09,0-12.46-3.51-22.39-10.55-29.69s-20.72-15.44-41-24.15q-22.14-9.36-22.14-18.88a11.59,11.59,0,0,1,3.77-8.9,12.62,12.62,0,0,1,9-3.51q11,0,18.55,15.14l31.63-16.82q-15.5-32.85-47.31-32.85-21.61,0-36.74,14.1C262,186.94,257,198.79,257,213.22q0,16.35,8.69,26.74c4.53,5.42,12.38,10.88,23.48,16.3,4,2,7.86,3.81,11.73,5.65s7.7,3.64,11.56,5.62q15,8.84,15,19c0,10-6.22,14.57-19.15,14.57l-.58,0v0H225.63V183.77a93.14,93.14,0,0,0,70-71h95V338.44h60q26.91,0,44.75-5a71,71,0,0,0,29.45-18.18Q546.63,294,546.63,263.2C546.63,247.57,542.58,233.82,534.39,222.05ZM204.7,150.36a57.26,57.26,0,1,1,57.24-57.24A57.31,57.31,0,0,1,204.7,150.36Zm225.59-38.22h13.94q20.06,0,30.6,9.6c7.07,6.43,10.6,15.77,10.6,28.17q0,19-10.31,28.81t-32.42,9.8H430.29Zm64,178.46q-12.58,10.56-39.48,10.57H430.29V221.72h20.06c21.33,0,36.11,3.82,44.4,11.35a37,37,0,0,1,12.76,28.58A36.54,36.54,0,0,1,494.26,290.6Z"/></g></g></svg>