<svg xmlns="http://www.w3.org/2000/svg" viewBox="0 0 100 192.53"><defs><style>.a{fill:#fff}</style></defs><path class="a" d="M22.77 172.04h-4.15v20.49h11.31v-3.72h-7.16v-16.77zM31.37 192.53h11.07l.79-3.72h-7.72v-5.01h6.01v-3.64h-6.01v-4.4h7.78v-3.72H31.37v20.49zM48.35 172L44 192.53h4l.74-3.72h5.12l.74 3.72h4L54.2 172zm1.09 13.13l1.76-8.81h.15l1.76 8.81zM13.53 188.81h3.61v3.72h-3.61zM81.88 188.1l-.74.74h-2.59l-.73-.73v-16.07h-4.07v17.8l2.69 2.69h6.94l2.59-2.59v-17.9h-4.09v16.06zM88.07 192.53H100v-3.72h-7.78v-5.01h6.01v-3.64h-6.01v-4.4H100v-3.72H88.07v20.49zM62.13 172.04l-2.73 2.73v15.03l2.73 2.73h6.93l2.74-2.75v-9.62h-.15l-7.38 4.78v.23h3.39v2.89l-.76.75h-2.63l-.72-.72v-11.61l.72-.72h2.69l.7.7v2.66h.15l3.99-2.59v-1.75l-2.74-2.74h-6.93zM87.26 131.7v-11H50v.89l16.72 7.45L50 136.48l-21.08-9.38v-14.75h35.31l15.85-10.29v-.49H9.8v.49l6.38 4.14v23.31H9.8v.88l40.2 17.9 37.26-16.59zM87.25 85.15L75 77.19h-.49v9.43H28.92V71.91h20.13L64.9 61.62v-.49H9.8v.49l6.38 4.13v27.02L9.8 96.91v.49h77.46l-.01-12.25zM88.73 43.88v-.52l-13.41-8.7L88.73 26v-.52L68.59 12.35H9.8v.49l15.86 10.3h39.73l5.28 3.43L65.39 30H28.92l-12.25-8h-.49v30.33L9.8 56.47V57h58.78zm-59.81 2.3v-6.87h36.47l5.29 3.43-5.29 3.44z"/><path class="a" d="M0 0v139.54l50 22.26 50-22.26V0zm93.14 134.89L50 154.09l-43.14-19V6.86h86.28zM0 172v20.49h9.74l2.64-2.64v-6.36l-2.6-1.69 2.6-1.69v-5.39L9.67 172zm4.13 3.72h3.2l.9.89v2.28l-4.1 2.66zm4.13 12.18l-.92.91h-3.2v-3.31l4.12-2.67z"/></svg>