<svg viewBox="0 0 151.41 165.78" xmlns="http://www.w3.org/2000/svg"><g fill="#fff"><path d="M8.29 132.82a.32.32 0 0 1-.05.19l-.35.59c-.07.11-.15.16-.22.16a1.1 1.1 0 0 1-.42-.22 3.34 3.34 0 0 0-.85-.4 4.21 4.21 0 0 0-1.12-.21 3.88 3.88 0 0 0-2.84 1.13 3.68 3.68 0 0 0-1.15 2.72 3.56 3.56 0 0 0 1.12 2.66 3.7 3.7 0 0 0 2.67 1.08 4.39 4.39 0 0 0 2.35-.8.45.45 0 0 1 .23-.07q.1 0 .2.16l.38.63a.41.41 0 0 1 0 .2c0 .08-.05.15-.16.21a5 5 0 0 1-3 1 5 5 0 0 1-2.56-.69 5.11 5.11 0 0 1-1.86-1.86 5.12 5.12 0 0 1 0-5.12 5.15 5.15 0 0 1 1.87-1.86 5.24 5.24 0 0 1 2.69-.69 4.87 4.87 0 0 1 2.88 1 .33.33 0 0 1 .19.19zM15.17 131.88a6.39 6.39 0 0 1 1.68-.27 5.1 5.1 0 0 1 1.36.18 4.88 4.88 0 0 1 1.22.52 5.32 5.32 0 0 1 1 .8 4.75 4.75 0 0 1 .8 1 5.19 5.19 0 0 1 .51 1.23 5.07 5.07 0 0 1-2.35 5.76 5.25 5.25 0 0 1-1.22.51 5.06 5.06 0 0 1-1.37.18 5 5 0 0 1-1.36-.18A6.62 6.62 0 0 1 14 141a4.55 4.55 0 0 1-1.54-1.67 5 5 0 0 1-.68-2.56 4.51 4.51 0 0 1 1.22-3.39 5.48 5.48 0 0 1 2.17-1.5zM13 136.7a3.71 3.71 0 0 0 .51 1.91 3.84 3.84 0 0 0 1.4 1.39 3.8 3.8 0 0 0 4.59-.6 3.82 3.82 0 0 0 1.12-2.83 3.38 3.38 0 0 0-.3-1.35 5.12 5.12 0 0 0-1.12-1.51 3.25 3.25 0 0 0-2.39-.82A3.83 3.83 0 0 0 13 136.7zM31.76 136.65v.67a.33.33 0 0 1-.08.21.27.27 0 0 1-.22.09h-4.2v3.77c0 .19-.11.28-.32.28h-.69c-.2 0-.3-.09-.3-.28V132c0-.21.1-.31.3-.31h6.32c.21 0 .31.11.31.33v.66a.31.31 0 0 1-.09.22.28.28 0 0 1-.22.09h-5.3v3.29h4.2a.32.32 0 0 1 .21.07.29.29 0 0 1 .08.3zM42.3 136.65v.67a.32.32 0 0 1-.08.21.27.27 0 0 1-.21.09h-4.2v3.77c0 .19-.11.28-.32.28h-.69c-.2 0-.3-.09-.3-.28V132c0-.21.1-.31.3-.31h6.32c.21 0 .31.11.31.33v.66a.32.32 0 0 1-.09.22.28.28 0 0 1-.22.09h-5.31v3.29H42a.31.31 0 0 1 .2.07.29.29 0 0 1 .1.3zM52.58 135.79c.2 0 .29.1.29.31v.68a.36.36 0 0 1-.07.22.26.26 0 0 1-.22.1h-4.24v3.29h5.42a.27.27 0 0 1 .31.31v.69a.26.26 0 0 1-.29.29h-6.45c-.2 0-.3-.09-.3-.28V132c0-.21.1-.31.3-.31h6.41q.31 0 .31.33v.66a.33.33 0 0 1-.08.22.3.3 0 0 1-.24.09h-5.39v2.75zM63.32 135.79q.3 0 .3.31v.68a.35.35 0 0 1-.08.22.26.26 0 0 1-.22.1h-4.24v3.29h5.42a.27.27 0 0 1 .31.31v.69a.26.26 0 0 1-.29.29h-6.45c-.2 0-.29-.09-.29-.28V132c0-.21.1-.31.29-.31h6.41c.21 0 .31.11.31.33v.66a.34.34 0 0 1-.08.22.29.29 0 0 1-.24.09h-5.39v2.75zM77 136.72q-1.75 0-1.75 1.84a1.55 1.55 0 0 0 .56 1.24 2 2 0 0 0 1.35.48 2.1 2.1 0 0 0 1.34-.44 1.69 1.69 0 0 0 .61-1.29l-1-.22a.25.25 0 0 1-.19-.08.27.27 0 0 1-.07-.19.75.75 0 0 1 .2-.51.65.65 0 0 1 .51-.23 3.48 3.48 0 0 1 .64.06l.65.14.64.17.53.13a1.64 1.64 0 0 0 .87 0 .63.63 0 0 0 .46-.48 2.29 2.29 0 0 1 .12-.46c0-.07.11-.1.22-.08l.64.14a.24.24 0 0 1 .18.08.82.82 0 0 1 0 .33 1.34 1.34 0 0 1-.18.61 2.83 2.83 0 0 1-.66.75 1.85 1.85 0 0 1-1.25.41 2.42 2.42 0 0 1-.6-.07l-.56-.14a2.54 2.54 0 0 1-1 1.91 3.51 3.51 0 0 1-2.14.63 3.18 3.18 0 0 1-2.19-.81 2.81 2.81 0 0 1 .47-4.5 2 2 0 0 1-.77-1.66 2.18 2.18 0 0 1 .75-1.7 3 3 0 0 1 2.07-.67 1.7 1.7 0 0 1 1.72.87 3.67 3.67 0 0 1 .4 1.46.24.24 0 0 1-.27.27h-.61c-.21 0-.31-.09-.31-.27a1.13 1.13 0 0 0-1.27-1.23 1.22 1.22 0 0 0-1 .38 1.31 1.31 0 0 0-.33.88 1 1 0 0 0 .45 1 2.12 2.12 0 0 0 .67.26.47.47 0 0 1 .28.09.28.28 0 0 1 .07.2l-.08.49a.35.35 0 0 1-.08.19.25.25 0 0 1-.09.02zM99.44 136.39a2.7 2.7 0 0 1 1.36 2.48 2.63 2.63 0 0 1-.21 1 4.08 4.08 0 0 1-.81 1.16 2.3 2.3 0 0 1-1.77.64h-4.37c-.21 0-.31-.1-.31-.29v-9.32a.28.28 0 0 1 .31-.33h3.93a2.66 2.66 0 0 1 1.94.77 2.62 2.62 0 0 1 .79 1.95 2.5 2.5 0 0 1-.86 1.94zm-.46-2a1.37 1.37 0 0 0-1.43-1.39H94.6v2.9h2.94a1.36 1.36 0 0 0 1-.43 1.48 1.48 0 0 0 .46-1.03zm-4.38 2.81v3.2H98a1.38 1.38 0 0 0 1.05-.48 1.63 1.63 0 0 0 .44-1.14 1.56 1.56 0 0 0-.44-1.11 1.4 1.4 0 0 0-1.05-.47zM107.64 131.88a6.39 6.39 0 0 1 1.68-.27 5.08 5.08 0 0 1 1.36.18 4.89 4.89 0 0 1 1.22.52 5.43 5.43 0 0 1 1 .8 4.86 4.86 0 0 1 .8 1 5.27 5.27 0 0 1 .51 1.23 5.06 5.06 0 0 1 .18 1.36 5.13 5.13 0 0 1-.18 1.36 5.08 5.08 0 0 1-2.35 3 5.23 5.23 0 0 1-1.22.51 5.15 5.15 0 0 1-2.73 0 6.61 6.61 0 0 1-1.51-.69 4.54 4.54 0 0 1-1.54-1.67 5 5 0 0 1-.68-2.56 4.51 4.51 0 0 1 1.22-3.34 5.47 5.47 0 0 1 2.24-1.43zm-2.14 4.82a3.71 3.71 0 0 0 .51 1.91 3.84 3.84 0 0 0 1.39 1.39 3.8 3.8 0 0 0 4.6-.6 3.82 3.82 0 0 0 1.12-2.83 3.38 3.38 0 0 0-.3-1.35 5.12 5.12 0 0 0-1.12-1.51 3.26 3.26 0 0 0-2.39-.82 3.83 3.83 0 0 0-3.81 3.81zM121.55 131.88a6.39 6.39 0 0 1 1.68-.27 5.08 5.08 0 0 1 1.36.18 4.89 4.89 0 0 1 1.22.52 5.43 5.43 0 0 1 1 .8 4.86 4.86 0 0 1 .8 1 5.27 5.27 0 0 1 .51 1.23 5.06 5.06 0 0 1 .18 1.36 5.13 5.13 0 0 1-.18 1.36 5.08 5.08 0 0 1-2.35 3 5.23 5.23 0 0 1-1.22.51 5.15 5.15 0 0 1-2.73 0 6.61 6.61 0 0 1-1.51-.69 4.54 4.54 0 0 1-1.54-1.67 5 5 0 0 1-.68-2.56 4.51 4.51 0 0 1 1.22-3.34 5.47 5.47 0 0 1 2.24-1.43zm-2.14 4.82a3.71 3.71 0 0 0 .51 1.91 3.84 3.84 0 0 0 1.39 1.39 3.8 3.8 0 0 0 4.6-.6 3.82 3.82 0 0 0 1.12-2.83 3.38 3.38 0 0 0-.3-1.35 5.12 5.12 0 0 0-1.12-1.51 3.26 3.26 0 0 0-2.39-.82 3.83 3.83 0 0 0-3.81 3.81zM140.85 141.62s0 .06-.14.06h-1.33a.36.36 0 0 1-.3-.21l-3.8-4.55-1.63 1.74v2.73c0 .19-.11.29-.31.29h-.69a.26.26 0 0 1-.29-.29V132a.26.26 0 0 1 .29-.3h.69a.33.33 0 0 1 .21.08.26.26 0 0 1 .1.21v4.78l4.62-4.86a.43.43 0 0 1 .31-.21h1.33c.11 0 .16 0 .16.07a.19.19 0 0 1-.08.14q-.84.92-3.82 4.06l4.58 5.41a.5.5 0 0 1 .1.24zM147.53 132.85a2 2 0 0 0-1.38.44 1.35 1.35 0 0 0-.51 1.06 1 1 0 0 0 .65.93 8.6 8.6 0 0 0 1.17.45l1.47.44a5.6 5.6 0 0 1 1.71.87 2 2 0 0 1 .76 1.67 2.74 2.74 0 0 1-1.06 2.24 4.13 4.13 0 0 1-2.68.86 3.92 3.92 0 0 1-2.46-.66 6.73 6.73 0 0 1-1.16-1.08.26.26 0 0 1 0-.41l.53-.44a.26.26 0 0 1 .41 0l.09.09a3.53 3.53 0 0 0 1.29.89 3.44 3.44 0 0 0 1.24.33 3.23 3.23 0 0 0 1.74-.47 1.47 1.47 0 0 0 .75-1.32 1 1 0 0 0-.61-1 7.11 7.11 0 0 0-1.12-.47l-1.2-.36a6.43 6.43 0 0 1-2.23-1 1.92 1.92 0 0 1-.71-1.55 2.46 2.46 0 0 1 .94-2 3.8 3.8 0 0 1 2.49-.77 4.36 4.36 0 0 1 1.77.41 4 4 0 0 1 1.46 1 .27.27 0 0 1 0 .42l-.48.45a.27.27 0 0 1-.42 0l-.31-.23a7.29 7.29 0 0 0-.77-.5 2.76 2.76 0 0 0-1.37-.29zM29.19 165.78c-.21 0-.31-.09-.31-.28v-9.33a.28.28 0 0 1 .31-.33h3.12a5 5 0 0 1 2.55.66 4.79 4.79 0 0 1 1.8 1.8 5 5 0 0 1 .66 2.51 4.84 4.84 0 0 1-.66 2.49 5 5 0 0 1-4.34 2.47zm3.09-1.28a3.6 3.6 0 0 0 2.72-1.1 3.68 3.68 0 0 0 1-2.68 3.41 3.41 0 0 0-1-2.59 3.72 3.72 0 0 0-2.65-1h-2.19v7.38zM46.91 159.89q.3 0 .3.31v.68a.35.35 0 0 1-.08.22.26.26 0 0 1-.22.1h-4.24v3.29h5.42a.27.27 0 0 1 .31.31v.69a.26.26 0 0 1-.29.29h-6.45c-.2 0-.3-.09-.3-.28v-9.35c0-.21.1-.31.3-.31h6.41c.21 0 .31.11.31.33v.66a.33.33 0 0 1-.08.22.29.29 0 0 1-.24.09h-5.39v2.75zM58.09 164.47a.29.29 0 0 1 .2.09.3.3 0 0 1 .09.23v.69a.31.31 0 0 1-.08.21.27.27 0 0 1-.21.09H52.4a.26.26 0 0 1-.3-.29v-9.35a.3.3 0 0 1 .08-.21.28.28 0 0 1 .23-.09h.69a.31.31 0 0 1 .21.08.27.27 0 0 1 .09.22v8.35zM61.92 156.13a.3.3 0 0 1 .07-.21.27.27 0 0 1 .22-.09h.69a.33.33 0 0 1 .22.08.26.26 0 0 1 .1.21v9.35c0 .19-.1.29-.32.29h-.69a.26.26 0 0 1-.29-.29zM76 160.81q-1.75 0-1.75 1.84a1.55 1.55 0 0 0 .56 1.24 2 2 0 0 0 1.35.48 2.09 2.09 0 0 0 1.34-.44 1.68 1.68 0 0 0 .61-1.29l-1-.22a.25.25 0 0 1-.18-.08.26.26 0 0 1-.07-.19.75.75 0 0 1 .2-.51.65.65 0 0 1 .51-.23 3.46 3.46 0 0 1 .63.06l.65.14.65.17.53.13a1.64 1.64 0 0 0 .87 0 .62.62 0 0 0 .46-.48 2.26 2.26 0 0 1 .13-.46c0-.07.11-.1.22-.08l.64.14a.24.24 0 0 1 .18.08.84.84 0 0 1 0 .33 1.32 1.32 0 0 1-.18.61 2.76 2.76 0 0 1-.66.75 1.84 1.84 0 0 1-1.25.41 2.43 2.43 0 0 1-.6-.07l-.56-.14a2.55 2.55 0 0 1-1 1.91 3.53 3.53 0 0 1-2.14.63 3.19 3.19 0 0 1-2.19-.81 2.81 2.81 0 0 1 .48-4.5 2 2 0 0 1-.77-1.66 2.19 2.19 0 0 1 .74-1.7 3 3 0 0 1 2.07-.67 1.7 1.7 0 0 1 1.72.87 3.61 3.61 0 0 1 .4 1.46.24.24 0 0 1-.27.27h-.61c-.21 0-.31-.09-.31-.27a1.13 1.13 0 0 0-1.27-1.23 1.22 1.22 0 0 0-1 .38 1.31 1.31 0 0 0-.33.88 1 1 0 0 0 .45 1 2.16 2.16 0 0 0 .67.26.47.47 0 0 1 .28.09.28.28 0 0 1 .07.2l-.08.49a.35.35 0 0 1-.08.19.24.24 0 0 1-.11.02zM98.45 160.49a2.7 2.7 0 0 1 1.37 2.51 2.63 2.63 0 0 1-.22 1 4.08 4.08 0 0 1-.81 1.16 2.3 2.3 0 0 1-1.77.64h-4.37c-.21 0-.31-.1-.31-.29v-9.32a.28.28 0 0 1 .31-.33h3.93a2.66 2.66 0 0 1 1.94.77 2.62 2.62 0 0 1 .79 1.95 2.5 2.5 0 0 1-.86 1.91zm-.46-2a1.37 1.37 0 0 0-1.42-1.42h-2.95V160h2.94a1.36 1.36 0 0 0 1-.43 1.48 1.48 0 0 0 .44-1.04zm-4.37 2.76v3.2H97a1.38 1.38 0 0 0 1.05-.48 1.63 1.63 0 0 0 .44-1.14 1.56 1.56 0 0 0-.44-1.11 1.4 1.4 0 0 0-1.05-.42zM103.29 165.78c-.2 0-.31-.08-.31-.23a.54.54 0 0 1 0-.18l3.86-9.28a.35.35 0 0 1 .35-.25h.44a.35.35 0 0 1 .35.25l3.83 9.28v.13q0 .23-.31.23h-.71a.35.35 0 0 1-.35-.25l-.74-1.84H105l-.43 1.07c-.13.32-.22.54-.26.68s-.21.33-.38.33zm2.31-3.39h3.65l-1.8-4.58zM116.84 162.17v3.31c0 .19-.1.29-.31.29h-.69a.26.26 0 0 1-.29-.29v-9.32c0-.21.1-.32.29-.33h3.86a3 3 0 0 1 2.24.93 3.2 3.2 0 0 1 .44 3.93 3.15 3.15 0 0 1-1.3 1.16l1.77 3.62v.08c0 .14-.08.21-.25.21h-.81a.35.35 0 0 1-.32-.25l-1.61-3.37h-3zm4.74-3.16a1.85 1.85 0 0 0-.54-1.33 1.78 1.78 0 0 0-1.34-.57h-2.86v3.77h2.88a1.76 1.76 0 0 0 1.32-.56 1.84 1.84 0 0 0 .54-1.32zM127.39 104.23c-2.14-2.2-3.3-2.66-6.2-3.79s-12-4.86-32.75-20.4c-12.91-10.95-20.19-18-22.07-20.12 0 0 18.2-19.4 32-31.72S129.82 2.78 125.79.26 102.65 13.85 95.1 20.64 71.7 41 67.18 45.55 56 55.86 60.13 60.89c0 0-26.92 31.2-28.68 32.45 0 0 9.06-23.14 19.87-42S76.46 9.56 77.5 8.94c.39-.22.82 0 .81.74 0 0 3-5.6-.14-6.71-1.64-.57-3.32-.06-5.17 3.52s-6.23 11.7-13.59 24-30.19 55.47-32.64 63 .38 11.32 4.72 7 29-34.86 30.85-36.37c0 0 13.62 11.8 20.41 17.27s23.17 18.68 39.4 23c-.04-.02 7.38 2.04 5.24-.16zM98.76 22.7a12.24 12.24 0 0 1 1.63-1.3l-1.63 1.3c-7 6.15-32.48 31.67-32.48 31.67C73.84 43.3 93.07 27.31 98.76 22.7z"/></g></svg>