<?xml version="1.0" encoding="utf-8"?>
<!-- Generator: Adobe Illustrator 22.1.0, SVG Export Plug-In . SVG Version: 6.00 Build 0)  -->
<svg version="1.1" id="レイヤー_1" xmlns="http://www.w3.org/2000/svg" xmlns:xlink="http://www.w3.org/1999/xlink" x="0px"
	 y="0px" viewBox="0 0 178.3 107.7" style="enable-background:new 0 0 178.3 107.7;" xml:space="preserve">
<style type="text/css">
	.st0{display:none;fill:#D0121B;}
	.st1{display:none;}
	.st2{display:inline;}
	.st3{fill:#FFFFFF;}
	.st4{fill:#FFF100;}
	.st5{fill:#E50012;}
	.st6{fill:#221815;}
	.st7{fill:#231815;}
</style>
<rect x="0" y="14.6" class="st0" width="153" height="78.1"/>
<g class="st1">
	<g class="st2">
		<g>
			<path d="M145.2,59.7c0,0-7.4-0.3-11.3-0.5c0-3.2,0-7.6,0-7.6c0-1.8-1.5-3.3-3.3-3.3h-8.9c-1.8,0-3.3,1.5-3.3,3.3v22.9
				c-0.1-1-0.7-1.8-1.6-2.4c0,0-3.5-2.1-6.1-3.6c0.8-1.7,1.5-3.6,2-5.5c0.8-3,1.3-6.3,1.4-9.9c0,0,0-0.1,0-0.2
				c0-0.8-0.3-1.6-0.9-2.3c-0.6-0.7-1.5-1-2.4-1H85.1c-1.3,0-2.5,0.8-3,1.9v-2.1c0-1.8-1.5-3.3-3.3-3.3h-4.2c-0.2,0-0.5,0-0.7,0.1
				c-0.2,0-0.4-0.1-0.7-0.1H69c-1.8,0-3.3,1.5-3.3,3.3v3.9c-0.7,0-1.4,0-2,0c0-0.8,0-1.8,0-1.8c0-1.8-1.5-3.3-3.3-3.3h-7.1
				c-1.8,0-3.3,1.5-3.3,3.3c0,0,0,1,0,1.8c-2,0-4,0-4,0c-1.8,0-3.3,1.5-3.3,3.3v6.6c0,1.8,1.5,3.3,3.3,3.3c0,0,2,0,4,0
				c0,0.1,0,0.3,0,0.3c0,3.3-0.7,4.8-1.1,5.4c-0.6,0.9-2.2,1.3-3.4,1.5c-1.6,0.2-2.9,1.6-2.9,3.3v6.4c0,0.9,0.4,1.8,1,2.4
				c0.7,0.6,1.5,1,2.5,0.9c2.5-0.1,4.6-0.5,6.3-1.1c1.7-0.6,3.1-1.3,4.3-2.1c1.3-0.9,2.2-1.7,2.9-2.6c0,0,0.1-0.2,0.3-0.4
				c0,1.4,0,2.8,0,2.8c0,1.8,1.5,3.3,3.3,3.3H69c2.3,0,4.2-0.4,5.8-1.1c1.5-0.6,2.7-1.6,3.7-3c0,0,0,0,0.1-0.1
				c0.5-0.6,0.8-1.3,1.1-2v2.6c0,1,0.4,1.8,1.1,2.5c0.7,0.6,1.7,0.9,2.6,0.8c4.3-0.6,8.3-1.6,11.8-3c2.7-1.1,5.1-2.6,7.3-4.3
				c2.9,1.9,10.9,7,10.9,7c1,0.7,2.3,0.7,3.4,0.1c1-0.5,1.6-1.5,1.7-2.5c0.1,1.7,1.5,3,3.3,3h8.9c1.8,0,3.3-1.5,3.3-3.3
				c0,0,0-6.1,0-9.8c4,0.2,11,0.5,11,0.5c0.9,0.1,1.8-0.3,2.4-0.9c0.7-0.6,1-1.5,1-2.4V63C148.4,61.2,147,59.8,145.2,59.7z
				 M63.2,73.5c0.3-1.6,0.4-3.3,0.4-5.1c0-0.5,0-0.9,0-1.4c0,0,0-0.4,0-0.4c1.4,0,1.7,0,3.1,0c0,2.5,0,6.1,0,6.1s0,0.4,0,0.9
				c-0.3,0-0.6,0-0.9,0c0,0-0.1,0-0.1,0c0,0-0.3,0-0.3,0c-0.1,0-0.3,0-0.4,0L63.2,73.5C63.3,73.5,63.3,73.5,63.2,73.5z M80.5,74.1
				V56.7c0,0,0-0.1,0-0.1c0.6-0.3,1-0.9,1.3-1.5v4.5c0,1.8,1.5,3.3,3.3,3.3c0,0,8,0,12.9,0c-1,2.4-2.3,4.3-4,5.8
				c-2.6,2.3-6.5,3.7-11.3,4.2C81.8,73,81,73.4,80.5,74.1z"/>
		</g>
		<g>
			<path d="M4.1,67.9c0,11.4,9.3,20.6,20.8,20.6c11.4,0,20.8-9.3,20.8-20.6c0-11.4-9.3-20.6-20.8-20.6C13.4,47.3,4.1,56.5,4.1,67.9z
				"/>
		</g>
		<g>
			<path class="st3" d="M45.9,56.7h7.3v-5.1h7.1v5.1h16.8v18.4c0,1-0.1,2-0.2,2.9c-0.1,0.9-0.5,1.8-1,2.6c-0.7,0.9-1.5,1.6-2.5,2
				c-1.2,0.5-2.6,0.8-4.5,0.8h-5.7v-6.6h1.8c0.1,0,0.2,0,0.3,0c0.1,0,0.2,0,0.4,0c0.8,0,1.6,0,2.2,0c0.6,0,1.1-0.3,1.5-0.6
				c0.3-0.3,0.5-0.8,0.6-1.4c0-0.6,0.1-1.3,0.1-2.1c0-0.1,0-0.3,0-0.4c0-0.1,0-0.3,0-0.4v-8.6h-9.8V67c0.1,2.7-0.1,5-0.6,6.9
				c-0.4,1.4-0.9,2.5-1.5,3.4c-0.3,0.4-0.7,0.9-1.2,1.6c-0.5,0.6-1.2,1.3-2.2,1.9c-0.9,0.6-2.1,1.2-3.6,1.7
				c-1.4,0.5-3.2,0.8-5.4,0.9V77c2.8-0.4,4.7-1.3,5.7-2.9c1.1-1.6,1.6-4,1.6-7.2v-3.6h-7.3L45.9,56.7L45.9,56.7z M73.2,49.5v4.2H69
				v-4.2H73.2z M78.8,49.5v4.2h-4.2v-4.2H78.8z"/>
			<path class="st3" d="M85.1,53h25.8c-0.2,3.4-0.6,6.5-1.3,9.2c-0.7,2.8-1.8,5.3-3.2,7.6l8.8,5.2v8.3l-13-8.3
				c-2.3,2.2-5.1,4-8.3,5.4c-3.2,1.3-6.8,2.3-10.9,2.8v-6.9c5.6-0.6,9.9-2.3,13.1-5c3.2-2.7,5.2-6.6,6.3-11.6H85.1L85.1,53L85.1,53z
				"/>
			<path class="st3" d="M130.7,51.6v10.8l14.4,0.7v7.7L130.7,70v13.3h-8.9V51.6H130.7z"/>
		</g>
		<g>
			<path class="st3" d="M6.8,67.9c0,9.9,8.1,17.9,18,17.9c9.9,0,18-8,18-17.9c0-9.9-8.1-17.9-18-17.9C14.9,50,6.8,58,6.8,67.9z
				 M9.2,67.9c0-8.6,7-15.5,15.6-15.5c8.6,0,15.6,7,15.6,15.5c0,8.6-7,15.5-15.6,15.5C16.2,83.4,9.2,76.5,9.2,67.9z"/>
			<path class="st3" d="M33.5,62.5c-2.4-1.2-4.8-1.9-7.4-1.9c-2.6,0-3.9,0.7-3.9,2.1c0,1.9,2.3,1.8,6.1,2.4c4.5,0.7,6.7,2.9,6.7,6.6
				c0,4.6-3.9,7.9-10.5,7.9c-2.7,0-5.4-0.6-8.3-1.8v-4.7c2.7,1.2,5.4,1.8,7.9,1.8c3,0,4.6-0.9,4.6-2.4c0-1.8-1.9-1.8-5.3-2.3
				c-5.2-0.8-7.8-2.9-7.8-6.5c0-4.3,3.9-7.5,10.4-7.5c2.2,0,4.6,0.4,7.4,1.2V62.5L33.5,62.5z"/>
		</g>
	</g>
	<g class="st2">
		<path class="st4" d="M5.3,42.2c0,0.1,0.2,0.2,0.5,0.2c0.1,0,2.9-0.2,7.3-1.8c4.2-1.4,7.9-3.2,11-5.5c3.2-2.2,5.6-4.8,7.6-8.3
			c0.1-0.1,1.9-2.9,1.5-4.1c0,0,0,0,0,0c-0.2-0.6-0.9-0.9-1.4-0.9l-8.9,0l1.6-3.1l-6.6,0c-1.3,0-1.6,0.9-1.7,1.1
			c0,0-0.5,1.3-1.2,2.3L14.4,23c-1.9,2.7-3.8,5.5-8,8c-0.5,0.3-0.6,0.4-0.6,0.5c0,0,0,0.1,0,0.1c0.1,0.1,0.2,0.1,0.5,0.1
			c0.2,0,0.8-0.1,1.9-0.4c0.7-0.2,7-1.7,11.3-5.8c0.8-0.7,1.5-1.4,2.2-2.1c0.1,0,5.2,0,5.2,0c-0.5,1.2-3,7.2-8.2,11.1
			c-1.7,1.3-3.3,2.2-3.3,2.2c-2.7,1.6-5.9,3.2-9.5,4.7c-0.2,0.1-0.4,0.2-0.5,0.3C5.4,41.8,5.2,42,5.3,42.2z"/>
		<path class="st4" d="M42.2,22.8c0,0-0.5,0-0.8,0.4c0,0-2.1,3.1-6.7,5.9L33.1,30l-0.5,0.2c0,0-2.4,1.2-2.4,1.2
			c-0.2,0.1-0.4,0.2-0.4,0.3c0,0.1,0.1,0.3,0.3,0.4c0.2,0.1,1.1,0,2.2-0.3c0.6-0.1,2.7-0.6,4.4-1.3c0,0,1.5-0.6,2.2-0.8
			c-0.3,1.1-2.4,9.1-2.4,9.1h5.3l1.1-7.4c0-0.1,0-0.3,0-0.4c0.1-1.5-0.4-2.3-1-2.7c4.2-2.3,5.7-4.8,5.9-5.3l0.1-0.3L42.2,22.8z"/>
		<path class="st4" d="M45.7,38.9c0.1,0.1,0.2,0.1,0.4,0.1c2.2-0.3,4-0.9,5.5-1.7c5.7-2.9,6.6-9.5,6.7-10.3l0-0.3h-3.2
			c0,0-0.6,0-0.8,0.5c0,0-0.1,0.3-0.1,0.3c0,0-0.3,3.7-3.2,7.4c-1.4,1.8-4.1,3-5.1,3.5l-0.3,0.2C45.7,38.5,45.5,38.7,45.7,38.9z"/>
		<path class="st4" d="M49.5,26.7l-2,0c0,0-0.3,0-0.5,0.2c-0.1,0.1-0.2,0.3-0.2,0.6c0,0.1,0,0.3,0,0.5c0,0,0.2,1.3,0.1,2.5
			c0,0.5-0.1,0.9-0.2,1.3c0,0,0,0.1,0,0.1c0,0,0,0.1,0,0.1c0,0.1,0.1,0.2,0.1,0.2c0,0,0.1,0.1,0.2,0c0,0,1.2-0.3,1.9-1.9
			c0.5-1.1,0.6-2.5,0.6-2.5l0-0.8L49.5,26.7z"/>
		<path class="st4" d="M52.9,26.7l-2,0c0,0-0.3,0-0.5,0.2c-0.1,0.1-0.2,0.3-0.2,0.6c0,0.1,0,0.3,0,0.5c0,0,0.2,1.3,0.1,2.5
			c0,0.5-0.1,0.9-0.2,1.3c0,0,0,0.1,0,0.1c0,0,0,0.1,0,0.1c0,0.1,0.1,0.2,0.1,0.2c0,0,0.1,0.1,0.2,0c0,0,1.2-0.3,1.9-1.9
			c0.5-1.1,0.6-2.5,0.6-2.5l0-0.8L52.9,26.7z"/>
		<path class="st4" d="M112.3,36c-1-2.6-3.1-3.8-4.4-4.4c1.2-1.1,2.1-2.3,2.7-3.5c0,0,0.3-0.7,0.3-0.7c0.1-0.2,0.9-1.9,0.5-2.7
			c-0.2-0.3-0.5-0.5-0.8-0.6c0,0-9.5,0-10.4,0l-0.4,1.9l7,0c-1,3.8-4.9,7.4-10.9,10.1l-0.3,0.1c0,0-0.2,0.1-0.2,0.3c0,0,0,0,0,0
			c0,0.1,0.1,0.3,0.4,0.3c0,0,0,0,0,0l0.5,0c0.1,0,6-1,10.4-4.4c0.9,1.2,1.7,3.6,1.9,4.3h3.9C112.4,36.4,112.3,36,112.3,36z"/>
		<path class="st4" d="M127.3,24.2c-0.1,0-0.4,0-0.6,0.4c0,0-0.3,1.5-0.3,1.8c0,0,0,0,0,0h0l8.5,0l0.4-2.3L127.3,24.2z"/>
		<path class="st4" d="M98.6,27.2c-0.2-0.1-0.3-0.1-0.4-0.1c-0.1,0-0.3,0.1-0.4,0.3l-0.1,0.2c-0.5,0.7-2.2,2.7-4.8,4.4
			c-1.7,1.1-3.6,2-5.4,2.6c0,0,0,0,0,0c0,0,0-0.1,0-0.1c0,0,2.3-12.1,2.3-12.1l-3.8,0c0,0-0.8-0.1-1,0.9l-2.9,15.8
			c0,0-0.1,0.4,0.2,0.5c0.1,0.1,0.2,0.1,0.4,0.1c0,0,1.1-0.3,1.1-0.3c4.3-1.3,8.1-3.7,8.2-3.7c3.1-2.2,5-4.3,6.8-7.9l0.2-0.4
			C98.7,27.4,98.6,27.3,98.6,27.2z"/>
		<path class="st4" d="M131.7,29.8h-7.3l0.5-1.9c0,0,10.3,0,10.3,0c0.3,0,0.7,0.1,0.9,0.5c0.1,0.1,0.1,0.3,0.1,0.5
			c0,0.6-0.4,1.3-0.5,1.5l-0.3,0.6c-1.8,3.7-6.9,5.1-7.4,5.2c-1.4,0.5-2.5,0.7-3.3,0.8c0,0-1,0.1-1,0.1c-0.6,0-0.5-0.4-0.5-0.4
			c0-0.2,0.2-0.3,0.2-0.3l0.5-0.2C123.8,36.3,129.9,34.7,131.7,29.8z"/>
		<path class="st4" d="M137.1,24.3c0.7,0,4.1,0.4,5.6,3.9l-3.1,0.8c0,0-0.2-0.6-0.2-0.6c-0.6-2-2-2.9-2.5-3.2c0,0-0.2-0.1-0.2-0.1
			c-0.2-0.1-0.2-0.3-0.2-0.4c0,0,0-0.1,0-0.1C136.7,24.5,136.8,24.3,137.1,24.3z"/>
		<path class="st4" d="M147.5,25.9c0,0,0.4,0,0.3,0.5c0,0-0.1,0.5-0.1,0.5c0,0-0.4,1.9-1.2,3.4c0,0,0,0,0,0
			c-1.2,2.2-3.1,3.3-3.5,3.4c-3.3,2.2-7.3,2.6-7.6,2.7c0,0-0.2,0-0.3,0c0,0,0.5-2.9,0.5-2.9c0,0,0.1-0.6,0.7-0.8
			c0,0,2.5-0.2,5.2-1.2c0,0,0.5-0.2,0.5-0.2c0.5-0.2,1-0.5,1.6-0.8c2.5-1.8,3.4-4.4,3.4-4.4c0,0,0,0,0,0
			C147.1,26.1,147.2,25.8,147.5,25.9z"/>
		<path class="st4" d="M58.4,31.9c0.1,0.1,0.2,0.1,0.3,0.1c0,0,0.2,0,0.2,0c0.4-0.1,1.9-0.3,3.8-1.5c0,0,0.4-0.2,0.4-0.2
			c0,0,2.4-1.3,4.3-3.4l0.6-0.7l0.3-0.3l3.1,0c-0.1,0.4-0.4,0.9-0.7,1.7c-1.6,2.9-4.9,7.1-12,10.5l-0.3,0.1c0,0-0.3,0.1-0.3,0.4
			c0,0,0,0,0,0c0,0,0.1,0.3,1.1,0.3c0.5-0.1,13.1-1.5,16.5-13.2c0.1-0.3,0.2-0.5,0.2-0.7c0,0,0-0.1,0-0.1c0-0.3-0.2-0.5-0.2-0.5
			c-0.2-0.2-0.4-0.3-0.9-0.3l-5.4,0c0.1-0.3,0.7-1.6,0.7-1.6l-4.1,0c-0.7,0-1,0.6-1.1,0.8c0,0-0.4,1-0.8,1.7l-0.4,0.6
			c-1.1,1.9-2.3,3.8-4.9,5.5c0,0-0.2,0.2-0.3,0.2C58.4,31.5,58.3,31.7,58.4,31.9z"/>
		<circle class="st4" cx="78.3" cy="31.8" r="2.3"/>
		<path class="st4" d="M118.8,28.7c0-0.3,0.6-4.5,0.6-4.5l-2.9,0c0,0-0.5,0-0.6,0.5c0,0-1.8,11.2-1.9,12.2h3.7c0.1-0.5,1-6.7,1-7.1
			c1.8,1.1,2.1,3.3,2.1,3.3c0,0,0,0.1,0.1,0.1c0,0,0.1,0,0.1,0l3.2-0.9c0,0,0.1,0,0.1-0.1c0,0,0-0.1,0-0.1
			C123,29.7,120.1,28.9,118.8,28.7z"/>
	</g>
</g>
<g>
	<rect x="1.4" y="9.6" class="st5" width="175.7" height="90.7"/>
	<g>
		<g>
			<path class="st3" d="M101.9,87.7c-0.1-1.5-0.2-2.7-0.3-3.6c0.8,0.4,1.5,0.6,2.1,0.7c0.6,0.1,1.2,0.2,1.6,0.2
				c0.6,0,1.1-0.1,1.5-0.3c0.4-0.2,0.5-0.4,0.5-0.8c0-0.1,0-0.2-0.1-0.3c0-0.1-0.1-0.2-0.2-0.4c-0.1-0.1-0.2-0.3-0.4-0.5l-2-1.7
				c-0.5-0.4-0.8-0.7-1-0.9c-0.4-0.4-0.7-0.7-0.9-1c-0.2-0.3-0.4-0.6-0.5-0.9c-0.1-0.3-0.1-0.7-0.1-1c0-0.4,0.1-0.9,0.2-1.3
				c0.2-0.4,0.4-0.8,0.7-1.2c0.3-0.4,0.7-0.7,1.2-0.9c0.5-0.3,1-0.4,1.6-0.5c0.6-0.1,1.2-0.1,1.8-0.1c1.2,0,2.5,0.1,3.9,0.4
				c0,0.5,0,0.9,0.1,1.3c0,0.4,0.1,1.1,0.2,2.1c-0.6-0.3-1.2-0.4-1.8-0.5c-0.5-0.1-1-0.2-1.4-0.2c-0.6,0-1,0.1-1.4,0.3
				c-0.4,0.2-0.5,0.5-0.5,0.8c0,0.1,0,0.3,0.1,0.4c0.1,0.1,0.2,0.3,0.3,0.5c0.2,0.2,0.4,0.4,0.6,0.6c0.3,0.2,0.7,0.5,1.2,1l0.8,0.6
				c0.2,0.2,0.5,0.4,0.7,0.7c0.3,0.3,0.5,0.5,0.7,0.8c0.2,0.3,0.3,0.5,0.4,0.7c0.1,0.2,0.2,0.4,0.2,0.6c0,0.2,0.1,0.4,0.1,0.7
				c0,0.6-0.2,1.2-0.5,1.8c-0.3,0.6-0.7,1.1-1.3,1.4c-0.6,0.4-1.2,0.6-1.8,0.8c-0.7,0.1-1.4,0.2-2.1,0.2
				C105,88.2,103.6,88.1,101.9,87.7z"/>
			<path class="st3" d="M113.9,88l0.3-5.1l0.2-4l0-1.7c0.8,0,1.5,0,2.1,0c0.7,0,1.3,0,2,0l-0.1,1.4c0.2-0.3,0.4-0.5,0.6-0.7
				c0.2-0.2,0.3-0.3,0.6-0.4c0.2-0.1,0.4-0.2,0.7-0.3c0.2-0.1,0.5-0.1,0.8-0.2c0.3,0,0.6-0.1,0.9-0.1c0.4,0,0.7,0,1,0.1
				c0.3,0.1,0.6,0.1,0.8,0.2c0.2,0.1,0.4,0.2,0.6,0.3c0.2,0.1,0.3,0.3,0.4,0.4c0.1,0.2,0.3,0.4,0.4,0.7c0.3-0.5,0.6-0.8,1-1
				c0.3-0.2,0.7-0.4,1.2-0.5c0.4-0.1,0.9-0.2,1.4-0.2c0.6,0,1.2,0.1,1.7,0.3s1,0.5,1.3,0.9c0.3,0.4,0.5,1,0.5,1.7
				c0,0.3,0,0.8-0.1,1.5c0,0.7-0.1,1.8-0.2,3.4c-0.1,1.6-0.1,2.7-0.1,3.4c-0.6,0-1.3,0-1.9,0c-0.7,0-1.5,0-2.3,0
				c0.1-0.9,0.1-2,0.2-3.4c0.1-1.4,0.1-2.3,0.1-2.8c0-0.5-0.1-0.8-0.2-1c-0.1-0.2-0.2-0.4-0.4-0.5c-0.2-0.1-0.3-0.1-0.5-0.1
				c-0.2,0-0.4,0-0.6,0.1c-0.2,0.1-0.3,0.2-0.4,0.4c-0.2,0.2-0.3,0.5-0.4,0.9c-0.1,0.3-0.2,0.7-0.2,1.3c0,0.6-0.1,1.3-0.1,2.3
				l-0.1,2.8c-0.8,0-1.4,0-2,0c-0.6,0-1.4,0-2.2,0c0.1-0.6,0.1-1.7,0.2-3.2c0.1-1.5,0.1-2.5,0.1-3c0-0.4,0-0.7-0.1-1
				c-0.1-0.2-0.2-0.4-0.4-0.5c-0.2-0.1-0.4-0.2-0.6-0.2c-0.3,0-0.5,0.1-0.7,0.2c-0.2,0.2-0.4,0.4-0.5,0.7c-0.1,0.3-0.2,0.7-0.3,1.3
				c-0.1,0.5-0.1,1.3-0.2,2.4c0,1.1-0.1,2.1-0.1,3.2c-0.9,0-1.5,0-2.1,0C115.5,87.9,114.8,87.9,113.9,88z"/>
			<path class="st3" d="M134,88c0.1-0.9,0.2-1.6,0.2-2.1c0-0.6,0.1-1.3,0.1-2.1c0-0.9,0.1-1.8,0.1-2.9c0-1.1,0.1-2.3,0.1-3.7
				c0.9,0,1.7,0,2.2,0c0.5,0,1.2,0,2.2,0c-0.1,1.3-0.2,2.5-0.3,3.5c-0.1,1-0.1,2.1-0.1,3.2c0,2,0,3.4,0,4.1c-0.8,0-1.6,0-2.2,0
				C135.8,87.9,135,87.9,134,88z M134.7,75.8c0-0.8,0.1-1.5,0.1-2c0-0.1,0-0.3,0-0.6c0.9,0,1.6,0,2.2,0c0.8,0,1.5,0,2.1,0
				c0,0.2,0,0.4,0,0.6l-0.1,1.3c0,0.2,0,0.4,0,0.7c-0.7,0-1.4,0-2,0C136.2,75.8,135.5,75.8,134.7,75.8z"/>
			<path class="st3" d="M140.8,88l0.2-2.3l0.4-7.9l0.1-4.3c1,0,1.7,0,2.2,0c0.6,0,1.4,0,2.1,0l-0.2,3.3l-0.4,8l-0.1,3.2
				c-0.8,0-1.4,0-2,0L140.8,88z"/>
			<path class="st3" d="M158.1,84.8c-0.1,0.4-0.3,1.4-0.5,3.1c-0.8,0.2-1.5,0.3-2.1,0.3c-0.6,0.1-1.1,0.1-1.7,0.1
				c-0.8,0-1.6-0.1-2.3-0.2c-0.7-0.1-1.3-0.3-1.8-0.6c-0.5-0.3-0.9-0.7-1.3-1.1s-0.6-1-0.8-1.6c-0.2-0.6-0.3-1.2-0.3-1.9
				c0-0.9,0.2-1.8,0.5-2.7c0.4-0.9,0.8-1.5,1.4-2c0.6-0.5,1.2-0.8,2-1c0.7-0.2,1.5-0.3,2.3-0.3c0.8,0,1.6,0.1,2.3,0.3
				c0.7,0.2,1.4,0.5,1.9,1c0.5,0.5,0.9,1,1.1,1.6c0.2,0.6,0.3,1.2,0.3,1.9c0,0.4,0,0.9-0.1,1.3l-7.4,0c0,0.1,0,0.2,0,0.3
				c0,0.8,0.3,1.3,0.8,1.7c0.5,0.4,1.2,0.5,2,0.5c0.5,0,1-0.1,1.6-0.2C156.5,85.2,157.2,85,158.1,84.8z M151.6,81.3h3.5
				c0-0.1,0-0.2,0-0.3c0-0.4-0.1-0.7-0.2-0.9c-0.1-0.3-0.3-0.5-0.6-0.6c-0.2-0.1-0.5-0.2-0.8-0.2c-0.2,0-0.4,0-0.6,0.1
				c-0.2,0.1-0.4,0.2-0.5,0.3c-0.2,0.1-0.3,0.3-0.4,0.4c-0.1,0.2-0.2,0.3-0.2,0.5C151.6,80.8,151.6,81.1,151.6,81.3z"/>
			<path class="st3" d="M160.5,88c0.1-0.9,0.1-2.2,0.1-3.8l2.2,0c0.2,0,0.8,0,1.8,0c-0.1,0.8-0.1,2-0.2,3.8l-1.8,0
				C162.5,87.9,161.8,87.9,160.5,88z"/>
		</g>
		<g>
			<path class="st3" d="M23.6,87.7c-0.1-1.5-0.2-2.7-0.3-3.6c0.8,0.4,1.5,0.6,2.1,0.7c0.6,0.1,1.2,0.2,1.6,0.2
				c0.6,0,1.1-0.1,1.5-0.3c0.4-0.2,0.5-0.4,0.5-0.8c0-0.1,0-0.2-0.1-0.3c0-0.1-0.1-0.2-0.2-0.4c-0.1-0.1-0.2-0.3-0.4-0.5l-2-1.7
				c-0.5-0.4-0.8-0.7-1-0.9c-0.4-0.4-0.7-0.7-0.9-1c-0.2-0.3-0.4-0.6-0.5-0.9c-0.1-0.3-0.1-0.7-0.1-1c0-0.4,0.1-0.9,0.2-1.3
				c0.2-0.4,0.4-0.8,0.7-1.2c0.3-0.4,0.7-0.7,1.2-0.9c0.5-0.3,1-0.4,1.6-0.5s1.2-0.1,1.8-0.1c1.2,0,2.5,0.1,3.9,0.4
				c0,0.5,0,0.9,0.1,1.3c0,0.4,0.1,1.1,0.2,2.1c-0.6-0.3-1.2-0.4-1.8-0.5c-0.5-0.1-1-0.2-1.4-0.2c-0.6,0-1,0.1-1.4,0.3
				c-0.4,0.2-0.5,0.5-0.5,0.8c0,0.1,0,0.3,0.1,0.4c0.1,0.1,0.2,0.3,0.3,0.5s0.4,0.4,0.6,0.6c0.3,0.2,0.7,0.5,1.2,1l0.8,0.6
				c0.2,0.2,0.5,0.4,0.7,0.7c0.3,0.3,0.5,0.5,0.7,0.8c0.2,0.3,0.3,0.5,0.4,0.7c0.1,0.2,0.2,0.4,0.2,0.6c0,0.2,0.1,0.4,0.1,0.7
				c0,0.6-0.2,1.2-0.5,1.8c-0.3,0.6-0.7,1.1-1.3,1.4c-0.6,0.4-1.2,0.6-1.8,0.8c-0.7,0.1-1.4,0.2-2.1,0.2
				C26.7,88.2,25.3,88.1,23.6,87.7z"/>
			<path class="st3" d="M35.2,92.9c0.1-1.4,0.2-2.9,0.3-4.3c0.2-2.5,0.3-4.5,0.3-6.2c0.1-1.7,0.1-3.3,0.1-5c1.4-0.2,2.6-0.4,3.4-0.4
				c0.8-0.1,1.6-0.1,2.4-0.1c1,0,2,0.1,2.8,0.3c0.9,0.2,1.5,0.6,2.1,1.1c0.5,0.5,0.9,1.2,1.2,1.9c0.3,0.7,0.4,1.5,0.4,2.3
				c0,0.7-0.1,1.5-0.3,2.2c-0.2,0.7-0.5,1.3-1,1.9c-0.4,0.6-0.9,1-1.5,1.2c-0.6,0.3-1.2,0.4-1.9,0.4c-0.3,0-0.7,0-1.1-0.1
				c-0.4-0.1-0.7-0.2-1.1-0.3s-0.6-0.3-0.8-0.4c-0.2-0.1-0.5-0.3-0.8-0.6l-0.1,3c0,1.4-0.1,2.4-0.1,3.1c-0.8,0-1.5,0-2.1,0
				C36.9,92.9,36.2,92.9,35.2,92.9z M40.1,80.1c-0.1,0.3-0.1,0.6-0.1,0.8c0,0.2,0,0.5-0.1,0.8s0,0.6,0,0.8c0,0.6,0.1,1.1,0.3,1.5
				c0.2,0.4,0.4,0.7,0.8,0.9c0.3,0.2,0.7,0.3,1,0.3c0.4,0,0.7-0.1,1.1-0.3c0.3-0.2,0.6-0.6,0.8-1c0.2-0.4,0.3-0.9,0.3-1.5
				c0-0.8-0.2-1.4-0.6-1.8c-0.4-0.5-1-0.7-1.7-0.7C41.3,79.9,40.7,80,40.1,80.1z"/>
			<path class="st3" d="M60.3,84.8c-0.1,0.4-0.3,1.4-0.5,3.1c-0.8,0.2-1.5,0.3-2.1,0.3c-0.6,0.1-1.1,0.1-1.7,0.1
				c-0.8,0-1.6-0.1-2.3-0.2c-0.7-0.1-1.3-0.3-1.8-0.6c-0.5-0.3-0.9-0.7-1.3-1.1s-0.6-1-0.8-1.6c-0.2-0.6-0.3-1.2-0.3-1.9
				c0-0.9,0.2-1.8,0.5-2.7c0.4-0.9,0.8-1.5,1.4-2c0.6-0.5,1.2-0.8,2-1c0.7-0.2,1.5-0.3,2.3-0.3c0.8,0,1.6,0.1,2.3,0.3
				c0.7,0.2,1.4,0.5,1.9,1c0.5,0.5,0.9,1,1.1,1.6c0.2,0.6,0.3,1.2,0.3,1.9c0,0.4,0,0.9-0.1,1.3l-7.4,0c0,0.1,0,0.2,0,0.3
				c0,0.8,0.3,1.3,0.8,1.7c0.5,0.4,1.2,0.5,2,0.5c0.5,0,1-0.1,1.6-0.2C58.7,85.2,59.4,85,60.3,84.8z M53.8,81.3h3.5
				c0-0.1,0-0.2,0-0.3c0-0.4-0.1-0.7-0.2-0.9c-0.1-0.3-0.3-0.5-0.6-0.6c-0.2-0.1-0.5-0.2-0.8-0.2c-0.2,0-0.4,0-0.6,0.1
				c-0.2,0.1-0.4,0.2-0.5,0.3c-0.2,0.1-0.3,0.3-0.4,0.4c-0.1,0.2-0.2,0.3-0.2,0.5C53.9,80.8,53.8,81.1,53.8,81.3z"/>
			<path class="st3" d="M73.1,84.8c-0.1,0.4-0.3,1.4-0.5,3.1c-0.8,0.2-1.5,0.3-2.1,0.3c-0.6,0.1-1.1,0.1-1.7,0.1
				c-0.8,0-1.6-0.1-2.3-0.2c-0.7-0.1-1.3-0.3-1.8-0.6c-0.5-0.3-0.9-0.7-1.3-1.1s-0.6-1-0.8-1.6c-0.2-0.6-0.3-1.2-0.3-1.9
				c0-0.9,0.2-1.8,0.5-2.7c0.4-0.9,0.8-1.5,1.4-2c0.6-0.5,1.2-0.8,2-1c0.7-0.2,1.5-0.3,2.3-0.3c0.8,0,1.6,0.1,2.3,0.3
				c0.7,0.2,1.4,0.5,1.9,1c0.5,0.5,0.9,1,1.1,1.6c0.2,0.6,0.3,1.2,0.3,1.9c0,0.4,0,0.9-0.1,1.3l-7.4,0c0,0.1,0,0.2,0,0.3
				c0,0.8,0.3,1.3,0.8,1.7c0.5,0.4,1.2,0.5,2,0.5c0.5,0,1-0.1,1.6-0.2C71.5,85.2,72.3,85,73.1,84.8z M66.6,81.3h3.5
				c0-0.1,0-0.2,0-0.3c0-0.4-0.1-0.7-0.2-0.9c-0.1-0.3-0.3-0.5-0.6-0.6c-0.2-0.1-0.5-0.2-0.8-0.2c-0.2,0-0.4,0-0.6,0.1
				c-0.2,0.1-0.4,0.2-0.5,0.3c-0.2,0.1-0.3,0.3-0.4,0.4c-0.1,0.2-0.2,0.3-0.2,0.5C66.7,80.8,66.7,81.1,66.6,81.3z"/>
			<path class="st3" d="M87.4,88c-0.8,0-1.4,0-1.9,0c-0.6,0-1.3,0-2.1,0l0.1-1.3c-0.3,0.3-0.5,0.5-0.7,0.7c-0.2,0.2-0.5,0.3-0.8,0.5
				c-0.3,0.2-0.7,0.3-1,0.4c-0.4,0.1-0.8,0.1-1.1,0.1c-0.7,0-1.3-0.1-1.9-0.4c-0.6-0.2-1.1-0.6-1.5-1.1c-0.4-0.5-0.7-1-0.9-1.6
				c-0.2-0.6-0.3-1.3-0.3-1.9c0-1,0.2-1.9,0.6-2.8c0.4-0.9,0.9-1.6,1.5-2.2c0.6-0.5,1.3-0.9,2-1.1c0.8-0.2,1.6-0.3,2.5-0.3
				c0.6,0,1.3,0.1,2.1,0.2c0.1-0.8,0.1-2,0.1-3.5c0.9,0,1.6,0,2.1,0c0.7,0,1.4,0,2.2,0c-0.2,2.1-0.4,4.7-0.5,7.7
				C87.5,84.2,87.4,86.5,87.4,88z M83.7,79.8c-0.4-0.1-0.7-0.1-1.1-0.1c-0.7,0-1.3,0.1-1.8,0.4c-0.5,0.3-0.9,0.7-1.1,1.2
				c-0.3,0.6-0.4,1.1-0.4,1.7c0,0.4,0.1,0.8,0.2,1.1s0.4,0.6,0.7,0.8c0.3,0.2,0.6,0.3,1,0.3c0.4,0,0.7-0.1,1.1-0.3
				c0.3-0.2,0.6-0.5,0.8-1c0.2-0.4,0.3-0.9,0.4-1.5C83.6,81.7,83.6,80.9,83.7,79.8z"/>
			<path class="st3" d="M89.9,88c0.1-0.9,0.1-2.2,0.1-3.8l2.2,0c0.2,0,0.8,0,1.8,0c-0.1,0.8-0.1,2-0.2,3.8l-1.8,0
				C91.9,87.9,91.2,87.9,89.9,88z"/>
		</g>
		<g>
			<g>
				<path class="st6" d="M170.1,36.7c0,0-8.7-0.4-13.2-0.6c0-3.7,0-8.9,0-8.9c0-2.1-1.7-3.8-3.9-3.8h-10.4c-2.1,0-3.9,1.7-3.9,3.8
					V54c-0.2-1.1-0.8-2.2-1.9-2.8c0,0-4.1-2.4-7.2-4.2c0.9-2,1.8-4.2,2.4-6.4c0.9-3.5,1.5-7.4,1.7-11.6c0-0.1,0-0.1,0-0.2
					c0-1-0.4-1.9-1.1-2.6c-0.7-0.8-1.7-1.2-2.8-1.2H99.7c-1.6,0-2.9,0.9-3.5,2.2v-2.4c0-2.1-1.7-3.9-3.9-3.9h-5
					c-0.3,0-0.5,0-0.8,0.1c-0.3,0-0.5-0.1-0.8-0.1h-5c-2.1,0-3.9,1.7-3.9,3.9v4.5c-0.9,0-1.7,0-2.4,0c0-1,0-2.1,0-2.1
					c0-2.1-1.7-3.8-3.9-3.8h-8.3c-2.1,0-3.9,1.7-3.9,3.8c0,0,0,1.1,0,2.1c-2.3,0-4.7,0-4.7,0c-2.1,0-3.9,1.7-3.9,3.8v7.7
					c0,2.1,1.7,3.8,3.9,3.8c0,0,2.4,0,4.7,0c0,0.1,0,0.4,0,0.4c0,3.9-0.8,5.7-1.2,6.3c-0.7,1.1-2.6,1.6-4,1.7
					C51.4,53.5,50,55.1,50,57v7.5c0,1.1,0.4,2.1,1.2,2.8c0.8,0.7,1.8,1.1,2.9,1c2.9-0.2,5.3-0.6,7.4-1.3c2-0.7,3.7-1.5,5.1-2.4
					c1.5-1,2.6-2,3.4-3.1c0,0,0.2-0.2,0.4-0.5c0,1.6,0,3.3,0,3.3c0,2.1,1.7,3.8,3.9,3.8h6.7c2.7,0,4.9-0.4,6.8-1.3
					c1.7-0.7,3.2-1.9,4.4-3.5c0,0,0.1-0.1,0.1-0.1c0.6-0.8,1-1.5,1.3-2.4v3.1c0,1.1,0.5,2.2,1.3,2.9c0.8,0.7,1.9,1.1,3,0.9
					c5.1-0.6,9.7-1.8,13.8-3.5c3.2-1.3,6-3,8.6-5.1c3.4,2.2,12.7,8.2,12.7,8.2c1.2,0.8,2.7,0.8,3.9,0.1c1.1-0.6,1.8-1.7,2-3
					c0.2,2,1.8,3.5,3.9,3.5h10.4c2.1,0,3.9-1.7,3.9-3.8c0,0,0-7.1,0-11.5c4.7,0.2,12.8,0.6,12.8,0.6c1.1,0.1,2.1-0.3,2.9-1.1
					c0.8-0.7,1.2-1.7,1.2-2.8v-9.1C173.8,38.5,172.2,36.8,170.1,36.7z M74.1,52.9c0.4-1.8,0.5-3.8,0.5-6c0-0.5,0-1.1,0-1.6
					c0,0,0-0.4,0-0.5c1.7,0,2,0,3.7,0c0,2.9,0,7.2,0,7.2s0,0.5,0,1c-0.3,0-0.6,0-1,0c0,0-0.1,0-0.1,0c0,0-0.3,0-0.4,0
					c-0.2,0-0.3,0-0.4,0L74.1,52.9C74.2,52.9,74.1,52.9,74.1,52.9z M94.3,53.6V33.2c0,0,0-0.1,0-0.1c0.7-0.4,1.2-1,1.5-1.7v5.2
					c0,2.1,1.7,3.9,3.9,3.9c0,0,9.4,0,15.1,0c-1.1,2.8-2.7,5-4.7,6.8c-3.1,2.6-7.6,4.3-13.3,5C95.8,52.3,94.9,52.8,94.3,53.6z"/>
			</g>
			<g>
				<path class="st7" d="M4.8,46.3c0,13.3,10.9,24.2,24.3,24.2c13.4,0,24.3-10.8,24.3-24.2c0-13.3-10.9-24.2-24.3-24.2
					C15.7,22.2,4.8,33,4.8,46.3z"/>
			</g>
			<g>
				<path class="st3" d="M53.8,33.2h8.6v-5.9h8.3v5.9h19.7v21.6c0,1.2-0.1,2.3-0.2,3.4c-0.1,1.1-0.5,2.1-1.2,3
					c-0.8,1.1-1.8,1.8-2.9,2.3c-1.4,0.6-3.1,0.9-5.2,0.9h-6.7v-7.7h2.1c0.1,0,0.2,0,0.4,0c0.1,0,0.3,0,0.4,0c1,0,1.8,0,2.5,0
					c0.7-0.1,1.3-0.3,1.7-0.7c0.4-0.4,0.6-0.9,0.7-1.6c0.1-0.7,0.1-1.5,0.1-2.5c0-0.1,0-0.3,0-0.5c0-0.2,0-0.3,0-0.5v-10H70.7v4.4
					c0.1,3.1-0.1,5.8-0.7,8.1c-0.4,1.6-1,2.9-1.7,4c-0.3,0.5-0.8,1.1-1.4,1.9c-0.6,0.7-1.4,1.5-2.5,2.2c-1.1,0.7-2.5,1.4-4.2,2
					c-1.7,0.6-3.8,0.9-6.4,1.1V57c3.2-0.4,5.5-1.6,6.7-3.4c1.3-1.9,1.9-4.7,1.9-8.5v-4.2h-8.6V33.2z M85.8,24.8v4.9h-5v-4.9H85.8z
					 M92.3,24.8v4.9h-5v-4.9H92.3z"/>
				<path class="st3" d="M99.7,28.8h30.2c-0.2,4-0.7,7.6-1.6,10.8c-0.9,3.2-2.1,6.2-3.8,8.9l10.4,6.1v9.7l-15.2-9.7
					c-2.7,2.6-6,4.7-9.7,6.3c-3.7,1.6-8,2.7-12.8,3.3V56c6.5-0.7,11.6-2.7,15.4-5.9c3.7-3.2,6.2-7.7,7.3-13.6H99.7V28.8z"/>
				<path class="st3" d="M153.1,27.2v12.6l16.9,0.8v9.1l-16.9-0.8v15.6h-10.4V27.2H153.1z"/>
			</g>
			<g>
				<path class="st3" d="M8,46.3c0,11.6,9.5,21,21.1,21c11.6,0,21.1-9.4,21.1-21c0-11.6-9.5-21-21.1-21C17.4,25.4,8,34.8,8,46.3z
					 M10.8,46.3c0-10,8.2-18.2,18.3-18.2c10.1,0,18.3,8.2,18.3,18.2c0,10-8.2,18.2-18.3,18.2C19,64.5,10.8,56.4,10.8,46.3z"/>
				<path class="st3" d="M39.3,40c-2.8-1.4-5.6-2.2-8.6-2.2c-3.1,0-4.6,0.8-4.6,2.4c0,2.2,2.6,2.1,7.2,2.8c5.3,0.8,7.9,3.3,7.9,7.7
					c0,5.4-4.5,9.2-12.3,9.2c-3.1,0-6.3-0.8-9.7-2.1v-5.5c3.2,1.4,6.3,2.1,9.3,2.1c3.6,0,5.4-1.1,5.4-2.8c0-2.1-2.2-2.1-6.2-2.7
					c-6.1-0.9-9.2-3.4-9.2-7.6c0-5,4.6-8.8,12.2-8.8c2.5,0,5.4,0.5,8.7,1.4V40z"/>
			</g>
		</g>
	</g>
</g>
</svg>
