<?xml version="1.0" encoding="utf-8"?>
<!-- Generator: Adobe Illustrator 18.1.1, SVG Export Plug-In . SVG Version: 6.00 Build 0)  -->
<!DOCTYPE svg PUBLIC "-//W3C//DTD SVG 1.1//EN" "http://www.w3.org/Graphics/SVG/1.1/DTD/svg11.dtd">
<svg version="1.1" id="レイヤー_1" xmlns="http://www.w3.org/2000/svg" xmlns:xlink="http://www.w3.org/1999/xlink" x="0px"
	 y="0px" viewBox="0 0 300 124" enable-background="new 0 0 300 124" xml:space="preserve">
<g>
	<path d="M76.4,30.7h-0.9l-26.3,63l0,0.1h9.6l3.7-9.4h27.1l3.7,9.4h9.6L76.4,30.7L76.4,30.7z M65.5,76.4l10.4-26.2l10.4,26.2H65.5z"
		/>
	<path d="M230.7,57.6l-4-1.9c-6.1-2.7-9-4.9-9-9.9c0-4.5,3.3-7.5,8.2-7.5c4.6,0,7.5,1.8,10,6.1l7.4-4.6c-3.7-6.7-9.3-9.9-17.4-9.9
		c-10.2,0-17.3,6.6-17.3,16.1c0,10,5.5,14.5,14.5,18.5l4.1,1.9c7.1,3.3,10.5,5.8,10.5,11.2c0,5.2-4.5,8.9-10.9,8.9
		c-7.9,0-11.6-4.2-14.3-8.9l-7.7,4.4c2.4,4.9,8.5,13,22.2,13c12.2,0,20.1-6.9,20.1-17.5C246.9,67,240.7,62.1,230.7,57.6z"/>
	<polygon points="155.3,46.4 147.9,46.4 147.9,59 135.3,59 135.3,66.4 147.9,66.4 147.9,79.1 155.3,79.1 155.3,66.4 168,66.4 
		168,59 155.3,59 	"/>
	<path d="M300,0h-7.4H7.4H0l0,0v7.4l0,0v109.1l0,0v7.4l0,0h7.4h285.1h7.4h0L300,0L300,0z M7.4,116.6V7.4h285.1v109.1H7.4z"/>
</g>
</svg>
