<svg id="レイヤー_1" data-name="レイヤー 1" xmlns="http://www.w3.org/2000/svg" viewBox="0 0 301.255 128.777"><defs><style>.cls-1{fill:none;}.cls-2{fill:#ca0000;}.cls-3{fill:#c00;}</style></defs><title>logo-4</title><path class="cls-1" d="M36.4,17.98a4.312,4.312,0,0,0,2.359-2.439,21.5,21.5,0,0,0,1.352-3.629,9.356,9.356,0,0,0-1.276,1.827,2.292,2.292,0,0,1-.711.678,7.883,7.883,0,0,0-2.5,1.484C35,16.675,34.955,18.465,36.4,17.98Z" transform="translate(43.147 0)"/><path class="cls-1" d="M20.655,14.417a2.3,2.3,0,0,1-.72-0.678,9.155,9.155,0,0,0-1.264-1.827,20.7,20.7,0,0,0,1.35,3.629,4.3,4.3,0,0,0,2.358,2.439c1.446,0.485,1.4-1.3.776-2.079A7.98,7.98,0,0,0,20.655,14.417Z" transform="translate(43.147 0)"/><path class="cls-1" d="M26.4,17.773c0.538,2.082-1.47.866-2.4,2.03-1.751,2.189,3.133,7.237.959,8.924a2.908,2.908,0,0,0,1.1-3.011c-0.059-.767-0.443-2.025.083-2.7,0.579-.759,1.417-0.245,2.153-0.572a2.01,2.01,0,0,0,1.1-1.1,1.986,1.986,0,0,0,1.1,1.1c0.735,0.327,1.565-.187,2.154.572,0.522,0.677.139,1.936,0.079,2.7a2.911,2.911,0,0,0,1.1,3.011c-2.177-1.686,2.71-6.734.95-8.924-0.927-1.164-2.933.052-2.406-2.03C33.04,15.191,35.183,12.69,37,10.815c2.1-2.183,4.755-4.485,4-7.922A4.112,4.112,0,0,0,38.952,0c-0.167,4.488-4.447,8.082-9.7,8.082-5.2,0-9.445-3.512-9.7-7.927a4.159,4.159,0,0,0-1.774,2.738c-0.755,3.436,1.882,5.739,4,7.922C23.6,12.69,25.739,15.191,26.4,17.773Z" transform="translate(43.147 0)"/><path class="cls-1" d="M11.383,33.986a1.682,1.682,0,0,1,.637.4,4.454,4.454,0,0,1,.781,1.327c1.082,2.584,1.792,4.179,2.133,4.77a2.544,2.544,0,0,0,1.967.506h3.141a0.191,0.191,0,0,0,.17-0.165,1.056,1.056,0,0,0-.569-0.317,24.156,24.156,0,0,1-2.579-1.165,6.507,6.507,0,0,1-1.38-1.328,20.547,20.547,0,0,1-2.234-3.186,2.442,2.442,0,0,0-.973-0.955c-0.186-.059-0.4-0.122-0.628-0.184L11.3,33.65c-0.118,0-.164.042-0.164,0.085A0.216,0.216,0,0,0,11.383,33.986Z" transform="translate(43.147 0)"/><path class="cls-1" d="M11.042,41.342a3.865,3.865,0,0,1-.187.668,17.436,17.436,0,0,1-1.016,2.152,5.093,5.093,0,0,1-1.52,1.689,0.429,0.429,0,0,0-.171.339,1.083,1.083,0,0,0,.252.778,0.733,0.733,0,0,0,.66.463,16.161,16.161,0,0,1,5.867-1.877l0.231,0.6a6.425,6.425,0,0,0,.764,1.371,0.571,0.571,0,0,0,.736-0.188,1.462,1.462,0,0,0,.169-0.663,3.772,3.772,0,0,0-.2-1.174,4.561,4.561,0,0,0-1.014-1.352c-0.429-.344-0.829-0.64-1.208-0.894a1.412,1.412,0,0,0-.466-0.127H13.924a0.076,0.076,0,0,0-.069.082,1.566,1.566,0,0,0,.315.741c0.1,0.2.3,0.571,0.546,1.164l-4.767.633,0.128-.2a30.553,30.553,0,0,1,2.68-3.476,0.341,0.341,0,0,0,.188-0.257,1.124,1.124,0,0,0-.567-0.882,1.911,1.911,0,0,0-1.083-.446,0.3,0.3,0,0,0-.334.341A1.465,1.465,0,0,0,11.042,41.342Z" transform="translate(43.147 0)"/><path class="cls-1" d="M7.329,41.647a1.109,1.109,0,0,0,.486-0.235,8.072,8.072,0,0,0,1.474-1.289,13.189,13.189,0,0,0,1.334-1.9,0.36,0.36,0,0,1,.207-0.209,0.32,0.32,0,0,0,.134-0.229,0.968,0.968,0,0,0-.425-0.673h0a1.836,1.836,0,0,0-.89-0.4c-0.17,0-.253.057-0.253,0.165l0.083,0.4a2.965,2.965,0,0,1-.123.649A11.641,11.641,0,0,1,8.7,39.473a17.2,17.2,0,0,1-1.45,2C7.25,41.6,7.268,41.647,7.329,41.647Z" transform="translate(43.147 0)"/><path class="cls-1" d="M4.777,41.062a23.512,23.512,0,0,1-.255,3.161C4.391,45.242,4.229,46.19,4.029,47.1a2.243,2.243,0,0,0,.24,1.1,0.837,0.837,0,0,0,.591.709,0.546,0.546,0,0,0,.4-0.506,1.611,1.611,0,0,0,.251-0.823V41.6c0.148,0.19.381,0.506,0.7,0.932a2.653,2.653,0,0,0,.638.667,0.4,0.4,0,0,0,.312.091,0.568,0.568,0,0,0,.446-0.254,1.838,1.838,0,0,0,.142-0.651,0.7,0.7,0,0,0-.186-0.468,3.529,3.529,0,0,0-.882-0.532c-0.39-.123-0.722-0.25-1.07-0.35l-0.1-.028V40.1l0.043-1.262c0.656-.171,1.307-0.362,1.94-0.571a0.278,0.278,0,0,0,.253-0.17,0.419,0.419,0,0,0,.091-0.251,0.866,0.866,0,0,0-.531-0.318c-0.3-.04-0.506-0.081-0.629-0.083a0.712,0.712,0,0,0-.391.125l-0.686.3c0.081-1.226.227-2.56,0.438-4.014a0.9,0.9,0,0,0,.15-0.444,1.1,1.1,0,0,0-.656-0.865A2.556,2.556,0,0,0,4.2,32.083c-0.121,0-.175.08-0.175,0.25a5.593,5.593,0,0,1,.557,1.418,32.693,32.693,0,0,1,.191,4.413l-0.318.087a18.237,18.237,0,0,1-3.718.5,0.148,0.148,0,0,0-.168.177,0.473,0.473,0,0,0,.274.251,3.09,3.09,0,0,0,1.545.247,7.862,7.862,0,0,0,1.793-.292l0.337-.063a17.6,17.6,0,0,1-1.983,3.9A17.047,17.047,0,0,1,0,45.93H0.088a1.519,1.519,0,0,0,.823-0.29,10.433,10.433,0,0,0,1.856-1.478A12.9,12.9,0,0,0,4.777,41.062Z" transform="translate(43.147 0)"/><path class="cls-1" d="M27.458,44.446a16.868,16.868,0,0,1-2.618,3.473,0.07,0.07,0,0,0,0,.029,0.071,0.071,0,0,0,.086.052,2.8,2.8,0,0,0,.993-0.4,8.169,8.169,0,0,0,2.191-2.066,14.84,14.84,0,0,0,1.311-3.674,35.192,35.192,0,0,0,.609-5.766l0.023-.249,0.32,0.042A1.463,1.463,0,0,0,30.8,35.75a16.837,16.837,0,0,1,1.772-.48,19.062,19.062,0,0,1,3.9-.379,0.3,0.3,0,0,0,.337-0.343,0.744,0.744,0,0,0-.5-0.636l0,0a2.836,2.836,0,0,0-1.071-.267,1.876,1.876,0,0,0-.557.1,21.852,21.852,0,0,1-2.481.8c-0.639.176-1.31,0.32-2.073,0.47a0.719,0.719,0,0,0-.34-0.232,2.612,2.612,0,0,0-1.056-.237c-0.236,0-.336.068-0.336,0.176a0.225,0.225,0,0,0,.043.167,6.356,6.356,0,0,1,.463,1.988,25.764,25.764,0,0,1-.3,4.053A10.034,10.034,0,0,1,27.458,44.446Z" transform="translate(43.147 0)"/><path class="cls-1" d="M26.928,33.819a4.3,4.3,0,0,0-.837-0.254,0.691,0.691,0,0,0-.426.129,13.282,13.282,0,0,1-2.049.946,0.747,0.747,0,0,0-.4-0.344,1.73,1.73,0,0,0-.842-0.309c-0.3,0-.43.062-0.43,0.172l0.066,0.229a7.847,7.847,0,0,1,.448,2.637c0,2.64-.064,4.821-0.175,6.549-0.064.779-.205,1.861-0.435,3.209a1.6,1.6,0,0,0-.047.317,2.956,2.956,0,0,0,.2.939,0.874,0.874,0,0,0,.612.785,0.693,0.693,0,0,0,.423-0.3,2.269,2.269,0,0,0,.237-0.694c0.083-2.657.123-6.44,0.163-11.375a13.086,13.086,0,0,1,.047-1.483,10.677,10.677,0,0,0,1.966-.205,0.7,0.7,0,0,1,.215-0.04,0.089,0.089,0,0,1,.084.08,0.989,0.989,0,0,1-.043.235A24.389,24.389,0,0,0,25.2,37.62l-0.02.229a1.164,1.164,0,0,0,.228.7,3.2,3.2,0,0,1,.511,1.713c0,0.167-.042.228-0.169,0.228a4.932,4.932,0,0,1-1.733-.311h0a0.084,0.084,0,0,0-.086.082,0.334,0.334,0,0,0,.152.167,8.592,8.592,0,0,1,1.6,1.27,0.769,0.769,0,0,0,.407.122,1.127,1.127,0,0,0,.733-0.336,1.734,1.734,0,0,0,.338-1,1.934,1.934,0,0,0-.251-0.883,6.1,6.1,0,0,0-.978-1.378,0.433,0.433,0,0,1-.184-0.376,1.217,1.217,0,0,1,.144-0.569,8.781,8.781,0,0,1,1.584-2.308,0.749,0.749,0,0,0,.17-0.5A1.444,1.444,0,0,0,26.928,33.819Z" transform="translate(43.147 0)"/><path class="cls-1" d="M33.109,44.989a35.755,35.755,0,0,0,2.513,2.867,1.261,1.261,0,0,0,1.013.322c0.295,0,1.354-.136,3.21-0.428a0.388,0.388,0,0,0,.425-0.32c-3.17-1.006-5.32-2.067-6.5-3.139l-0.025-.042a4.315,4.315,0,0,0,.419-0.636,15.517,15.517,0,0,0,1-2.343,5.416,5.416,0,0,1,1.182-2.176,0.457,0.457,0,0,0,.123-0.254,1.147,1.147,0,0,0-.738-0.675,3.437,3.437,0,0,0-.9-0.243,1.856,1.856,0,0,0-.383.088,8.56,8.56,0,0,1-2.133.68,10.419,10.419,0,0,1-2.284.235,0.142,0.142,0,0,0-.163.164,0.583,0.583,0,0,0,.377.334,1.631,1.631,0,0,0,.863.235,3.453,3.453,0,0,0,.784-0.127c0.678-.169,1.433-0.355,2.278-0.522H34.2a0.15,0.15,0,0,1,.132.166,3.858,3.858,0,0,1-.153.863,17.921,17.921,0,0,1-.8,2.616,5.3,5.3,0,0,1-.442.783,6.041,6.041,0,0,1-.776-0.927,5.779,5.779,0,0,0-.956-0.993,1.981,1.981,0,0,0-.82-0.184,0.65,0.65,0,0,0-.424.052c0,0.162.05,0.262,0.171,0.262a5.5,5.5,0,0,1,1.517,1.433l0.821,1.061-0.04.042a8.573,8.573,0,0,1-1.41,1.558,11.169,11.169,0,0,1-1.8,1.181l-1.015.529a0.379,0.379,0,0,0-.3.125c0,0.068.048,0.084,0.17,0.084a4.109,4.109,0,0,0,1.371-.274,8.11,8.11,0,0,0,1.8-.821,8.633,8.633,0,0,0,1.676-1.359Z" transform="translate(43.147 0)"/><path class="cls-1" d="M57.946,40.547a4.23,4.23,0,0,0-1.584-.376l-0.341.044c-1.283.205-2.931,0.435-4.959,0.692l0.022-3.274c1.266-.167,2.51-0.357,3.71-0.612a0.387,0.387,0,0,0,.322-0.19,0.623,0.623,0,0,0,.08-0.291,0.827,0.827,0,0,0-.585-0.377,4.772,4.772,0,0,0-.722-0.115,1.252,1.252,0,0,0-.485.115,18.95,18.95,0,0,1-2.32.607V34.547a4.649,4.649,0,0,1,.184-1.579,1.775,1.775,0,0,0,.064-0.468,1.136,1.136,0,0,0-.819-0.736,3.054,3.054,0,0,0-.994-0.174c-0.169,0-.253.056-0.253,0.156a3.865,3.865,0,0,1,.51,2.067v3.173c-0.892.129-1.9,0.2-3.085,0.263,0.213-.352.466-0.75,0.72-1.215a0.452,0.452,0,0,1,.21-0.257,0.388,0.388,0,0,0,.165-0.314,1.1,1.1,0,0,0-.5-0.763,2.293,2.293,0,0,0-1.056-.465c-0.236,0-.336.051-0.336,0.145l0.083,0.506a4.752,4.752,0,0,1-.125.821,13.639,13.639,0,0,1-.724,1.922,20.734,20.734,0,0,1-1.54,2.538c0,0.122.022,0.162,0.083,0.162a1.3,1.3,0,0,0,.529-0.31,9.65,9.65,0,0,0,1.693-1.59l0.5-.738a3.739,3.739,0,0,0,1.651.228,15.4,15.4,0,0,0,1.732-.119v3.274l-1.564.172q-5.215.569-6.865,0.569a0.144,0.144,0,0,0-.166.167,1.236,1.236,0,0,0,.568.384,3.188,3.188,0,0,0,1.249.27,2.566,2.566,0,0,0,.889-0.142,39.816,39.816,0,0,1,4.069-.6c0.55-.04,1.141-0.1,1.82-0.148,0,4.646.044,7.055,0.079,7.306,0.034,1.058.107,1.591,0.234,1.591,0.167,0,.367-0.506.567-1.506A31.261,31.261,0,0,0,51,45.108c0.018-.719.042-1.857,0.065-3.4,0.965-.038,2.066-0.057,3.252-0.057a14.866,14.866,0,0,1,1.643.115c1.056,0.092,1.8.132,2.217,0.132,0.381,0,.572-0.1.572-0.342A1.377,1.377,0,0,0,57.946,40.547Z" transform="translate(43.147 0)"/><path class="cls-1" d="M15.825,61.738a12.221,12.221,0,0,1,.918.981,3.331,3.331,0,0,0,.717.628,0.283,0.283,0,0,0,.214.055,0.333,0.333,0,0,0,.308-0.174,0.971,0.971,0,0,0,.11-0.45,0.824,0.824,0,0,0-.167-0.482,3.417,3.417,0,0,0-.894-0.579c-0.362-.125-0.721-0.254-1.047-0.357l-0.07-.022c0.088-.449.159-0.955,0.236-1.531,0.032-.531.091-1.136,0.122-1.811a20.641,20.641,0,0,0,2.2-1.23,0.252,0.252,0,0,0,.2-0.234,1.238,1.238,0,0,0-.455-0.446,1.589,1.589,0,0,0-.544-0.266V55.814a0.067,0.067,0,0,0-.066.061,4.194,4.194,0,0,1-.684,1.1,9.071,9.071,0,0,1-.633.723c0.04-.776.058-1.635,0.091-2.59a1.514,1.514,0,0,1,.188-0.736A1.7,1.7,0,0,0,16.687,54a0.565,0.565,0,0,0-.34-0.473,2.335,2.335,0,0,0-1.281-.379c-0.377,0-.555.072-0.555,0.224a0.213,0.213,0,0,0,.106.171,1.784,1.784,0,0,1,.558,1.068,8.873,8.873,0,0,1,.181,1.815,19.852,19.852,0,0,1-.485,5.274,10.174,10.174,0,0,1-1.162,2.647A10.766,10.766,0,0,1,12.553,65.8h0.065a2.364,2.364,0,0,0,1.035-.556,5.882,5.882,0,0,0,1.834-2.392A8.505,8.505,0,0,0,15.825,61.738Z" transform="translate(43.147 0)"/><path class="cls-1" d="M13.6,60.107a0.423,0.423,0,0,0,.286.068,0.4,0.4,0,0,0,.356-0.231,1.432,1.432,0,0,0,.128-0.544,2.1,2.1,0,0,0-.108-0.643,2.7,2.7,0,0,0-.577-0.726c-0.239-.177-0.453-0.317-0.666-0.464a1.269,1.269,0,0,0-.271-0.072V57.5a0.061,0.061,0,0,0-.055.066,0.884,0.884,0,0,0,.14.431c0.077,0.174.216,0.614,0.437,1.3A4.369,4.369,0,0,0,13.6,60.107Z" transform="translate(43.147 0)"/><path class="cls-1" d="M28.073,65.512a0.3,0.3,0,0,0-.052-0.187,6.9,6.9,0,0,1-.647-2.428,0.4,0.4,0,0,0-.073-0.07,0.09,0.09,0,0,0-.108.067,6.142,6.142,0,0,1-.792,2.218,1.451,1.451,0,0,1-1.235.513,2.7,2.7,0,0,1-1.41-.261,0.926,0.926,0,0,1-.466-0.543,2.1,2.1,0,0,1-.123-0.791,7.6,7.6,0,0,1,.072-1.185,4.3,4.3,0,0,1,.212-1.025,1.024,1.024,0,0,0,.05-0.32,0.652,0.652,0,0,0-.372-0.506l-0.2-.142c0.97-.072,2.014-0.124,3.113-0.124a0.186,0.186,0,0,0,.2-0.176,0.184,0.184,0,0,0,0-.041,0.546,0.546,0,0,0-.374-0.486,1.806,1.806,0,0,0-.812-0.217,4.463,4.463,0,0,0-.608.071l-0.2.035c0.127-.446.231-0.9,0.341-1.366L24.7,57.99c0.826-.035,1.691-0.075,2.593-0.075a0.189,0.189,0,0,0,.218-0.209,0.572,0.572,0,0,0-.383-0.487A1.969,1.969,0,0,0,26.3,57a4.494,4.494,0,0,0-.787.088l-0.589.129,0.046-.2a1.11,1.11,0,0,1,.188-0.454l0.1-.12a0.879,0.879,0,0,0-.526-0.581,1.326,1.326,0,0,0-.676-0.2c-0.238,0-.349.059-0.349,0.136a0.453,0.453,0,0,0,.08.245,3.182,3.182,0,0,1,.2.952l-0.026.412-1.436.27c0.02-.9.05-1.668,0.087-2.336a20.631,20.631,0,0,0,2.072-.379,0.493,0.493,0,0,0,.239-0.141A0.484,0.484,0,0,0,24.97,54.6a0.679,0.679,0,0,0-.448-0.272C24.275,54.311,24.1,54.276,24,54.276h0a0.553,0.553,0,0,0-.254.057,5.768,5.768,0,0,1-1.08.3,9.347,9.347,0,0,1,.231-1.765l0.055-.284a0.836,0.836,0,0,0-.572-0.471,1.8,1.8,0,0,0-.834-0.233c-0.193,0-.284.07-0.284,0.211a0.663,0.663,0,0,0,.162.369,2.366,2.366,0,0,1,.285.569,16.016,16.016,0,0,1,.051,1.767c-0.553.073-1.236,0.144-2.054,0.179a0.113,0.113,0,0,0-.134.125,0.378,0.378,0,0,0,.248.217,2.512,2.512,0,0,0,1.3.221,4.153,4.153,0,0,0,.64-0.062L21.7,57.814l-0.944.146a2.828,2.828,0,0,1,.02-0.684v-0.2A0.642,0.642,0,0,0,20.3,56.7a1.493,1.493,0,0,0-.668-0.188c-0.142,0-.194.055-0.194,0.127a0.337,0.337,0,0,0,.144.24c0.067,0.1.161,0.226,0.251,0.377,0.035,0.141.084,0.409,0.165,0.814l-2.109.264a0.065,0.065,0,0,0-.067.063h0v0a0.44,0.44,0,0,0,.356.247,1.585,1.585,0,0,0,.681.189,2.662,2.662,0,0,0,.593-0.13l0.619-.145,0.265,2.072-1.743.232a0.066,0.066,0,0,0-.07.061v0.012a0.461,0.461,0,0,0,.354.235,1.7,1.7,0,0,0,.689.176,2.365,2.365,0,0,0,.468-0.072l0.445-.1a2.207,2.207,0,0,1-.3,1.063,6.135,6.135,0,0,1-1.032,1.592,11.956,11.956,0,0,1-2.535,2.157c0,0.059.039,0.077,0.151,0.077a2.606,2.606,0,0,0,1.059-.322,5.8,5.8,0,0,0,1.62-1.148,10.133,10.133,0,0,0,1.7-2.5,1.4,1.4,0,0,1,.253-0.359,0.565,0.565,0,0,0,.074-0.163,0.813,0.813,0,0,0-.285-0.508l0.693-.1,0.438-.042a0.31,0.31,0,0,0,.068.235,1.086,1.086,0,0,1,.064.413v2.59a3.217,3.217,0,0,0,.213,1.424,1.78,1.78,0,0,0,.865.736,4.612,4.612,0,0,0,1.919.376,4.958,4.958,0,0,0,1.374-.2,2.153,2.153,0,0,0,1.092-.621A0.479,0.479,0,0,0,28.073,65.512Zm-6.291-5.083-0.756.106c-0.107-.866-0.2-1.564-0.233-2.108,0.378-.064.75-0.115,1.111-0.155l2-.221c-0.092.523-.2,1.214-0.345,2.03C22.952,60.231,22.359,60.332,21.782,60.429Z" transform="translate(43.147 0)"/><polygon class="cls-1" points="60.82 55.813 60.82 55.814 60.821 55.813 60.82 55.813"/><path class="cls-1" d="M41.66,63.546a0.318,0.318,0,0,0,.3-0.184,1,1,0,0,0,.112-0.451,1.11,1.11,0,0,0-.26-0.68,3.94,3.94,0,0,0-1.212-.776c-0.509-.18-0.991-0.36-1.461-0.519l-0.146-.017,0.122-.219,0.362-.466a0.182,0.182,0,0,0,.057-0.126,0.562,0.562,0,0,0-.362-0.468l0,0a1.309,1.309,0,0,0-.753-0.3c-0.146,0-.216.056-0.216,0.148L38.35,59.9a2.354,2.354,0,0,1-.231.9,5.649,5.649,0,0,1-.855,1.329A8.813,8.813,0,0,1,35.81,63.4h0.071a1.923,1.923,0,0,0,.576-0.174,3.925,3.925,0,0,0,1.6-1.043,5.7,5.7,0,0,0,.726-0.918l0.174,0.131a14.455,14.455,0,0,1,1.407,1.272,5.956,5.956,0,0,0,1.076.8A0.243,0.243,0,0,0,41.66,63.546Z" transform="translate(43.147 0)"/><path class="cls-1" d="M45.085,55.823a1.156,1.156,0,0,0-.7-0.658,3.062,3.062,0,0,0-.844-0.245,1.774,1.774,0,0,0-.417.08,8.764,8.764,0,0,1-1.811.424l-1.882.266c0.087-.574.15-1.292,0.211-2.192a1.138,1.138,0,0,1,.1-0.417,0.485,0.485,0,0,0-.356-0.446,2.541,2.541,0,0,0-.9-0.182c-0.191,0-.285.055-0.285,0.147l0.031,0.084a2.227,2.227,0,0,1,.392,1,12.811,12.811,0,0,1-.158,2.129l-2.1.252a10.606,10.606,0,0,1-1.4.1,1.417,1.417,0,0,0-.655-0.206c-0.236,0-.336.057-0.336,0.147l0.036,0.212a6.992,6.992,0,0,1,.371,2.249,34.962,34.962,0,0,1-.2,4.018,11.645,11.645,0,0,1-.5,1.971,1.125,1.125,0,0,1-.073.2,2.274,2.274,0,0,0,.2.807,0.7,0.7,0,0,0,.5.668,0.537,0.537,0,0,0,.363-0.249,2.293,2.293,0,0,0,.218-0.591c0.141-1.711.269-4.139,0.341-7.3a11.056,11.056,0,0,1,.038-1.3c1.07-.2,2.1-0.36,3.07-0.487a5.077,5.077,0,0,1-.572,1.424A9.951,9.951,0,0,1,36.22,59.56c0,0.033.012,0.05,0.073,0.05a1.866,1.866,0,0,0,.646-0.2,4.311,4.311,0,0,0,1.42-1.078,4.8,4.8,0,0,0,.5-0.9l0.126,0.094a10.832,10.832,0,0,1,1.172,1.057,4.775,4.775,0,0,0,.9.691,0.412,0.412,0,0,0,.292.063,0.377,0.377,0,0,0,.353-0.231,1.379,1.379,0,0,0,.129-0.541,0.757,0.757,0,0,0-.216-0.506,4.281,4.281,0,0,0-1.11-.551c-0.453-.147-0.884-0.259-1.313-0.359l-0.2-.042c0.075-.2.163-0.41,0.241-0.661l0.066-.275,1.423-.137c1.072-.1,1.907-0.15,2.462-0.15l0.037-.007a0.34,0.34,0,0,1,.38.294c0.146,1.762.219,3.156,0.219,4.123,0,2.3-.057,3.793-0.132,4.493-0.03.508-.137,0.745-0.3,0.745a12.109,12.109,0,0,1-1.887-.294v0.073a23.884,23.884,0,0,0,2.39,2.175,1.507,1.507,0,0,0,.89-0.751,3.341,3.341,0,0,0,.443-1.274c0-.508-0.07-1.459-0.2-2.877-0.163-1.837-.232-2.914-0.232-3.246a13.212,13.212,0,0,1,.253-3.323A1.114,1.114,0,0,0,45.085,55.823Z" transform="translate(43.147 0)"/><path class="cls-1" d="M14.024,72.615c-0.108.316-.2,0.595-0.265,0.84H13.75c-0.072-.259-0.149-0.531-0.249-0.84l-0.429-1.209H12.66l-0.178,2.5h0.311l0.066-1.07c0.022-.378.038-0.792,0.049-1.1h0.009a9.613,9.613,0,0,0,.284.969l0.4,1.186h0.25l0.439-1.209c0.13-.345.22-0.658,0.311-0.945h0.014c0,0.307.02,0.725,0.043,1.079l0.057,1.09h0.32l-0.154-2.5H14.473Z" transform="translate(43.147 0)"/><path class="cls-1" d="M16.92,71.407l-0.847,2.5h0.335l0.261-.781h0.885l0.269,0.781h0.352l-0.855-2.5h-0.4ZM16.741,72.87l0.245-.72c0.049-.15.087-0.308,0.123-0.457h0.007c0.044,0.149.069,0.294,0.132,0.459l0.24,0.718H16.741Z" transform="translate(43.147 0)"/><polygon class="cls-1" points="62.932 73.907 62.932 71.68 63.701 71.68 63.701 71.409 61.848 71.409 61.848 71.68 62.602 71.68 62.602 73.907 62.932 73.907"/><path class="cls-1" d="M22.143,73.945a0.758,0.758,0,0,0,.783-0.732,0.8,0.8,0,0,0-.635-0.738,0.547,0.547,0,0,1-.5-0.475,0.4,0.4,0,0,1,.472-0.372,0.909,0.909,0,0,1,.474.117l0.087-.264a1.148,1.148,0,0,0-.553-0.117H22.215a0.712,0.712,0,0,0-.744.678,0.791,0.791,0,0,0,.663.709,0.541,0.541,0,0,1,.467.5,0.452,0.452,0,0,1-.006.062,0.445,0.445,0,0,1-.512.366,1.166,1.166,0,0,1-.582-0.162l-0.085.25a1.211,1.211,0,0,0,.634.169A0.75,0.75,0,0,0,22.143,73.945Z" transform="translate(43.147 0)"/><path class="cls-1" d="M25.008,73.947a0.916,0.916,0,0,0,.947-1.077V71.409H25.634v1.48a0.623,0.623,0,1,1-1.2,0v-1.48H24.117v1.473A0.882,0.882,0,0,0,25.008,73.947Z" transform="translate(43.147 0)"/><path class="cls-1" d="M28.63,73.213A0.783,0.783,0,0,0,28,72.475,0.545,0.545,0,0,1,27.5,72a0.41,0.41,0,0,1,.005-0.047,0.4,0.4,0,0,1,.463-0.325,0.931,0.931,0,0,1,.47.117l0.084-.264a1.108,1.108,0,0,0-.546-0.117H27.923a0.713,0.713,0,0,0-.746.678,0.782,0.782,0,0,0,.657.709,0.544,0.544,0,0,1,.472.5,0.444,0.444,0,0,1-.524.428,1.11,1.11,0,0,1-.571-0.162l-0.087.25a1.236,1.236,0,0,0,.64.169A0.75,0.75,0,0,0,28.63,73.213Z" transform="translate(43.147 0)"/><path class="cls-1" d="M30.868,71.407H30.475l-0.845,2.5h0.335l0.258-.781h0.885l0.261,0.781h0.349ZM30.287,72.87l0.248-.72c0.048-.15.088-0.308,0.12-0.457h0.011c0.033,0.149.078,0.294,0.131,0.459l0.248,0.718H30.287Z" transform="translate(43.147 0)"/><rect class="cls-1" x="75.971" y="71.408" width="0.012" height="0.001"/><path class="cls-1" d="M33.161,72.953l0.24-.271,0.816,1.226H34.6l-0.973-1.44,0.9-1.059h-0.4l-0.769.946a3.2,3.2,0,0,0-.2.261H33.151V71.409H32.836v2.5h0.325V72.953Z" transform="translate(43.147 0)"/><path class="cls-1" d="M36.9,73.126l0.265,0.781h0.348l-0.851-2.5H36.277l-0.847,2.5h0.324l0.261-.781H36.9Zm-0.82-.256,0.244-.72c0.047-.15.087-0.308,0.125-0.457,0.041,0.149.079,0.294,0.131,0.459l0.244,0.718H36.083Z" transform="translate(43.147 0)"/><path class="cls-1" d="M40.469,73.8H40.464V72.6h-0.82v0.265h0.5v0.729a0.992,0.992,0,0,1-.426.068,0.906,0.906,0,0,1-.96-1,0.932,0.932,0,0,1,1-1.009,1.374,1.374,0,0,1,.557.1l0.076-.259a1.578,1.578,0,0,0-.623-0.11,1.25,1.25,0,0,0-1.351,1.284,1.282,1.282,0,0,0,.351.935,1.264,1.264,0,0,0,.933.326A2.52,2.52,0,0,0,40.469,73.8Z" transform="translate(43.147 0)"/><path class="cls-1" d="M42.578,73.9V72.839l0.83-1.433H43.046L42.69,72.1c-0.1.186-.186,0.35-0.256,0.513-0.08-.17-0.161-0.327-0.249-0.513l-0.356-.692H41.466l0.787,1.44V73.9h0.325Z" transform="translate(43.147 0)"/><path class="cls-1" d="M44.766,71.409H44.444v1.473a0.884,0.884,0,0,0,.892,1.065,0.915,0.915,0,0,0,.947-1.077V71.409H45.954v1.48a0.619,0.619,0,1,1-1.188,0v-1.48Z" transform="translate(43.147 0)"/><path class="cls-1" d="M20.713,78.142V77.083l0.838-1.44H21.187l-0.357.689a5.559,5.559,0,0,0-.249.518c-0.082-.172-0.157-0.328-0.257-0.518l-0.347-.689H19.6l0.788,1.44v1.059h0.324Z" transform="translate(43.147 0)"/><path class="cls-1" d="M22.62,77.35h0.887l0.273,0.788h0.345l-0.851-2.5H22.882l-0.846,2.5h0.333Zm0.31-.977a3.972,3.972,0,0,0,.13-0.449h0.013a4.687,4.687,0,0,0,.127.459L23.441,77.1H22.69Z" transform="translate(43.147 0)"/><path class="cls-1" d="M25.556,77.194l0.245-.277,0.82,1.226H27L26.027,76.7l0.9-1.061h-0.4l-0.768.934c-0.066.085-.128,0.172-0.194,0.272H25.55V75.644H25.231v2.5h0.325V77.194Z" transform="translate(43.147 0)"/><rect class="cls-1" x="71.122" y="75.644" width="0.326" height="2.5"/><path class="cls-1" d="M30.362,76.875l0.789,1.269h0.33v-2.5H31.173V76.7c0,0.386.012,0.687,0.038,1.021H31.2a6.824,6.824,0,0,0-.449-0.814l-0.8-1.263H29.6v2.5h0.306V77.077c0-.418,0-0.712-0.023-1.034H29.9A9.021,9.021,0,0,0,30.362,76.875Z" transform="translate(43.147 0)"/><rect class="cls-1" x="75.93" y="75.644" width="0.318" height="2.5"/><path class="cls-1" d="M34.728,77.189l0.242-.277,0.81,1.226h0.386L35.19,76.7,36.1,75.644H35.7l-0.763.934c-0.06.085-.127,0.172-0.194,0.272H34.731V75.644H34.4v2.493h0.327V77.189Z" transform="translate(43.147 0)"/><path class="cls-1" d="M38.05,78.178a0.915,0.915,0,0,0,.944-1.078V75.644H38.665V77.13a0.617,0.617,0,1,1-1.184,0V75.644H37.15v1.468A0.885,0.885,0,0,0,38.05,78.178Z" transform="translate(43.147 0)"/><polygon class="cls-1" points="81.762 86.177 72.605 108.946 63.957 86.177 53.057 86.177 45.829 128.777 56.837 128.777 60.402 104.253 60.515 104.253 70.288 128.777 74.699 128.777 84.927 104.253 85.048 104.253 88.148 128.777 99.224 128.777 92.779 86.177 81.762 86.177"/><path d="M77.318,124.871c-3.679-4.216-3.354-6.524-2.628-7.87a2.238,2.238,0,0,1,2.3-1.126c0.307,0.564,1.175,2.2,1.38,2.48s0.281,0.613,0,.767a14.05,14.05,0,0,0-1.15,1.073,0.641,0.641,0,0,0-.077.971A11.555,11.555,0,0,0,81.3,125.3c0.373,0.23.613,0.249,0.767,0a11.435,11.435,0,0,1,1.073-1.246A0.637,0.637,0,0,1,84.089,124c0.332,0.256,1.968,1.124,2.2,1.252a1.116,1.116,0,0,1,0,1.278,3.378,3.378,0,0,1-4.012,1.4A12.325,12.325,0,0,1,77.318,124.871Z" transform="translate(43.147 0)"/><path d="M88.922,122.4a6.548,6.548,0,0,1,.922-3.578,2.861,2.861,0,0,1,4.977-.008,7.448,7.448,0,0,1-.008,7.164,2.84,2.84,0,0,1-4.961-.008A6.514,6.514,0,0,1,88.922,122.4Zm1.375-.016a8.1,8.1,0,0,0,.547,3.164,1.675,1.675,0,0,0,1.406,1.289,1.742,1.742,0,0,0,1.555-1.3,8.249,8.249,0,0,0,.555-3.234,7.718,7.718,0,0,0-.547-3.1,1.658,1.658,0,0,0-1.406-1.242,1.753,1.753,0,0,0-1.531,1.266,7.589,7.589,0,0,0-.576,3.157h0Z" transform="translate(43.147 0)"/><path d="M99.932,127.478a2.671,2.671,0,0,1-2.141-1.008,3.53,3.53,0,0,1-.844-2.336,5.861,5.861,0,0,1,.484-2.344,6.553,6.553,0,0,1,1.3-1.977,10.64,10.64,0,0,1,3.773-2.539,0.354,0.354,0,0,1,.227.172,0.523,0.523,0,0,1,.133.25,10.038,10.038,0,0,0-2.68,1.664,5.064,5.064,0,0,0-1.523,2.523c-0.021.1-.016,0.156,0.016,0.156a0.194,0.194,0,0,0,.047-0.031,3.029,3.029,0,0,1,.789-0.375,3.116,3.116,0,0,1,1.039-.2,2.279,2.279,0,0,1,1.836.914,3.1,3.1,0,0,1,.742,1.992,2.954,2.954,0,0,1-.969,2.219A3.147,3.147,0,0,1,99.932,127.478ZM98.291,124.1a3.558,3.558,0,0,0,.523,1.93,1.521,1.521,0,0,0,1.3.836,1.545,1.545,0,0,0,1.2-.6,2.377,2.377,0,0,0,.516-1.6,2.869,2.869,0,0,0-.508-1.75,1.74,1.74,0,0,0-1.492-.687,1.594,1.594,0,0,0-.812.227,1.134,1.134,0,0,0-.5.477A3.078,3.078,0,0,0,98.291,124.1Z" transform="translate(43.147 0)"/><path d="M104.977,124.1q0-.8.188-0.8h0.016l3.766-.187h0.016q0.094,0,.094.141a2.3,2.3,0,0,1-.055.555,0.68,0.68,0,0,1-.1.258l-0.047.031-3.766.172h-0.031a0.09,0.09,0,0,1-.047-0.047A0.222,0.222,0,0,1,104.977,124.1Z" transform="translate(43.147 0)"/><path d="M113.9,127.478a2.671,2.671,0,0,1-2.141-1.008,3.53,3.53,0,0,1-.844-2.336,5.861,5.861,0,0,1,.484-2.344,6.553,6.553,0,0,1,1.3-1.977,10.64,10.64,0,0,1,3.773-2.539,0.354,0.354,0,0,1,.227.172,0.523,0.523,0,0,1,.133.25,10.038,10.038,0,0,0-2.68,1.664,5.064,5.064,0,0,0-1.523,2.523c-0.021.1-.016,0.156,0.016,0.156a0.194,0.194,0,0,0,.047-0.031,3.029,3.029,0,0,1,.789-0.375,3.116,3.116,0,0,1,1.039-.2,2.279,2.279,0,0,1,1.836.914,3.1,3.1,0,0,1,.742,1.992,2.954,2.954,0,0,1-.969,2.219A3.147,3.147,0,0,1,113.9,127.478ZM112.26,124.1a3.558,3.558,0,0,0,.523,1.93,1.521,1.521,0,0,0,1.3.836,1.545,1.545,0,0,0,1.2-.6,2.377,2.377,0,0,0,.516-1.6,2.869,2.869,0,0,0-.508-1.75,1.74,1.74,0,0,0-1.492-.687,1.594,1.594,0,0,0-.812.227,1.134,1.134,0,0,0-.5.477,3.078,3.078,0,0,0-.231,1.164Z" transform="translate(43.147 0)"/><path d="M121.236,117.353a1.969,1.969,0,0,1,1.648.781,2.82,2.82,0,0,1,.6,1.766,3.961,3.961,0,0,1-.2,1.2,5.26,5.26,0,0,1-.609,1.258q-0.415.64-.75,1.117a10.294,10.294,0,0,1-.93,1.1q-0.594.625-.82,0.859t-0.727.719a0.065,0.065,0,0,0,.031.109H122.5a0.753,0.753,0,0,0,.633-0.25,3.1,3.1,0,0,0,.4-0.953,0.224,0.224,0,0,1,.219-0.172,0.464,0.464,0,0,1,.281.063q-0.375,1.875-.422,2.188a0.271,0.271,0,0,1-.288.253h-5.149a0.209,0.209,0,0,1-.117-0.18,1.044,1.044,0,0,1-.055-0.289,23.228,23.228,0,0,0,2.922-3.57,6.074,6.074,0,0,0,1.219-3.133,1.864,1.864,0,0,0-.422-1.3,1.432,1.432,0,0,0-1.109-.461,2.352,2.352,0,0,0-2.078,1.3,0.411,0.411,0,0,1-.3-0.25,1.844,1.844,0,0,1,.258-0.508,5.656,5.656,0,0,1,.563-0.7,2.952,2.952,0,0,1,.938-0.656A2.9,2.9,0,0,1,121.236,117.353Z" transform="translate(43.147 0)"/><path d="M126,119.634a0.541,0.541,0,0,1-.187-0.18,0.415,0.415,0,0,1-.094-0.211,0.126,0.126,0,0,1,.031-0.094q2.64-1.8,2.7-1.8h0.031c0.083,0,.146.1,0.188,0.3a5.313,5.313,0,0,0-.156,1.469v6.156a5.891,5.891,0,0,0,.125,1.391,0.673,0.673,0,0,0,.461.211,3.148,3.148,0,0,0,.586.1,0.3,0.3,0,0,1,.063.281,0.54,0.54,0,0,1-.016.172q-1.563-.078-1.891-0.078-0.25,0-1.812.078a0.377,0.377,0,0,1-.062-0.258c0-.13.021-0.2,0.063-0.2a3.114,3.114,0,0,0,.633-0.1,0.676,0.676,0,0,0,.461-0.211,3.709,3.709,0,0,0,.094-0.891v-5.625a5.688,5.688,0,0,0-.031-0.687,0.822,0.822,0,0,0-.07-0.289,0.136,0.136,0,0,0-.117-0.055,0.669,0.669,0,0,0-.273.094q-0.18.094-.414,0.234Z" transform="translate(43.147 0)"/><path d="M136.035,117.306a0.16,0.16,0,0,1,.2.156v6.3H137.2q0.25,0,.25.75a0.184,0.184,0,0,1-.094.156h-1.125V127.4a1.283,1.283,0,0,1-.656.078,0.613,0.613,0,0,1-.578-0.125v-2.687h-3.951a0.806,0.806,0,0,1-.109-0.484l4.734-6.687A0.431,0.431,0,0,1,136.035,117.306ZM135,123.759V119.6q0-.141-0.078-0.141a0.046,0.046,0,0,1-.016.031l-2.844,4.078a0.063,0.063,0,0,0-.016.047,0.112,0.112,0,0,0,.109.141H135v0Z" transform="translate(43.147 0)"/><path d="M139.077,124.1q0-.8.188-0.8h0.016l3.766-.187h0.016q0.094,0,.094.141a2.3,2.3,0,0,1-.055.555,0.68,0.68,0,0,1-.1.258l-0.047.031-3.766.172h-0.031a0.09,0.09,0,0,1-.047-0.047A0.222,0.222,0,0,1,139.077,124.1Z" transform="translate(43.147 0)"/><path d="M145.8,117.649a33.648,33.648,0,0,0,3.672-.219,0.569,0.569,0,0,1,.078.328,4.406,4.406,0,0,1-.094.859,8.65,8.65,0,0,1-1.766.172l-1.359.063a0.152,0.152,0,0,0-.109.125q-0.172.86-.453,2.5a4.156,4.156,0,0,1,1.469-.2,3.052,3.052,0,0,1,2.164.859,2.7,2.7,0,0,1,.914,2.031,3.08,3.08,0,0,1-1.008,2.367,3.6,3.6,0,0,1-2.539.93,3.8,3.8,0,0,1-2.094-.469,0.525,0.525,0,0,1-.156-0.453,0.59,0.59,0,0,1,.578-0.734,0.471,0.471,0,0,1,.289.117,3.371,3.371,0,0,1,.328.3,2.64,2.64,0,0,0,.3.281,2.1,2.1,0,0,0,1.25.328,1.588,1.588,0,0,0,1.18-.555,2.423,2.423,0,0,0,.523-1.711,2.479,2.479,0,0,0-.461-1.477,1.617,1.617,0,0,0-.711-0.555,2.771,2.771,0,0,0-1.109-.2,4.6,4.6,0,0,0-1.359.172,1.144,1.144,0,0,1-.281-0.219Z" transform="translate(43.147 0)"/><path d="M152.177,119.634a0.541,0.541,0,0,1-.187-0.18,0.415,0.415,0,0,1-.094-0.211,0.126,0.126,0,0,1,.031-0.094q2.64-1.8,2.7-1.8h0.031c0.083,0,.146.1,0.188,0.3a5.313,5.313,0,0,0-.156,1.469v6.156a5.891,5.891,0,0,0,.125,1.391,0.673,0.673,0,0,0,.461.211,3.148,3.148,0,0,0,.586.1,0.3,0.3,0,0,1,.063.281,0.54,0.54,0,0,1-.016.172q-1.563-.078-1.891-0.078-0.25,0-1.812.078a0.377,0.377,0,0,1-.062-0.258c0-.13.021-0.2,0.063-0.2a3.114,3.114,0,0,0,.633-0.1,0.676,0.676,0,0,0,.461-0.211,3.709,3.709,0,0,0,.094-0.891v-5.625a5.688,5.688,0,0,0-.031-0.687,0.822,0.822,0,0,0-.07-0.289,0.136,0.136,0,0,0-.117-0.055,0.669,0.669,0,0,0-.273.094q-0.18.094-.414,0.234Z" transform="translate(43.147 0)"/><path d="M162.21,117.306a0.16,0.16,0,0,1,.2.156v6.3h0.969q0.25,0,.25.75a0.184,0.184,0,0,1-.094.156H162.41V127.4a1.283,1.283,0,0,1-.656.078,0.613,0.613,0,0,1-.578-0.125v-2.687h-3.953a0.806,0.806,0,0,1-.109-0.484l4.734-6.687A0.431,0.431,0,0,1,162.21,117.306Zm-1.031,6.453V119.6q0-.141-0.078-0.141a0.046,0.046,0,0,1-.016.031l-2.844,4.078a0.063,0.063,0,0,0-.016.047,0.112,0.112,0,0,0,.109.141h2.844v0Z" transform="translate(43.147 0)"/><path d="M165.984,117.649a33.648,33.648,0,0,0,3.672-.219,0.569,0.569,0,0,1,.078.328,4.406,4.406,0,0,1-.094.859,8.65,8.65,0,0,1-1.766.172l-1.359.063a0.152,0.152,0,0,0-.109.125q-0.172.86-.453,2.5a4.156,4.156,0,0,1,1.469-.2,3.052,3.052,0,0,1,2.164.859,2.7,2.7,0,0,1,.914,2.031,3.08,3.08,0,0,1-1.008,2.367,3.6,3.6,0,0,1-2.539.93,3.8,3.8,0,0,1-2.094-.469,0.525,0.525,0,0,1-.156-0.453,0.59,0.59,0,0,1,.578-0.734,0.471,0.471,0,0,1,.289.117,3.371,3.371,0,0,1,.328.3,2.64,2.64,0,0,0,.3.281,2.1,2.1,0,0,0,1.25.328,1.588,1.588,0,0,0,1.18-.555,2.423,2.423,0,0,0,.523-1.711,2.479,2.479,0,0,0-.461-1.477,1.617,1.617,0,0,0-.711-0.555,2.771,2.771,0,0,0-1.109-.2,4.6,4.6,0,0,0-1.359.172,1.144,1.144,0,0,1-.281-0.219Z" transform="translate(43.147 0)"/><path class="cls-2" d="M75.121,100.681a6.525,6.525,0,0,0,.4,2.971c0.352,0.571.792,0.77,1.893,0.836v0.572H71.93v-0.572c1.848-.11,2.289-0.858,2.289-3.807V91.417c0-1.187-.11-1.628-0.484-1.914a1.989,1.989,0,0,0-1.43-.33V88.6h5.259l4.819,12.41L87.267,88.6H92.3v0.572c-1.76.066-1.914,0.264-1.914,2.311V102.22c0,2,.176,2.223,1.98,2.267v0.572h-6.8v-0.572c1.782-.044,1.98-0.265,1.98-2.267V90.075L81.87,104.641H80.731l-5.61-14.39v10.43Z" transform="translate(43.147 0)"/><path d="M102.8,105.411a11.4,11.4,0,0,0,5.325-3.124,8.189,8.189,0,0,0,2.2-5.787c0-3.763-2.288-6.007-6.073-6.007a6.86,6.86,0,0,0-.88.044,3.272,3.272,0,0,1,1.012,2.354c0,1.76-1.122,4.841-2.706,7.5-1.431,2.376-2.707,3.587-3.807,3.587a1.449,1.449,0,0,1-1.188-.639,5.424,5.424,0,0,1-.506-1.452,3.79,3.79,0,0,0-.946-1.628,4.226,4.226,0,0,1-.858-2.53,7.261,7.261,0,0,1,1.848-4.4,10.928,10.928,0,0,1,8.3-3.608c4.907,0,8.4,3.1,8.4,7.459,0,3.19-1.76,5.743-4.951,7.218a16.388,16.388,0,0,1-5.083,1.32Zm-4.115-12.52a7.5,7.5,0,0,0-2.354,5.236c0,1.519.748,3.081,1.5,3.081,0.726,0,2.178-1.826,3.608-4.533a13.08,13.08,0,0,0,1.76-4.862,2.535,2.535,0,0,0-.088-0.727,2.121,2.121,0,0,0-.176-0.483,7.977,7.977,0,0,0-4.247,2.289h0Z" transform="translate(43.147 0)"/><path d="M117.648,91.439a7.528,7.528,0,0,1,.638,3.322c0,1.761-.638,2.992-1.54,2.992a1.41,1.41,0,0,1-.924-1.54c0-.462,0-0.462.7-1.254a4.521,4.521,0,0,0,.88-3.015,4.7,4.7,0,0,0-.022-0.484Zm-1.8,15.38a15.111,15.111,0,0,0,2.376-5.633c0.55-2.442.726-4.885,0.726-10.165,0-1.717-.022-2.553-0.11-4,0.66,0.044,1.21.11,1.54,0.132,1.32,0.11,1.694.221,1.694,0.462a1.023,1.023,0,0,1-.88.551c0,1.364,0,1.364-.088,5.7a12.409,12.409,0,0,0,1.21-2.706c0.418,0.286.748,0.506,0.946,0.66,0.418,0.352.7,0.55,0.726,0.594a0.323,0.323,0,0,1,.242.265c0,0.132-.154.2-0.44,0.2h-0.242c-0.308.221-.528,0.353-0.682,0.462a12.546,12.546,0,0,1-1.782,1.123,28.093,28.093,0,0,1-.44,5.038c2.31,1.145,2.992,1.761,2.992,2.707a1.74,1.74,0,0,1-1.342,1.738c-0.352,0-.484-0.242-0.616-1.1a6.018,6.018,0,0,0-1.122-2.971,14.482,14.482,0,0,1-1.276,3.3A13.042,13.042,0,0,1,116.042,107Zm12.014-7.9a13.663,13.663,0,0,1-.22,1.871,6.989,6.989,0,0,1-3.675,5.126,13.519,13.519,0,0,1-3.806,1.387l-0.11-.265c2.729-1.386,4.027-2.618,4.775-4.422a10.328,10.328,0,0,0,.7-3.7h-1.958a4.921,4.921,0,0,0-1.364.133L122.05,98.3a6.543,6.543,0,0,0,1.5.153h0.726V94.938h-0.9a5.556,5.556,0,0,0-1.276.132l-0.132-.726a5.976,5.976,0,0,0,1.408.132h0.9V93.794a21.529,21.529,0,0,0-.066-2.223c2.75,0.264,2.948.308,2.948,0.572a0.758,0.758,0,0,1-.638.418v1.914h4.532V93.508a15.817,15.817,0,0,0-.066-1.849c2.663,0.176,3.059.242,3.059,0.528,0,0.176-.153.264-0.726,0.506v1.782H133.8l1.232-1.342c0.771,0.638.99,0.836,1.694,1.474a0.3,0.3,0,0,1,.11.2c0,0.088-.088.132-0.265,0.132h-3.256V98.46h0.352l1.21-1.342c0.771,0.638.99,0.836,1.673,1.474a0.3,0.3,0,0,1,.109.2q0,0.132-.264.132h-4.753v5.348c0,0.506,0,.506,1.188.506,0.99,0,1.21-.066,1.431-0.353a18.771,18.771,0,0,0,1.43-3.807l0.22,0.022-0.153,3.1v0.132a0.567,0.567,0,0,0,.462.616,0.9,0.9,0,0,1,.594.836,1.185,1.185,0,0,1-.616,1.057,7.512,7.512,0,0,1-3.168.418,7.829,7.829,0,0,1-2.971-.265,1.181,1.181,0,0,1-.616-1.254V98.92h-1.582Zm4.532-9.087c0.793-.814.793-0.814,1.519-1.606,0.968,0.748,1.276.99,2.156,1.761a0.26,0.26,0,0,1,.088.176,0.222,0.222,0,0,1-.242.132h-5.874c0,1.738,0,1.738.021,2.641-0.021.44-.352,0.55-1.5,0.55-0.748,0-.88-0.065-0.88-0.4,0.044-1.188.044-1.188,0.065-2.795h-3.41A6.507,6.507,0,0,0,123,90.4l-0.132-.727a6.3,6.3,0,0,0,1.474.154h3.41v-1.1c0-.527-0.021-0.924-0.088-1.693a18.065,18.065,0,0,1,3.015.33,0.35,0.35,0,0,1,.286.264c0,0.176-.22.308-0.924,0.55v1.65h2.354Zm-1.342,5.1H126.52v3.521h4.532V94.932Z" transform="translate(43.147 0)"/><path d="M149.871,91.241a7.882,7.882,0,0,1-.507,1.254,25.208,25.208,0,0,1,3.609,1.32,1.992,1.992,0,0,1,1.408,1.8,1.451,1.451,0,0,1-1.057,1.518,0.958,0.958,0,0,1-.792-0.7,9.724,9.724,0,0,0-3.322-3.608,8.066,8.066,0,0,1-2.553,2.795,13.916,13.916,0,0,1-3.454,1.8l-0.11-.176a12.269,12.269,0,0,0,2.86-2.75,9.306,9.306,0,0,0,1.563-3.257h-4.8v13.378c0,0.242,0,.858.021,1.672a0.557,0.557,0,0,1-.241.616,3.281,3.281,0,0,1-1.364.2c-0.814,0-1.013-.088-1.013-0.484v-0.176c0.177-4.269.177-4.269,0.177-10.056,0-4.114-.022-4.8-0.133-7.041a25.269,25.269,0,0,1,2.772,1.431h4.687a18.212,18.212,0,0,0,.374-3.19V87.061a27.046,27.046,0,0,1,3.1.506,0.444,0.444,0,0,1,.353.33c0,0.2-.22.309-0.99,0.528A16,16,0,0,1,150,90.779h5.192l1.32-1.431c0.836,0.6,1.1.771,1.914,1.387a0.751,0.751,0,0,1,.286.439c0,0.177-.088.242-0.792,0.7v8.208c0,0.308,0,1.034.022,2.09,0.021,0.528.021,1.364,0.044,2.42a1.739,1.739,0,0,1-1.122,1.959,6.409,6.409,0,0,1-2.311.506c-0.176,0-.221-0.066-0.221-0.308a1.982,1.982,0,0,0-.241-0.881c-0.374-.638-0.793-0.813-3.015-1.32v-0.264c2.134,0.132,2.134.132,3.9,0.22H155.1a0.334,0.334,0,0,0,.4-0.4L155.46,91.232h-5.589v0.009Zm-6.821,11.684c3.124-2.134,4.444-4.114,4.95-7.481,2.663,0.507,3.19.683,3.19,0.969,0,0.2-.241.33-1.056,0.462a11.117,11.117,0,0,1-.771,1.716,15.374,15.374,0,0,1,3.829,1.387,1.662,1.662,0,0,1-.2,3.08,0.936,0.936,0,0,1-.792-0.7,11.264,11.264,0,0,0-3.036-3.433c-1.343,2.068-2.86,3.146-5.985,4.225Z" transform="translate(43.147 0)"/><path d="M169.339,96.038a7.635,7.635,0,0,0,1.3.154h1.475a17.049,17.049,0,0,1,1.21-1.32,17.64,17.64,0,0,1,1.87,1.364,0.558,0.558,0,0,1,.176.308v0.022c-0.021.2-.109,0.264-0.748,0.682v5.236a2.675,2.675,0,0,0,1.629,1.585,15.83,15.83,0,0,0,5.28.527c2.42,0,4.291-.109,8.8-0.506l0.021,0.2a2.53,2.53,0,0,0-1.475,2.046c-0.044.265-.109,0.33-0.418,0.33-3.851.11-4.532,0.11-7.019,0.11-3.146,0-4.621-.44-5.9-1.716a5.9,5.9,0,0,1-1.408-2.575,36.215,36.215,0,0,1-2.816,3.7,3.845,3.845,0,0,0-.022.462c-0.022.374-.11,0.55-0.308,0.55-0.242,0-.242,0-1.717-3.059a18.176,18.176,0,0,0,2.971-1.452V96.654h-1.606c-0.286,0-.748.044-1.145,0.088Zm0.924-8.647c3.366,1.387,4.555,2.288,4.555,3.564A2.141,2.141,0,0,1,173.123,93a0.517,0.517,0,0,1-.44-0.309,3.841,3.841,0,0,1-.352-0.924,9.744,9.744,0,0,0-2.267-4.225Zm12.454,3.234a17.941,17.941,0,0,0,1.32-3.807,32.446,32.446,0,0,1,3.146.969,0.339,0.339,0,0,1,.22.286c0,0.241-.132.285-1.034,0.418-2,1.605-2,1.605-2.75,2.134h2.53c0.571-.7.77-0.924,1.386-1.65,1.013,0.7,1.32.946,2.311,1.738a0.5,0.5,0,0,1,.154.221c0,0.109-.066.153-0.242,0.153h-5.743c-0.836.792-1.65,1.519-2.486,2.2h3.631c0.55-.55.7-0.726,1.254-1.254,0.836,0.55,1.078.727,1.826,1.3a0.659,0.659,0,0,1,.2.309,1.143,1.143,0,0,1-.7.594v2.289c0,2.508.021,4.114,0.11,6.49a0.491,0.491,0,0,1-.375.484,5.541,5.541,0,0,1-1.408.154c-0.439,0-.55-0.066-0.594-0.353v-0.638H179.3v0.572c-0.021.418-.241,0.483-1.672,0.483-0.506,0-.638-0.088-0.66-0.418,0.044-2.068.066-3.059,0.066-5.259,0-3.389-.022-4.532-0.133-5.984a21.818,21.818,0,0,1,2.619,1.231h0.968a11.2,11.2,0,0,0,.462-2.2h-4.114a12.768,12.768,0,0,0-1.343.11l-0.2-.7a12.034,12.034,0,0,0,1.54.132h2.618a0.913,0.913,0,0,1-.352-0.638,5.217,5.217,0,0,0-1.387-2.927l0.176-.154c2.53,0.837,3.5,1.475,3.5,2.377a1.65,1.65,0,0,1-.7,1.342h2.024Zm2.75,5.435V93.75H179.3v2.31h6.166Zm-6.161.463v2.552h6.161V96.522h-6.161Zm0,3.014V102.2h6.161V99.536h-6.161Z" transform="translate(43.147 0)"/><path d="M198.3,89.767a7.752,7.752,0,0,0,1.937-1.187c2.112,1.628,2.112,1.628,2.112,1.826a0.272,0.272,0,0,1-.286.22,2.274,2.274,0,0,1-.793-0.154c-1.54.44-2.067,0.572-2.97,0.771v8.229h1.276V94.85c0-.814-0.022-1.21-0.066-2.046,2.706,0.286,2.794.308,2.794,0.55,0,0.176-.176.286-0.77,0.44,0,3.388.021,3.564,0.065,6.314a0.4,0.4,0,0,1-.109.374,4.089,4.089,0,0,1-1.364.176c-0.462,0-.55-0.044-0.55-0.308V99.933H198.3v2.772c0,0.374.044,0.418,0.55,0.418,1.21,0,1.408-.022,1.584-0.2a8.808,8.808,0,0,0,1.078-2.464l0.2,0.021L201.6,102.4a1,1,0,0,0-.021.2c0,0.242.044,0.286,0.352,0.418a0.791,0.791,0,0,1,.484.748,0.989,0.989,0,0,1-.726.946,7.385,7.385,0,0,1-2.575.242c-1.693,0-2.178-.044-2.508-0.286a1.2,1.2,0,0,1-.374-1.1v-0.2c0.021-1.387.021-1.937,0.021-3.081V99.933h-1.32v1.3c0,0.44-.2.528-1.319,0.528-0.6,0-.7-0.066-0.7-0.418,0.065-2.553.065-2.641,0.065-3.477V97.4c0-.925-0.021-1.849-0.021-2.663a10.265,10.265,0,0,0-.088-1.716c0.571,0.066,1.012.11,1.3,0.132,1.21,0.088,1.474.176,1.474,0.4,0,0.176-.2.286-0.7,0.439v5.479h1.32V91.615a31.5,31.5,0,0,1-3.9.33l-0.044-.264a22.142,22.142,0,0,0,3.938-1.078V89.987a23.76,23.76,0,0,0-.153-2.86c0.682,0.088,1.21.132,1.562,0.176,1.188,0.11,1.541.2,1.541,0.44,0,0.176-.177.285-0.9,0.506v1.518H198.3Zm6.755,12.652a0.33,0.33,0,0,1-.374.352c2.222,1.1,2.706,1.387,2.706,1.606a0.408,0.408,0,0,1-.484.265c-0.153,0-.4-0.022-0.638-0.045a18.128,18.128,0,0,1-6.755,2.839l-0.11-.264a15.268,15.268,0,0,0,4.071-2.993,9.379,9.379,0,0,0,1.144-1.386,8.3,8.3,0,0,1-.99.066c-0.7,0-.836-0.089-0.836-0.484,0.066-2.486.088-4.665,0.088-7.261,0-2.619-.021-3.477-0.088-4.577a23.527,23.527,0,0,1,2.465,1.254h0.418a19.6,19.6,0,0,0,.418-2.86h-2.707a5.627,5.627,0,0,0-1.3.132l-0.154-.77a5.067,5.067,0,0,0,1.452.176h5.678c0.682-.771.88-0.99,1.54-1.716,1.012,0.792,1.342,1.034,2.332,1.848a0.45,0.45,0,0,1,.11.2c0,0.088-.088.132-0.221,0.132h-3.9a17.4,17.4,0,0,1-2.508,2.86H209.3c0.484-.572.616-0.726,1.1-1.254a18.489,18.489,0,0,1,1.584,1.188,0.438,0.438,0,0,1,.242.33,0.852,0.852,0,0,1-.594.571c0,5.105,0,5.171.021,5.7l0.066,3.873a0.475,0.475,0,0,1-.11.4,2.752,2.752,0,0,1-1.342.22c-0.771,0-.88-0.044-0.88-0.352v-0.4h-4.335v0.353Zm4.335-7.569v-2.6h-4.335v2.6h4.335Zm-4.335.462v2.795h4.335V95.312h-4.335Zm0,3.257V101.6h4.335V98.568h-4.335Zm2.42,4.379a16.475,16.475,0,0,1,4.379,1.3,1.413,1.413,0,0,1,.814,1.32c0,0.99-.484,1.738-1.078,1.738-0.265,0-.353-0.066-0.792-0.748a12.974,12.974,0,0,0-3.455-3.411Z" transform="translate(43.147 0)"/><path d="M221.233,99.427a30.7,30.7,0,0,1-4.841,3.652c-0.044.77-.11,1.012-0.33,1.012-0.242,0-.4-0.374-1.254-3.234a17.393,17.393,0,0,0,2.288-.439V93.6H216a4.719,4.719,0,0,0-1.122.132l-0.132-.771a5.681,5.681,0,0,0,1.254.177h1.1v-3a23.7,23.7,0,0,0-.132-2.86c2.992,0.286,3.3.353,3.3,0.639,0,0.176-.176.286-0.88,0.55v4.665h0.22c0.4-.683.528-0.858,0.946-1.475,0.639,0.66.748,0.792,1.32,1.475V91.417l0.022-1.87c0-.858-0.022-1.452-0.066-2.53,1.166,0.528,1.519.682,2.618,1.276h7.35c0.506-.572.66-0.748,1.166-1.254,0.748,0.527.99,0.7,1.716,1.254a0.558,0.558,0,0,1,.286.374,0.956,0.956,0,0,1-.7.594v0.616c0,0.792.022,1.738,0.066,2.729,0,0.462-.286.572-1.562,0.572-0.682,0-.771-0.044-0.792-0.418V92.32H224.19a29.532,29.532,0,0,1-1.013,8.229,11.5,11.5,0,0,1-2.794,4.664,17.088,17.088,0,0,1-1.914,1.673l-0.177-.221a14.808,14.808,0,0,0,3.169-7.106,40.006,40.006,0,0,0,.418-5.963h-2.486v6.183c0.771-.22,1.012-0.308,1.8-0.594Zm6.931-3.7c0-1.275-.022-1.694-0.088-2.706,0.616,0.066,1.122.11,1.43,0.132,1.408,0.154,1.606.2,1.606,0.44,0,0.176-.154.286-0.792,0.506v4.467h1.694V96.214c0-.748-0.022-1.21-0.088-2.134,0.638,0.065,1.056.132,1.364,0.153,1.342,0.154,1.562.221,1.562,0.44,0,0.176-.176.308-0.748,0.484,0.022,1.584.022,1.628,0.089,4.136,0,0.463-.221.551-1.431,0.551-0.638,0-.727-0.044-0.748-0.33V99.03H230.32v6.315h2.112v-2.486c0-1.167,0-1.5-.066-2.421a12.783,12.783,0,0,1,2.707.309,0.276,0.276,0,0,1,.242.241c0,0.177-.2.309-0.748,0.484,0,2.772,0,2.948.065,5.1,0,0.528-.22.639-1.43,0.639-0.616,0-.771-0.066-0.771-0.418V105.8h-6.337v0.857c0,0.44-.22.528-1.408,0.528-0.682,0-.836-0.065-0.836-0.4v-0.044c0.065-2.223.065-2.9,0.065-4.775a11.954,11.954,0,0,0-.065-1.518c0.616,0.065,1.1.132,1.408,0.153,1.3,0.11,1.628.2,1.628,0.418a0.926,0.926,0,0,1-.792.507v3.807h2.068V99.03H226.6v0.418c0,0.4-.132.44-1.187,0.44-0.572,0-.727-0.066-0.727-0.353V99.492c0.066-1.5.066-1.694,0.066-3.7,0-.792,0-1.057-0.044-1.716,0.527,0.065.924,0.109,1.21,0.132,1.188,0.132,1.408.2,1.408,0.418,0,0.154-.176.264-0.727,0.462v3.477h1.563V95.727Zm3.807-3.872v-3.1h-7.745c0,1.519-.022,2.024-0.044,3.1h7.789Z" transform="translate(43.147 0)"/><path d="M253.751,89.9c0.7-.837.924-1.078,1.672-1.893,1.145,0.836,1.475,1.1,2.553,2a0.369,0.369,0,0,1,.132.2,0.213,0.213,0,0,1-.242.154h-15.71a51.14,51.14,0,0,1-.6,9.7,12.983,12.983,0,0,1-2.046,4.885,12.078,12.078,0,0,1-1.738,2.024l-0.2-.154a18.024,18.024,0,0,0,1.65-5.368,46.889,46.889,0,0,0,.44-8.01c0-1.98-.022-3.3-0.11-5.061a26.325,26.325,0,0,1,2.816,1.519H247.3V88.4a13.355,13.355,0,0,0-.088-1.584c0.682,0.066,1.21.11,1.54,0.132,1.387,0.133,1.849.265,1.849,0.528,0,0.2-.242.33-0.858,0.528v1.9h4.007Zm-0.463,4.994c0.683-.813.9-1.056,1.585-1.848,1.078,0.836,1.408,1.1,2.442,1.958a0.493,0.493,0,0,1,.132.22,0.21,0.21,0,0,1-.22.132h-7.02v4.027h2.971c0.528-.6.7-0.771,1.254-1.343,0.88,0.572,1.122.771,1.893,1.343a0.583,0.583,0,0,1,.286.4c0,0.176-.132.265-0.792,0.594,0,3.411,0,3.7.065,6.008a0.534,0.534,0,0,1-.065.308A2.892,2.892,0,0,1,254.1,107c-0.572,0-.7-0.088-0.726-0.439V105.72h-7.812v0.836c-0.022.462-.33,0.55-1.694,0.55-0.594,0-.77-0.11-0.77-0.506,0.065-1.738.088-2.9,0.088-5.457,0-1.452-.022-1.893-0.088-3.1a29.535,29.535,0,0,1,2.64,1.343h2.047V92.869a10.908,10.908,0,0,0-.133-1.892c0.749,0.065,1.32.132,1.694,0.153,1.3,0.133,1.717.242,1.717,0.507a1.061,1.061,0,0,1-.858.55v2.706h3.082Zm-7.723,10.363h7.812V99.845h-7.812v5.412Z" transform="translate(43.147 0)"/><g id="レイヤー_1-2" data-name="レイヤー 1"><path d="M39.128,81.984h4.633l3.671,9.674,3.892-9.674H56l2.743,18.1h-4.71L52.717,89.662H52.666l-4.343,10.422H46.449L42.294,89.662H42.247l-1.512,10.422H36.051Z" transform="translate(43.147 0)"/><path d="M-34.726,95.624a9.15,9.15,0,0,0,.234,2.572,1.986,1.986,0,0,0,.816,1.058,1.012,1.012,0,0,1,.579.635c0,0.272-.432.4-1.3,0.4h-1.5l-0.368-.011c-1.937,0-2.907-.109-2.907-0.319a1.051,1.051,0,0,1,.635-0.7,1.8,1.8,0,0,0,.825-0.879,10.786,10.786,0,0,0,.334-3.286,4.893,4.893,0,0,0-.442-1.97Q-38.252,92.121-40.6,88.1a7.965,7.965,0,0,0-1.286-1.8,12.66,12.66,0,0,1-1.262-1.244q0-.583,3.651-0.586h0.365c0.892,0,1.336.165,1.336,0.494a1.043,1.043,0,0,1-.252.432,1.188,1.188,0,0,0-.252.742q0,0.691,2.068,4.631a2.159,2.159,0,0,0,.76,1.047,3.121,3.121,0,0,0,.93-1.252q1.9-3.287,1.9-4.312a1.563,1.563,0,0,0-.294-0.867,1.6,1.6,0,0,1-.291-0.568c0-.223.548-0.332,1.653-0.332,1.726,0,2.587.174,2.587,0.53a1.251,1.251,0,0,1-.712.806,4.7,4.7,0,0,0-1.253,1.227A44.462,44.462,0,0,0-33.708,91.8,8.17,8.17,0,0,0-34.726,95.624Z" transform="translate(43.147 0)"/><path d="M-22.277,99.111a1.1,1.1,0,0,1-.684.8,2.622,2.622,0,0,1-1.356.407,1.778,1.778,0,0,1-1.2-.455,1.844,1.844,0,0,0-.673-0.451,6.6,6.6,0,0,0-1.23.527,4.958,4.958,0,0,1-2.187.527,2.686,2.686,0,0,1-2.653-2.607V97.611q0-2.394,4.26-3.439a5.248,5.248,0,0,0,1.229-.4,1.254,1.254,0,0,0,.565-1.165,1.888,1.888,0,0,0-.437-1.311,1.717,1.717,0,0,0-1.348-.487,2.2,2.2,0,0,0-1.691.938,2.076,2.076,0,0,1-1.35.936,0.639,0.639,0,0,1-.714-0.554,0.639,0.639,0,0,1,0-.181,2.1,2.1,0,0,1,1.332-1.729,5.516,5.516,0,0,1,2.742-.754,4.761,4.761,0,0,1,2.159.4,3.1,3.1,0,0,1,1.2,1.108,8.971,8.971,0,0,1,.448,3.707,16.511,16.511,0,0,0,.178,3.453,0.908,0.908,0,0,0,.614.585A1.117,1.117,0,0,1-22.277,99.111Zm-3.883-3.6c0-.383-0.125-0.576-0.371-0.576l-0.055.014h-0.053a5.211,5.211,0,0,0-2.353.8,1.734,1.734,0,0,0-.968,1.6v0.332a1.409,1.409,0,0,0,.374.939,1.264,1.264,0,0,0,1,.434h0.136l0.056-.014a2.208,2.208,0,0,0,1.473-.611,1.709,1.709,0,0,0,.69-1.253,2.192,2.192,0,0,0,.046-0.388l0.01-.144,0.025-.534v-0.6h-0.01Z" transform="translate(43.147 0)"/><path d="M-9.707,93.927L-9.73,92.78a2.01,2.01,0,0,0-.932-1.911,0.854,0.854,0,0,1-.551-0.562,0.436,0.436,0,0,1,.3-0.33,6.262,6.262,0,0,1,2.829-.507h0.145a0.556,0.556,0,0,1,.585.525c0,0.015,0,.031,0,0.046v3.494a33.431,33.431,0,0,0,.16,4.551,1.572,1.572,0,0,0,.63,1.016,1.634,1.634,0,0,1,.748.66v0.12c0,0.251-.364.378-1.092,0.378H-7.09l-0.172-.01H-9.171l-0.7.01h-0.688c-0.492,0-.738-0.139-0.738-0.414a0.993,0.993,0,0,1,.612-0.615A1.635,1.635,0,0,0-9.892,98.2,10,10,0,0,0-9.707,95.9V93.928h0Zm2.517-8.344v0.275a1.278,1.278,0,0,0-.034.316,1.009,1.009,0,0,1-.357.535,1.259,1.259,0,0,1-.932.357H-8.8l-0.045-.013h-0.1a0.53,0.53,0,0,0-.136-0.022,0.953,0.953,0,0,1-.676-0.322,0.931,0.931,0,0,1-.326-0.643l-0.032-.229V85.611A1.079,1.079,0,0,1-9.7,84.733,1.415,1.415,0,0,1-8.77,84.39h0.348a1.183,1.183,0,0,1,.877.355A1.15,1.15,0,0,1-7.19,85.583Z" transform="translate(43.147 0)"/><path d="M7.661,93.927L7.636,92.78a2.006,2.006,0,0,0-.93-1.911,0.854,0.854,0,0,1-.549-0.562,0.437,0.437,0,0,1,.3-0.33,6.257,6.257,0,0,1,2.826-.507h0.15a0.55,0.55,0,0,1,.585.571v3.494a34.124,34.124,0,0,0,.162,4.551,1.58,1.58,0,0,0,.634,1.016,1.658,1.658,0,0,1,.747.66v0.12c0,0.251-.367.378-1.092,0.378H10.285l-0.174-.01H8.2l-0.7.01H6.814c-0.5,0-.739-0.139-0.739-0.414a0.984,0.984,0,0,1,.611-0.615A1.638,1.638,0,0,0,7.477,98.2,9.874,9.874,0,0,0,7.663,95.9V93.928h0Zm2.514-8.344v0.275a1.535,1.535,0,0,0-.032.316,1,1,0,0,1-.36.535,1.247,1.247,0,0,1-.929.357H8.568l-0.047-.013H8.431a0.578,0.578,0,0,0-.139-0.022,0.96,0.96,0,0,1-.678-0.322,0.924,0.924,0,0,1-.322-0.643l-0.033-.229V85.611a1.08,1.08,0,0,1,.4-0.878A1.422,1.422,0,0,1,8.6,84.39H8.95a1.184,1.184,0,0,1,.877.355,1.142,1.142,0,0,1,.35.838h0Z" transform="translate(43.147 0)"/><path d="M-11.887,98.941a7.407,7.407,0,0,1-1.418-1.313q-2.471-3-2.473-3.632A2.226,2.226,0,0,1-15,92.578a11.924,11.924,0,0,1,1.815-1.5,2.683,2.683,0,0,0,1.035-.915c0-.324-0.587-0.484-1.768-0.484a6.3,6.3,0,0,0-1.4.092,0.654,0.654,0,0,0-.587.6,3.273,3.273,0,0,1-.878,1.941,2.337,2.337,0,0,1-1.5,1.091c-0.3,0-.51-0.39-0.632-1.164a33.248,33.248,0,0,1-.183-4.333c0-2.109-.011-3.2-0.022-3.27a0.829,0.829,0,0,0-.967-0.528,4.712,4.712,0,0,0-2.308.413,0.379,0.379,0,0,0-.231.311,0.864,0.864,0,0,0,.3.487,4.817,4.817,0,0,1,.443.53,3.1,3.1,0,0,1,.3.918,46.851,46.851,0,0,1,.155,5.385q0,4.677-.133,5.461a3.592,3.592,0,0,1-.283,1.035,1.942,1.942,0,0,1-.207.355,3.292,3.292,0,0,1-.266.289,0.866,0.866,0,0,0-.519.559c0,0.275.244,0.414,0.734,0.414h0.691l0.7-.01h1.91l0.174,0.01h0.181c0.727,0,1.091-.127,1.091-0.378v-0.12a1.627,1.627,0,0,0-.746-0.66,1.13,1.13,0,0,1-.368-0.454c-0.007-.014-0.008-0.026-0.016-0.041a4.667,4.667,0,0,1-.3-1.714,2,2,0,0,1,.393-1.379l0.185-.1a2.432,2.432,0,0,1,1.488,1.2,7.219,7.219,0,0,1,1.19,2.142,2.378,2.378,0,0,0,.552,1.133,6.075,6.075,0,0,0,2.663.33c0.844,0,1.268-.147,1.268-0.45A1.894,1.894,0,0,0-11.887,98.941Z" transform="translate(43.147 0)"/><path d="M22.153,98.941a7.591,7.591,0,0,1-1.418-1.313q-2.471-3-2.472-3.632a2.209,2.209,0,0,1,.781-1.418,11.856,11.856,0,0,1,1.817-1.5,2.678,2.678,0,0,0,1.035-.915c0-.324-0.592-0.484-1.769-0.484a6.293,6.293,0,0,0-1.4.092,0.656,0.656,0,0,0-.589.6,3.249,3.249,0,0,1-.878,1.941,2.324,2.324,0,0,1-1.5,1.091c-0.3,0-.508-0.39-0.63-1.164a33.125,33.125,0,0,1-.184-4.333q0-3.164-.021-3.27a0.83,0.83,0,0,0-.966-0.528,4.724,4.724,0,0,0-2.31.413,0.38,0.38,0,0,0-.23.311,0.883,0.883,0,0,0,.3.487,4.338,4.338,0,0,1,.446.53,3.343,3.343,0,0,1,.3.918,47.459,47.459,0,0,1,.151,5.385q0,4.677-.131,5.461a3.446,3.446,0,0,1-.282,1.035A2.187,2.187,0,0,1,12,99a3.573,3.573,0,0,1-.269.289,0.871,0.871,0,0,0-.519.559c0,0.275.245,0.414,0.734,0.414h0.689l0.7-.01h1.911l0.171,0.01H15.6c0.73,0,1.094-.127,1.094-0.378v-0.12a1.65,1.65,0,0,0-.745-0.66,1.071,1.071,0,0,1-.37-0.454c-0.007-.014-0.011-0.026-0.017-0.041a4.628,4.628,0,0,1-.3-1.714,2.013,2.013,0,0,1,.39-1.379l0.187-.1a2.414,2.414,0,0,1,1.485,1.2,7.117,7.117,0,0,1,1.191,2.142,2.4,2.4,0,0,0,.55,1.133,6.118,6.118,0,0,0,2.668.33c0.845,0,1.263-.147,1.263-0.45A1.876,1.876,0,0,0,22.153,98.941Z" transform="translate(43.147 0)"/><path d="M33.15,91.794a1.653,1.653,0,0,1,.792-1.033,0.99,0.99,0,0,0,.613-0.615c0-.274-0.249-0.414-0.74-0.414H33.129l-0.7.012H30.521l-0.172-.012H30.161c-0.729,0-1.091.124-1.091,0.378v0.116a1.61,1.61,0,0,0,.749.668,1.635,1.635,0,0,1,.716.982,21.93,21.93,0,0,1,.141,3.052,7.514,7.514,0,0,1-.31,2.844,2.129,2.129,0,0,1-.857.806,2.247,2.247,0,0,1-1.007.28,2.085,2.085,0,0,1-1.948-1,8.282,8.282,0,0,1-.592-3.775V93.038c0.009-.224.015-0.561,0.015-1.009a3.249,3.249,0,0,1,.091-0.937,0.712,0.712,0,0,1,.244-0.326,0.959,0.959,0,0,0,.609-0.615c0-.274-0.249-0.414-0.739-0.414h-0.69l-0.7.012H22.886l-0.173-.012H22.528c-0.727,0-1.1.131-1.1,0.378a0.563,0.563,0,0,0,.193.339c0.149,0.148.313,0.277,0.475,0.416,0.088,0.074.181,0.147,0.273,0.219s0.312,0.281.509,0.481a4.744,4.744,0,0,1,.316.36,1.266,1.266,0,0,1,.075.124,2.872,2.872,0,0,1,.235.619,14.978,14.978,0,0,1,.2,3.149,8.255,8.255,0,0,0,.37,2.985l-0.012.009c0.032,0.056.07,0.108,0.1,0.16a0.257,0.257,0,0,0,.018.037c0.02,0.023.038,0.052,0.058,0.078a1.118,1.118,0,0,0,.1.127c0.054,0.074.113,0.141,0.171,0.209a3.193,3.193,0,0,0,2.447.963,3.983,3.983,0,0,0,1.783-.428,7.929,7.929,0,0,0,.8-0.477,1.806,1.806,0,0,1,.707-0.334,2.723,2.723,0,0,1,.11.262,1.375,1.375,0,0,0,.381.684,0.871,0.871,0,0,0,.351.11,0.9,0.9,0,0,0,.246.032h0.017c0.186,0.014.417,0.024,0.692,0.024a3.508,3.508,0,0,0,1.512-.229,1.05,1.05,0,0,0,.452-0.365,1,1,0,0,0,.087-0.406,1.487,1.487,0,0,0-.583-0.646,1.447,1.447,0,0,1-.386-0.558,20.1,20.1,0,0,1-.148-3.119,27.208,27.208,0,0,1,.084-2.731C33.094,92.052,33.121,91.911,33.15,91.794Z" transform="translate(43.147 0)"/><path d="M5.6,98.911c-0.081-.087-0.314-0.281-0.507-0.478-0.176-.178-0.319-0.359-0.319-0.359-0.025-.038-0.048-0.083-0.075-0.126a3.254,3.254,0,0,1-.238-0.622,15.243,15.243,0,0,1-.2-3.147,6.834,6.834,0,0,0-.479-3.19,2.371,2.371,0,0,0-2.14-1.13,5.824,5.824,0,0,0-2.966.911,2.917,2.917,0,0,1-.652.336,0.589,0.589,0,0,1-.408-0.519A1.416,1.416,0,0,0-2.772,89.9a2.9,2.9,0,0,0-1.3-.166,3.46,3.46,0,0,0-1.513.23,0.734,0.734,0,0,0-.425.353,1.822,1.822,0,0,0,.473.61,2.185,2.185,0,0,1,.367.933,18.882,18.882,0,0,1,.162,3.2c0,1.367-.026,2.273-0.083,2.728a3.606,3.606,0,0,1-.083.414,1.643,1.643,0,0,1-.791,1.033,0.981,0.981,0,0,0-.609.615c0,0.275.243,0.414,0.735,0.414h0.688l0.7-.01h1.912l0.173,0.01h0.182c0.729,0,1.091-.127,1.091-0.378v-0.12a1.631,1.631,0,0,0-.745-0.66,1.665,1.665,0,0,1-.718-0.984A21.529,21.529,0,0,1-2.7,95.07a7.458,7.458,0,0,1,.312-2.844,2.076,2.076,0,0,1,.856-0.8,2.232,2.232,0,0,1,1.006-.281,2.089,2.089,0,0,1,1.95,1.006,8.209,8.209,0,0,1,.591,3.773v1.048C2.012,97.2,2,97.53,2,97.972a3.238,3.238,0,0,1-.091.938,0.732,0.732,0,0,1-.239.326,0.942,0.942,0,0,0-.608.615c0,0.275.242,0.414,0.734,0.414H2.487l0.7-.01H5.094l0.175,0.01H5.452c0.725,0,1.1-.127,1.089-0.378a0.548,0.548,0,0,0-.185-0.342c-0.15-.146-0.312-0.274-0.478-0.409C5.783,99.056,5.691,98.979,5.6,98.911Z" transform="translate(43.147 0)"/><path d="M-7.892,108.468a4.341,4.341,0,0,1-.31,1.621,3.528,3.528,0,0,1-2.187,2.093,5.187,5.187,0,0,1-1.727.247h-1.31c-1.2,0-1.8-.086-1.8-0.25a0.489,0.489,0,0,1,.339-0.336,0.827,0.827,0,0,0,.434-0.582,21.259,21.259,0,0,0,.093-2.807,23.871,23.871,0,0,0-.086-2.812,0.865,0.865,0,0,0-.313-0.548,1.138,1.138,0,0,1-.452-0.376,0.288,0.288,0,0,1,.306-0.227,16.665,16.665,0,0,1,1.881-.057h0.893a5.64,5.64,0,0,1,1.877.272A3.377,3.377,0,0,1-8.2,106.667a4.444,4.444,0,0,1,.31,1.652v0.16Zm-1.478.084v-0.219a3.739,3.739,0,0,0-.712-2.348,2.28,2.28,0,0,0-1.9-.921h-0.186a1.222,1.222,0,0,0-.746.142,0.75,0.75,0,0,0-.149.548v1.3l0.007,0.19v1.131c0,1.856.016,2.853,0.054,2.993a0.806,0.806,0,0,0,.922.418h0.188a2.194,2.194,0,0,0,1.778-.824,3.051,3.051,0,0,0,.538-1.033,4.5,4.5,0,0,0,.205-1.373h0Z" transform="translate(43.147 0)"/><path d="M-2.146,109.465v0.29a2.948,2.948,0,0,1-.2,1.029,2.749,2.749,0,0,1-.581.929,2.468,2.468,0,0,1-1.853.825H-5.059a2.212,2.212,0,0,1-.966-0.217,2.514,2.514,0,0,1-1.325-1.468,2.894,2.894,0,0,1-.18-0.982v-0.288a2.964,2.964,0,0,1,.2-1.032,2.791,2.791,0,0,1,.593-0.952,2.527,2.527,0,0,1,1.91-.8h0.11a2.441,2.441,0,0,1,1.789.734,2.512,2.512,0,0,1,.583.909A2.853,2.853,0,0,1-2.146,109.465Zm-1.3.364v-0.143a3.193,3.193,0,0,0-.4-1.647,1.3,1.3,0,0,0-.455-0.477,0.984,0.984,0,0,0-.505-0.17H-4.979a1.083,1.083,0,0,0-.9.553,2.2,2.2,0,0,0-.379,1.281l-0.008.139-0.008.2v0.079l0.008,0.07v0.138a1.222,1.222,0,0,1,.005.141,2.464,2.464,0,0,0,.476,1.418,1.107,1.107,0,0,0,.939.528h0.062l0.06-.007a1.048,1.048,0,0,0,.933-0.618,3,3,0,0,0,.342-1.49h0Z" transform="translate(43.147 0)"/><path d="M0.936,111.511c0.163,0,.244.06,0.244,0.181a0.722,0.722,0,0,1-.486.5,1.97,1.97,0,0,1-.927.26,1.142,1.142,0,0,1-1.134-.7,5.384,5.384,0,0,1-.208-1.9,8.1,8.1,0,0,0-.1-1.737,0.715,0.715,0,0,0-.314-0.413,0.855,0.855,0,0,1-.414-0.324,0.225,0.225,0,0,1,.11-0.2,2.612,2.612,0,0,1,.258-0.142,0.809,0.809,0,0,0,.22-0.155,1.762,1.762,0,0,0,.209-0.4c0.1-.217.157-0.351,0.183-0.4a0.789,0.789,0,0,1,.591-0.545h0.08a0.588,0.588,0,0,1,.351.525,2.01,2.01,0,0,0,.229.611,1.2,1.2,0,0,0,.721.283c0.356,0.05.536,0.163,0.536,0.338a0.591,0.591,0,0,1-.586.387,1.04,1.04,0,0,0-.708.347,4.084,4.084,0,0,0-.18,1.56,3.782,3.782,0,0,0,.21,1.6,0.829,0.829,0,0,0,.793.366C0.786,111.526.895,111.511,0.936,111.511Z" transform="translate(43.147 0)"/><path d="M6.584,109.465v0.29a2.847,2.847,0,0,1-.2,1.029,2.735,2.735,0,0,1-.581.929,2.46,2.46,0,0,1-1.851.825H3.677a2.216,2.216,0,0,1-.971-0.217,2.5,2.5,0,0,1-1.322-1.468,2.836,2.836,0,0,1-.181-0.982v-0.288a2.943,2.943,0,0,1,.2-1.032,2.778,2.778,0,0,1,.59-0.952,2.524,2.524,0,0,1,1.911-.8H4.015a2.435,2.435,0,0,1,1.787.734,2.474,2.474,0,0,1,.583.909A2.807,2.807,0,0,1,6.584,109.465Zm-1.3.364v-0.143a3.217,3.217,0,0,0-.4-1.647,1.352,1.352,0,0,0-.455-0.477,0.991,0.991,0,0,0-.507-0.17H3.75a1.085,1.085,0,0,0-.9.553,2.174,2.174,0,0,0-.379,1.281l-0.014.139v0.354l0.008,0.138c0,0.047.005,0.094,0.005,0.141a2.463,2.463,0,0,0,.472,1.418,1.106,1.106,0,0,0,.941.528H3.947L4,111.937a1.049,1.049,0,0,0,.935-0.618,3.012,3.012,0,0,0,.342-1.49h0Z" transform="translate(43.147 0)"/><path d="M12.537,104.605a0.347,0.347,0,0,1,.251-0.287,2.387,2.387,0,0,1,1.035-.207h0.119a0.39,0.39,0,0,1,.413.338c0.02,0.081.027,0.6,0.027,1.537s0.069,1.413.2,1.413a0.908,0.908,0,0,0,.264-0.079l0.356-.153a2.328,2.328,0,0,1,.807-0.146,2.026,2.026,0,0,1,.844.193,1.913,1.913,0,0,1,.7.545,2.821,2.821,0,0,1,.623,1.826v0.152a2.864,2.864,0,0,1-.689,1.964,2.1,2.1,0,0,1-1.625.788,4.419,4.419,0,0,1-1-.156,6.042,6.042,0,0,0-.7-0.158,1.135,1.135,0,0,0-.27.066,1.139,1.139,0,0,1-.348.061c-0.243,0-.362-0.267-0.362-0.8l0.063-1.592v-0.416l-0.022-1.4a21.012,21.012,0,0,0-.082-2.517,1.009,1.009,0,0,0-.253-0.57A1.161,1.161,0,0,1,12.537,104.605Zm1.954,5.65,0.01,0.293a1.642,1.642,0,0,0,.291,1.018,0.98,0.98,0,0,0,.8.373H15.7a1.048,1.048,0,0,0,.915-0.593,2.671,2.671,0,0,0,.355-1.4v-0.268a2.535,2.535,0,0,0-.371-1.439,1.07,1.07,0,0,0-.9-0.558h-0.05l-0.054.007a0.94,0.94,0,0,0-.779.393,1.68,1.68,0,0,0-.309,1.066l-0.011.12-0.012.244v0.127l-0.006.251,0.006,0.063v0.241Z" transform="translate(43.147 0)"/><path d="M23.916,109.465v0.29a2.894,2.894,0,0,1-.2,1.029,2.82,2.82,0,0,1-.581.929,2.466,2.466,0,0,1-1.853.825H21a2.222,2.222,0,0,1-.969-0.217,2.508,2.508,0,0,1-1.327-1.468,2.944,2.944,0,0,1-.175-0.982v-0.288a2.846,2.846,0,0,1,.2-1.032,2.671,2.671,0,0,1,.591-0.952,2.518,2.518,0,0,1,1.911-.8h0.108a2.439,2.439,0,0,1,1.79.734,2.544,2.544,0,0,1,.582.909A2.858,2.858,0,0,1,23.916,109.465Zm-1.3.364v-0.143a3.179,3.179,0,0,0-.4-1.647,1.337,1.337,0,0,0-.451-0.477,1,1,0,0,0-.509-0.17H21.083a1.087,1.087,0,0,0-.9.553,2.191,2.191,0,0,0-.378,1.281l-0.013.139-0.007.2v0.079l0.007,0.07,0.005,0.138c0,0.047.007,0.094,0.007,0.141a2.471,2.471,0,0,0,.475,1.418,1.1,1.1,0,0,0,.934.528h0.064l0.06-.007a1.041,1.041,0,0,0,.93-0.618,2.971,2.971,0,0,0,.346-1.49h0Z" transform="translate(43.147 0)"/><path d="M28.861,109.224l-0.012-.578a1.01,1.01,0,0,0-.468-0.963A0.439,0.439,0,0,1,28.1,107.4a0.231,0.231,0,0,1,.154-0.169,3.147,3.147,0,0,1,1.424-.252h0.08a0.277,0.277,0,0,1,.294.259c0,0.009,0,.017,0,0.026v1.762a17.066,17.066,0,0,0,.08,2.3,0.794,0.794,0,0,0,.323.51,0.8,0.8,0,0,1,.373.336v0.055c0,0.129-.181.193-0.546,0.193h-0.1l-0.083-.006H29.138l-0.353.006H28.436c-0.245,0-.372-0.07-0.372-0.207a0.5,0.5,0,0,1,.31-0.312,0.8,0.8,0,0,0,.4-0.519,4.887,4.887,0,0,0,.1-1.158v-0.992Zm1.267-4.2v0.139a0.757,0.757,0,0,0-.013.159,0.5,0.5,0,0,1-.184.269,0.625,0.625,0,0,1-.468.182H29.32l-0.023-.01H29.252a0.287,0.287,0,0,0-.071-0.009,0.494,0.494,0,0,1-.346-0.163,0.488,0.488,0,0,1-.158-0.323l-0.016-.117v-0.113a0.565,0.565,0,0,1,.206-0.446,0.746,0.746,0,0,1,.476-0.172h0.173a0.615,0.615,0,0,1,.445.179,0.58,0.58,0,0,1,.17.425h0Z" transform="translate(43.147 0)"/><path d="M27.673,107.3a0.752,0.752,0,0,0-.529-0.183,1.187,1.187,0,0,0-.7.272c-0.061.046-.159,0.129-0.294,0.25a0.715,0.715,0,0,1-.251.178,0.308,0.308,0,0,1-.212-0.252v-0.307a0.275,0.275,0,0,0-.264-0.285H25.315a3.162,3.162,0,0,0-1.421.252,0.226,0.226,0,0,0-.152.169,0.18,0.18,0,0,0,.056.115,0.648,0.648,0,0,0,.212.256,1.079,1.079,0,0,1,.32.428,2.326,2.326,0,0,1,.1.815l0.009,0.5v1a3.465,3.465,0,0,1-.083.979,0.867,0.867,0,0,1-.361.4c-0.018.013-.032,0.025-0.049,0.039a0.415,0.415,0,0,0-.246.269,0.162,0.162,0,0,0,.043.1,0.151,0.151,0,0,0,.043.045,0.11,0.11,0,0,1,.025.014,1.272,1.272,0,0,0,.484.068l0.238-.008h0.242c0.34,0,.624-0.006.86-0.022h0.1l0.087,0.006h0.091c0.368,0,.554-0.064.554-0.193h0a0.084,0.084,0,0,0,.014-0.033,0.088,0.088,0,0,0-.029-0.042,0.451,0.451,0,0,0-.162-0.169c-0.033-.034-0.068-0.067-0.111-0.106a1.716,1.716,0,0,1-.38-0.47,0.334,0.334,0,0,1-.027-0.075,14.219,14.219,0,0,1-.085-2.049A1.947,1.947,0,0,1,25.8,108.8a1.28,1.28,0,0,1,.381-0.556,0.689,0.689,0,0,1,.407-0.172,1.4,1.4,0,0,1,.474.113,2.308,2.308,0,0,0,.331.114,0.425,0.425,0,0,0,.358-0.167,0.533,0.533,0,0,0,.13-0.334v-0.089A0.544,0.544,0,0,0,27.673,107.3Z" transform="translate(43.147 0)"/><path d="M12.475,111.718c-0.041-.042-0.159-0.139-0.253-0.239a2.005,2.005,0,0,1-.159-0.183,0.639,0.639,0,0,1-.041-0.062,1.426,1.426,0,0,1-.121-0.314,7.363,7.363,0,0,1-.1-1.594,3.457,3.457,0,0,0-.245-1.615,1.192,1.192,0,0,0-1.08-.567,2.962,2.962,0,0,0-1.5.457,1.353,1.353,0,0,1-.331.17,0.3,0.3,0,0,1-.206-0.263,0.686,0.686,0,0,0-.193-0.345,1.436,1.436,0,0,0-.658-0.083,1.741,1.741,0,0,0-.769.116,0.362,0.362,0,0,0-.213.177,0.937,0.937,0,0,0,.237.311,1.079,1.079,0,0,1,.184.469,9.375,9.375,0,0,1,.083,1.618c0,0.692-.015,1.151-0.041,1.382a1.786,1.786,0,0,1-.042.211,0.822,0.822,0,0,1-.4.519,0.514,0.514,0,0,0-.307.313c0,0.141.125,0.21,0.375,0.21H8.536c0.369,0,.555-0.065.555-0.192v-0.059a0.837,0.837,0,0,0-.38-0.338,0.827,0.827,0,0,1-.362-0.5,10.934,10.934,0,0,1-.07-1.546,3.759,3.759,0,0,1,.158-1.437,1.026,1.026,0,0,1,.434-0.408,1.125,1.125,0,0,1,.506-0.144,1.053,1.053,0,0,1,.985.511,4.142,4.142,0,0,1,.3,1.908v0.529c-0.006.114-.007,0.285-0.007,0.51a1.7,1.7,0,0,1-.046.475,0.348,0.348,0,0,1-.124.164,0.479,0.479,0,0,0-.308.313c0,0.141.125,0.21,0.374,0.21H12.4c0.367,0,.56-0.066.553-0.192a0.306,0.306,0,0,0-.1-0.171c-0.077-.073-0.155-0.144-0.236-0.212C12.57,111.794,12.525,111.758,12.475,111.718Z" transform="translate(43.147 0)"/><path class="cls-3" d="M25.824,21.211a34.57,34.57,0,0,1,6.434,5.426c1.432-4.146,2.12-8.426-.7-12.467a8.36,8.36,0,0,0-5.377-3.706A15.411,15.411,0,0,1,25.824,21.211Z" transform="translate(43.147 0)"/><path class="cls-3" d="M-11.351,21.211A15.4,15.4,0,0,1-11.7,10.464,8.343,8.343,0,0,0-17.08,14.17c-2.821,4.041-2.138,8.321-.7,12.467A34.264,34.264,0,0,1-11.351,21.211Z" transform="translate(43.147 0)"/><path class="cls-3" d="M-10.271,25.511a38.47,38.47,0,0,0,1.349,4.664,22.179,22.179,0,0,0,2.141,4.869c1.223,2.322,2.76,6.294,3.977,8.692,1.4,2.671,7.619,14.518,8.83,16.912A5.4,5.4,0,0,0,7.25,62.637a5.323,5.323,0,0,0,1.221-1.989C9.689,58.253,15.9,46.407,17.3,43.736c1.218-2.4,2.755-6.37,3.975-8.692a21.908,21.908,0,0,0,2.142-4.869,38.219,38.219,0,0,0,1.351-4.664,9.476,9.476,0,0,0-.133-2.1,31.524,31.524,0,0,0-34.78,0A9.558,9.558,0,0,0-10.271,25.511Z" transform="translate(43.147 0)"/><path class="cls-3" d="M30.716,28.653c-0.282,2.441-1.454,4.472-1.235,7.145,0.361,4.486.488,8.932,0.518,13.45,0.041,5.856.84,12.829,3.3,18.266A31.544,31.544,0,0,0,30.716,28.653Z" transform="translate(43.147 0)"/><path class="cls-3" d="M-15.5,49.248c0.032-4.519.163-8.964,0.523-13.45,0.215-2.673-.959-4.705-1.24-7.147A31.543,31.543,0,0,0-18.8,67.514C-16.339,62.077-15.539,55.105-15.5,49.248Z" transform="translate(43.147 0)"/><path class="cls-3" d="M26.211,64.423c0-1.715.32-10.135,0.32-10.955,0.064-1.922-.257-14.385-0.257-16.986,0-.959-0.128-1.24-0.509-1.435-0.771.814-1.093,1.23-2.241,3.762-2.056,4.318-4.167,8.631-6.276,12.945-2.831,5.7-4.914,12.395-8.263,17.77-0.251.41-.675,1.438-1.251,1.574a3.326,3.326,0,0,1-.965,0c-0.578-.137-1-1.164-1.25-1.574C2.17,64.149.085,57.46-2.744,51.754-4.858,47.44-6.967,43.127-9.02,38.809c-1.149-2.531-1.472-2.947-2.24-3.762-0.383.2-.512,0.476-0.512,1.435,0,2.6-.321,15.064-0.254,16.986,0,0.82.316,9.24,0.316,10.955,0,0.911-.857,6.2-1.094,9.65a31.539,31.539,0,0,0,40.112,0C27.071,70.628,26.211,65.334,26.211,64.423Z" transform="translate(43.147 0)"/><path d="M-13,123.834c-0.037-.651-0.081-1.434-0.073-2.016h-0.021c-0.168.547-.372,1.129-0.62,1.773l-0.868,2.265h-0.481l-0.8-2.224c-0.233-.658-0.43-1.261-0.569-1.814h-0.012c-0.015.582-.051,1.364-0.1,2.064l-0.131,2H-17.27l0.343-4.67h0.81l0.839,2.259c0.2,0.575.372,1.087,0.5,1.572h0.022c0.124-.471.3-0.983,0.518-1.572l0.875-2.259h0.81l0.306,4.67h-0.62Z" transform="translate(43.147 0)"/><path d="M-8.076,121.734a0.175,0.175,0,0,1-.169.1c-0.244,2-.946,3.738-2.068,3.738-0.568,0-1.082-.539-1.082-1.555a2.9,2.9,0,0,1,2.963-2.836l0.079,0c1.954,0,2.8,1.176,2.8,2.429,0,1.529-.933,2.268-2.569,2.627a2.571,2.571,0,0,0-.284-0.392c1.555-.282,2.353-1,2.353-2.216a2.027,2.027,0,0,0-2.012-2.041,2.031,2.031,0,0,0-.288.018c-0.067,0-.142.006-0.2,0.012Zm-0.649-.083a2.409,2.409,0,0,0-2.21,2.357,0.96,0.96,0,0,0,.635,1.118C-9.482,125.127-8.894,123.411-8.725,121.651Z" transform="translate(43.147 0)"/><path d="M-3.3,122.8a9.929,9.929,0,0,1-.088,1.49c0.23,0.238.838,0.919,0.98,1.092l-0.311.315a11.091,11.091,0,0,0-.764-0.957,3.7,3.7,0,0,1-.994,1.806,1.253,1.253,0,0,0-.311-0.289A4.574,4.574,0,0,0-3.712,122.8v-2.235c0.318,0.026.433,0.026,0.541,0.032a0.113,0.113,0,0,1-.128.084V122.8h0Zm-1.48.668a2.8,2.8,0,0,0,.413-1.574l0.331,0.046a2.981,2.981,0,0,1-.439,1.683Zm2.555-1.605a0.156,0.156,0,0,1-.135.051,11.24,11.24,0,0,1-.561,1.246c-0.007-.006-0.284-0.141-0.284-0.141a9.3,9.3,0,0,0,.521-1.35Zm2.406,4.066c0,0.147.027,0.174,0.21,0.174H0.973c0.162,0,.2-0.09.216-0.732a1.41,1.41,0,0,0,.378.16c-0.041.752-.155,0.938-0.547,0.938H0.337c-0.48,0-.588-0.115-0.588-0.546v-1.483H-0.96a0.124,0.124,0,0,1-.128.07,1.944,1.944,0,0,1-1.521,2.037,0.928,0.928,0,0,0-.25-0.315,1.656,1.656,0,0,0,1.345-1.792H-2.539v-0.38h0.832v-0.85H-2.539v-0.386h0.832v-0.8l0.547,0.039a0.126,0.126,0,0,1-.128.084v0.68H0.24v-0.8l0.554,0.039a0.126,0.126,0,0,1-.128.084v0.68H1.5v0.38H0.666v0.849H1.518v0.379H0.308a0.123,0.123,0,0,1-.128.07v1.42h0Zm-0.926-3.514v-0.784H-2.272V121.26h1.533v-0.694l0.568,0.032a0.125,0.125,0,0,1-.135.09v0.572H1.261v0.372H-0.307v0.784H-0.744Zm-0.541.8v0.849H0.243v-0.854H-1.285v0Z" transform="translate(43.147 0)"/><path d="M7.987,121.535v4.42c0,0.553-.2.592-1.494,0.592a1.939,1.939,0,0,0-.149-0.45c0.3,0.013.582,0.019,0.784,0.019,0.378,0,.413,0,0.413-0.166v-3.99h-2.2c-0.027.09-.061,0.18-0.1,0.264a17.573,17.573,0,0,1,1.9,1.17l-0.311.34a15.766,15.766,0,0,0-1.764-1.15,2.759,2.759,0,0,1-1.562,1.176,1.328,1.328,0,0,0-.271-0.32,2.319,2.319,0,0,0,1.623-1.479H2.955v4.574H2.5v-5H4.976a6.623,6.623,0,0,0,.128-0.95l0.6,0.045a0.154,0.154,0,0,1-.142.1,7.256,7.256,0,0,1-.115.809H7.989Zm-2.366,1.883a0.129,0.129,0,0,1-.135.084,5.093,5.093,0,0,1-.2.584,18.331,18.331,0,0,1,1.8,1.3l-0.331.322A14.112,14.112,0,0,0,5.1,124.462,2.863,2.863,0,0,1,3.47,125.7,1.234,1.234,0,0,0,3.2,125.38a2.484,2.484,0,0,0,1.845-2.018Z" transform="translate(43.147 0)"/><path d="M10.767,123.188v1.836c0.46,0.668,1.306.668,2.368,0.668,0.638,0,1.388-.017,1.848-0.045a1.34,1.34,0,0,0-.129.383c-0.408.017-1.058,0.027-1.643,0.027-1.217,0-2.025,0-2.621-.7-0.29.247-.6,0.5-0.856,0.69a0.074,0.074,0,0,1-.054.09h0l-0.23-.415a10.213,10.213,0,0,0,.934-0.685v-1.494H9.516v-0.359h1.252v0Zm-0.88-2.105a4.314,4.314,0,0,1,1.057.887l-0.312.253a4.169,4.169,0,0,0-1.039-.915Zm1.7,1.488H12.6c0.041-.158.082-0.343,0.111-0.512H11.079v-0.325h1.068a2.434,2.434,0,0,0-.426-0.651l0.308-.129a2.279,2.279,0,0,1,.466.679l-0.218.1h1.246l-0.153-.057a6.523,6.523,0,0,0,.442-0.735l0.473,0.129a0.143,0.143,0,0,1-.124.057,6.13,6.13,0,0,1-.455.606h1.176v0.325H13.116c-0.042.152-.1,0.343-0.16,0.512h1.4v2.768h-0.4v-0.2h-2v0.2H11.578V122.57h0.009Zm2.379,0.764v-0.461h-2v0.461h2Zm-2,.28v0.472h2v-0.476h-2v0Zm0,1.229h2v-0.477h-2v0.477Z" transform="translate(43.147 0)"/><path d="M16.942,125.187c0,0.19.023,0.225,0.165,0.225h0.479c0.118,0,.142-0.112.153-0.562a1.014,1.014,0,0,0,.313.135c-0.029.556-.129,0.741-0.442,0.741H17.061c-0.371,0-.472-0.106-0.472-0.545v-0.809H16.075v0.4H15.756v-2.341l0.432,0.027a0.1,0.1,0,0,1-.112.067v1.511H16.59v-2.072c-0.319.057-.649,0.107-0.963,0.146a1.261,1.261,0,0,0-.118-0.3c0.349-.045.727-0.112,1.081-0.18v-0.685l0.466,0.027a0.107,0.107,0,0,1-.111.073v0.5a5.571,5.571,0,0,0,.768-0.219l0.318,0.309a0.1,0.1,0,0,1-.064.018,0.146,0.146,0,0,1-.047-0.006,8.987,8.987,0,0,1-.975.241v2.14h0.566v-1.605l0.432,0.027a0.1,0.1,0,0,1-.113.067v2.106H17.512v-0.265H16.946v0.814Zm2.379,0.214a0.157,0.157,0,0,1-.105.045,3.721,3.721,0,0,1-1.187.719,1.531,1.531,0,0,0-.266-0.253,3.522,3.522,0,0,0,1.176-.7Zm-0.938-3.269h0.8c0.053-.18.105-0.394,0.146-0.578h-1.2v-0.337h2.9v0.337H19.741a5.46,5.46,0,0,1-.178.578h1.264v2.954H18.383v-2.954h0Zm2.067,0.888v-0.584h-1.7v0.584h1.7Zm0,0.875v-0.584h-1.7V123.9h1.7Zm0,0.888v-0.6h-1.7v0.6h1.7Zm-0.331.449a7.162,7.162,0,0,1,1.033.725c-0.035.022-.071,0.045-0.313,0.208a6.988,6.988,0,0,0-1.016-.742Z" transform="translate(43.147 0)"/><path d="M23.309,124.243l0.07,0.331c-0.578.225-1.187,0.455-1.576,0.6a0.092,0.092,0,0,1-.07.09l-0.2-.428c0.219-.066.49-0.156,0.791-0.258v-1.887H21.638v-0.359h0.686V121l0.484,0.027a0.107,0.107,0,0,1-.112.079v1.229h0.626v0.359H22.7v1.764ZM26.84,122.6H23.961v0.522a4.364,4.364,0,0,1-.856,2.959,1.306,1.306,0,0,0-.3-0.229,3.91,3.91,0,0,0,.779-2.729v-1.96h3.254V122.6h0Zm-0.384-1.1h-2.5v0.764h2.5V121.5h0Zm0.042,3.021,0.466,0.033a0.11,0.11,0,0,1-.112.073v1.511H26.5v-0.259H24.537v0.275H24.183v-1.634l0.466,0.033a0.108,0.108,0,0,1-.111.073v0.927h0.785v-1.339H24.3v-1.274l0.443,0.028a0.1,0.1,0,0,1-.113.072V123.9h0.691v-1.185l0.467,0.028a0.1,0.1,0,0,1-.112.072V123.9H26.4v-0.96l0.455,0.028a0.1,0.1,0,0,1-.112.072v1.176H25.679v1.337H26.5v-1.033Z" transform="translate(43.147 0)"/><path d="M30.712,121.693h2.326v0.359H28.474v1.123a6.277,6.277,0,0,1-.584,2.988,1.712,1.712,0,0,0-.343-0.22,5.664,5.664,0,0,0,.531-2.769v-1.482H30.3v-0.751l0.526,0.033a0.109,0.109,0,0,1-.118.079v0.64h0Zm0.313,0.522a0.108,0.108,0,0,1-.117.079v0.6h2.049v0.343H30.908v0.859h1.635v2.061h-0.4v-0.213H29.451v0.229h-0.39v-2.077h1.452v-1.909Zm1.116,3.381v-1.163H29.449V125.6h2.692Z" transform="translate(43.147 0)"/><path d="M-26.366,118.779H41.739c0.421,0,.891-0.4.219-0.4h-68.1c-0.421,0-.891.4-0.219,0.4h0Z" transform="translate(43.147 0)"/><path d="M-26.251,128.777h68.1c0.58,0,.572-0.393-0.01-0.393h-68.1c-0.58,0-.572.393,0.01,0.393h0Z" transform="translate(43.147 0)"/></g></svg>