<?xml version="1.0" encoding="utf-8"?>
<!-- Generator: Adobe Illustrator 16.2.0, SVG Export Plug-In . SVG Version: 6.00 Build 0)  -->
<!DOCTYPE svg PUBLIC "-//W3C//DTD SVG 1.1//EN" "http://www.w3.org/Graphics/SVG/1.1/DTD/svg11.dtd">
<svg version="1.1" id="レイヤー_1" xmlns="http://www.w3.org/2000/svg" xmlns:xlink="http://www.w3.org/1999/xlink" x="0px"
	 y="0px" width="595.281px" height="841.891px" viewBox="0 0 595.281 841.891" enable-background="new 0 0 595.281 841.891"
	 xml:space="preserve">
<g id="レイダx201E__x5B__x5F_1">
</g>
<g id="GUIDE">
</g>
<g>
	<g>
		<path d="M146.625,334.52L356.283,86.202V60.266H13.438v30.449h196.537L0.345,339.074v25.902h360V334.52H146.625z M313.224,90.716
			L107.41,334.52H43.369L249.212,90.716H313.224z"/>
		<polygon points="595.626,185.699 520.55,364.969 488.544,364.969 565.945,185.699 467,185.699 467,161.83 595.626,161.83 		"/>
	</g>
	<g>
		<path d="M144.968,750.392l207.279-245.51v-25.641H13.29v30.102h194.315L0.345,754.892V780.5h355.926v-30.107H144.968z
			 M309.681,509.344L106.2,750.392H42.883L246.4,509.344H309.681z"/>
		<g>
			<path d="M581.533,608.17c-10.365-5.465-22.746-8.344-35.691-8.344c-37.43,0-55.564,34.523-56.141,73.068l0.576-0.281
				c13.523-13.234,27.346-18.418,44.045-18.418c38.867,0,60.445,27.326,60.445,63.301c0,41.426-27.91,66.455-64.48,66.455
				c-56.137,0-67.645-50.637-67.645-96.379c0-54.371,17.846-111.34,81.469-111.34c13.811,0,34.254,3.162,41.445,6.33L581.533,608.17
				z M530.576,677.789c-23.889,0-37.424,17.84-37.424,40.277c0,18.988,11.803,42.293,35.402,42.293
				c24.189,0,35.711-20.713,35.711-42.293C564.265,699.367,553.322,677.789,530.576,677.789"/>
		</g>
	</g>
</g>
</svg>
